<svg width="144" height="180" viewBox="0 0 144 180" fill="none" xmlns="http://www.w3.org/2000/svg">
<g clip-path="url(#clip0_175_9896)">
<g clip-path="url(#clip1_175_9896)">
<path d="M59.7285 93.161L64.4723 101.581C69.3202 100.301 68.6628 100.473 73.5107 99.1934L73.3488 89.5634C76.6259 87.6987 77.3741 87.272 80.6512 85.4072L89.0289 90.3598C92.5785 86.86 92.0962 87.3355 95.6458 83.8356L90.6228 75.5754C92.5141 72.3442 92.9468 71.6065 94.8381 68.3753L104.605 68.5349C105.903 63.755 105.728 64.4031 107.026 59.6232L98.4868 54.9458C98.4868 51.2147 98.4868 50.3629 98.4868 46.6318L107.026 41.9545C105.728 37.1745 105.903 37.8227 104.605 33.0427L94.8381 33.2023C92.9468 29.9712 92.5141 29.2334 90.6228 26.0023L95.6458 17.742C92.0962 14.2421 92.5785 14.7177 89.0289 11.2178L80.6512 16.1704C77.3741 14.3057 76.6259 13.879 73.3488 12.0142L73.5107 2.38427C68.6628 1.10745 69.3202 1.28008 64.4723 -1.8601e-06L59.7285 8.41988C55.9443 8.41988 55.0804 8.41988 51.2963 8.41988L46.5541 -2.64333e-06C41.7062 1.28008 42.3636 1.10745 37.5157 2.38753L37.6776 12.0175C34.4005 13.8822 33.6523 14.3089 30.3752 16.1737L21.9975 11.2211C18.4479 14.7209 18.9302 14.2454 15.3806 17.7453L20.4036 26.0055C18.5123 29.2367 18.0796 29.9744 16.1883 33.2056L6.42151 33.046C5.12324 37.8259 5.29833 37.1778 4.00005 41.9577L12.5396 46.6351C12.5396 50.3662 12.5396 51.218 12.5396 54.9491L4.00005 59.6264C5.29833 64.4064 5.12323 63.7582 6.42151 68.5382L16.1883 68.3786C18.0796 71.6097 18.5123 72.3475 20.4036 75.5786L15.3806 83.8389C18.9302 87.3388 18.4479 86.8632 21.9975 90.3631L30.3752 85.4105C33.6523 87.2752 34.4005 87.7019 37.6776 89.5667L37.5157 99.1966C42.3636 100.477 41.7062 100.304 46.5541 101.584L51.2979 93.1643C55.0821 93.161 55.946 93.161 59.7285 93.161ZM28.7895 50.7913C28.7895 36.2397 40.7532 24.4421 55.5132 24.4421C70.2716 24.4421 82.2369 36.2381 82.2369 50.7913C82.2369 65.3428 70.2733 77.1404 55.5132 77.1404C40.7548 77.1388 28.7895 65.3428 28.7895 50.7913Z" fill="#1B437A"/>
<path d="M51.4914 176.436C55.6723 176.436 55.3541 176.436 59.535 176.436L61.1747 170.924C63.9768 170.022 64.9509 169.708 67.753 168.806L72.3498 172.31C75.7325 169.876 75.4743 170.061 78.857 167.626L76.9131 162.212C78.6449 159.851 79.2477 159.03 80.9795 156.668L86.7778 156.827C88.07 152.889 87.971 153.189 89.2632 149.248L84.478 146.001C84.478 143.082 84.478 142.066 84.478 139.148L89.2632 135.9C87.971 131.961 88.07 132.261 86.7778 128.321L80.9795 128.48C79.2477 126.119 78.6449 125.298 76.9131 122.936L78.857 117.522C75.4743 115.088 75.7325 115.273 72.3498 112.838L67.753 116.343C64.9509 115.442 63.9768 115.128 61.1747 114.225L59.535 108.713C55.3541 108.713 55.6723 108.713 51.4914 108.713L49.8517 114.225C47.0495 115.126 46.0755 115.44 43.2733 116.343L38.6766 112.838C35.2939 115.273 35.552 115.088 32.1694 117.522L34.1133 122.936C32.3815 125.298 31.7786 126.119 30.0468 128.48L24.2486 128.321C22.9563 132.26 23.0554 131.96 21.7632 135.9L26.5483 139.148C26.5483 142.066 26.5483 143.082 26.5483 146.001L21.7632 149.248C23.0554 153.187 22.9563 152.887 24.2486 156.827L30.0468 156.668C31.7786 159.03 32.3815 159.851 34.1133 162.212L32.1694 167.626C35.552 170.061 35.2939 169.876 38.6765 172.31L43.2733 168.806C46.0755 169.707 47.0495 170.021 49.8517 170.924L51.4914 176.436ZM33.9723 142.574C33.9724 130.788 43.6166 121.233 55.5132 121.233C67.4098 121.233 77.054 130.788 77.054 142.574C77.054 154.36 67.4098 163.914 55.5132 163.914C43.6166 163.916 33.9723 154.361 33.9723 142.574Z" fill="#104056"/>
<path d="M116.532 130.483L119.737 135.446C123.757 133.774 122.842 134.155 126.862 132.485L125.63 126.702C127.639 124.686 128.274 124.049 130.284 122.033L136.048 123.269C137.714 119.234 137.334 120.154 139 116.121L134.053 112.905C134.053 110.054 134.053 109.154 134.053 106.303L139 103.087C137.334 99.0537 137.714 99.9723 136.05 95.9391L130.285 97.1747C128.276 95.1589 127.641 94.5218 125.632 92.506L126.863 86.7225C122.843 85.051 123.759 85.4323 119.739 83.7624L116.534 88.7254C113.692 88.7254 112.794 88.7254 109.953 88.7254L106.748 83.7624C102.728 85.4339 103.643 85.0526 99.6235 86.7225L100.855 92.506C98.8458 94.5218 98.2109 95.1589 96.2017 97.1747L90.4372 95.9391C88.7712 99.9723 89.1512 99.0537 87.4868 103.087L92.4336 106.303C92.4336 109.154 92.4336 110.054 92.4336 112.905L87.4868 116.121C89.1528 120.154 88.7728 119.236 90.4372 123.269L96.2017 122.033C98.2109 124.049 98.8458 124.686 100.855 126.702L99.6235 132.485C103.643 134.157 102.728 133.776 106.748 135.446L109.953 130.483C112.794 130.483 113.691 130.483 116.532 130.483ZM102.048 109.604C102.048 103.401 107.06 98.3716 113.243 98.3716C119.426 98.3716 124.439 103.401 124.439 109.604C124.439 115.807 119.426 120.836 113.243 120.836C107.06 120.835 102.048 115.807 102.048 109.604Z" fill="#7AB841"/>
</g>
</g>
<defs>
<clipPath id="clip0_175_9896">
<rect width="144" height="180" fill="white"/>
</clipPath>
<clipPath id="clip1_175_9896">
<rect width="180" height="135" fill="white" transform="translate(139) rotate(90)"/>
</clipPath>
</defs>
</svg>
