<svg width="160" height="202" viewBox="0 0 160 202" fill="none" xmlns="http://www.w3.org/2000/svg">
<path d="M33.5 189.5C43.3333 189 63 184.8 63 172C63 156 32 162.5 43 172C54 181.5 75 173.5 78.5 164.5C82 155.5 74 137 63 136.5" stroke="#C9D5E4" stroke-linecap="round" stroke-dasharray="5 5"/>
<path d="M40.9996 110C25.833 99.9997 2.47386 72.8793 36.4996 64.9998C83.9994 54 75.4995 126.5 33.9994 78.5C8.966 49.5461 55.9994 22.4998 88.9994 39.9998C115.399 53.9998 134.666 44.1665 140.999 37.4998" stroke="#C9D5E4" stroke-linecap="round" stroke-dasharray="5 5"/>
<path d="M24.5818 174.007C24.3846 173.998 23.6154 173.998 23.4182 174.007C17.3633 174.283 12.3735 179.057 12.0184 184.897C11.7916 188.661 13.685 191.081 16.1306 194.321C17.1858 195.721 21.5248 200.371 22.5307 201.352C22.9448 201.752 23.4773 201.981 24 202C24.5227 201.981 25.0453 201.752 25.4693 201.352C26.4752 200.38 30.8142 195.721 31.8694 194.321C34.315 191.081 36.2084 188.661 35.9816 184.897C35.6265 179.057 30.6367 174.283 24.5818 174.007ZM24 190.386C21.2585 190.386 19.0299 188.242 19.0299 185.583C19.0299 182.935 21.2487 180.781 24 180.781C26.7415 180.781 28.9701 182.925 28.9701 185.583C28.9701 188.242 26.7415 190.386 24 190.386Z" fill="#104056"/>
<path fill-rule="evenodd" clip-rule="evenodd" d="M59.9451 140.971V88.1113C59.9451 87.1554 59.1888 86.3644 58.2175 86.3644H41.2555C37.8245 86.3644 34.4677 87.5865 31.9301 89.9238C25.982 95.3987 22.0431 103.061 21.2832 111.655H15.6668C7.64085 111.655 1.1348 118.235 1.1348 126.351V139.217C1.1348 140.182 1.91515 140.971 2.86975 140.971H59.9451Z" fill="#18CDF1"/>
<path fill-rule="evenodd" clip-rule="evenodd" d="M59.0624 140.971H137.704C140.627 140.971 143 138.574 143 135.616V77.3549C143 74.3973 140.627 72 137.704 72H64.0226C61.283 72 59.0624 74.2454 59.0624 77.0157V140.971Z" fill="#2D93FF"/>
<path fill-rule="evenodd" clip-rule="evenodd" d="M88.3849 102.73H93.6335V102.417C93.6335 101.347 93.3045 100.475 92.6628 99.8173C92.0211 99.1592 91.182 98.8301 90.1619 98.8301C89.2076 98.8301 88.4014 99.1592 87.7597 99.8173C87.118 100.459 86.8054 101.298 86.8054 102.285C86.8054 103.256 87.1345 104.062 87.7762 104.704C88.4178 105.346 89.257 105.675 90.2771 105.675C90.9352 105.675 91.5111 105.56 91.9882 105.329C92.4653 105.082 92.8767 104.737 93.2222 104.243L91.8401 103.602C91.3959 104.029 90.8694 104.243 90.2606 104.243C89.7506 104.243 89.3228 104.112 88.9937 103.832C88.6646 103.569 88.4672 103.19 88.3849 102.73ZM91.983 101.43C91.9848 101.435 91.9866 101.441 91.9883 101.446V101.43H91.983ZM91.3466 100.558C91.6707 100.785 91.8671 101.075 91.983 101.43H88.4509C88.6319 101.035 88.8293 100.755 89.0432 100.591C89.3887 100.344 89.7836 100.212 90.2443 100.212C90.6556 100.212 91.034 100.328 91.3466 100.558Z" fill="white"/>
<path fill-rule="evenodd" clip-rule="evenodd" d="M99.2438 99.2908C98.7009 98.9782 98.125 98.8301 97.5162 98.8301C96.6607 98.8301 95.9038 99.1263 95.2621 99.7022C94.5217 100.393 94.1433 101.232 94.1433 102.252C94.1433 103.207 94.4724 104.013 95.1305 104.671C95.7886 105.346 96.5784 105.675 97.5162 105.675C98.1579 105.675 98.7338 105.527 99.2603 105.23C99.7868 104.934 100.198 104.507 100.511 103.98C100.823 103.437 100.971 102.861 100.971 102.252C100.971 101.644 100.823 101.068 100.511 100.541C100.198 100.015 99.7868 99.6034 99.2438 99.2908ZM96.2656 100.887C96.5947 100.541 97.0224 100.36 97.5325 100.36C98.059 100.36 98.4868 100.541 98.8159 100.887C99.1449 101.232 99.3095 101.693 99.3095 102.252C99.3095 102.812 99.1449 103.272 98.7994 103.618C98.4539 103.963 98.0261 104.144 97.516 104.144C97.006 104.144 96.5782 103.963 96.2491 103.618C95.9201 103.256 95.7555 102.795 95.7555 102.236C95.7555 101.693 95.9201 101.232 96.2656 100.887Z" fill="white"/>
<path d="M106.879 97.629L105.645 98.7314C105.217 98.1226 104.773 97.8264 104.312 97.8264C104.098 97.8264 103.917 97.8922 103.769 98.0074C103.621 98.1226 103.555 98.2542 103.555 98.4023C103.555 98.5504 103.605 98.682 103.703 98.8136C103.835 98.9946 104.246 99.373 104.937 99.9489C105.579 100.475 105.957 100.821 106.106 100.953C106.451 101.298 106.681 101.627 106.829 101.94C106.978 102.252 107.043 102.598 107.043 102.96C107.043 103.684 106.797 104.276 106.287 104.753C105.793 105.23 105.135 105.461 104.329 105.461C103.703 105.461 103.16 105.313 102.683 105C102.223 104.687 101.828 104.21 101.482 103.552L102.897 102.697C103.325 103.47 103.802 103.865 104.361 103.865C104.641 103.865 104.888 103.783 105.085 103.618C105.283 103.453 105.382 103.256 105.382 103.042C105.382 102.845 105.316 102.647 105.168 102.45C105.02 102.252 104.691 101.94 104.197 101.528C103.243 100.739 102.617 100.146 102.338 99.7186C102.058 99.2908 101.926 98.863 101.926 98.4517C101.926 97.8429 102.157 97.3164 102.617 96.8886C103.078 96.4444 103.654 96.2305 104.345 96.2305C104.789 96.2305 105.201 96.3292 105.595 96.5431C105.99 96.7076 106.418 97.086 106.879 97.629Z" fill="white"/>
<path fill-rule="evenodd" clip-rule="evenodd" d="M114.612 98.715H113V99.4225C112.704 99.1263 112.391 98.9124 112.045 98.7644C111.7 98.6163 111.338 98.5505 110.943 98.5505C110.088 98.5505 109.364 98.8795 108.771 99.5212C108.179 100.163 107.883 100.986 107.883 101.989C107.883 102.96 108.195 103.766 108.804 104.424C109.429 105.066 110.153 105.395 110.992 105.395C111.354 105.395 111.716 105.329 112.029 105.198C112.342 105.066 112.671 104.836 112.983 104.539V105.231H114.612V98.715ZM110.005 100.607C110.334 100.245 110.746 100.064 111.256 100.064C111.782 100.064 112.21 100.229 112.556 100.574C112.901 100.936 113.066 101.397 113.066 101.956C113.066 102.532 112.901 102.993 112.556 103.355C112.21 103.717 111.782 103.898 111.272 103.898C110.779 103.898 110.367 103.717 110.022 103.355C109.676 102.993 109.512 102.532 109.512 101.973C109.512 101.43 109.676 100.969 110.005 100.607Z" fill="white"/>
<path d="M115.204 98.7148H115.78C115.78 97.8592 115.796 97.3492 115.829 97.2011C115.878 96.8391 116.027 96.5594 116.273 96.3455C116.537 96.1316 116.899 96.0329 117.359 96.0329C117.705 96.0329 118.083 96.1152 118.511 96.2632V97.5137C118.281 97.4479 118.083 97.415 117.935 97.415C117.738 97.415 117.606 97.4479 117.524 97.5301C117.458 97.596 117.425 97.7111 117.425 97.9086V98.7148H118.462V100.097H117.425V105.23H115.796V100.097H115.22V98.7148H115.204Z" fill="white"/>
<path fill-rule="evenodd" clip-rule="evenodd" d="M120.387 102.45H125.636V102.137C125.636 101.068 125.307 100.196 124.665 99.5377C124.023 98.8795 123.184 98.5505 122.164 98.5505C121.21 98.5505 120.404 98.8795 119.762 99.5377C119.12 100.179 118.808 101.018 118.808 102.006C118.808 102.976 119.137 103.783 119.778 104.424C120.42 105.066 121.259 105.395 122.279 105.395C122.937 105.395 123.513 105.28 123.99 105.05C124.468 104.803 124.879 104.457 125.224 103.964L123.842 103.322C123.398 103.75 122.872 103.964 122.263 103.964C121.753 103.964 121.325 103.832 120.996 103.552C120.667 103.289 120.469 102.911 120.387 102.45ZM124.002 101.15C124.004 101.156 124.005 101.161 124.007 101.167V101.15H124.002ZM123.366 100.278C123.69 100.505 123.886 100.796 124.002 101.15H120.47C120.651 100.755 120.848 100.476 121.062 100.311C121.408 100.064 121.802 99.9328 122.263 99.9328C122.674 99.9328 123.053 100.048 123.366 100.278Z" fill="white"/>
<path fill-rule="evenodd" clip-rule="evenodd" d="M85.5223 97.6784L84.3377 98.8466C83.5973 98.0569 82.7252 97.662 81.7216 97.662C80.8496 97.662 80.1256 97.9417 79.5498 98.5176C78.9575 99.0934 78.6777 99.7845 78.6777 100.607C78.6777 101.463 78.9739 102.17 79.5827 102.763C80.1914 103.355 80.9318 103.651 81.8203 103.651C82.3962 103.651 82.8898 103.536 83.2847 103.289C83.6795 103.042 84.0086 102.664 84.2389 102.154H81.7216V100.591H86.1475L86.164 100.953C86.164 101.446 86.0817 101.907 85.9336 102.368C85.8349 102.631 85.7197 102.894 85.5717 103.141C84.2719 105.346 82.5278 107.764 81.1293 110.002C80.0105 107.748 78.8587 105.115 77.6247 102.96C77.2134 102.236 76.9995 101.446 76.9995 100.591C76.9995 99.4225 77.3779 98.4188 78.1512 97.5468C79.0726 96.5267 80.2573 96.0167 81.7216 96.0167C82.4949 96.0167 83.2024 96.1647 83.877 96.4444C84.4364 96.6748 84.9958 97.0861 85.5223 97.6784Z" fill="white"/>
<path fill-rule="evenodd" clip-rule="evenodd" d="M82.8236 102.549L81.1782 101.018L80.3391 98.9617L81.9844 100.492L82.8236 102.549Z" fill="#F58220"/>
<path fill-rule="evenodd" clip-rule="evenodd" d="M81.9844 100.492L80.3391 98.9617L81.606 100.772L81.9844 100.492Z" fill="#C2671B"/>
<path fill-rule="evenodd" clip-rule="evenodd" d="M81.1782 101.018L82.8235 102.548L81.606 100.771L81.1782 101.018Z" fill="#C2671B"/>
<path fill-rule="evenodd" clip-rule="evenodd" d="M79.6812 101.874L81.3429 100.327L83.4819 99.6526L81.8036 101.183L79.6812 101.874Z" fill="#F58220"/>
<path fill-rule="evenodd" clip-rule="evenodd" d="M81.803 101.183L83.4812 99.6526L81.5562 100.771L81.803 101.183Z" fill="#C2671B"/>
<path fill-rule="evenodd" clip-rule="evenodd" d="M81.3429 100.327L79.6812 101.874L81.5568 100.772L81.3429 100.327Z" fill="#C2671B"/>
<path fill-rule="evenodd" clip-rule="evenodd" d="M80.7668 103.832L80.8985 100.558L82.3793 97.6782L82.2476 100.952L80.7668 103.832Z" fill="#F58220"/>
<path fill-rule="evenodd" clip-rule="evenodd" d="M82.2471 100.952L82.3787 97.6782L81.5725 100.788L82.2471 100.952Z" fill="#C2671B"/>
<path fill-rule="evenodd" clip-rule="evenodd" d="M80.8982 100.557L80.7666 103.832L81.5728 100.788L80.8982 100.557Z" fill="#C2671B"/>
<path fill-rule="evenodd" clip-rule="evenodd" d="M84.7328 101.331L81.4256 101.446L78.4312 100.196L81.7218 100.064L84.7328 101.331Z" fill="#F58220"/>
<path fill-rule="evenodd" clip-rule="evenodd" d="M81.7218 100.064L78.4312 100.196L81.6231 100.755L81.7218 100.064Z" fill="#C2671B"/>
<path fill-rule="evenodd" clip-rule="evenodd" d="M81.4419 101.446L84.7325 101.331L81.6229 100.755L81.4419 101.446Z" fill="#C2671B"/>
<path fill-rule="evenodd" clip-rule="evenodd" d="M77.9534 105.51L81.063 100.311L85.1928 96L82.0996 101.199L77.9534 105.51Z" fill="#0F2050"/>
<path fill-rule="evenodd" clip-rule="evenodd" d="M82.0999 101.199L85.1932 96L81.5405 100.821L82.0999 101.199Z" fill="#7AB841"/>
<path fill-rule="evenodd" clip-rule="evenodd" d="M81.0466 100.327L77.9534 105.51L81.5402 100.821L81.0466 100.327Z" fill="#7AB841"/>
<path fill-rule="evenodd" clip-rule="evenodd" d="M81.7047 100.048C82.0996 100.114 82.3464 100.492 82.2806 100.887C82.2147 101.282 81.8363 101.528 81.4414 101.463C81.0466 101.397 80.7998 101.018 80.8656 100.624C80.9478 100.229 81.3098 99.9819 81.7047 100.048ZM81.6713 100.245C81.3916 100.196 81.1118 100.377 81.0625 100.657C81.0131 100.936 81.1941 101.216 81.4738 101.265C81.7535 101.315 82.0332 101.134 82.0826 100.854C82.1484 100.574 81.951 100.295 81.6713 100.245Z" fill="white"/>
<circle cx="81.5732" cy="100.757" r="0.526529" transform="rotate(-28.2538 81.5732 100.757)" fill="white"/>
<path d="M86.6736 107.616L86.5255 107.731C86.4432 107.616 86.3445 107.534 86.2293 107.484C86.1142 107.435 85.9825 107.402 85.8509 107.402C85.7028 107.402 85.5548 107.435 85.4231 107.517C85.2915 107.599 85.1928 107.682 85.127 107.813C85.0612 107.928 85.0282 108.077 85.0282 108.225C85.0282 108.455 85.1105 108.652 85.275 108.8C85.4396 108.949 85.637 109.031 85.8838 109.031C86.1471 109.031 86.3774 108.932 86.5584 108.718L86.7065 108.833C86.6078 108.949 86.4926 109.047 86.3445 109.113C86.1964 109.179 86.0484 109.212 85.8674 109.212C85.5383 109.212 85.275 109.097 85.0776 108.883C84.9131 108.702 84.8308 108.471 84.8308 108.208C84.8308 107.928 84.9295 107.698 85.127 107.501C85.3244 107.303 85.5712 107.221 85.8674 107.221C86.0484 107.221 86.2129 107.254 86.3445 107.32C86.4597 107.385 86.5749 107.484 86.6736 107.616Z" fill="white"/>
<path fill-rule="evenodd" clip-rule="evenodd" d="M88.2365 107.945C88.0885 107.797 87.9075 107.715 87.6936 107.715C87.4632 107.715 87.2987 107.797 87.1835 107.945C87.0519 108.093 86.9861 108.258 86.9861 108.455C86.9861 108.653 87.0519 108.817 87.1835 108.965C87.3151 109.113 87.4961 109.179 87.71 109.179C87.9239 109.179 88.1049 109.113 88.2365 108.965C88.3682 108.817 88.434 108.653 88.434 108.455C88.434 108.258 88.3682 108.093 88.2365 107.945ZM87.299 108.06C87.4141 107.945 87.5458 107.896 87.6938 107.896C87.8419 107.896 87.9736 107.961 88.0887 108.06C88.2039 108.175 88.2533 108.307 88.2533 108.471C88.2533 108.57 88.2204 108.669 88.171 108.751C88.1216 108.833 88.0558 108.899 87.9736 108.949C87.8913 108.998 87.7926 109.014 87.6938 109.014C87.5951 109.014 87.4964 108.998 87.4141 108.949C87.3374 108.903 87.2893 108.842 87.2298 108.768C87.2255 108.762 87.2212 108.757 87.2167 108.751C87.1509 108.669 87.1344 108.57 87.1344 108.471C87.1344 108.307 87.1838 108.175 87.299 108.06Z" fill="white"/>
<path d="M88.7634 107.764H88.9444V108.011C89.0102 107.928 89.076 107.863 89.1419 107.813C89.2406 107.764 89.3228 107.731 89.438 107.731C89.5038 107.731 89.5696 107.747 89.6355 107.764C89.7013 107.797 89.7506 107.83 89.7835 107.863C89.8164 107.912 89.8493 107.978 89.8822 108.06C89.9481 107.945 90.0139 107.863 90.1126 107.813C90.2113 107.764 90.2936 107.731 90.4088 107.731C90.5075 107.731 90.5897 107.747 90.672 107.797C90.7543 107.846 90.8036 107.912 90.8365 108.011C90.8694 108.093 90.8859 108.225 90.8859 108.406V109.179H90.7049V108.406C90.7049 108.257 90.6885 108.159 90.672 108.093C90.6556 108.044 90.6062 107.994 90.5568 107.961C90.5075 107.928 90.4417 107.912 90.3758 107.912C90.2936 107.912 90.2113 107.945 90.129 107.994C90.0632 108.044 89.9974 108.109 89.9645 108.208C89.9316 108.29 89.9152 108.438 89.9152 108.636V109.195H89.7342V108.471C89.7342 108.307 89.7177 108.192 89.7013 108.126C89.6848 108.06 89.6355 108.011 89.5861 107.978C89.5367 107.945 89.4709 107.928 89.4051 107.928C89.3228 107.928 89.2406 107.961 89.1748 108.011C89.1089 108.06 89.0431 108.126 89.0102 108.208C88.9773 108.29 88.9609 108.422 88.9609 108.603V109.195H88.7799V107.764H88.7634Z" fill="white"/>
<path fill-rule="evenodd" clip-rule="evenodd" d="M91.4285 107.764H91.2476V109.706H91.4285V108.949C91.4944 109.048 91.5766 109.113 91.6753 109.163C91.7741 109.212 91.8728 109.229 91.988 109.229C92.1854 109.229 92.3499 109.163 92.498 109.015C92.6461 108.867 92.7119 108.702 92.7119 108.488C92.7119 108.274 92.6296 108.11 92.498 107.962C92.3664 107.814 92.1854 107.748 91.988 107.748C91.8728 107.748 91.7741 107.764 91.6753 107.814C91.5766 107.863 91.4944 107.929 91.4285 108.027V107.764ZM91.5764 108.06C91.6751 107.945 91.8067 107.896 91.9713 107.896C92.07 107.896 92.1687 107.929 92.2345 107.978C92.3168 108.027 92.3826 108.11 92.432 108.192C92.4813 108.274 92.5142 108.373 92.5142 108.472C92.5142 108.57 92.4813 108.653 92.432 108.751C92.3826 108.85 92.3168 108.916 92.2345 108.965C92.1358 109.015 92.0535 109.047 91.9548 109.047C91.8561 109.047 91.7574 109.015 91.6751 108.965C91.5928 108.916 91.527 108.85 91.4777 108.768C91.4283 108.669 91.4118 108.587 91.4118 108.472C91.4118 108.307 91.4612 108.175 91.5764 108.06Z" fill="white"/>
<path d="M93.0242 107.221H93.2052V109.179H93.0242V107.221Z" fill="white"/>
<path fill-rule="evenodd" clip-rule="evenodd" d="M94.9167 108.784L94.7686 108.702L94.7686 108.702C94.7192 108.784 94.6699 108.867 94.6205 108.899C94.6137 108.904 94.6067 108.909 94.5993 108.914C94.5531 108.945 94.4963 108.984 94.4395 108.998C94.3737 109.015 94.2915 109.031 94.2257 109.031C94.0776 109.031 93.9624 108.965 93.8472 108.867C93.7321 108.768 93.6827 108.636 93.6827 108.472H94.9496C94.9496 108.291 94.9002 108.126 94.8015 107.995C94.6534 107.814 94.4725 107.715 94.2257 107.715C93.9953 107.715 93.7979 107.797 93.6662 107.978C93.5511 108.11 93.5017 108.274 93.5017 108.455C93.5017 108.636 93.5675 108.817 93.6991 108.965C93.8308 109.113 94.0118 109.196 94.2421 109.196C94.3408 109.196 94.4395 109.179 94.5218 109.146C94.6041 109.113 94.6699 109.08 94.7357 109.015C94.8015 108.965 94.8673 108.883 94.9167 108.784ZM94.6697 108.093C94.7026 108.142 94.752 108.225 94.7684 108.323H93.7154C93.7483 108.192 93.8141 108.093 93.8799 108.027C93.9787 107.945 94.1103 107.896 94.2419 107.896C94.3406 107.896 94.4064 107.912 94.4887 107.945C94.5066 107.958 94.5245 107.971 94.542 107.982C94.5891 108.015 94.6337 108.045 94.6697 108.093Z" fill="white"/>
<path d="M95.4594 107.238H95.6404V107.764H95.9201V107.929H95.6404V109.179H95.4594V107.929H95.2126V107.764H95.4594V107.238Z" fill="white"/>
<path fill-rule="evenodd" clip-rule="evenodd" d="M97.5495 108.784L97.4014 108.702C97.3703 108.741 97.3429 108.78 97.3192 108.813C97.2926 108.851 97.2707 108.882 97.2533 108.899C97.2466 108.904 97.2395 108.909 97.2321 108.914C97.1859 108.945 97.1291 108.984 97.0724 108.998C97.0065 109.015 96.9243 109.031 96.8585 109.031C96.7104 109.031 96.5952 108.965 96.48 108.867C96.3649 108.768 96.3155 108.636 96.3155 108.472H97.5824C97.5824 108.291 97.533 108.126 97.4343 107.995C97.2862 107.814 97.1053 107.715 96.8585 107.715C96.6281 107.715 96.4307 107.797 96.2991 107.978C96.1839 108.11 96.1345 108.274 96.1345 108.455C96.1345 108.636 96.2003 108.817 96.332 108.965C96.4636 109.113 96.6446 109.196 96.8749 109.196C96.9736 109.196 97.0724 109.179 97.1546 109.146C97.2369 109.113 97.3027 109.08 97.3685 109.015C97.4343 108.965 97.5001 108.883 97.5495 108.784ZM97.3027 108.093C97.3356 108.142 97.3849 108.225 97.4014 108.323H96.3484C96.3813 108.192 96.4471 108.093 96.5129 108.027C96.6116 107.945 96.7433 107.896 96.8749 107.896C96.9736 107.896 97.0394 107.912 97.1217 107.945C97.1396 107.958 97.1574 107.97 97.175 107.982C97.222 108.015 97.2667 108.045 97.3027 108.093Z" fill="white"/>
<path d="M100.527 107.583L100.379 107.731C100.281 107.633 100.149 107.55 100.034 107.501C99.9187 107.452 99.7871 107.419 99.6719 107.419C99.5238 107.419 99.3757 107.452 99.2441 107.534C99.1125 107.6 98.9973 107.715 98.9315 107.83C98.8657 107.945 98.8163 108.093 98.8163 108.225C98.8163 108.373 98.8492 108.505 98.9315 108.636C99.0138 108.768 99.1125 108.867 99.2441 108.932C99.3757 108.998 99.5238 109.048 99.6884 109.048C99.8858 109.048 100.05 108.998 100.182 108.883C100.314 108.768 100.396 108.636 100.429 108.455H99.82V108.274H100.643C100.643 108.571 100.56 108.801 100.379 108.982C100.198 109.163 99.9681 109.245 99.6884 109.245C99.3428 109.245 99.0631 109.13 98.8492 108.883C98.6847 108.702 98.6189 108.488 98.6189 108.241C98.6189 108.06 98.6683 107.896 98.7505 107.731C98.8492 107.583 98.9644 107.452 99.1289 107.369C99.2935 107.287 99.458 107.238 99.6719 107.238C99.8364 107.238 99.9845 107.271 100.133 107.32C100.264 107.353 100.396 107.452 100.527 107.583Z" fill="white"/>
<path fill-rule="evenodd" clip-rule="evenodd" d="M101.383 107.271H101.005V109.179H101.202V108.291H101.334C101.564 108.291 101.729 108.274 101.811 108.258C101.926 108.225 102.025 108.175 102.091 108.093C102.156 108.011 102.189 107.912 102.189 107.781C102.189 107.649 102.156 107.55 102.091 107.468C102.025 107.386 101.942 107.336 101.827 107.303C101.745 107.287 101.597 107.271 101.383 107.271ZM101.202 108.093V107.452V107.435H101.547C101.679 107.435 101.778 107.452 101.827 107.468C101.876 107.484 101.926 107.534 101.959 107.583C101.992 107.649 102.008 107.698 102.008 107.764C102.008 107.83 101.992 107.896 101.959 107.945C101.926 107.994 101.86 108.044 101.811 108.06C101.761 108.077 101.663 108.093 101.531 108.093H101.202Z" fill="white"/>
<path d="M102.386 108.817L102.551 108.718C102.666 108.932 102.798 109.031 102.946 109.031C103.012 109.031 103.078 109.014 103.127 108.981C103.176 108.949 103.226 108.916 103.258 108.866C103.291 108.817 103.308 108.768 103.308 108.702C103.308 108.636 103.291 108.57 103.242 108.521C103.176 108.438 103.078 108.34 102.913 108.208C102.748 108.093 102.65 107.994 102.617 107.945C102.551 107.863 102.518 107.764 102.518 107.649C102.518 107.566 102.535 107.484 102.584 107.418C102.617 107.353 102.683 107.303 102.748 107.254C102.814 107.221 102.897 107.188 102.979 107.188C103.061 107.188 103.16 107.205 103.226 107.254C103.308 107.303 103.39 107.385 103.472 107.501L103.324 107.616C103.258 107.517 103.193 107.451 103.143 107.435C103.094 107.402 103.045 107.385 102.979 107.385C102.897 107.385 102.847 107.402 102.798 107.451C102.748 107.501 102.732 107.55 102.732 107.616C102.732 107.665 102.748 107.698 102.765 107.731C102.781 107.764 102.814 107.813 102.864 107.863C102.897 107.879 102.979 107.945 103.11 108.06C103.275 108.175 103.39 108.29 103.456 108.389C103.522 108.488 103.555 108.587 103.555 108.669C103.555 108.8 103.505 108.932 103.39 109.031C103.291 109.13 103.16 109.179 103.012 109.179C102.897 109.179 102.798 109.146 102.699 109.08C102.6 109.014 102.469 108.965 102.386 108.817Z" fill="white"/>
<path d="M104.443 107.451V107.271H105.479V107.451H105.052V109.163H104.854V107.451H104.443Z" fill="white"/>
<path d="M105.579 107.764H105.76V107.978C105.809 107.895 105.875 107.83 105.941 107.797C106.007 107.764 106.072 107.731 106.138 107.731C106.188 107.731 106.237 107.747 106.303 107.78L106.204 107.928C106.171 107.912 106.138 107.912 106.105 107.912C106.04 107.912 105.99 107.945 105.924 107.994C105.875 108.044 105.826 108.126 105.793 108.225C105.776 108.307 105.76 108.471 105.76 108.718V109.195H105.579V107.764Z" fill="white"/>
<path fill-rule="evenodd" clip-rule="evenodd" d="M107.668 109.179H107.849V107.764V107.748H107.652V108.011C107.586 107.912 107.503 107.846 107.405 107.797C107.306 107.748 107.207 107.731 107.092 107.731C106.895 107.731 106.73 107.797 106.582 107.945C106.434 108.093 106.368 108.274 106.368 108.471C106.368 108.685 106.434 108.85 106.582 108.998C106.73 109.146 106.895 109.212 107.092 109.212C107.207 109.212 107.306 109.195 107.405 109.146C107.503 109.097 107.586 109.031 107.668 108.932V109.179ZM106.845 107.978C106.927 107.929 107.026 107.896 107.125 107.896C107.289 107.896 107.421 107.945 107.503 108.061C107.618 108.176 107.668 108.307 107.668 108.472C107.668 108.587 107.651 108.686 107.602 108.768C107.569 108.85 107.487 108.916 107.405 108.966C107.322 109.015 107.224 109.048 107.125 109.048C107.026 109.048 106.927 109.015 106.845 108.966C106.763 108.916 106.697 108.834 106.648 108.752C106.598 108.669 106.565 108.571 106.565 108.472C106.565 108.373 106.598 108.291 106.648 108.192C106.697 108.094 106.763 108.028 106.845 107.978Z" fill="white"/>
<path d="M109.626 108.044L109.478 108.126C109.346 107.962 109.182 107.879 108.968 107.879C108.803 107.879 108.655 107.929 108.54 108.044C108.425 108.159 108.375 108.291 108.375 108.439C108.375 108.538 108.408 108.636 108.458 108.735C108.507 108.834 108.589 108.899 108.672 108.949C108.754 108.998 108.869 109.031 108.984 109.031C109.198 109.031 109.363 108.949 109.494 108.784L109.642 108.883C109.577 108.982 109.478 109.064 109.379 109.113C109.28 109.163 109.132 109.196 108.984 109.196C108.754 109.196 108.573 109.13 108.425 108.982C108.277 108.834 108.211 108.669 108.211 108.472C108.211 108.34 108.244 108.208 108.31 108.093C108.375 107.978 108.474 107.879 108.589 107.814C108.705 107.748 108.836 107.715 108.984 107.715C109.083 107.715 109.165 107.731 109.247 107.764C109.33 107.797 109.412 107.83 109.461 107.879C109.544 107.929 109.593 107.978 109.626 108.044Z" fill="white"/>
<path d="M109.971 107.221H110.152V108.34L110.811 107.764H111.074L110.301 108.438L111.123 109.179H110.86L110.152 108.537V109.179H109.971V107.221Z" fill="white"/>
<path fill-rule="evenodd" clip-rule="evenodd" d="M111.468 107.221C111.452 107.188 111.419 107.172 111.37 107.172C111.337 107.172 111.304 107.188 111.271 107.221C111.238 107.238 111.222 107.271 111.222 107.32C111.222 107.353 111.238 107.386 111.271 107.419C111.287 107.452 111.337 107.468 111.37 107.468C111.403 107.468 111.436 107.452 111.468 107.419C111.501 107.402 111.518 107.353 111.518 107.32C111.518 107.298 111.503 107.276 111.489 107.254C111.481 107.243 111.474 107.232 111.468 107.221ZM111.469 107.764H111.288V109.179H111.469V107.764Z" fill="white"/>
<path d="M111.846 107.764H112.027V108.011C112.093 107.912 112.176 107.846 112.274 107.797C112.373 107.747 112.455 107.731 112.554 107.731C112.653 107.731 112.751 107.764 112.834 107.813C112.916 107.863 112.982 107.945 113.015 108.027C113.048 108.126 113.08 108.257 113.08 108.455V109.179H112.899V108.504C112.899 108.34 112.899 108.241 112.883 108.175C112.867 108.076 112.817 108.011 112.768 107.961C112.702 107.912 112.636 107.895 112.537 107.895C112.422 107.895 112.324 107.928 112.241 108.011C112.159 108.076 112.093 108.175 112.077 108.274C112.06 108.34 112.044 108.471 112.044 108.652V109.162H111.863V107.764H111.846Z" fill="white"/>
<path fill-rule="evenodd" clip-rule="evenodd" d="M114.859 107.764H114.678V107.995C114.595 107.896 114.513 107.83 114.414 107.781C114.316 107.731 114.217 107.715 114.118 107.715C113.987 107.715 113.871 107.748 113.756 107.814C113.641 107.879 113.559 107.962 113.493 108.077C113.427 108.192 113.394 108.307 113.394 108.439C113.394 108.57 113.427 108.686 113.493 108.801C113.559 108.916 113.641 108.998 113.756 109.064C113.871 109.13 113.987 109.163 114.118 109.163C114.233 109.163 114.332 109.146 114.431 109.097C114.53 109.048 114.612 108.982 114.678 108.899V108.965C114.678 109.13 114.661 109.245 114.628 109.311C114.595 109.393 114.53 109.442 114.447 109.492C114.365 109.541 114.266 109.558 114.135 109.558C114.02 109.558 113.904 109.541 113.822 109.492C113.723 109.442 113.658 109.377 113.608 109.278H113.411C113.46 109.377 113.526 109.475 113.575 109.525C113.625 109.574 113.707 109.623 113.806 109.656C113.904 109.689 114.02 109.706 114.135 109.706C114.299 109.706 114.447 109.673 114.562 109.607C114.678 109.541 114.76 109.442 114.809 109.311C114.842 109.229 114.859 109.08 114.859 108.883V107.764ZM113.855 107.978C113.937 107.928 114.035 107.896 114.134 107.896C114.233 107.896 114.299 107.928 114.381 107.978C114.463 108.027 114.529 108.093 114.578 108.175C114.628 108.257 114.644 108.356 114.644 108.455C114.644 108.619 114.595 108.751 114.496 108.85C114.397 108.949 114.266 108.998 114.101 108.998C113.937 108.998 113.805 108.949 113.706 108.85C113.608 108.751 113.558 108.619 113.558 108.471C113.558 108.373 113.591 108.274 113.641 108.192C113.69 108.093 113.772 108.027 113.855 107.978Z" fill="white"/>
<path d="M115.812 108.817L115.977 108.718C116.092 108.932 116.223 109.031 116.371 109.031C116.437 109.031 116.503 109.014 116.552 108.981C116.602 108.949 116.651 108.916 116.684 108.866C116.717 108.817 116.733 108.768 116.733 108.702C116.733 108.636 116.717 108.57 116.668 108.521C116.602 108.438 116.503 108.34 116.339 108.208C116.174 108.093 116.075 107.994 116.042 107.945C115.977 107.863 115.944 107.764 115.944 107.649C115.944 107.566 115.96 107.484 116.009 107.418C116.042 107.353 116.108 107.303 116.174 107.254C116.24 107.221 116.322 107.188 116.404 107.188C116.487 107.188 116.585 107.205 116.651 107.254C116.733 107.303 116.816 107.385 116.898 107.501L116.75 107.616C116.684 107.517 116.618 107.451 116.569 107.435C116.52 107.402 116.47 107.385 116.404 107.385C116.322 107.385 116.273 107.402 116.223 107.451C116.174 107.501 116.158 107.55 116.158 107.616C116.158 107.665 116.174 107.698 116.19 107.731C116.207 107.764 116.24 107.813 116.289 107.863C116.322 107.879 116.404 107.945 116.536 108.06C116.7 108.175 116.816 108.29 116.881 108.389C116.947 108.488 116.98 108.587 116.98 108.669C116.98 108.8 116.931 108.932 116.816 109.031C116.717 109.13 116.585 109.179 116.437 109.179C116.322 109.179 116.223 109.146 116.125 109.08C115.977 109.064 115.894 108.965 115.812 108.817Z" fill="white"/>
<path fill-rule="evenodd" clip-rule="evenodd" d="M118.511 107.945C118.363 107.797 118.182 107.715 117.968 107.715C117.754 107.715 117.573 107.797 117.458 107.945C117.326 108.093 117.26 108.258 117.26 108.455C117.26 108.653 117.326 108.817 117.458 108.965C117.59 109.113 117.771 109.179 117.984 109.179C118.198 109.179 118.379 109.113 118.511 108.965C118.643 108.817 118.708 108.653 118.708 108.455C118.708 108.258 118.643 108.093 118.511 107.945ZM117.573 108.06C117.688 107.945 117.82 107.896 117.968 107.896C118.116 107.896 118.248 107.945 118.363 108.06C118.478 108.175 118.528 108.307 118.528 108.471C118.528 108.57 118.495 108.669 118.445 108.751C118.396 108.833 118.33 108.899 118.248 108.949C118.166 108.998 118.067 109.014 117.968 109.014C117.869 109.014 117.771 108.998 117.688 108.949C117.606 108.899 117.54 108.833 117.491 108.751C117.425 108.669 117.409 108.57 117.409 108.471C117.409 108.307 117.458 108.175 117.573 108.06Z" fill="white"/>
<path d="M119.004 107.221H119.185V109.179H119.004V107.221V107.221Z" fill="white"/>
<path d="M119.547 107.764H119.728V108.422C119.728 108.587 119.744 108.686 119.761 108.751C119.793 108.834 119.843 108.899 119.909 108.949C119.974 108.998 120.073 109.031 120.172 109.031C120.271 109.031 120.353 109.015 120.435 108.965C120.501 108.916 120.55 108.85 120.583 108.768C120.6 108.718 120.616 108.603 120.616 108.422V107.764H120.797V108.455C120.797 108.653 120.781 108.801 120.731 108.899C120.682 108.998 120.616 109.08 120.534 109.13C120.435 109.179 120.336 109.212 120.188 109.212C120.057 109.212 119.942 109.179 119.843 109.13C119.744 109.08 119.678 108.998 119.629 108.899C119.58 108.801 119.563 108.653 119.563 108.455V107.764H119.547Z" fill="white"/>
<path d="M121.34 107.238H121.521V107.764H121.801V107.929H121.521V109.179H121.34V107.929H121.094V107.764H121.34V107.238Z" fill="white"/>
<path fill-rule="evenodd" clip-rule="evenodd" d="M122.246 107.221C122.229 107.188 122.196 107.172 122.147 107.172C122.114 107.172 122.096 107.186 122.077 107.201C122.068 107.208 122.059 107.216 122.048 107.221C122.015 107.238 121.999 107.271 121.999 107.32C121.999 107.353 122.015 107.386 122.048 107.419C122.065 107.452 122.114 107.468 122.147 107.468C122.18 107.468 122.213 107.452 122.246 107.419C122.278 107.402 122.295 107.353 122.295 107.32C122.295 107.298 122.28 107.276 122.266 107.254C122.258 107.243 122.251 107.232 122.246 107.221ZM122.23 107.764H122.049V109.179H122.23V107.764Z" fill="white"/>
<path fill-rule="evenodd" clip-rule="evenodd" d="M123.809 107.945C123.661 107.797 123.48 107.715 123.266 107.715C123.052 107.715 122.871 107.797 122.756 107.945C122.624 108.093 122.558 108.258 122.558 108.455C122.558 108.653 122.624 108.817 122.756 108.965C122.887 109.113 123.068 109.179 123.282 109.179C123.496 109.179 123.677 109.113 123.809 108.965C123.94 108.817 124.006 108.653 124.006 108.455C124.006 108.258 123.94 108.093 123.809 107.945ZM122.871 108.06C122.986 107.945 123.118 107.896 123.266 107.896C123.431 107.896 123.546 107.945 123.661 108.06C123.776 108.175 123.826 108.307 123.826 108.471C123.826 108.57 123.793 108.669 123.743 108.751C123.694 108.833 123.628 108.899 123.546 108.949C123.464 108.998 123.365 109.014 123.266 109.014C123.167 109.014 123.069 108.998 122.986 108.949C122.904 108.899 122.838 108.833 122.789 108.751C122.723 108.669 122.707 108.57 122.707 108.471C122.707 108.307 122.756 108.175 122.871 108.06Z" fill="white"/>
<path d="M124.335 107.764H124.516V108.011C124.582 107.912 124.664 107.846 124.763 107.797C124.861 107.748 124.944 107.731 125.042 107.731C125.141 107.731 125.24 107.764 125.322 107.813C125.404 107.863 125.47 107.945 125.503 108.027C125.536 108.126 125.569 108.258 125.569 108.455V109.179H125.388V108.504C125.388 108.34 125.388 108.241 125.372 108.175C125.355 108.077 125.306 108.011 125.256 107.961C125.191 107.912 125.125 107.896 125.026 107.896C124.911 107.896 124.812 107.929 124.73 108.011C124.648 108.077 124.582 108.175 124.565 108.274C124.549 108.34 124.532 108.471 124.532 108.652V109.163H124.351V107.764H124.335Z" fill="white"/>
<path fill-rule="evenodd" clip-rule="evenodd" d="M102.843 148.075C102.843 156.316 109.451 163 117.603 163C125.755 163 132.363 156.316 132.363 148.075C132.363 139.832 125.755 133.15 117.603 133.15C109.451 133.15 102.843 139.832 102.843 148.075Z" fill="#1B437A"/>
<path fill-rule="evenodd" clip-rule="evenodd" d="M102.843 148.075C102.843 156.316 109.451 163 117.603 163C125.755 163 132.363 156.316 132.363 148.075C132.363 139.832 125.755 133.15 117.603 133.15C109.451 133.15 102.843 139.832 102.843 148.075Z" stroke="white" stroke-width="1.29424"/>
<path fill-rule="evenodd" clip-rule="evenodd" d="M25.0129 148.075C25.0129 156.316 31.6209 163 39.7729 163C47.925 163 54.533 156.316 54.533 148.075C54.533 139.832 47.925 133.15 39.7729 133.15C31.6209 133.15 25.0129 139.832 25.0129 148.075Z" fill="#1B437A"/>
<path fill-rule="evenodd" clip-rule="evenodd" d="M25.0129 148.075C25.0129 156.316 31.6209 163 39.7729 163C47.925 163 54.533 156.316 54.533 148.075C54.533 139.832 47.925 133.15 39.7729 133.15C31.6209 133.15 25.0129 139.832 25.0129 148.075Z" stroke="white" stroke-width="1.29424"/>
<path fill-rule="evenodd" clip-rule="evenodd" d="M109.59 148.075C109.59 152.549 113.177 156.176 117.601 156.176C122.025 156.176 125.614 152.549 125.614 148.075C125.614 143.601 122.025 139.973 117.601 139.973C113.177 139.973 109.59 143.601 109.59 148.075Z" fill="#24B0ED"/>
<path fill-rule="evenodd" clip-rule="evenodd" d="M31.7615 148.075C31.7615 152.549 35.3481 156.176 39.7726 156.176C44.1971 156.176 47.7856 152.549 47.7856 148.075C47.7856 143.601 44.1971 139.973 39.7726 139.973C35.3481 139.973 31.7615 143.601 31.7615 148.075Z" fill="#24B0ED"/>
<path fill-rule="evenodd" clip-rule="evenodd" d="M55.3679 90.989V111.71H26.1945C26.1945 111.71 28.7431 91.2121 40.3725 90.989C40.9267 90.9778 41.9795 90.959 41.9795 90.959L55.3679 90.989Z" fill="white"/>
<path fill-rule="evenodd" clip-rule="evenodd" d="M1.27873 134.211H8.10175C8.80796 134.211 9.38257 133.632 9.38257 132.918V130.38C9.38257 129.666 8.80796 129.087 8.10175 129.087H1.27873C0.572521 129.087 -0.00023365 129.666 -0.00023365 130.38V132.918C-0.00023365 133.632 0.572521 134.211 1.27873 134.211Z" fill="white"/>
<path d="M143.348 0.0112293C143.061 -0.00374309 141.939 -0.00374309 141.652 0.0112293C132.821 0.445427 125.545 7.94657 125.027 17.1246C124.696 23.0387 127.457 26.8417 131.024 31.9323C132.563 34.1332 138.89 41.4397 140.357 42.9819C140.961 43.6107 141.738 43.9701 142.5 44C143.262 43.9701 144.024 43.6107 144.643 42.9819C146.11 41.4547 152.437 34.1332 153.976 31.9323C157.543 26.8417 160.304 23.0387 159.973 17.1246C159.455 7.94657 152.179 0.445427 143.348 0.0112293ZM142.5 25.7487C138.502 25.7487 135.252 22.3799 135.252 18.2026C135.252 14.0403 138.488 10.6566 142.5 10.6566C146.498 10.6566 149.748 14.0254 149.748 18.2026C149.748 22.3799 146.498 25.7487 142.5 25.7487Z" fill="#7AB841"/>
</svg>
