<svg width="169" height="195" viewBox="0 0 169 195" fill="none" xmlns="http://www.w3.org/2000/svg">
<path d="M40.8317 132.201C52.1709 127.789 74.3857 111.165 72.5314 79.9582C70.2135 40.9502 111.624 34.8447 122.453 51.8332" stroke="black" stroke-dasharray="5 5"/>
<path d="M77.4998 139.078H4.4939V194.795H77.4998V139.078Z" fill="#1B437A"/>
<path d="M82.0052 128.265H0V140.57H82.0052V128.265Z" fill="#204A84"/>
<path d="M76.8321 139.235H40.6681V194.951H76.8321V139.235Z" fill="#204A84"/>
<path d="M82.0048 128.265H41.3359V140.57H82.0048V128.265Z" fill="#1B437A"/>
<path d="M40.4915 159.444L37.4152 154.115L34.339 148.797L31.2628 154.115L28.1865 159.444H31.5756V179.486H37.1024V159.444H40.4915Z" fill="white"/>
<path d="M53.8079 159.444L50.7316 154.115L47.6554 148.797L44.5792 154.115L41.5029 159.444H44.892V179.486H50.4292V159.444H53.8079Z" fill="white"/>
<path d="M53.8079 180.853H28.1865V185.077H53.8079V180.853Z" fill="white"/>
<path d="M72.9754 57.3542C60.3147 57.3542 50.0547 67.6211 50.0547 80.2749C50.0547 92.9355 60.3147 103.196 72.9754 103.196C85.636 103.196 95.896 92.9286 95.896 80.2749C95.9029 67.6211 85.636 57.3542 72.9754 57.3542ZM72.9754 97.1558C63.6563 97.1558 56.1014 89.6009 56.1014 80.2818C56.1014 70.9627 63.6563 63.4078 72.9754 63.4078C82.2945 63.4078 89.8493 70.9627 89.8493 80.2818C89.8493 89.6009 82.2945 97.1558 72.9754 97.1558Z" fill="#7AB841"/>
<path d="M72.9755 98.7053C62.7985 98.7053 54.5518 90.4516 54.5518 80.2816C54.5518 70.1046 62.7985 61.8578 72.9755 61.8578C83.1524 61.8578 91.3992 70.1046 91.3992 80.2816C91.4061 90.4585 83.1524 98.7053 72.9755 98.7053Z" fill="white"/>
<path d="M73.5289 60.8757H72.4288V64.833H73.5289V60.8757Z" fill="#7AB841"/>
<path d="M73.5291 95.1631H72.4291V99.1204H73.5291V95.1631Z" fill="#7AB841"/>
<path d="M86.3723 87.133L85.8212 88.085L89.2462 90.0676L89.7973 89.1156L86.3723 87.133Z" fill="#7AB841"/>
<path d="M56.7085 69.9175L56.157 70.8693L59.5868 72.8569L60.1384 71.9052L56.7085 69.9175Z" fill="#7AB841"/>
<path d="M81.1717 92.7642L80.2253 93.3251L82.2432 96.7296L83.1895 96.1687L81.1717 92.7642Z" fill="#7AB841"/>
<path d="M63.7211 63.2576L62.7744 63.8178L64.7899 67.2235L65.7366 66.6632L63.7211 63.2576Z" fill="#7AB841"/>
<path d="M92.098 79.4521H88.1406V80.5521H92.098V79.4521Z" fill="#7AB841"/>
<path d="M57.8108 79.4521H53.8535V80.5521H57.8108V79.4521Z" fill="#7AB841"/>
<path d="M81.4176 62.8343L79.5684 66.3329L80.5409 66.847L82.3902 63.3483L81.4176 62.8343Z" fill="#7AB841"/>
<path d="M65.4164 93.1492L63.5684 96.6487L64.5411 97.1624L66.3892 93.6629L65.4164 93.1492Z" fill="#7AB841"/>
<path d="M88.7605 69.1948L85.4324 71.3358L86.0275 72.2609L89.3556 70.12L88.7605 69.1948Z" fill="#7AB841"/>
<path d="M59.9183 87.7427L56.5906 89.884L57.1858 90.809L60.5135 88.6677L59.9183 87.7427Z" fill="#7AB841"/>
<path d="M73.5289 60.8757H72.4288V64.833H73.5289V60.8757Z" fill="#7AB841"/>
<path d="M73.5291 95.1631H72.4291V99.1204H73.5291V95.1631Z" fill="#7AB841"/>
<path d="M72.0898 79.3613L72.9754 65.144L73.8679 79.3613H72.0898Z" fill="#7AB841"/>
<path d="M73.1143 79.1057L87.3316 79.9981L73.1143 80.8906V79.1057Z" fill="#104056"/>
<path d="M76.345 80.2813C76.345 82.1424 74.8368 83.6506 72.9757 83.6506C71.1147 83.6506 69.6064 82.1424 69.6064 80.2813C69.6064 78.4203 71.1147 76.912 72.9757 76.912C74.8368 76.912 76.345 78.4203 76.345 80.2813Z" fill="#7AB841"/>
<path d="M168.193 12.4445H115.842V80.2957H168.193V12.4445Z" fill="#104056"/>
<path d="M154.97 60.8843C147.308 59.4787 139.63 57.4009 132.404 54.4521C126.262 51.9465 120.311 48.5776 115.842 43.5969V80.2879H168.193V62.2899C163.755 62.1983 159.316 61.6788 154.97 60.8843Z" fill="#0D3446"/>
<path d="M162.899 12.4445H121.143V74.467H162.899V12.4445Z" fill="#F4F9FF"/>
<path d="M137.323 35.6375H126.101C125.024 35.6375 124.153 34.7666 124.153 33.6895V22.4675C124.153 21.3904 125.032 20.5119 126.101 20.5119H137.323C138.4 20.5119 139.271 21.3904 139.271 22.4675V33.6895C139.279 34.7666 138.4 35.6375 137.323 35.6375ZM126.101 21.6272C125.635 21.6272 125.261 22.0015 125.261 22.4675V33.6895C125.261 34.1555 125.643 34.5298 126.101 34.5298H137.323C137.789 34.5298 138.164 34.1555 138.164 33.6895V22.4675C138.164 22.0015 137.789 21.6272 137.323 21.6272H126.101Z" fill="#1B437A" fill-opacity="0.2"/>
<path d="M137.323 51.9997H126.101C125.024 51.9997 124.153 51.1212 124.153 50.0517V38.8298C124.153 37.7526 125.032 36.8818 126.101 36.8818H137.323C138.4 36.8818 139.271 37.7526 139.271 38.8298V50.0517C139.279 51.1288 138.4 51.9997 137.323 51.9997ZM126.101 37.9895C125.635 37.9895 125.261 38.3638 125.261 38.8298V50.0517C125.261 50.5177 125.643 50.892 126.101 50.892H137.323C137.789 50.892 138.164 50.5101 138.164 50.0517V38.8298C138.164 38.3638 137.789 37.9895 137.323 37.9895H126.101Z" fill="#1B437A" fill-opacity="0.2"/>
<path d="M137.323 68.3642H126.101C125.024 68.3642 124.153 67.4857 124.153 66.4162V55.1943C124.153 54.1171 125.032 53.2463 126.101 53.2463H137.323C138.4 53.2463 139.271 54.1248 139.271 55.1943V66.4162C139.279 67.4934 138.4 68.3642 137.323 68.3642ZM126.101 54.354C125.635 54.354 125.261 54.7359 125.261 55.1943V66.4162C125.261 66.8822 125.643 67.2565 126.101 67.2565H137.323C137.789 67.2565 138.164 66.8822 138.164 66.4162V55.1943C138.164 54.7283 137.789 54.354 137.323 54.354H126.101Z" fill="#1B437A" fill-opacity="0.2"/>
<path d="M159.522 22.0394H140.653V23.2387H159.522V22.0394Z" fill="#1B437A" fill-opacity="0.2"/>
<path d="M159.522 24.0716H140.654V25.2709H159.522V24.0716Z" fill="#1B437A" fill-opacity="0.2"/>
<path d="M159.522 26.1113H140.654V27.3107H159.522V26.1113Z" fill="#1B437A" fill-opacity="0.2"/>
<path d="M159.522 28.1429H140.654V29.3423H159.522V28.1429Z" fill="#1B437A" fill-opacity="0.2"/>
<path d="M159.522 30.1751H140.654V31.3821H159.522V30.1751Z" fill="#1B437A" fill-opacity="0.2"/>
<path d="M159.522 32.2153H140.654V33.4147H159.522V32.2153Z" fill="#1B437A" fill-opacity="0.2"/>
<path d="M159.522 38.7535H140.653V39.9529H159.522V38.7535Z" fill="#1B437A" fill-opacity="0.2"/>
<path d="M159.522 40.7856H140.654V41.985H159.522V40.7856Z" fill="#1B437A" fill-opacity="0.2"/>
<path d="M159.522 42.8177H140.654V44.0171H159.522V42.8177Z" fill="#1B437A" fill-opacity="0.2"/>
<path d="M159.522 44.858H140.654V46.0574H159.522V44.858Z" fill="#1B437A" fill-opacity="0.2"/>
<path d="M159.522 46.8901H140.654V48.0895H159.522V46.8901Z" fill="#1B437A" fill-opacity="0.2"/>
<path d="M159.522 48.9294H140.654V50.1287H159.522V48.9294Z" fill="#1B437A" fill-opacity="0.2"/>
<path d="M159.522 55.4601H140.653V56.6671H159.522V55.4601Z" fill="#1B437A" fill-opacity="0.2"/>
<path d="M159.522 57.4999H140.654V58.6992H159.522V57.4999Z" fill="#1B437A" fill-opacity="0.2"/>
<path d="M159.522 59.532H140.654V60.7313H159.522V59.532Z" fill="#1B437A" fill-opacity="0.2"/>
<path d="M159.522 61.5712H140.654V62.7706H159.522V61.5712Z" fill="#1B437A" fill-opacity="0.2"/>
<path d="M159.522 63.6034H140.654V64.8027H159.522V63.6034Z" fill="#1B437A" fill-opacity="0.2"/>
<path d="M159.522 65.6355H140.654V66.8348H159.522V65.6355Z" fill="#1B437A" fill-opacity="0.2"/>
<path d="M127.889 28.0744L132.465 32.9558L144.955 19.3581L132.885 29.205L127.889 28.0744Z" fill="#4DA92C"/>
<path d="M158.323 6.45551H125.719V15.6607H158.323V6.45551Z" fill="#FF8500"/>
<path d="M135.352 7.49422V5.94347C135.352 4.27049 136.712 2.91071 138.385 2.91071H145.665C147.338 2.91071 148.697 4.27049 148.697 5.94347V7.49422H151.18V4.16354C151.18 1.86414 149.316 0.000183105 147.017 0.000183105H137.025C134.725 0.000183105 132.861 1.86414 132.861 4.16354V7.49422H135.352Z" fill="#FF8500"/>
<path d="M140.417 11.9781C135.084 11.7794 129.378 10.4808 125.719 6.80634V15.6601H158.323V7.34872C152.968 10.5419 146.833 12.2149 140.417 11.9781Z" fill="#EA7A00"/>
</svg>
