<svg width="143" height="203" viewBox="0 0 143 203" fill="none" xmlns="http://www.w3.org/2000/svg">
<path opacity="0.23" d="M107.416 139.516C127.025 119.907 127.025 88.1144 107.416 68.5054C87.8064 48.8963 56.0139 48.8963 36.4048 68.5054C16.7957 88.1144 16.7957 119.907 36.4048 139.516C56.0139 159.125 87.8064 159.125 107.416 139.516Z" fill="#1B437A"/>
<path opacity="0.23" d="M100.001 132.102C115.516 116.588 115.516 91.4337 100.001 75.9191C84.4869 60.4045 59.3328 60.4045 43.8182 75.9191C28.3036 91.4337 28.3036 116.588 43.8182 132.102C59.3328 147.617 84.4869 147.617 100.001 132.102Z" fill="#1B437A"/>
<path d="M86.2132 126.822C98.8138 118.922 102.624 102.302 94.7232 89.7017C86.8226 77.1011 70.203 73.291 57.6025 81.1917C45.0019 89.0923 41.1918 105.712 49.0925 118.312C56.9931 130.913 73.6127 134.723 86.2132 126.822Z" fill="#1B437A"/>
<path d="M72.4708 89.0955C72.28 89.086 71.5361 89.086 71.3454 89.0955C65.4897 89.3721 60.6639 94.1502 60.3206 99.9964C60.1012 103.763 61.9323 106.186 64.2975 109.429C65.318 110.83 69.5143 115.485 70.4871 116.467C70.8876 116.867 71.4026 117.096 71.9081 117.115C72.4135 117.096 72.919 116.867 73.3291 116.467C74.3019 115.494 78.4982 110.83 79.5186 109.429C81.8838 106.186 83.7149 103.763 83.4956 99.9964C83.1522 94.1502 78.3265 89.3721 72.4708 89.0955ZM71.9081 105.49C69.2568 105.49 67.1014 103.344 67.1014 100.683C67.1014 98.0317 69.2472 95.8764 71.9081 95.8764C74.5594 95.8764 76.7147 98.0222 76.7147 100.683C76.7147 103.344 74.5594 105.49 71.9081 105.49Z" fill="white"/>
<path d="M38.203 0.00918758C37.9647 -0.00306253 37.0353 -0.00306253 36.797 0.00918758C29.4807 0.364441 23.4513 6.50174 23.0223 14.0111C22.7482 18.8498 25.0361 21.9614 27.9912 26.1264C29.2662 27.9272 34.5091 33.9052 35.7245 35.167C36.225 35.6815 36.8685 35.9755 37.5 36C38.1315 35.9755 38.7631 35.6815 39.2755 35.167C40.4909 33.9175 45.7338 27.9272 47.0088 26.1264C49.9639 21.9614 52.2518 18.8498 51.9777 14.0111C51.5487 6.50174 45.5193 0.364441 38.203 0.00918758ZM37.5 21.0671C34.1874 21.0671 31.4944 18.3108 31.4944 14.8931C31.4944 11.4875 34.1755 8.71901 37.5 8.71901C40.8126 8.71901 43.5056 11.4753 43.5056 14.8931C43.5056 18.3108 40.8126 21.0671 37.5 21.0671Z" fill="#7AB841"/>
<path d="M61.5333 177.007C61.3525 176.998 60.6475 176.998 60.4667 177.007C54.9164 177.263 50.3423 181.696 50.0169 187.119C49.809 190.614 51.5446 192.861 53.7864 195.869C54.7537 197.17 58.7311 201.487 59.6531 202.398C60.0328 202.77 60.5209 202.982 61 203C61.4791 202.982 61.9582 202.77 62.3469 202.398C63.2689 201.496 67.2464 197.17 68.2136 195.869C70.4554 192.861 72.191 190.614 71.9831 187.119C71.6577 181.696 67.0836 177.263 61.5333 177.007ZM61 192.215C58.487 192.215 56.4441 190.224 56.4441 187.756C56.4441 185.297 58.478 183.297 61 183.297C63.513 183.297 65.5559 185.288 65.5559 187.756C65.5559 190.224 63.513 192.215 61 192.215Z" fill="#1B437A" fill-opacity="0.7"/>
<path d="M128.388 33.0051C128.256 32.9983 127.744 32.9983 127.612 33.0051C123.576 33.2025 120.249 36.6121 120.012 40.7839C119.861 43.4721 121.123 45.2008 122.754 47.5147C123.457 48.5151 126.35 51.8362 127.02 52.5372C127.297 52.823 127.652 52.9864 128 53C128.348 52.9864 128.697 52.823 128.98 52.5372C129.65 51.843 132.543 48.5151 133.246 47.5147C134.877 45.2008 136.139 43.4721 135.988 40.7839C135.751 36.6121 132.424 33.2025 128.388 33.0051ZM128 44.704C126.172 44.704 124.687 43.1727 124.687 41.2739C124.687 39.382 126.166 37.8439 128 37.8439C129.828 37.8439 131.313 39.3752 131.313 41.2739C131.313 43.1727 129.828 44.704 128 44.704Z" fill="#104056"/>
</svg>
