<svg width="162" height="55" viewBox="0 0 162 55" fill="none" xmlns="http://www.w3.org/2000/svg">
<path fill-rule="evenodd" clip-rule="evenodd" d="M10.7803 51.361L10.789 51.3612C11.1815 51.37 11.5649 51.375 11.9563 51.375L147.878 51.3777L149.33 51.375C149.713 51.375 150.108 51.37 150.486 51.3612L150.497 51.361L150.507 51.3608C151.25 51.3518 151.991 51.2873 152.725 51.1677C153.317 51.0668 153.889 50.8778 154.424 50.6069C154.939 50.3449 155.409 50.0015 155.817 49.5887L155.824 49.5821L155.83 49.5756C156.238 49.1712 156.579 48.7057 156.841 48.1971C157.109 47.6657 157.292 47.0965 157.386 46.5089L157.387 46.5018L157.389 46.4947C157.511 45.768 157.579 45.0329 157.592 44.2954C157.597 43.9008 157.597 43.5156 157.597 43.0801V43.0595L157.597 43.0389C157.608 42.5852 157.608 42.132 157.608 41.6429V13.6684C157.608 13.1849 157.608 12.727 157.597 12.2484L157.597 12.2288V12.2091C157.597 11.8052 157.597 11.4114 157.593 11.0466C157.579 10.2932 157.509 9.54131 157.386 8.79698C157.29 8.21401 157.107 7.65104 156.845 7.12642C156.311 6.08716 155.465 5.23921 154.425 4.70125C153.89 4.43331 153.316 4.24534 152.724 4.14424C151.996 4.02503 151.26 3.96074 150.522 3.95197L150.518 3.95193L149.324 3.93513H11.9694L10.7736 3.95131C10.0276 3.96055 9.28323 4.02553 8.54687 4.14568C7.96354 4.24502 7.39835 4.43097 6.87 4.69736C6.35097 4.96386 5.8768 5.30991 5.4647 5.72298L5.45779 5.7299C5.04888 6.13545 4.70826 6.60446 4.44919 7.11879L4.44759 7.12197C4.17852 7.6536 3.99227 8.22325 3.89527 8.81119L3.89505 8.8125C3.77323 9.54755 3.70751 10.2908 3.69846 11.0358L3.69828 11.0511L3.69784 11.0665C3.69438 11.1865 3.68965 11.4708 3.68565 11.7404L3.67896 12.221V43.0757L3.68068 43.2143C3.68185 43.3061 3.68349 43.4313 3.68538 43.565C3.68929 43.8399 3.694 44.1286 3.6977 44.2518L3.69818 44.2678L3.69838 44.2838C3.70784 45.0303 3.77397 45.775 3.89621 46.5116L3.89646 46.513C3.99309 47.0983 4.17886 47.6652 4.44729 48.1941L4.44878 48.1971C4.70796 48.7101 5.04932 49.1772 5.45923 49.5798L5.46789 49.5884L5.47644 49.597C5.88271 50.0067 6.35231 50.3484 6.86731 50.6091C7.39852 50.8777 7.96681 51.066 8.55365 51.168C9.28718 51.2867 10.0285 51.3511 10.7717 51.3609L10.7803 51.361ZM8.24911 52.9864C7.47864 52.8536 6.73227 52.6069 6.03461 52.254C5.34334 51.9041 4.71286 51.4453 4.1673 50.8952C3.61384 50.3515 3.15306 49.7209 2.80322 49.0285C2.44953 48.3316 2.20475 47.5845 2.07742 46.8134C1.9399 45.9848 1.86551 45.147 1.85487 44.3072C1.84639 44.0253 1.8353 43.0867 1.8353 43.0867V12.2091C1.8353 12.2091 1.84711 11.2849 1.85493 11.0134C1.86512 10.1749 1.93909 9.33836 2.07619 8.51107C2.20376 7.73784 2.44872 6.98865 2.80261 6.28941C3.15116 5.59744 3.60938 4.96643 4.15951 4.42083C4.70901 3.87005 5.34151 3.40887 6.03396 3.05414C6.73001 2.70243 7.47497 2.45734 8.24388 2.32707C9.07286 2.19149 9.91086 2.11819 10.7508 2.10778L11.9569 2.09146H149.324L150.544 2.10844C151.377 2.11833 152.207 2.19098 153.027 2.32576C153.804 2.45768 154.558 2.70448 155.261 3.05805C156.648 3.77297 157.778 4.90401 158.489 6.29267C158.838 6.98708 159.078 7.73017 159.205 8.49672C159.343 9.33079 159.421 10.1739 159.437 11.0193C159.441 11.3978 159.441 11.8044 159.441 12.2091C159.451 12.7103 159.451 13.1874 159.451 13.6684V41.6429C159.451 42.1285 159.451 42.6024 159.441 43.0801C159.441 43.5148 159.441 43.913 159.435 44.3228C159.421 45.1531 159.344 45.9812 159.207 46.8003C159.082 47.577 158.839 48.3298 158.485 49.0325C158.133 49.7174 157.675 50.3426 157.128 50.8847C156.582 51.4378 155.951 51.8993 155.257 52.2515C154.555 52.607 153.804 52.8547 153.027 52.9864C152.201 53.1214 151.366 53.1942 150.529 53.2044C150.138 53.2135 149.729 53.2187 149.33 53.2187L147.881 53.2213L11.9562 53.2187C11.549 53.2187 11.1516 53.2135 10.7475 53.2044C9.91047 53.1934 9.07538 53.1206 8.24911 52.9864Z" fill="white"/>
<path d="M34.0808 27.5089C34.0958 26.3487 34.404 25.2112 34.9766 24.2022C35.5494 23.193 36.3679 22.3453 37.3564 21.7376C36.7286 20.8409 35.9001 20.1028 34.9372 19.5821C33.9741 19.0615 32.9029 18.7726 31.8087 18.7384C29.4747 18.4934 27.2118 20.1351 26.0223 20.1351C24.81 20.1351 22.9786 18.7628 21.0067 18.8033C19.7311 18.8446 18.4879 19.2155 17.3983 19.8799C16.3087 20.5444 15.4099 21.4798 14.7893 22.595C12.1011 27.2492 14.1063 34.0894 16.6814 37.8516C17.9698 39.6939 19.4755 41.7517 21.4457 41.6787C23.3737 41.5988 24.0938 40.4492 26.4211 40.4492C28.7267 40.4492 29.4022 41.6787 31.4124 41.6323C33.4813 41.5988 34.7848 39.7819 36.0279 37.9223C36.9537 36.6096 37.666 35.1589 38.1385 33.6237C36.9366 33.1153 35.9109 32.2643 35.1893 31.177C34.4677 30.0896 34.0823 28.8139 34.0808 27.5089Z" fill="white"/>
<path d="M30.2851 16.2634C31.4131 14.9093 31.9689 13.1688 31.8343 11.4115C30.1109 11.5925 28.5191 12.4161 27.3758 13.7183C26.8168 14.3545 26.3887 15.0946 26.1159 15.8963C25.8431 16.6979 25.7311 17.5456 25.786 18.3907C26.648 18.3995 27.5008 18.2126 28.2801 17.8442C29.0594 17.4757 29.7449 16.9353 30.2851 16.2634Z" fill="white"/>
<path d="M57.2126 37.1982H50.8857L49.3663 41.6846H46.6864L52.6792 25.086H55.4635L61.4562 41.6846H58.7308L57.2126 37.1982ZM51.541 35.1279H56.5562L54.0839 27.8468H54.0146L51.541 35.1279Z" fill="white"/>
<path d="M74.3973 35.6343C74.3973 39.3948 72.3845 41.811 69.3471 41.811C68.5775 41.8514 67.8123 41.6741 67.1389 41.2996C66.4655 40.9252 65.9112 40.3686 65.5394 39.6937H65.482V45.6878H62.9979V29.5827H65.4023V31.5956H65.448C65.8369 30.9239 66.4007 30.3703 67.0791 29.9936C67.7576 29.6168 68.5257 29.4311 69.3013 29.4561C72.3728 29.4561 74.3973 31.884 74.3973 35.6343ZM71.8441 35.6343C71.8441 33.1842 70.578 31.5734 68.6461 31.5734C66.7481 31.5734 65.4715 33.218 65.4715 35.6343C65.4715 38.0726 66.7481 39.7056 68.6461 39.7056C70.578 39.7056 71.8441 38.1066 71.8441 35.6343Z" fill="white"/>
<path d="M87.7176 35.6343C87.7176 39.3948 85.7042 41.811 82.6666 41.811C81.8972 41.8514 81.132 41.6741 80.4586 41.2996C79.7852 40.9252 79.2309 40.3686 78.859 39.6937H78.8015V45.6878H76.3175V29.5827H78.7219V31.5956H78.7676C79.1565 30.9239 79.7202 30.3703 80.3987 29.9936C81.0773 29.6168 81.8452 29.4311 82.6209 29.4561C85.6924 29.4561 87.7176 31.884 87.7176 35.6343ZM85.1638 35.6343C85.1638 33.1842 83.8975 31.5734 81.9657 31.5734C80.0677 31.5734 78.7911 33.218 78.7911 35.6343C78.7911 38.0726 80.0677 39.7056 81.9657 39.7056C83.8975 39.7056 85.1638 38.1066 85.1638 35.6343Z" fill="white"/>
<path d="M96.5215 37.06C96.7055 38.706 98.3046 39.7868 100.49 39.7868C102.583 39.7868 104.09 38.706 104.09 37.2217C104.09 35.9335 103.181 35.1619 101.03 34.6333L98.8789 34.1151C95.8309 33.3788 94.416 31.9534 94.416 29.6405C94.416 26.7765 96.9118 24.8094 100.454 24.8094C103.963 24.8094 106.368 26.7765 106.449 29.6405H103.941C103.791 27.984 102.421 26.9841 100.42 26.9841C98.4194 26.9841 97.0501 27.9957 97.0501 29.4682C97.0501 30.6416 97.9247 31.3321 100.064 31.8608L101.893 32.3098C105.299 33.1151 106.712 34.4832 106.712 36.9111C106.712 40.0164 104.24 41.9614 100.306 41.9614C96.6245 41.9614 94.1391 40.0621 93.9786 37.0599L96.5215 37.06Z" fill="white"/>
<path d="M112.076 26.7203V29.5843H114.377V31.5513H112.076V38.2228C112.076 39.2593 112.537 39.7423 113.548 39.7423C113.821 39.7375 114.094 39.7184 114.365 39.6849V41.6403C113.91 41.7251 113.448 41.7636 112.986 41.7551C110.535 41.7551 109.58 40.8348 109.58 38.4879V31.5513H107.82V29.5843H109.58V26.7203H112.076Z" fill="white"/>
<path d="M115.707 35.6358C115.707 31.8282 117.95 29.4354 121.447 29.4354C124.955 29.4354 127.188 31.828 127.188 35.6358C127.188 39.4539 124.967 41.8361 121.447 41.8361C117.928 41.8361 115.707 39.4538 115.707 35.6358ZM124.657 35.6358C124.657 33.0238 123.46 31.4822 121.447 31.4822C119.434 31.4822 118.237 33.0356 118.237 35.6358C118.237 38.2582 119.434 39.7881 121.447 39.7881C123.46 39.7881 124.657 38.2582 124.657 35.6358Z" fill="white"/>
<path d="M129.236 29.5826H131.605V31.6424H131.662C131.823 30.999 132.199 30.4305 132.73 30.0324C133.26 29.6342 133.91 29.4307 134.573 29.456C134.86 29.4549 135.144 29.4861 135.424 29.5486V31.8721C135.063 31.7617 134.686 31.7109 134.307 31.722C133.947 31.7073 133.587 31.7709 133.254 31.9085C132.92 32.046 132.619 32.2543 132.373 32.5187C132.128 32.7832 131.942 33.0978 131.829 33.441C131.716 33.784 131.679 34.1474 131.72 34.5063V41.6843H129.236L129.236 29.5826Z" fill="white"/>
<path d="M146.877 38.1316C146.543 40.3284 144.403 41.8361 141.666 41.8361C138.146 41.8361 135.961 39.4773 135.961 35.6933C135.961 31.8973 138.157 29.4354 141.562 29.4354C144.91 29.4354 147.015 31.7354 147.015 35.4047V36.2559H138.469V36.406C138.428 36.8513 138.485 37.2999 138.632 37.7222C138.779 38.1443 139.014 38.5303 139.323 38.8545C139.63 39.1787 140.003 39.4338 140.417 39.6026C140.832 39.7714 141.277 39.8501 141.723 39.8337C142.31 39.8888 142.9 39.7528 143.403 39.4461C143.907 39.1394 144.298 38.6784 144.518 38.1316H146.877ZM138.481 34.5197H144.53C144.553 34.1192 144.491 33.7185 144.352 33.3426C144.212 32.9667 143.996 32.6239 143.718 32.3354C143.438 32.047 143.103 31.8194 142.732 31.6667C142.361 31.5141 141.963 31.4396 141.562 31.4483C141.158 31.4459 140.757 31.5236 140.383 31.677C140.008 31.8303 139.667 32.0563 139.381 32.3419C139.094 32.6274 138.867 32.9669 138.713 33.3407C138.558 33.7145 138.479 34.1152 138.481 34.5197Z" fill="white"/>
<path d="M51.2303 12.5927C51.7511 12.5553 52.2737 12.634 52.7603 12.823C53.247 13.0121 53.6857 13.3068 54.0447 13.6859C54.4037 14.065 54.6742 14.5191 54.8364 15.0153C54.9987 15.5116 55.0488 16.0377 54.9832 16.5556C54.9832 19.1037 53.606 20.5683 51.2303 20.5683H48.3495V12.5927H51.2303ZM49.5882 19.4404H51.0919C51.464 19.4626 51.8364 19.4016 52.1821 19.2618C52.5276 19.1219 52.8377 18.9068 53.0897 18.632C53.3416 18.3573 53.529 18.0298 53.6385 17.6733C53.748 17.317 53.7766 16.9407 53.7222 16.5719C53.7726 16.2045 53.7412 15.8306 53.63 15.4768C53.5189 15.123 53.3309 14.7982 53.0795 14.5256C52.8282 14.2531 52.5196 14.0395 52.1759 13.9001C51.8324 13.7608 51.4622 13.6992 51.0919 13.7198H49.5882V19.4404Z" fill="white"/>
<path d="M56.3828 17.5574C56.345 17.1618 56.3903 16.7628 56.5157 16.3857C56.6411 16.0087 56.844 15.6621 57.1112 15.368C57.3785 15.0739 57.7042 14.8391 58.0675 14.6783C58.431 14.5175 58.824 14.4345 59.2213 14.4345C59.6186 14.4345 60.0116 14.5175 60.375 14.6783C60.7383 14.8391 61.0641 15.0739 61.3314 15.368C61.5986 15.6621 61.8015 16.0087 61.9269 16.3857C62.0524 16.7628 62.0976 17.1618 62.0597 17.5574C62.0982 17.9534 62.0536 18.353 61.9285 18.7306C61.8034 19.1082 61.6006 19.4555 61.3333 19.7501C61.0661 20.0448 60.7401 20.2802 60.3762 20.4413C60.0125 20.6025 59.6191 20.6856 59.2213 20.6856C58.8234 20.6856 58.43 20.6025 58.0663 20.4413C57.7026 20.2802 57.3766 20.0448 57.1093 19.7501C56.842 19.4555 56.6392 19.1082 56.5141 18.7306C56.389 18.353 56.3443 17.9534 56.3828 17.5574ZM60.8379 17.5574C60.8379 16.2527 60.2518 15.4898 59.2232 15.4898C58.1908 15.4898 57.6099 16.2527 57.6099 17.5574C57.6099 18.8726 58.1908 19.6297 59.2232 19.6297C60.2519 19.6295 60.8379 18.8672 60.8379 17.5574Z" fill="white"/>
<path d="M69.6054 20.5683H68.3732L67.1293 16.1354H67.0353L65.7965 20.5683H64.576L62.9169 14.5495H64.1218L65.1999 19.1422H65.2887L66.5262 14.5495H67.6658L68.9032 19.1422H68.9971L70.0702 14.5495H71.258L69.6054 20.5683Z" fill="white"/>
<path d="M72.6521 14.549H73.7956V15.5051H73.8843C74.0349 15.1617 74.289 14.8738 74.6108 14.6816C74.9328 14.4894 75.3067 14.4024 75.6804 14.4327C75.9733 14.4108 76.2673 14.4549 76.5408 14.562C76.8143 14.6691 77.0603 14.8363 77.2604 15.0513C77.4604 15.2663 77.6095 15.5236 77.6966 15.804C77.7838 16.0844 77.8068 16.3809 77.7637 16.6714V20.5677H76.576V16.9697C76.576 16.0025 76.1556 15.5214 75.2772 15.5214C75.0783 15.5122 74.8798 15.546 74.6953 15.6206C74.5107 15.6953 74.3446 15.809 74.208 15.9538C74.0715 16.0987 73.9679 16.2713 73.9044 16.46C73.8409 16.6486 73.8189 16.8487 73.84 17.0467V20.5679H72.6521V14.549Z" fill="white"/>
<path d="M79.6566 12.1999H80.8443V20.5683H79.6566V12.1999Z" fill="white"/>
<path d="M82.4972 17.5551C82.4594 17.1595 82.5047 16.7605 82.6302 16.3834C82.7556 16.0063 82.9585 15.6597 83.2258 15.3657C83.493 15.0716 83.8189 14.8366 84.1822 14.6758C84.5457 14.5151 84.9386 14.432 85.336 14.432C85.7334 14.432 86.1264 14.5151 86.4898 14.6758C86.8531 14.8366 87.1789 15.0716 87.4462 15.3657C87.7136 15.6597 87.9165 16.0063 88.0418 16.3834C88.1674 16.7605 88.2127 17.1595 88.1748 17.5551C88.2133 17.951 88.1686 18.3507 88.0434 18.7283C87.9183 19.106 87.7156 19.4533 87.4481 19.7479C87.1808 20.0425 86.8547 20.2779 86.491 20.439C86.1273 20.6002 85.7338 20.6833 85.336 20.6833C84.9382 20.6833 84.5447 20.6002 84.181 20.439C83.8172 20.2779 83.4912 20.0425 83.2238 19.7479C82.9565 19.4533 82.7537 19.106 82.6286 18.7283C82.5035 18.3507 82.4587 17.951 82.4972 17.5551ZM86.9523 17.5551C86.9523 16.2504 86.3662 15.4874 85.3376 15.4874C84.3051 15.4874 83.7243 16.2504 83.7243 17.5551C83.7243 18.8702 84.3052 19.6273 85.3376 19.6273C86.3662 19.6273 86.9523 18.865 86.9523 17.5551Z" fill="white"/>
<path d="M89.4255 18.8674C89.4255 17.7839 90.2324 17.1593 91.6642 17.0705L93.2946 16.9765V16.4571C93.2946 15.8214 92.8743 15.4624 92.0624 15.4624C91.3993 15.4624 90.9398 15.7058 90.8079 16.1314H89.658C89.7794 15.0976 90.7518 14.4345 92.1172 14.4345C93.6261 14.4345 94.4772 15.1857 94.4772 16.4571V20.5695H93.3338V19.7236H93.2398C93.049 20.0271 92.7811 20.2743 92.4635 20.4405C92.1459 20.6065 91.79 20.6852 91.4319 20.6687C91.1792 20.695 90.9238 20.668 90.6823 20.5895C90.4406 20.5111 90.2182 20.3829 90.029 20.2131C89.84 20.0434 89.6887 19.8359 89.5847 19.6041C89.4809 19.3724 89.4266 19.1213 89.4255 18.8674ZM93.2946 18.353V17.8498L91.8248 17.9439C90.9959 17.9993 90.62 18.2813 90.62 18.8119C90.62 19.3535 91.0898 19.6688 91.7361 19.6688C91.9254 19.6879 92.1166 19.6688 92.2984 19.6126C92.4802 19.5563 92.6489 19.4641 92.7943 19.3414C92.9396 19.2185 93.0588 19.0677 93.1449 18.898C93.2309 18.7282 93.2818 18.5428 93.2946 18.353Z" fill="white"/>
<path d="M96.0384 17.5563C96.0384 15.6545 97.0162 14.4496 98.5369 14.4496C98.913 14.4324 99.2864 14.5225 99.6132 14.7095C99.94 14.8963 100.207 15.1726 100.383 15.5056H100.471V12.1999H101.659V20.5683H100.521V19.6174H100.427C100.238 19.9482 99.9615 20.2209 99.6283 20.406C99.2952 20.5912 98.9177 20.6817 98.5369 20.6675C97.0056 20.6676 96.0384 19.4628 96.0384 17.5563ZM97.2655 17.5563C97.2655 18.8329 97.8672 19.6011 98.8736 19.6011C99.8748 19.6011 100.493 18.8218 100.493 17.5615C100.493 16.3072 99.8683 15.5168 98.8736 15.5168C97.8738 15.5168 97.2655 16.2902 97.2655 17.5563Z" fill="white"/>
<path d="M106.573 17.5574C106.535 17.1618 106.58 16.7628 106.706 16.3857C106.831 16.0087 107.034 15.6621 107.301 15.368C107.568 15.0739 107.894 14.8391 108.258 14.6783C108.621 14.5175 109.014 14.4345 109.411 14.4345C109.809 14.4345 110.202 14.5175 110.565 14.6783C110.928 14.8391 111.254 15.0739 111.521 15.368C111.789 15.6621 111.991 16.0087 112.117 16.3857C112.242 16.7628 112.287 17.1618 112.25 17.5574C112.288 17.9534 112.244 18.353 112.118 18.7306C111.993 19.1082 111.791 19.4555 111.523 19.7501C111.256 20.0448 110.93 20.2802 110.566 20.4413C110.202 20.6025 109.809 20.6856 109.411 20.6856C109.013 20.6856 108.62 20.6025 108.256 20.4413C107.893 20.2802 107.567 20.0448 107.299 19.7501C107.032 19.4555 106.829 19.1082 106.704 18.7306C106.579 18.353 106.534 17.9534 106.573 17.5574ZM111.028 17.5574C111.028 16.2527 110.442 15.4898 109.413 15.4898C108.381 15.4898 107.8 16.2527 107.8 17.5574C107.8 18.8726 108.381 19.6297 109.413 19.6297C110.442 19.6295 111.028 18.8672 111.028 17.5574Z" fill="white"/>
<path d="M113.843 14.549H114.987V15.5051H115.075C115.226 15.1617 115.48 14.8738 115.802 14.6816C116.124 14.4894 116.498 14.4024 116.872 14.4327C117.164 14.4108 117.458 14.4549 117.732 14.562C118.005 14.6691 118.251 14.8363 118.451 15.0513C118.651 15.2663 118.801 15.5236 118.888 15.804C118.975 16.0844 118.998 16.3809 118.955 16.6714V20.5677H117.767V16.9697C117.767 16.0025 117.347 15.5214 116.468 15.5214C116.269 15.5122 116.071 15.546 115.886 15.6206C115.702 15.6953 115.536 15.809 115.399 15.9538C115.263 16.0987 115.159 16.2713 115.095 16.46C115.032 16.6486 115.01 16.8487 115.031 17.0467V20.5679H113.843V14.549Z" fill="white"/>
<path d="M125.668 13.0508V14.5767H126.972V15.5774H125.668V18.6723C125.668 19.3028 125.928 19.5788 126.519 19.5788C126.671 19.5783 126.822 19.5692 126.972 19.5514V20.5408C126.759 20.579 126.543 20.5993 126.326 20.6015C125.005 20.6015 124.479 20.1368 124.479 18.9764V15.5772H123.523V14.5767H124.479V13.0508H125.668Z" fill="white"/>
<path d="M128.593 12.1999H129.771V15.5168H129.865C130.023 15.1701 130.284 14.8806 130.612 14.6877C130.94 14.4947 131.32 14.4078 131.7 14.4385C131.991 14.4226 132.283 14.4713 132.553 14.581C132.823 14.6906 133.066 14.8586 133.264 15.0729C133.462 15.2873 133.61 15.5426 133.698 15.8209C133.786 16.0991 133.812 16.3933 133.773 16.6824V20.5683H132.584V16.9755C132.584 16.014 132.136 15.5272 131.297 15.5272C131.093 15.5104 130.887 15.5385 130.695 15.6094C130.503 15.6803 130.329 15.7924 130.184 15.9377C130.04 16.083 129.929 16.2583 129.859 16.4509C129.79 16.6435 129.763 16.8491 129.781 17.053V20.5683H128.593V12.1999Z" fill="white"/>
<path d="M140.698 18.942C140.538 19.4922 140.187 19.9679 139.71 20.2863C139.234 20.6045 138.661 20.7451 138.09 20.6833C137.695 20.6938 137.3 20.6179 136.935 20.4607C136.572 20.3036 136.246 20.0692 135.981 19.7735C135.716 19.478 135.52 19.1283 135.404 18.749C135.287 18.3696 135.257 17.9696 135.31 17.5766C135.258 17.1825 135.29 16.7815 135.405 16.401C135.521 16.0206 135.718 15.6693 135.98 15.3711C136.243 15.073 136.568 14.8348 136.931 14.6728C137.294 14.5108 137.688 14.4288 138.085 14.4321C139.76 14.4321 140.77 15.5763 140.77 17.4663V17.8808H136.52V17.9474C136.501 18.1682 136.529 18.3906 136.601 18.6001C136.675 18.8097 136.79 19.0017 136.941 19.164C137.092 19.3264 137.275 19.4554 137.478 19.5428C137.681 19.6302 137.902 19.6741 138.124 19.6717C138.407 19.7058 138.696 19.6546 138.95 19.5246C139.205 19.3947 139.416 19.1919 139.555 18.942H140.698ZM136.52 17.0022H139.561C139.575 16.8003 139.547 16.5974 139.48 16.4066C139.412 16.2159 139.304 16.0414 139.165 15.8945C139.026 15.7478 138.856 15.6318 138.669 15.554C138.482 15.4762 138.281 15.4385 138.078 15.443C137.874 15.4405 137.669 15.4791 137.479 15.5565C137.288 15.634 137.116 15.7487 136.97 15.894C136.826 16.0393 136.711 16.2123 136.633 16.4026C136.556 16.5929 136.517 16.7968 136.52 17.0022Z" fill="white"/>
</svg>
