<svg width="117" height="39" viewBox="0 0 117 39" fill="none" xmlns="http://www.w3.org/2000/svg">
<path fill-rule="evenodd" clip-rule="evenodd" d="M7.74484 36.2076C8.02663 36.214 8.30186 36.2176 8.58278 36.2176L106.156 36.2195L107.196 36.2176C107.471 36.2176 107.754 36.214 108.026 36.2077L108.033 36.2075L108.041 36.2074C108.574 36.2009 109.106 36.1546 109.632 36.0688C110.058 35.9964 110.468 35.8607 110.852 35.6662C111.223 35.4781 111.56 35.2316 111.853 34.9353L111.862 34.9258C112.155 34.6352 112.4 34.3008 112.588 33.9353C112.78 33.5542 112.912 33.1459 112.979 32.7245L112.981 32.7143C113.069 32.1921 113.117 31.664 113.127 31.1341C113.13 30.8513 113.13 30.5752 113.13 30.2631V30.2483L113.131 30.2335C113.138 29.9078 113.138 29.5825 113.138 29.2315V9.15008C113.138 8.80297 113.138 8.47426 113.131 8.13072L113.13 8.11661V8.10249C113.13 7.81265 113.13 7.53017 113.128 7.26843C113.117 6.72745 113.067 6.18758 112.979 5.65313C112.91 5.23466 112.779 4.83056 112.59 4.45398C112.207 3.70789 111.6 3.09915 110.853 2.71297C110.469 2.52065 110.057 2.38572 109.632 2.31316C109.11 2.2276 108.582 2.18146 108.052 2.17516L108.049 2.17513L107.182 2.16307H8.59218L7.73383 2.17468C7.19826 2.18132 6.66393 2.22796 6.13533 2.31422C5.7166 2.38553 5.31088 2.51901 4.93162 2.71023C4.55903 2.90154 4.21865 3.14995 3.92282 3.44647L3.91787 3.45144C3.62433 3.74256 3.37982 4.07924 3.19385 4.44845L3.1927 4.45073C2.99955 4.83236 2.86585 5.24128 2.79621 5.66333C2.70877 6.19098 2.66144 6.72545 2.65494 7.26025L2.65481 7.27126L2.65449 7.28227C2.65201 7.36844 2.64861 7.57255 2.64574 7.76606L2.64094 8.11103V30.2599L2.64555 30.6112C2.64835 30.8086 2.65174 31.0158 2.65439 31.1042L2.65474 31.1157L2.65488 31.1272C2.66167 31.6631 2.70915 32.1977 2.79689 32.7264L2.79707 32.7274C2.86644 33.1475 2.99979 33.5545 3.19248 33.9342L3.19355 33.9363C3.37961 34.3046 3.62465 34.6399 3.91889 34.9289L3.92512 34.935L3.93126 34.9412C4.22279 35.2352 4.55975 35.4805 4.92928 35.6676C5.31073 35.8605 5.71882 35.9958 6.14023 36.069C6.66678 36.1542 7.19895 36.2004 7.73239 36.2074L7.74484 36.2076ZM1.31747 30.2678V8.10249C1.31747 8.10249 1.32596 7.43908 1.33157 7.24417C1.33888 6.64225 1.39198 6.04175 1.4904 5.44789C1.58197 4.89283 1.75782 4.35502 2.01186 3.85308C2.26206 3.35635 2.59099 2.90338 2.9859 2.51173C3.38036 2.11635 3.8344 1.7853 4.33146 1.53065C4.83112 1.27818 5.36589 1.10225 5.91785 1.00873C6.51293 0.911406 7.11448 0.858786 7.71743 0.851315L8.58322 0.8396H107.191L108.067 0.851785C108.665 0.858885 109.261 0.911035 109.85 1.00779C110.408 1.10249 110.949 1.27965 111.453 1.53346C112.449 2.04666 113.26 2.85857 113.771 3.85542C114.021 4.3539 114.194 4.88732 114.285 5.43759C114.384 6.03632 114.439 6.64154 114.451 7.24839C114.454 7.51941 114.454 7.81047 114.454 8.1002V8.10249C114.462 8.46231 114.462 8.80479 114.462 9.15008V29.2315C114.462 29.58 114.462 29.9202 114.454 30.2631V30.265C114.454 30.5763 114.454 30.8616 114.45 31.1552C114.439 31.7512 114.385 32.3457 114.286 32.9337C114.197 33.4912 114.022 34.0316 113.768 34.536C113.515 35.0277 113.186 35.4765 112.794 35.8656C112.401 36.2627 111.949 36.5939 111.451 36.8467C110.947 37.102 110.408 37.2798 109.85 37.3743C109.257 37.4712 108.657 37.5235 108.057 37.5308C107.776 37.5373 107.482 37.541 107.196 37.541L106.156 37.543L8.58275 37.541C8.2904 37.541 8.00512 37.5373 7.71507 37.5308C7.1142 37.5229 6.51474 37.4706 5.9216 37.3743C5.36853 37.279 4.83274 37.1019 4.33193 36.8486C3.83571 36.5974 3.38312 36.2681 2.99149 35.8731C2.5942 35.4829 2.26342 35.0302 2.0123 34.5332C1.7584 34.0329 1.58268 33.4966 1.49128 32.9431C1.39257 32.3483 1.33916 31.7468 1.33152 31.144C1.32544 30.9416 1.31747 30.2678 1.31747 30.2678Z" fill="black"/>
<path d="M24.4648 19.0855C24.4755 18.2526 24.6968 17.4361 25.1078 16.7117C25.519 15.9873 26.1066 15.3788 26.8161 14.9426C26.3655 14.2988 25.7707 13.769 25.0795 13.3953C24.3882 13.0215 23.6192 12.8142 22.8338 12.7896C21.1583 12.6137 19.5339 13.7922 18.68 13.7922C17.8097 13.7922 16.4951 12.8071 15.0795 12.8362C14.1639 12.8658 13.2714 13.1321 12.4893 13.609C11.7071 14.086 11.062 14.7575 10.6165 15.558C8.68675 18.899 10.1261 23.8093 11.9747 26.5099C12.8995 27.8324 13.9804 29.3096 15.3947 29.2572C16.7787 29.1998 17.2956 28.3746 18.9663 28.3746C20.6213 28.3746 21.1063 29.2572 22.5493 29.2239C24.0344 29.1998 24.9701 27.8956 25.8625 26.5607C26.527 25.6183 27.0384 24.577 27.3776 23.475C26.5148 23.11 25.7785 22.4991 25.2605 21.7186C24.7425 20.938 24.4658 20.0223 24.4648 19.0855Z" fill="black"/>
<path d="M21.74 11.0132C22.5498 10.0412 22.9487 8.79172 22.8521 7.53027C21.615 7.6602 20.4723 8.25145 19.6516 9.18622C19.2504 9.64288 18.943 10.1742 18.7472 10.7497C18.5514 11.3251 18.471 11.9336 18.5104 12.5402C19.1292 12.5466 19.7414 12.4124 20.3008 12.148C20.8601 11.8834 21.3523 11.4955 21.74 11.0132Z" fill="black"/>
<path d="M41.0699 26.0409H36.5281L35.4374 29.2614H33.5137L37.8156 17.3462H39.8142L44.1161 29.2614H42.1597L41.0699 26.0409ZM36.9985 24.5547H40.5986L38.8239 19.3281H38.7742L36.9985 24.5547Z" fill="black"/>
<path d="M53.4058 24.9185C53.4058 27.618 51.9609 29.3524 49.7805 29.3524C49.2281 29.3814 48.6788 29.2542 48.1954 28.9853C47.712 28.7166 47.3141 28.317 47.0472 27.8326H47.006V32.1354H45.2228V20.5744H46.9488V22.0193H46.9816C47.2607 21.5372 47.6654 21.1397 48.1525 20.8694C48.6395 20.5989 49.1909 20.4656 49.7477 20.4835C51.9526 20.4835 53.4058 22.2264 53.4058 24.9185ZM51.573 24.9185C51.573 23.1597 50.6641 22.0034 49.2773 22.0034C47.9148 22.0034 46.9985 23.184 46.9985 24.9185C46.9985 26.6689 47.9148 27.8411 49.2773 27.8411C50.6641 27.8411 51.573 26.6932 51.573 24.9185Z" fill="black"/>
<path d="M62.9677 24.9185C62.9677 27.618 61.5224 29.3524 59.3419 29.3524C58.7896 29.3814 58.2403 29.2542 57.7569 28.9853C57.2735 28.7166 56.8755 28.317 56.6086 27.8326H56.5673V32.1354H54.7842V20.5744H56.5102V22.0193H56.543C56.8222 21.5372 57.2268 21.1397 57.7139 20.8694C58.201 20.5989 58.7523 20.4656 59.3091 20.4835C61.5139 20.4835 62.9677 22.2264 62.9677 24.9185ZM61.1344 24.9185C61.1344 23.1597 60.2255 22.0034 58.8387 22.0034C57.4763 22.0034 56.5599 23.184 56.5599 24.9185C56.5599 26.6689 57.4763 27.8411 58.8387 27.8411C60.2255 27.8411 61.1344 26.6932 61.1344 24.9185Z" fill="black"/>
<path d="M69.2875 25.9418C69.4197 27.1233 70.5675 27.8992 72.1361 27.8992C73.639 27.8992 74.7204 27.1233 74.7204 26.0579C74.7204 25.1331 74.0682 24.5792 72.524 24.1998L70.9798 23.8278C68.7919 23.2993 67.7761 22.276 67.7761 20.6157C67.7761 18.5598 69.5677 17.1477 72.1108 17.1477C74.6295 17.1477 76.3555 18.5598 76.4137 20.6157H74.6136C74.5059 19.4266 73.5228 18.7088 72.0864 18.7088C70.65 18.7088 69.667 19.435 69.667 20.492C69.667 21.3344 70.2948 21.83 71.8306 22.2095L73.1433 22.5318C75.5881 23.1099 76.6029 24.092 76.6029 25.8349C76.6029 28.064 74.8282 29.4602 72.0039 29.4602C69.3615 29.4602 67.5774 28.0968 67.4622 25.9417L69.2875 25.9418Z" fill="black"/>
<path d="M80.453 18.5193V20.5751H82.105V21.9872H80.453V26.7763C80.453 27.5203 80.7839 27.8671 81.51 27.8671C81.7062 27.8636 81.902 27.8499 82.0966 27.8258V29.2295C81.7702 29.2904 81.4383 29.3181 81.1062 29.3119C79.3474 29.3119 78.6615 28.6513 78.6615 26.9666V21.9872H77.3984V20.5751H78.6614V18.5193H80.453Z" fill="black"/>
<path d="M83.0599 24.9194C83.0599 22.1861 84.6697 20.4685 87.18 20.4685C89.6987 20.4685 91.301 22.186 91.301 24.9194C91.301 27.6603 89.7072 29.3703 87.18 29.3703C84.6538 29.3703 83.0599 27.6602 83.0599 24.9194ZM89.4842 24.9194C89.4842 23.0444 88.6249 21.9378 87.18 21.9378C85.7351 21.9378 84.8758 23.0529 84.8758 24.9194C84.8758 26.8019 85.7351 27.9001 87.18 27.9001C88.6249 27.9001 89.4842 26.8019 89.4842 24.9194Z" fill="black"/>
<path d="M92.7713 20.5743H94.4719V22.0529H94.5132C94.6282 21.5911 94.8988 21.183 95.2793 20.8972C95.6599 20.6113 96.1271 20.4653 96.603 20.4834C96.8083 20.4827 97.0127 20.505 97.2133 20.5499V22.2179C96.9542 22.1386 96.6836 22.1021 96.4121 22.1101C96.153 22.0996 95.8952 22.1452 95.6555 22.244C95.4158 22.3427 95.2002 22.4922 95.0237 22.682C94.8472 22.8719 94.7138 23.0977 94.6328 23.344C94.5518 23.5903 94.5251 23.8511 94.5544 24.1088V29.2615H92.7712L92.7713 20.5743Z" fill="black"/>
<path d="M105.435 26.711C105.195 28.288 103.659 29.3703 101.694 29.3703C99.1678 29.3703 97.599 27.6771 97.599 24.9607C97.599 22.2357 99.1755 20.4685 101.619 20.4685C104.023 20.4685 105.534 22.1195 105.534 24.7535V25.3645H99.399V25.4723C99.3703 25.792 99.4106 26.114 99.5161 26.4171C99.6217 26.7201 99.7905 26.9972 100.012 27.2299C100.233 27.4627 100.501 27.6458 100.798 27.767C101.095 27.8881 101.415 27.9447 101.735 27.9329C102.157 27.9724 102.58 27.8748 102.942 27.6546C103.303 27.4345 103.583 27.1036 103.742 26.711H105.435ZM99.4077 24.1182H103.75C103.767 23.8307 103.723 23.5431 103.623 23.2733C103.522 23.0034 103.367 22.7573 103.167 22.5503C102.967 22.3432 102.726 22.1798 102.46 22.0702C102.193 21.9606 101.907 21.9072 101.619 21.9134C101.33 21.9117 101.042 21.9675 100.773 22.0776C100.504 22.1877 100.26 22.3499 100.054 22.5549C99.8481 22.7598 99.685 23.0035 99.5746 23.2719C99.4633 23.5402 99.4067 23.8279 99.4077 24.1182Z" fill="black"/>
<path d="M36.7754 8.37783C37.1494 8.35101 37.5244 8.40748 37.8738 8.54319C38.2232 8.6789 38.5381 8.89046 38.7958 9.16259C39.0535 9.43474 39.2476 9.76071 39.3641 10.1169C39.4806 10.4731 39.5166 10.8508 39.4695 11.2226C39.4695 13.0517 38.4809 14.1031 36.7754 14.1031H34.7075V8.37783H36.7754ZM35.5967 13.2934H36.6761C36.9433 13.3094 37.2106 13.2656 37.4587 13.1653C37.7067 13.0648 37.9293 12.9104 38.1102 12.7131C38.2911 12.516 38.4256 12.2809 38.5042 12.025C38.5828 11.7692 38.6033 11.4991 38.5643 11.2343C38.6004 10.9706 38.5779 10.7022 38.498 10.4482C38.4183 10.1942 38.2834 9.96105 38.1029 9.76541C37.9225 9.56974 37.701 9.41641 37.4543 9.31639C37.2077 9.21637 36.9419 9.17216 36.6761 9.18691H35.5967V13.2934Z" fill="black"/>
<path d="M40.4742 11.942C40.447 11.658 40.4795 11.3716 40.5695 11.1009C40.6595 10.8302 40.8052 10.5814 40.997 10.3703C41.1889 10.1592 41.4227 9.99064 41.6835 9.87521C41.9444 9.75978 42.2265 9.7002 42.5118 9.7002C42.797 9.7002 43.079 9.75978 43.3399 9.87521C43.6007 9.99064 43.8346 10.1592 44.0265 10.3703C44.2183 10.5814 44.3639 10.8302 44.4539 11.1009C44.544 11.3716 44.5765 11.658 44.5493 11.942C44.5769 12.2262 44.5449 12.5131 44.4551 12.7842C44.3653 13.0552 44.2197 13.3045 44.0278 13.516C43.836 13.7276 43.602 13.8965 43.3408 14.0122C43.0797 14.1279 42.7973 14.1876 42.5118 14.1876C42.2261 14.1876 41.9438 14.1279 41.6827 14.0122C41.4216 13.8965 41.1876 13.7276 40.9957 13.516C40.8038 13.3045 40.6582 13.0552 40.5684 12.7842C40.4786 12.5131 40.4465 12.2262 40.4742 11.942ZM43.6722 11.942C43.6722 11.0054 43.2515 10.4577 42.5131 10.4577C41.772 10.4577 41.355 11.0054 41.355 11.942C41.355 12.8861 41.772 13.4295 42.5131 13.4295C43.2516 13.4294 43.6722 12.8822 43.6722 11.942Z" fill="black"/>
<path d="M49.966 14.1031H49.0814L48.1885 10.9209H48.121L47.2318 14.1031H46.3556L45.1647 9.78247H46.0296L46.8035 13.0794H46.8672L47.7556 9.78247H48.5736L49.4619 13.0794H49.5293L50.2996 9.78247H51.1522L49.966 14.1031Z" fill="black"/>
<path d="M52.153 9.7823H52.9739V10.4686H53.0376C53.1456 10.2221 53.328 10.0155 53.5591 9.87748C53.7902 9.73951 54.0586 9.67704 54.3269 9.69882C54.5371 9.68309 54.7482 9.71475 54.9445 9.79161C55.1408 9.86847 55.3174 9.9885 55.461 10.1429C55.6047 10.2972 55.7117 10.4819 55.7742 10.6832C55.8368 10.8845 55.8533 11.0973 55.8224 11.3058V14.1028H54.9698V11.52C54.9698 10.8257 54.668 10.4803 54.0374 10.4803C53.8946 10.4737 53.7521 10.498 53.6197 10.5515C53.4872 10.6052 53.368 10.6867 53.2699 10.7908C53.1719 10.8948 53.0976 11.0186 53.052 11.1541C53.0064 11.2895 52.9906 11.4331 53.0057 11.5753V14.1029H52.153V9.7823Z" fill="black"/>
<path d="M57.1811 8.09595H58.0337V14.1032H57.1811V8.09595Z" fill="black"/>
<path d="M59.2203 11.9404C59.1931 11.6564 59.2257 11.37 59.3158 11.0993C59.4058 10.8286 59.5514 10.5798 59.7433 10.3687C59.9351 10.1576 60.1691 9.98893 60.4299 9.8735C60.6908 9.75817 60.9729 9.69849 61.2581 9.69849C61.5434 9.69849 61.8255 9.75817 62.0864 9.8735C62.3472 9.98893 62.581 10.1576 62.7729 10.3687C62.9648 10.5798 63.1105 10.8286 63.2005 11.0993C63.2906 11.37 63.3231 11.6564 63.2959 11.9404C63.3236 12.2246 63.2914 12.5115 63.2016 12.7826C63.1118 13.0537 62.9662 13.303 62.7742 13.5145C62.5823 13.726 62.3483 13.8949 62.0872 14.0105C61.8262 14.1263 61.5437 14.1859 61.2581 14.1859C60.9726 14.1859 60.6901 14.1263 60.429 14.0105C60.1678 13.8949 59.9338 13.726 59.7419 13.5145C59.55 13.303 59.4044 13.0537 59.3146 12.7826C59.2248 12.5115 59.1927 12.2246 59.2203 11.9404ZM62.4184 11.9404C62.4184 11.0038 61.9976 10.4561 61.2593 10.4561C60.518 10.4561 60.1011 11.0038 60.1011 11.9404C60.1011 12.8845 60.5181 13.4279 61.2593 13.4279C61.9976 13.4279 62.4184 12.8807 62.4184 11.9404Z" fill="black"/>
<path d="M64.1938 12.8823C64.1938 12.1045 64.7729 11.6562 65.8008 11.5925L66.9712 11.525V11.1521C66.9712 10.6958 66.6694 10.4381 66.0866 10.4381C65.6106 10.4381 65.2808 10.6128 65.1861 10.9183H64.3606C64.4477 10.1762 65.1458 9.7002 66.1259 9.7002C67.2091 9.7002 67.8201 10.2394 67.8201 11.1521V14.1042H66.9993V13.497H66.9318C66.7948 13.7148 66.6025 13.8923 66.3745 14.0116C66.1466 14.1308 65.891 14.1873 65.634 14.1754C65.4526 14.1943 65.2693 14.1749 65.0959 14.1186C64.9224 14.0622 64.7627 13.9702 64.627 13.8484C64.4913 13.7265 64.3827 13.5776 64.308 13.4112C64.2335 13.2448 64.1945 13.0646 64.1938 12.8823ZM66.9712 12.5131V12.1519L65.9161 12.2194C65.321 12.2592 65.0512 12.4616 65.0512 12.8425C65.0512 13.2313 65.3884 13.4577 65.8524 13.4577C65.9882 13.4714 66.1255 13.4577 66.256 13.4173C66.3865 13.3769 66.5076 13.3107 66.612 13.2226C66.7163 13.1344 66.8019 13.0262 66.8637 12.9043C66.9254 12.7824 66.962 12.6494 66.9712 12.5131Z" fill="black"/>
<path d="M68.9408 11.941C68.9408 10.5758 69.6427 9.71091 70.7343 9.71091C71.0043 9.69853 71.2723 9.7632 71.5069 9.89744C71.7415 10.0316 71.9331 10.2299 72.0592 10.4689H72.1229V8.09595H72.9756V14.1032H72.1585V13.4206H72.091C71.9552 13.6581 71.7569 13.8538 71.5177 13.9867C71.2786 14.1196 71.0077 14.1845 70.7343 14.1744C69.6351 14.1745 68.9408 13.3096 68.9408 11.941ZM69.8216 11.941C69.8216 12.8574 70.2536 13.4089 70.976 13.4089C71.6947 13.4089 72.1388 12.8495 72.1388 11.9448C72.1388 11.0443 71.6901 10.477 70.976 10.477C70.2583 10.477 69.8216 11.0322 69.8216 11.941Z" fill="black"/>
<path d="M76.5028 11.942C76.4756 11.658 76.5082 11.3716 76.5982 11.1009C76.6883 10.8302 76.8338 10.5814 77.0257 10.3703C77.2175 10.1592 77.4514 9.99064 77.7123 9.87521C77.9731 9.75978 78.2551 9.7002 78.5404 9.7002C78.8257 9.7002 79.1077 9.75978 79.3686 9.87521C79.6294 9.99064 79.8632 10.1592 80.0551 10.3703C80.2469 10.5814 80.3926 10.8302 80.4826 11.1009C80.5727 11.3716 80.6051 11.658 80.5779 11.942C80.6057 12.2262 80.5735 12.5131 80.4837 12.7842C80.3939 13.0552 80.2484 13.3045 80.0565 13.516C79.8646 13.7276 79.6306 13.8965 79.3695 14.0122C79.1083 14.1279 78.826 14.1876 78.5404 14.1876C78.2549 14.1876 77.9724 14.1279 77.7113 14.0122C77.4502 13.8965 77.2162 13.7276 77.0243 13.516C76.8324 13.3045 76.6868 13.0552 76.597 12.7842C76.5072 12.5131 76.4751 12.2262 76.5028 11.942ZM79.7008 11.942C79.7008 11.0054 79.2802 10.4577 78.5418 10.4577C77.8006 10.4577 77.3836 11.0054 77.3836 11.942C77.3836 12.8861 77.8006 13.4295 78.5418 13.4295C79.2802 13.4294 79.7008 12.8822 79.7008 11.942Z" fill="black"/>
<path d="M81.7218 9.7823H82.5427V10.4686H82.6064C82.7145 10.2221 82.8968 10.0155 83.1279 9.87748C83.359 9.73951 83.6274 9.67704 83.8958 9.69882C84.106 9.68309 84.317 9.71475 84.5133 9.79161C84.7096 9.86847 84.8862 9.9885 85.0298 10.1429C85.1735 10.2972 85.2805 10.4819 85.343 10.6832C85.4056 10.8845 85.4221 11.0973 85.3912 11.3058V14.1028H84.5386V11.52C84.5386 10.8257 84.2368 10.4803 83.6062 10.4803C83.4634 10.4737 83.3209 10.498 83.1885 10.5515C83.056 10.6052 82.9367 10.6867 82.8387 10.7908C82.7407 10.8948 82.6663 11.0186 82.6208 11.1541C82.5752 11.2895 82.5594 11.4331 82.5745 11.5753V14.1029H81.7218V9.7823Z" fill="black"/>
<path d="M90.2103 8.70679V9.80215H91.1464V10.5204H90.2103V12.7421C90.2103 13.1947 90.3967 13.3928 90.8212 13.3928C90.93 13.3925 91.0385 13.3859 91.1464 13.3732V14.0834C90.9933 14.1109 90.8381 14.1254 90.6826 14.127C89.7343 14.127 89.3567 13.7934 89.3567 12.9604V10.5203H88.6708V9.80215H89.3567V8.70679H90.2103Z" fill="black"/>
<path d="M92.3102 8.09595H93.1554V10.477H93.2228C93.3362 10.2281 93.5235 10.0203 93.7593 9.8818C93.9951 9.74324 94.2677 9.68087 94.5402 9.70294C94.7494 9.69152 94.9585 9.72645 95.1526 9.80523C95.3467 9.88391 95.521 10.0045 95.6632 10.1583C95.8053 10.3122 95.9117 10.4955 95.9745 10.6953C96.0379 10.8949 96.0561 11.1061 96.0283 11.3137V14.1032H95.1748V11.5241C95.1748 10.8339 94.8533 10.4845 94.2509 10.4845C94.1042 10.4724 93.9569 10.4925 93.8189 10.5435C93.681 10.5943 93.5558 10.6748 93.4522 10.7791C93.3485 10.8834 93.269 11.0092 93.219 11.1475C93.1691 11.2858 93.1499 11.4333 93.163 11.5798V14.1032H92.3102V8.09595Z" fill="black"/>
<path d="M101 12.936C100.884 13.3309 100.633 13.6724 100.29 13.9009C99.9488 14.1294 99.5372 14.2303 99.1275 14.1859C98.8435 14.1935 98.5604 14.139 98.2985 14.0262C98.0375 13.9134 97.8034 13.7451 97.6134 13.5329C97.4234 13.3207 97.2824 13.0697 97.1989 12.7974C97.1154 12.5251 97.0933 12.2379 97.1317 11.9558C97.0943 11.673 97.1173 11.3851 97.1998 11.1119C97.2833 10.8388 97.4244 10.5867 97.6124 10.3726C97.8015 10.1586 98.0346 9.98766 98.2956 9.87136C98.5556 9.75507 98.8387 9.69616 99.1237 9.69856C100.326 9.69856 101.051 10.5199 101.051 11.8767V12.1742H98.0001V12.222C97.9866 12.3805 98.0068 12.5402 98.0586 12.6905C98.1114 12.841 98.1939 12.9789 98.3023 13.0953C98.4107 13.2119 98.5422 13.3045 98.688 13.3673C98.8339 13.43 98.9922 13.4615 99.1515 13.4598C99.3549 13.4842 99.5622 13.4475 99.7445 13.3542C99.9277 13.2609 100.079 13.1154 100.179 12.936H101ZM98.0001 11.5435H100.183C100.194 11.3985 100.173 11.2529 100.125 11.116C100.076 10.979 99.9987 10.8538 99.8989 10.7484C99.7992 10.643 99.6773 10.5597 99.543 10.5039C99.4086 10.448 99.2647 10.421 99.1189 10.4242C98.9721 10.4224 98.8252 10.4501 98.689 10.5057C98.5518 10.5614 98.428 10.6437 98.3234 10.748C98.2198 10.8523 98.1373 10.9764 98.0816 11.1131C98.026 11.2497 97.9982 11.396 98.0001 11.5435Z" fill="black"/>
</svg>
