<svg width="1920" height="862" viewBox="0 0 1920 862" fill="none" xmlns="http://www.w3.org/2000/svg">
<mask id="mask0_140_192" style="mask-type:alpha" maskUnits="userSpaceOnUse" x="0" y="0" width="1920" height="862">
<rect width="1920" height="862" fill="#F7FCFE"/>
</mask>
<g mask="url(#mask0_140_192)">
<path d="M2002 831.407H-70.3452V832.782H2002V831.407Z" fill="#C5DFFB"/>
<path d="M2002 702.119H-70.3452V703.495H2002V702.119Z" fill="#C5DFFB"/>
<path d="M2002 572.832H-70.3452V574.208H2002V572.832Z" fill="#C5DFFB"/>
<path d="M2002 443.545H-70.3452V444.921H2002V443.545Z" fill="#C5DFFB"/>
<path d="M2002 314.258H-70.3452V315.633H2002V314.258Z" fill="#C5DFFB"/>
<path d="M2002 184.971H-70.3452V186.346H2002V184.971Z" fill="#C5DFFB"/>
<path d="M2002 55.6838H-70.3452V57.0592H2002V55.6838Z" fill="#C5DFFB"/>
<path d="M1809.36 -656.771H1807.98V1414.57H1809.36V-656.771Z" fill="#C5DFFB"/>
<path d="M1680 -656.771H1678.63V1414.57H1680V-656.771Z" fill="#C5DFFB"/>
<path d="M1550.65 -656.771H1549.28V1414.57H1550.65V-656.771Z" fill="#C5DFFB"/>
<path d="M1419.93 -656.771H1418.55V1414.57H1419.93V-656.771Z" fill="#C5DFFB"/>
<path d="M1290.58 -656.771H1289.2V1414.57H1290.58V-656.771Z" fill="#C5DFFB"/>
<path d="M1161.23 -656.771H1159.85V1414.57H1161.23V-656.771Z" fill="#C5DFFB"/>
<path d="M1031.88 -656.771H1030.5V1414.57H1031.88V-656.771Z" fill="#C5DFFB"/>
<path d="M902.531 -656.771H901.155V1414.57H902.531V-656.771Z" fill="#C5DFFB"/>
<path d="M773.183 -656.771H771.807V1414.57H773.183V-656.771Z" fill="#C5DFFB"/>
<path d="M643.831 -656.771H642.455V1414.57H643.831V-656.771Z" fill="#C5DFFB"/>
<path d="M514.48 -656.771H513.104V1414.57H514.48V-656.771Z" fill="#C5DFFB"/>
<path d="M383.753 -656.771H382.377V1414.57H383.753V-656.771Z" fill="#C5DFFB"/>
<path d="M254.404 -656.771H253.028V1414.57H254.404V-656.771Z" fill="#C5DFFB"/>
<path d="M125.054 -656.771H123.678V1414.57H125.054V-656.771Z" fill="#C5DFFB"/>
</g>
</svg>
