<svg width="95" height="95" viewBox="0 0 95 95" fill="none" xmlns="http://www.w3.org/2000/svg">
<g filter="url(#filter0_b_450_5726)">
<rect width="95" height="95" rx="47.5" fill="white" fill-opacity="0.09"/>
<rect x="0.699471" y="0.699471" width="93.6011" height="93.6011" rx="46.8005" stroke="url(#paint0_linear_450_5726)" stroke-width="1.39894"/>
</g>
<mask id="path-3-inside-1_450_5726" fill="white">
<path fill-rule="evenodd" clip-rule="evenodd" d="M72.5402 40.2794C71.4713 37.7999 69.9901 35.6446 68.0926 33.8219C66.195 31.9949 63.9711 30.5721 61.421 29.5407C58.8752 28.5136 56.119 28 53.1567 28C50.1945 28 47.434 28.5052 44.8881 29.5155C42.338 30.5258 40.1142 31.9528 38.2166 33.7966C36.319 35.6404 34.8379 37.7999 33.7689 40.2836C32.7042 42.7673 32.1719 45.4782 32.1719 48.4165C32.1719 51.3548 32.7042 54.07 33.7689 56.5495C34.8336 59.0289 36.3233 61.1927 38.2424 63.0365C40.1571 64.8803 42.381 66.3158 44.9139 67.3429C47.4426 68.37 50.1902 68.8836 53.1567 68.8836C53.9853 68.8836 54.7924 68.8331 55.5866 68.7531L51.77 62.6534C50.2717 62.5271 48.8593 62.1946 47.5413 61.6515C45.8241 60.9443 44.3343 59.9424 43.0679 58.6459C41.8014 57.3535 40.8183 55.8381 40.1099 54.0995C39.4058 52.3609 39.0538 50.4666 39.0538 48.4123C39.0538 46.3917 39.4058 44.5142 40.1099 42.7757C40.814 41.0413 41.8014 39.5259 43.0679 38.2293C44.33 36.937 45.8241 35.9351 47.5413 35.2237C49.2586 34.5165 51.1261 34.1586 53.1524 34.1586C55.1745 34.1586 57.0463 34.5122 58.7636 35.2237C60.4808 35.9351 61.9705 36.9328 63.237 38.2293C64.5035 39.5217 65.4866 41.0371 66.1907 42.7757C66.8948 44.5142 67.2511 46.3917 67.2511 48.4123C67.2511 50.4666 66.8991 52.3651 66.1907 54.0995C65.4866 55.8381 64.5035 57.3493 63.237 58.6459C62.8185 59.0729 62.3757 59.4682 61.9083 59.8318L57.2218 52.4029H49.9579L62.8587 73.03H70.2343L65.3207 65.2411C66.296 64.5867 67.2105 63.8516 68.0625 63.0323C69.9772 61.1885 71.467 59.0289 72.5359 56.5453C73.6006 54.0658 74.133 51.3548 74.133 48.4123C74.133 45.4698 73.6049 42.7631 72.5402 40.2794ZM68.4868 29.1072V31.7382H69.1436V29.1072H69.9593V28.5474H67.6582V29.1072H68.4868ZM70.4795 31.7382V28.5474H71.1106L72.1799 29.9466L73.2228 28.5474H73.8539V31.7382H73.197V29.6513L72.2096 30.9089H72.1281L71.1363 29.6055V31.7382H70.4795ZM27.5092 34.1671H21.6062L27.5092 41.4118V68.2438H20.623V28.6357H27.5092V34.1671Z"/>
</mask>
<path fill-rule="evenodd" clip-rule="evenodd" d="M72.5402 40.2794C71.4713 37.7999 69.9901 35.6446 68.0926 33.8219C66.195 31.9949 63.9711 30.5721 61.421 29.5407C58.8752 28.5136 56.119 28 53.1567 28C50.1945 28 47.434 28.5052 44.8881 29.5155C42.338 30.5258 40.1142 31.9528 38.2166 33.7966C36.319 35.6404 34.8379 37.7999 33.7689 40.2836C32.7042 42.7673 32.1719 45.4782 32.1719 48.4165C32.1719 51.3548 32.7042 54.07 33.7689 56.5495C34.8336 59.0289 36.3233 61.1927 38.2424 63.0365C40.1571 64.8803 42.381 66.3158 44.9139 67.3429C47.4426 68.37 50.1902 68.8836 53.1567 68.8836C53.9853 68.8836 54.7924 68.8331 55.5866 68.7531L51.77 62.6534C50.2717 62.5271 48.8593 62.1946 47.5413 61.6515C45.8241 60.9443 44.3343 59.9424 43.0679 58.6459C41.8014 57.3535 40.8183 55.8381 40.1099 54.0995C39.4058 52.3609 39.0538 50.4666 39.0538 48.4123C39.0538 46.3917 39.4058 44.5142 40.1099 42.7757C40.814 41.0413 41.8014 39.5259 43.0679 38.2293C44.33 36.937 45.8241 35.9351 47.5413 35.2237C49.2586 34.5165 51.1261 34.1586 53.1524 34.1586C55.1745 34.1586 57.0463 34.5122 58.7636 35.2237C60.4808 35.9351 61.9705 36.9328 63.237 38.2293C64.5035 39.5217 65.4866 41.0371 66.1907 42.7757C66.8948 44.5142 67.2511 46.3917 67.2511 48.4123C67.2511 50.4666 66.8991 52.3651 66.1907 54.0995C65.4866 55.8381 64.5035 57.3493 63.237 58.6459C62.8185 59.0729 62.3757 59.4682 61.9083 59.8318L57.2218 52.4029H49.9579L62.8587 73.03H70.2343L65.3207 65.2411C66.296 64.5867 67.2105 63.8516 68.0625 63.0323C69.9772 61.1885 71.467 59.0289 72.5359 56.5453C73.6006 54.0658 74.133 51.3548 74.133 48.4123C74.133 45.4698 73.6049 42.7631 72.5402 40.2794ZM68.4868 29.1072V31.7382H69.1436V29.1072H69.9593V28.5474H67.6582V29.1072H68.4868ZM70.4795 31.7382V28.5474H71.1106L72.1799 29.9466L73.2228 28.5474H73.8539V31.7382H73.197V29.6513L72.2096 30.9089H72.1281L71.1363 29.6055V31.7382H70.4795ZM27.5092 34.1671H21.6062L27.5092 41.4118V68.2438H20.623V28.6357H27.5092V34.1671Z" fill="white"/>
<path d="M68.0926 33.8219L67.2551 34.6917L67.2561 34.6927L68.0926 33.8219ZM72.5402 40.2794L73.6501 39.8036L73.6491 39.8013L72.5402 40.2794ZM61.421 29.5407L61.8737 28.4213L61.8728 28.4209L61.421 29.5407ZM44.8881 29.5155L45.3329 30.6381L45.3335 30.6378L44.8881 29.5155ZM38.2166 33.7966L37.3751 32.9306L38.2166 33.7966ZM33.7689 40.2836L32.6598 39.8062L32.6591 39.8078L33.7689 40.2836ZM33.7689 56.5495L32.6594 57.0259L33.7689 56.5495ZM38.2424 63.0365L39.0799 62.1667L39.079 62.1658L38.2424 63.0365ZM44.9139 67.3429L45.3683 66.2242L45.3677 66.2239L44.9139 67.3429ZM55.5866 68.7531L55.7076 69.9545L57.6409 69.7598L56.6103 68.1126L55.5866 68.7531ZM51.77 62.6534L52.7937 62.0129L52.4733 61.5009L51.8715 61.4502L51.77 62.6534ZM47.5413 61.6515L48.0013 60.5351L48.0011 60.535L47.5413 61.6515ZM43.0679 58.6459L43.9316 57.8021L43.9303 57.8007L43.0679 58.6459ZM40.1099 54.0995L38.9907 54.5527L38.9917 54.5551L40.1099 54.0995ZM40.1099 42.7757L38.9911 42.3215L38.9907 42.3224L40.1099 42.7757ZM43.0679 38.2293L43.9316 39.0731L43.9317 39.073L43.0679 38.2293ZM47.5413 35.2237L47.0815 34.1072L47.0792 34.1081L47.5413 35.2237ZM63.237 38.2293L62.3732 39.0731L62.3746 39.0745L63.237 38.2293ZM66.1907 54.0995L65.0728 53.6429L65.0715 53.6463L66.1907 54.0995ZM63.237 58.6459L64.0994 59.491L64.1008 59.4896L63.237 58.6459ZM61.9083 59.8318L60.8871 60.4761L61.598 61.603L62.6497 60.7848L61.9083 59.8318ZM57.2218 52.4029L58.2431 51.7587L57.8878 51.1954H57.2218V52.4029ZM49.9579 52.4029V51.1954H47.7784L48.9341 53.0432L49.9579 52.4029ZM62.8587 73.03L61.835 73.6702L62.1897 74.2374H62.8587V73.03ZM70.2343 73.03V74.2374H72.4238L71.2556 72.3857L70.2343 73.03ZM65.3207 65.2411L64.6479 64.2384L63.6732 64.8925L64.2995 65.8853L65.3207 65.2411ZM68.0625 63.0323L68.8995 63.9026L68.9001 63.902L68.0625 63.0323ZM72.5359 56.5453L73.6451 57.0226L73.6455 57.0217L72.5359 56.5453ZM68.4868 31.7382H67.2793V32.9457H68.4868V31.7382ZM68.4868 29.1072H69.6943V27.8998H68.4868V29.1072ZM69.1436 31.7382V32.9457H70.3511V31.7382H69.1436ZM69.1436 29.1072V27.8998H67.9361V29.1072H69.1436ZM69.9593 29.1072V30.3147H71.1668V29.1072H69.9593ZM69.9593 28.5474H71.1668V27.3399H69.9593V28.5474ZM67.6582 28.5474V27.3399H66.4507V28.5474H67.6582ZM67.6582 29.1072H66.4507V30.3147H67.6582V29.1072ZM70.4795 28.5474V27.3399H69.272V28.5474H70.4795ZM70.4795 31.7382H69.272V32.9457H70.4795V31.7382ZM71.1106 28.5474L72.07 27.8142L71.7075 27.3399H71.1106V28.5474ZM72.1799 29.9466L71.2205 30.6798L72.1919 31.9509L73.148 30.6682L72.1799 29.9466ZM73.2228 28.5474V27.3399H72.6168L72.2547 27.8257L73.2228 28.5474ZM73.8539 28.5474H75.0614V27.3399H73.8539V28.5474ZM73.8539 31.7382V32.9457H75.0614V31.7382H73.8539ZM73.197 31.7382H71.9896V32.9457H73.197V31.7382ZM73.197 29.6513H74.4045V26.158L72.2473 28.9056L73.197 29.6513ZM72.2096 30.9089V32.1164H72.7968L73.1594 31.6546L72.2096 30.9089ZM72.1281 30.9089L71.1671 31.6401L71.5295 32.1164H72.1281V30.9089ZM71.1363 29.6055L72.0973 28.8744L69.9289 26.0243V29.6055H71.1363ZM71.1363 31.7382V32.9457H72.3438V31.7382H71.1363ZM21.6062 34.1671V32.9596H19.0647L20.6701 34.9298L21.6062 34.1671ZM27.5092 34.1671V35.3746H28.7167V34.1671H27.5092ZM27.5092 41.4118H28.7167V40.9822L28.4453 40.6491L27.5092 41.4118ZM27.5092 68.2438V69.4513H28.7167V68.2438H27.5092ZM20.623 68.2438H19.4156V69.4513H20.623V68.2438ZM20.623 28.6357V27.4282H19.4156V28.6357H20.623ZM27.5092 28.6357H28.7167V27.4282H27.5092V28.6357ZM67.2561 34.6927C69.0336 36.4001 70.4239 38.4206 71.4314 40.7575L73.6491 39.8013C72.5186 37.1793 70.9466 34.8891 68.929 32.9511L67.2561 34.6927ZM60.9683 30.6601C63.3834 31.6369 65.4747 32.9776 67.2551 34.6917L68.93 32.952C66.9153 31.0122 64.5589 29.5073 61.8737 28.4213L60.9683 30.6601ZM53.1567 29.2075C55.9766 29.2075 58.5781 29.6958 60.9692 30.6605L61.8728 28.4209C59.1723 27.3314 56.2614 26.7925 53.1567 26.7925V29.2075ZM45.3335 30.6378C47.7261 29.6883 50.3341 29.2075 53.1567 29.2075V26.7925C50.0548 26.7925 47.1418 27.322 44.4428 28.3931L45.3335 30.6378ZM39.0581 34.6626C40.8374 32.9337 42.9251 31.592 45.3329 30.6381L44.4434 28.3929C41.751 29.4595 39.391 30.9719 37.3751 32.9306L39.0581 34.6626ZM34.878 40.761C35.8856 38.4201 37.2768 36.3934 39.0581 34.6626L37.3751 32.9306C35.3613 34.8874 33.7903 37.1798 32.6598 39.8062L34.878 40.761ZM33.3794 48.4165C33.3794 45.6274 33.8839 43.08 34.8787 40.7594L32.6591 39.8078C31.5245 42.4545 30.9644 45.3291 30.9644 48.4165H33.3794ZM34.8784 56.073C33.8841 53.7574 33.3794 51.2061 33.3794 48.4165H30.9644C30.9644 51.5036 31.5244 54.3827 32.6594 57.0259L34.8784 56.073ZM39.079 62.1658C37.2787 60.436 35.8807 58.4071 34.8784 56.073L32.6594 57.0259C33.7865 59.6507 35.368 61.9493 37.4058 63.9072L39.079 62.1658ZM45.3677 66.2239C42.9732 65.2529 40.8806 63.9007 39.0799 62.1667L37.4048 63.9063C39.4336 65.8599 41.7887 67.3786 44.4601 68.4619L45.3677 66.2239ZM53.1567 67.6761C50.3323 67.6761 47.7405 67.1878 45.3683 66.2242L44.4595 68.4616C47.1446 69.5523 50.048 70.0911 53.1567 70.0911V67.6761ZM55.4657 67.5517C54.702 67.6286 53.9363 67.6761 53.1567 67.6761V70.0911C54.0343 70.0911 54.8828 70.0376 55.7076 69.9545L55.4657 67.5517ZM50.7464 63.2939L54.563 69.3936L56.6103 68.1126L52.7937 62.0129L50.7464 63.2939ZM47.0813 62.768C48.5213 63.3613 50.0556 63.7207 51.6686 63.8566L51.8715 61.4502C50.4879 61.3336 49.1973 61.0278 48.0013 60.5351L47.0813 62.768ZM42.2041 59.4896C43.5878 60.9062 45.2158 61.9997 47.0815 62.768L48.0011 60.535C46.4323 59.8889 45.0809 58.9787 43.9316 57.8021L42.2041 59.4896ZM38.9917 54.5551C39.7563 56.4318 40.824 58.0813 42.2054 59.491L43.9303 57.8007C42.7788 56.6257 41.8802 55.2443 41.2281 53.6439L38.9917 54.5551ZM37.8463 48.4123C37.8463 50.6073 38.223 52.6572 38.9907 54.5527L41.2291 53.6463C40.5886 52.0647 40.2613 50.3259 40.2613 48.4123H37.8463ZM38.9907 42.3224C38.224 44.2157 37.8463 46.2483 37.8463 48.4123H40.2613C40.2613 46.5352 40.5876 44.8128 41.2291 43.2289L38.9907 42.3224ZM42.2041 37.3856C40.8251 38.7973 39.7524 40.4461 38.9911 42.3215L41.2287 43.2299C41.8755 41.6366 42.7777 40.2544 43.9316 39.0731L42.2041 37.3856ZM47.0792 34.1081C45.2165 34.8798 43.5844 35.9722 42.204 37.3856L43.9317 39.073C45.0757 37.9017 46.4316 36.9904 48.0035 36.3392L47.0792 34.1081ZM53.1524 32.9512C50.9806 32.9512 48.9555 33.3354 47.0815 34.1072L48.0011 36.3402C49.5616 35.6975 51.2716 35.3661 53.1524 35.3661V32.9512ZM59.2257 34.1081C57.3486 33.3305 55.318 32.9512 53.1524 32.9512V35.3661C55.0311 35.3661 56.744 35.694 58.3014 36.3392L59.2257 34.1081ZM64.1008 37.3856C62.716 35.9679 61.0882 34.8797 59.2257 34.1081L58.3014 36.3392C59.8735 36.9905 61.2251 37.8977 62.3732 39.0731L64.1008 37.3856ZM67.3099 42.3224C66.5491 40.444 65.4809 38.7938 64.0994 37.3842L62.3746 39.0745C63.5261 40.2495 64.4241 41.6303 65.0715 43.2289L67.3099 42.3224ZM68.4586 48.4123C68.4586 46.2464 68.0759 44.214 67.3099 42.3224L65.0715 43.2289C65.7136 44.8145 66.0436 46.537 66.0436 48.4123H68.4586ZM67.3085 54.5561C68.082 52.6623 68.4586 50.6067 68.4586 48.4123H66.0436C66.0436 50.3265 65.7161 52.068 65.0728 53.6429L67.3085 54.5561ZM64.1008 59.4896C65.4803 58.0773 66.5487 56.4324 67.3099 54.5527L65.0715 53.6463C64.4245 55.2438 63.5267 56.6213 62.3732 57.8021L64.1008 59.4896ZM62.6497 60.7848C63.1603 60.3877 63.6435 59.9562 64.0994 59.491L62.3746 57.8007C61.9936 58.1895 61.5911 58.5487 61.1669 58.8787L62.6497 60.7848ZM56.2006 53.0472L60.8871 60.4761L62.9296 59.1875L58.2431 51.7587L56.2006 53.0472ZM49.9579 53.6104H57.2218V51.1954H49.9579V53.6104ZM63.8825 72.3897L50.9816 51.7626L48.9341 53.0432L61.835 73.6702L63.8825 72.3897ZM70.2343 71.8225H62.8587V74.2374H70.2343V71.8225ZM64.2995 65.8853L69.2131 73.6742L71.2556 72.3857L66.342 64.5968L64.2995 65.8853ZM67.2255 62.1619C66.4249 62.9318 65.5654 63.6227 64.6479 64.2384L65.9936 66.2437C67.0265 65.5506 67.9961 64.7714 68.8995 63.9026L67.2255 62.1619ZM71.4268 56.0679C70.4203 58.4064 69.0221 60.4319 67.2249 62.1625L68.9001 63.902C70.9324 61.945 72.5136 59.6514 73.6451 57.0226L71.4268 56.0679ZM72.9255 48.4123C72.9255 51.206 72.4208 53.7531 71.4264 56.0688L73.6455 57.0217C74.7804 54.3786 75.3405 51.5037 75.3405 48.4123H72.9255ZM71.4304 40.7551C72.4248 43.0748 72.9255 45.6178 72.9255 48.4123H75.3405C75.3405 45.3219 74.7851 42.4513 73.6501 39.8036L71.4304 40.7551ZM69.6943 31.7382V29.1072H67.2793V31.7382H69.6943ZM69.1436 30.5308H68.4868V32.9457H69.1436V30.5308ZM67.9361 29.1072V31.7382H70.3511V29.1072H67.9361ZM69.9593 27.8998H69.1436V30.3147H69.9593V27.8998ZM68.7518 28.5474V29.1072H71.1668V28.5474H68.7518ZM67.6582 29.7549H69.9593V27.3399H67.6582V29.7549ZM68.8657 29.1072V28.5474H66.4507V29.1072H68.8657ZM68.4868 27.8998H67.6582V30.3147H68.4868V27.8998ZM69.272 28.5474V31.7382H71.687V28.5474H69.272ZM71.1106 27.3399H70.4795V29.7549H71.1106V27.3399ZM73.1393 29.2134L72.07 27.8142L70.1512 29.2806L71.2205 30.6798L73.1393 29.2134ZM72.2547 27.8257L71.2117 29.2249L73.148 30.6682L74.1909 29.269L72.2547 27.8257ZM73.8539 27.3399H73.2228V29.7549H73.8539V27.3399ZM75.0614 31.7382V28.5474H72.6464V31.7382H75.0614ZM73.197 32.9457H73.8539V30.5308H73.197V32.9457ZM71.9896 29.6513V31.7382H74.4045V29.6513H71.9896ZM73.1594 31.6546L74.1468 30.3969L72.2473 28.9056L71.2599 30.1633L73.1594 31.6546ZM72.1281 32.1164H72.2096V29.7015H72.1281V32.1164ZM70.1754 30.3366L71.1671 31.6401L73.089 30.1778L72.0973 28.8744L70.1754 30.3366ZM72.3438 31.7382V29.6055H69.9289V31.7382H72.3438ZM70.4795 32.9457H71.1363V30.5308H70.4795V32.9457ZM21.6062 35.3746H27.5092V32.9596H21.6062V35.3746ZM28.4453 40.6491L22.5423 33.4044L20.6701 34.9298L26.5732 42.1746L28.4453 40.6491ZM28.7167 68.2438V41.4118H26.3018V68.2438H28.7167ZM20.623 69.4513H27.5092V67.0363H20.623V69.4513ZM19.4156 28.6357V68.2438H21.8305V28.6357H19.4156ZM27.5092 27.4282H20.623V29.8432H27.5092V27.4282ZM28.7167 34.1671V28.6357H26.3018V34.1671H28.7167Z" fill="url(#paint1_linear_450_5726)" mask="url(#path-3-inside-1_450_5726)"/>
<defs>
<filter id="filter0_b_450_5726" x="-35.9108" y="-35.9108" width="166.822" height="166.822" filterUnits="userSpaceOnUse" color-interpolation-filters="sRGB">
<feFlood flood-opacity="0" result="BackgroundImageFix"/>
<feGaussianBlur in="BackgroundImageFix" stdDeviation="17.9554"/>
<feComposite in2="SourceAlpha" operator="in" result="effect1_backgroundBlur_450_5726"/>
<feBlend mode="normal" in="SourceGraphic" in2="effect1_backgroundBlur_450_5726" result="shape"/>
</filter>
<linearGradient id="paint0_linear_450_5726" x1="71.875" y1="-6.78573" x2="-3.91112" y2="12.2515" gradientUnits="userSpaceOnUse">
<stop stop-color="white"/>
<stop offset="1" stop-color="white" stop-opacity="0"/>
</linearGradient>
<linearGradient id="paint1_linear_450_5726" x1="61.1075" y1="24.7836" x2="19.4393" y2="37.2216" gradientUnits="userSpaceOnUse">
<stop stop-color="white"/>
<stop offset="1" stop-color="white" stop-opacity="0"/>
</linearGradient>
</defs>
</svg>
