<svg width="160" height="46" viewBox="0 0 160 46" fill="none" xmlns="http://www.w3.org/2000/svg">
<g clip-path="url(#clip0_82_13495)">
<path fill-rule="evenodd" clip-rule="evenodd" d="M37.4064 22.1091H54.6502V21.082C54.6502 17.5684 53.5691 14.7034 51.4609 12.5412C49.3527 10.379 46.5959 9.29785 43.2444 9.29785C40.1091 9.29785 37.4604 10.379 35.3522 12.5412C33.244 14.6494 32.217 17.4062 32.217 20.6496C32.217 23.8389 33.2981 26.4876 35.4063 28.5958C37.5145 30.704 40.2713 31.7851 43.6228 31.7851C45.785 31.7851 47.677 31.4067 49.2446 30.65C50.8122 29.8391 52.1636 28.7039 53.2988 27.0823L48.7581 24.9741C47.2986 26.3795 45.5688 27.0823 43.5687 27.0823C41.893 27.0823 40.4875 26.6498 39.4064 25.7309C38.3253 24.866 37.6766 23.6227 37.4064 22.1091ZM49.2273 17.8386C49.2332 17.8566 49.239 17.8746 49.2447 17.8927V17.8386H49.2273ZM47.1365 14.9737C48.2012 15.719 48.8465 16.6739 49.2273 17.8386H37.6227C38.2173 16.5413 38.866 15.6223 39.5687 15.0818C40.7039 14.2709 42.0012 13.8385 43.5148 13.8385C44.8662 13.8385 46.1095 14.2169 47.1365 14.9737Z" fill="#0076BB"/>
<path fill-rule="evenodd" clip-rule="evenodd" d="M73.0833 10.8114C71.2995 9.78436 69.4075 9.29785 67.4075 9.29785C64.5965 9.29785 62.11 10.2709 60.0018 12.1628C57.5693 14.4332 56.326 17.19 56.326 20.5415C56.326 23.6767 57.4071 26.3255 59.5693 28.4877C61.7316 30.704 64.3263 31.7851 67.4075 31.7851C69.5156 31.7851 71.4076 31.2986 73.1374 30.3256C74.8672 29.3526 76.2186 27.9472 77.2456 26.2174C78.2727 24.4335 78.7592 22.5416 78.7592 20.5415C78.7592 18.5414 78.2727 16.6495 77.2456 14.9197C76.2186 13.1899 74.8672 11.8385 73.0833 10.8114ZM63.2994 16.0548C64.3805 14.9196 65.7859 14.325 67.4617 14.325C69.1915 14.325 70.5969 14.9196 71.678 16.0548C72.7592 17.19 73.2997 18.7036 73.2997 20.5415C73.2997 22.3794 72.7592 23.8929 71.624 25.0281C70.4888 26.1633 69.0833 26.7579 67.4076 26.7579C65.7319 26.7579 64.3264 26.1633 63.2453 25.0281C62.1642 23.8389 61.6236 22.3253 61.6236 20.4874C61.6236 18.7036 62.1642 17.19 63.2994 16.0548Z" fill="#0076BB"/>
<path d="M98.1649 5.35159L94.1107 8.97334C92.7052 6.97327 91.2457 6.00026 89.7321 6.00026C89.0294 6.00026 88.4348 6.21649 87.9483 6.59488C87.4618 6.97327 87.2456 7.40572 87.2456 7.89222C87.2456 8.37872 87.4077 8.81117 87.7321 9.24362C88.1645 9.83823 89.5159 11.0815 91.7863 12.9735C93.8944 14.7033 95.1377 15.8384 95.6242 16.2709C96.7594 17.4061 97.5162 18.4872 98.0027 19.5142C98.4892 20.5413 98.7054 21.6765 98.7054 22.8657C98.7054 25.2442 97.8946 27.1902 96.2188 28.7578C94.5972 30.3254 92.4349 31.0822 89.7862 31.0822C87.7321 31.0822 85.9482 30.5957 84.3806 29.5687C82.867 28.5416 81.5697 26.974 80.4345 24.8117L85.0833 22.0008C86.4888 24.5415 88.0564 25.8388 89.8943 25.8388C90.8132 25.8388 91.6241 25.5685 92.2728 25.028C92.9214 24.4874 93.2458 23.8387 93.2458 23.136C93.2458 22.4873 93.0295 21.8387 92.543 21.19C92.0565 20.5413 90.9754 19.5142 89.3537 18.1629C86.2185 15.5682 84.1644 13.6222 83.2454 12.2167C82.3265 10.8112 81.894 9.40579 81.894 8.05439C81.894 6.05432 82.6508 4.32453 84.1644 2.91907C85.6779 1.45956 87.5699 0.756836 89.8402 0.756836C91.2998 0.756836 92.6512 1.08117 93.9485 1.7839C95.2458 2.32446 96.6513 3.56775 98.1649 5.35159Z" fill="#6AA239"/>
<path fill-rule="evenodd" clip-rule="evenodd" d="M123.572 8.91898H118.274V11.2434C117.301 10.2704 116.274 9.56765 115.139 9.08115C114.004 8.59464 112.814 8.37842 111.517 8.37842C108.706 8.37842 106.328 9.45954 104.382 11.5677C102.436 13.6759 101.463 16.3787 101.463 19.6761C101.463 22.8654 102.49 25.5142 104.49 27.6764C106.544 29.7846 108.922 30.8657 111.679 30.8657C112.869 30.8657 114.058 30.6495 115.085 30.217C116.112 29.7846 117.193 29.0278 118.22 28.0548V30.3251H123.572V8.91898ZM108.436 15.1356C109.517 13.9464 110.868 13.3517 112.544 13.3517C114.274 13.3517 115.679 13.8923 116.814 15.0275C117.949 16.2167 118.49 17.7303 118.49 19.5682C118.49 21.4601 117.949 22.9737 116.814 24.1629C115.679 25.3522 114.274 25.9468 112.598 25.9468C110.976 25.9468 109.625 25.3522 108.49 24.1629C107.354 22.9737 106.814 21.4601 106.814 19.6222C106.814 17.8384 107.354 16.3248 108.436 15.1356Z" fill="#0076BB"/>
<path d="M125.517 8.91952H127.409C127.409 6.10861 127.463 4.43287 127.571 3.94637C127.733 2.75714 128.22 1.83819 129.031 1.13546C129.896 0.432734 131.085 0.108398 132.598 0.108398C133.734 0.108398 134.977 0.378678 136.382 0.865182V4.97343C135.626 4.75721 134.977 4.6491 134.49 4.6491C133.842 4.6491 133.409 4.75721 133.139 5.02749C132.923 5.24371 132.815 5.6221 132.815 6.27078V8.91952H136.22V13.4602H132.815V30.3257H127.463V13.4602H125.571V8.91952H125.517Z" fill="#0076BB"/>
<path fill-rule="evenodd" clip-rule="evenodd" d="M142.545 21.1897H159.789V20.1626C159.789 16.649 158.708 13.784 156.599 11.6218C154.491 9.45954 151.734 8.37842 148.383 8.37842C145.248 8.37842 142.599 9.45954 140.491 11.6218C138.383 13.73 137.355 16.4868 137.355 19.7302C137.355 22.9195 138.437 25.5682 140.545 27.6764C142.653 29.7846 145.41 30.8657 148.761 30.8657C150.924 30.8657 152.815 30.4873 154.383 29.7305C155.951 28.9197 157.302 27.7845 158.437 26.1628L153.897 24.0546C152.437 25.4601 150.707 26.1628 148.707 26.1628C147.031 26.1628 145.626 25.7304 144.545 24.8114C143.464 23.9465 142.815 22.7032 142.545 21.1897ZM154.42 16.9196C154.426 16.9375 154.431 16.9556 154.437 16.9736V16.9196H154.42ZM152.329 14.0546C153.394 14.7999 154.039 15.7549 154.42 16.9196H142.815C143.41 15.6222 144.058 14.7033 144.761 14.1627C145.896 13.3519 147.194 12.9194 148.707 12.9194C150.059 12.9194 151.302 13.2978 152.329 14.0546Z" fill="#0076BB"/>
<path fill-rule="evenodd" clip-rule="evenodd" d="M28.001 5.51385L24.109 9.35182C21.6764 6.75714 18.8115 5.45979 15.5141 5.45979C12.6491 5.45979 10.2706 6.37874 8.37867 8.2707C6.43266 10.1627 5.51371 12.433 5.51371 15.1358C5.51371 17.9467 6.48671 20.2711 8.48678 22.2171C10.4869 24.1632 12.9194 25.1362 15.8384 25.1362C17.7304 25.1362 19.352 24.7578 20.6494 23.9469C21.9467 23.1361 23.0278 21.8928 23.7846 20.2171H15.5141V15.0818H30.0551L30.1092 16.271C30.1092 17.8927 29.8389 19.4062 29.3524 20.9198V20.9198V20.9198C29.028 21.7847 28.6497 22.6496 28.1631 23.4604C23.8927 30.7039 18.1628 38.6501 13.568 46.0018C9.89224 38.5961 6.10832 29.9471 2.05413 22.8658C0.702727 20.4873 0 17.8927 0 15.0818C0 11.2438 1.24329 7.94637 3.78392 5.0814C6.81105 1.72993 10.7031 0.0541992 15.5141 0.0541992C18.0547 0.0541992 20.3791 0.540703 22.5954 1.45965C24.4333 2.21644 26.2712 3.56784 28.001 5.51385Z" fill="#7AB841"/>
<path fill-rule="evenodd" clip-rule="evenodd" d="M19.1352 21.5142L13.7296 16.487L10.9727 9.72998L16.3783 14.7572L19.1352 21.5142Z" fill="#F58220"/>
<path fill-rule="evenodd" clip-rule="evenodd" d="M16.3783 14.7572L10.9727 9.72998L15.135 15.6761L16.3783 14.7572Z" fill="#C2671B"/>
<path fill-rule="evenodd" clip-rule="evenodd" d="M13.7296 16.4871L19.1352 21.5143L15.1351 15.6763L13.7296 16.4871Z" fill="#C2671B"/>
<path fill-rule="evenodd" clip-rule="evenodd" d="M8.81079 19.298L14.2704 14.2168L21.2977 12.0005L15.784 17.0277L8.81079 19.298Z" fill="#F58220"/>
<path fill-rule="evenodd" clip-rule="evenodd" d="M15.7837 17.0277L21.2974 12.0005L14.9728 15.6763L15.7837 17.0277Z" fill="#C2671B"/>
<path fill-rule="evenodd" clip-rule="evenodd" d="M14.2705 14.2173L8.81085 19.2985L14.9732 15.6768L14.2705 14.2173Z" fill="#C2671B"/>
<path fill-rule="evenodd" clip-rule="evenodd" d="M12.3784 25.7306L12.8109 14.9735L17.6759 5.51367L17.2435 16.2708L12.3784 25.7306Z" fill="#F58220"/>
<path fill-rule="evenodd" clip-rule="evenodd" d="M17.2433 16.2708L17.6758 5.51367L15.027 15.7302L17.2433 16.2708Z" fill="#C2671B"/>
<path fill-rule="evenodd" clip-rule="evenodd" d="M12.811 14.9736L12.3785 25.7308L15.0273 15.7304L12.811 14.9736Z" fill="#C2671B"/>
<path fill-rule="evenodd" clip-rule="evenodd" d="M25.4059 17.5144L14.5406 17.8927L4.70245 13.7845L15.5136 13.3521L25.4059 17.5144Z" fill="#F58220"/>
<path fill-rule="evenodd" clip-rule="evenodd" d="M15.5136 13.3521L4.70245 13.7845L15.1893 15.6224L15.5136 13.3521Z" fill="#C2671B"/>
<path fill-rule="evenodd" clip-rule="evenodd" d="M14.5943 17.8924L25.4055 17.514L15.1889 15.6221L14.5943 17.8924Z" fill="#C2671B"/>
<path fill-rule="evenodd" clip-rule="evenodd" d="M3.13507 31.2443L13.3516 14.1627L26.9197 0L16.7572 17.0817L3.13507 31.2443Z" fill="#0F2050"/>
<path fill-rule="evenodd" clip-rule="evenodd" d="M16.7565 17.0817L26.9191 0L14.9186 15.8384L16.7565 17.0817Z" fill="#0076BB"/>
<path fill-rule="evenodd" clip-rule="evenodd" d="M13.2974 14.2168L3.13489 31.2444L14.9191 15.8385L13.2974 14.2168Z" fill="#0076BB"/>
<path fill-rule="evenodd" clip-rule="evenodd" d="M15.4598 13.298C16.7571 13.5142 17.568 14.7575 17.3518 16.0548C17.1355 17.3522 15.8923 18.163 14.5949 17.9468C13.2976 17.7306 12.4867 16.4873 12.703 15.1899C12.9732 13.8926 14.1625 13.0818 15.4598 13.298V13.298ZM15.3516 13.9466C14.4327 13.7844 13.5137 14.379 13.3516 15.298C13.1894 16.2169 13.784 17.1359 14.703 17.298C15.6219 17.4602 16.5409 16.8656 16.703 15.9466C16.9192 15.0277 16.2706 14.1087 15.3516 13.9466Z" fill="white"/>
<circle cx="15.027" cy="15.6292" r="1.72987" transform="rotate(-28.2538 15.027 15.6292)" fill="#0076BB"/>
<path d="M31.7845 38.1636L31.298 38.5419C31.0277 38.1636 30.7034 37.8933 30.325 37.7311C29.9466 37.5689 29.5141 37.4608 29.0817 37.4608C28.5952 37.4608 28.1087 37.5689 27.6762 37.8392C27.2438 38.1095 26.9195 38.3798 26.7032 38.8122C26.487 39.1906 26.3789 39.6771 26.3789 40.1636C26.3789 40.9204 26.6492 41.5691 27.1897 42.0556C27.7303 42.5421 28.379 42.8124 29.1898 42.8124C30.0547 42.8124 30.8115 42.488 31.4061 41.7853L31.8926 42.1637C31.5683 42.5421 31.1899 42.8664 30.7034 43.0826C30.2169 43.2989 29.7304 43.407 29.1357 43.407C28.0546 43.407 27.1897 43.0286 26.5411 42.3259C26.0005 41.7312 25.7302 40.9745 25.7302 40.1096C25.7302 39.1906 26.0546 38.4338 26.7032 37.7852C27.3519 37.1365 28.1627 36.8662 29.1357 36.8662C29.7304 36.8662 30.2709 36.9743 30.7034 37.1905C31.0818 37.4068 31.4602 37.7311 31.7845 38.1636Z" fill="black"/>
<path fill-rule="evenodd" clip-rule="evenodd" d="M36.92 39.2451C36.4335 38.7586 35.8389 38.4883 35.1362 38.4883C34.3794 38.4883 33.8388 38.7586 33.4604 39.2451C33.028 39.7316 32.8118 40.2721 32.8118 40.9208C32.8118 41.5695 33.028 42.11 33.4604 42.5965C33.8929 43.083 34.4875 43.2993 35.1902 43.2993C35.893 43.2993 36.4876 43.083 36.92 42.5965C37.3525 42.11 37.5687 41.5695 37.5687 40.9208C37.5687 40.2721 37.3525 39.7316 36.92 39.2451ZM33.839 39.6232C34.2174 39.2448 34.6499 39.0827 35.1364 39.0827C35.6229 39.0827 36.0553 39.2989 36.4337 39.6232C36.8121 40.0016 36.9743 40.4341 36.9743 40.9746C36.9743 41.299 36.8662 41.6233 36.704 41.8936C36.5418 42.1638 36.3256 42.3801 36.0553 42.5422C35.7851 42.7044 35.4607 42.7585 35.1364 42.7585C34.8121 42.7585 34.4877 42.7044 34.2174 42.5422C33.9654 42.391 33.8074 42.1928 33.6119 41.9476C33.5977 41.9299 33.5834 41.9118 33.5688 41.8936C33.3525 41.6233 33.2985 41.299 33.2985 40.9746C33.2985 40.4341 33.4607 40.0016 33.839 39.6232Z" fill="black"/>
<path d="M38.6496 38.6501H39.2442V39.4609C39.4604 39.1907 39.6767 38.9744 39.8929 38.8123C40.2172 38.6501 40.4875 38.542 40.8659 38.542C41.0821 38.542 41.2983 38.596 41.5146 38.6501C41.7308 38.7582 41.893 38.8663 42.0011 38.9744C42.1092 39.1366 42.2173 39.3528 42.3254 39.6231C42.5416 39.2447 42.7578 38.9744 43.0822 38.8123C43.4065 38.6501 43.6768 38.542 44.0552 38.542C44.3795 38.542 44.6498 38.596 44.9201 38.7582C45.1904 38.9204 45.3525 39.1366 45.4606 39.4609C45.5688 39.7312 45.6228 40.1637 45.6228 40.7583V43.2989H45.0282V40.7583C45.0282 40.2718 44.9741 39.9474 44.9201 39.7312C44.866 39.5691 44.7039 39.4069 44.5417 39.2988C44.3795 39.1907 44.1633 39.1366 43.9471 39.1366C43.6768 39.1366 43.4065 39.2447 43.1362 39.4069C42.92 39.5691 42.7038 39.7853 42.5957 40.1096C42.4876 40.3799 42.4335 40.8664 42.4335 41.5151V43.353H41.8389V40.9745C41.8389 40.434 41.7848 40.0556 41.7308 39.8393C41.6767 39.6231 41.5146 39.4609 41.3524 39.3528C41.1902 39.2447 40.974 39.1907 40.7578 39.1907C40.4875 39.1907 40.2172 39.2988 40.001 39.4609C39.7848 39.6231 39.5685 39.8393 39.4604 40.1096C39.3523 40.3799 39.2983 40.8123 39.2983 41.407V43.353H38.7037V38.6501H38.6496Z" fill="black"/>
<path fill-rule="evenodd" clip-rule="evenodd" d="M47.4072 38.6502H46.8126V45.0288H47.4072V42.5423C47.6234 42.8666 47.8937 43.0828 48.218 43.245C48.5424 43.4072 48.8667 43.4612 49.2451 43.4612C49.8937 43.4612 50.4343 43.245 50.9208 42.7585C51.4073 42.272 51.6235 41.7314 51.6235 41.0287C51.6235 40.326 51.3533 39.7854 50.9208 39.2989C50.4884 38.8124 49.8937 38.5962 49.2451 38.5962C48.8667 38.5962 48.5424 38.6502 48.218 38.8124C47.8937 38.9746 47.6234 39.1908 47.4072 39.5151V38.6502ZM47.8934 39.6232C48.2178 39.2448 48.6502 39.0827 49.1908 39.0827C49.5151 39.0827 49.8394 39.1908 50.0557 39.3529C50.3259 39.5151 50.5422 39.7854 50.7043 40.0557C50.8665 40.3259 50.9746 40.6503 50.9746 40.9746C50.9746 41.299 50.8665 41.5692 50.7043 41.8936C50.5422 42.2179 50.3259 42.4341 50.0557 42.5963C49.7313 42.7585 49.461 42.8666 49.1367 42.8666C48.8124 42.8666 48.488 42.7585 48.2178 42.5963C47.9475 42.4341 47.7312 42.2179 47.5691 41.9476C47.4069 41.6233 47.3529 41.353 47.3529 40.9746C47.3529 40.4341 47.515 40.0016 47.8934 39.6232Z" fill="black"/>
<path d="M52.6503 36.8662H53.2449V43.2989H52.6503V36.8662Z" fill="black"/>
<path fill-rule="evenodd" clip-rule="evenodd" d="M58.867 42.0019L58.3805 41.7316C58.2183 42.0019 58.0562 42.2722 57.894 42.3803C57.8717 42.3952 57.8484 42.4111 57.8242 42.4275C57.6724 42.531 57.4859 42.658 57.2994 42.7046C57.0832 42.7587 56.8129 42.8128 56.5967 42.8128C56.1102 42.8128 55.7318 42.5965 55.3534 42.2722C54.975 41.9479 54.8128 41.5154 54.8128 40.9749H58.9751C58.9751 40.3802 58.813 39.8397 58.4886 39.4072C58.0021 38.8126 57.4075 38.4883 56.5967 38.4883C55.8399 38.4883 55.1912 38.7586 54.7588 39.3532C54.3804 39.7856 54.2182 40.3262 54.2182 40.9208C54.2182 41.5154 54.4344 42.11 54.8669 42.5965C55.2993 43.083 55.8939 43.3533 56.6507 43.3533C56.9751 43.3533 57.2994 43.2993 57.5697 43.1911C57.8399 43.083 58.0562 42.9749 58.2724 42.7587C58.4886 42.5965 58.7048 42.3263 58.867 42.0019ZM58.056 39.7313C58.1641 39.8935 58.3263 40.1638 58.3803 40.4881H54.9208C55.0289 40.0557 55.2451 39.7313 55.4613 39.5151C55.7857 39.2448 56.2181 39.0827 56.6505 39.0827C56.9749 39.0827 57.1911 39.1367 57.4614 39.2448C57.5201 39.2889 57.5788 39.3289 57.6365 39.3682C57.7911 39.4737 57.9379 39.5738 58.056 39.7313Z" fill="black"/>
<path d="M60.6508 36.9204H61.2454V38.6502H62.1644V39.1908H61.2454V43.299H60.6508V39.1908H59.84V38.6502H60.6508V36.9204Z" fill="black"/>
<path fill-rule="evenodd" clip-rule="evenodd" d="M67.5158 42.0019L67.0293 41.7316C66.9271 41.8593 66.837 41.987 66.759 42.0976C66.6719 42.2211 66.5998 42.3233 66.5427 42.3803C66.5205 42.3952 66.4971 42.4111 66.473 42.4275C66.3211 42.531 66.1346 42.658 65.9481 42.7046C65.7319 42.7587 65.4616 42.8128 65.2454 42.8128C64.7589 42.8128 64.3805 42.5965 64.0021 42.2722C63.6237 41.9479 63.4616 41.5154 63.4616 40.9749H67.6239C67.6239 40.3802 67.4617 39.8397 67.1374 39.4072C66.6509 38.8126 66.0562 38.4883 65.2454 38.4883C64.4886 38.4883 63.84 38.7586 63.4075 39.3532C63.0291 39.7856 62.8669 40.3262 62.8669 40.9208C62.8669 41.5154 63.0832 42.11 63.5156 42.5965C63.9481 43.083 64.5427 43.3533 65.2995 43.3533C65.6238 43.3533 65.9481 43.2993 66.2184 43.1911C66.4887 43.083 66.7049 42.9749 66.9211 42.7587C67.1374 42.5965 67.3536 42.3263 67.5158 42.0019ZM66.7047 39.7313C66.8128 39.8935 66.975 40.1638 67.0291 40.4881H63.5695C63.6776 40.0557 63.8938 39.7313 64.11 39.5151C64.4344 39.2448 64.8668 39.0827 65.2993 39.0827C65.6236 39.0827 65.8398 39.1367 66.1101 39.2448C66.1688 39.2889 66.2275 39.3289 66.2852 39.3682C66.4398 39.4737 66.5866 39.5738 66.7047 39.7313Z" fill="black"/>
<path d="M77.2998 38.0556L76.8133 38.5421C76.489 38.2178 76.0566 37.9475 75.6782 37.7853C75.2998 37.6231 74.8673 37.515 74.4889 37.515C74.0024 37.515 73.5159 37.6231 73.0835 37.8934C72.651 38.1096 72.2726 38.488 72.0564 38.8664C71.8402 39.2448 71.678 39.7313 71.678 40.1638C71.678 40.6503 71.7861 41.0827 72.0564 41.5152C72.3267 41.9476 72.651 42.2719 73.0835 42.4882C73.5159 42.7044 74.0024 42.8666 74.543 42.8666C75.1917 42.8666 75.7322 42.7044 76.1647 42.326C76.5971 41.9476 76.8674 41.5152 76.9755 40.9206H74.9754V40.3259H77.6782C77.6782 41.2989 77.408 42.0557 76.8133 42.6503C76.2187 43.245 75.4619 43.5152 74.543 43.5152C73.4078 43.5152 72.4889 43.1368 71.7861 42.326C71.2456 41.7314 71.0294 41.0287 71.0294 40.2178C71.0294 39.6232 71.1915 39.0826 71.4618 38.5421C71.7861 38.0556 72.1645 37.6231 72.7051 37.3529C73.2457 37.0826 73.7862 36.9204 74.4889 36.9204C75.0295 36.9204 75.516 37.0285 76.0025 37.1907C76.435 37.2988 76.8674 37.6231 77.2998 38.0556Z" fill="black"/>
<path fill-rule="evenodd" clip-rule="evenodd" d="M80.1104 37.0283H78.8671V43.2988H79.5158V40.3798H79.9482C80.705 40.3798 81.2456 40.3257 81.5158 40.2717C81.8942 40.1636 82.2186 40.0014 82.4348 39.7311C82.651 39.4608 82.7591 39.1365 82.7591 38.7041C82.7591 38.2716 82.651 37.9473 82.4348 37.677C82.2186 37.4067 81.9483 37.2445 81.5699 37.1364C81.2996 37.0824 80.8131 37.0283 80.1104 37.0283ZM79.516 39.7312V37.6231V37.569H80.6511C81.0836 37.569 81.4079 37.6231 81.5701 37.6771C81.7323 37.7312 81.8944 37.8933 82.0025 38.0555C82.1106 38.2717 82.1647 38.4339 82.1647 38.6501C82.1647 38.8663 82.1106 39.0826 82.0025 39.2447C81.8944 39.4069 81.6782 39.5691 81.516 39.6231C81.3539 39.6772 81.0295 39.7312 80.5971 39.7312H79.516Z" fill="black"/>
<path d="M83.4084 42.1098L83.949 41.7855C84.3274 42.4882 84.7598 42.8126 85.2463 42.8126C85.4626 42.8126 85.6788 42.7585 85.841 42.6504C86.0031 42.5423 86.1653 42.4342 86.2734 42.272C86.3815 42.1098 86.4356 41.9477 86.4356 41.7314C86.4356 41.5152 86.3815 41.299 86.2194 41.1368C86.0031 40.8666 85.6788 40.5422 85.1382 40.1098C84.5977 39.7314 84.2733 39.407 84.1652 39.2449C83.949 38.9746 83.8409 38.6503 83.8409 38.2719C83.8409 38.0016 83.895 37.7313 84.0571 37.5151C84.1652 37.2989 84.3815 37.1367 84.5977 36.9745C84.8139 36.8664 85.0842 36.7583 85.3545 36.7583C85.6247 36.7583 85.9491 36.8124 86.1653 36.9745C86.4356 37.1367 86.7059 37.407 86.9761 37.7854L86.4896 38.1638C86.2734 37.8394 86.0572 37.6232 85.895 37.5691C85.7329 37.461 85.5707 37.407 85.3545 37.407C85.0842 37.407 84.922 37.461 84.7598 37.6232C84.5977 37.7854 84.5436 37.9475 84.5436 38.1638C84.5436 38.3259 84.5977 38.434 84.6517 38.5421C84.7058 38.6503 84.8139 38.8124 84.9761 38.9746C85.0842 39.0287 85.3545 39.2449 85.7869 39.6233C86.3275 40.0017 86.7059 40.38 86.9221 40.7044C87.1383 41.0287 87.2464 41.3531 87.2464 41.6233C87.2464 42.0558 87.0843 42.4882 86.7059 42.8126C86.3815 43.1369 85.9491 43.2991 85.4626 43.2991C85.0842 43.2991 84.7598 43.191 84.4355 42.9747C84.1112 42.7585 83.6787 42.5963 83.4084 42.1098Z" fill="black"/>
<path d="M90.1652 37.6229V37.0283H93.5707V37.6229H92.1653V43.2448H91.5166V37.6229H90.1652Z" fill="black"/>
<path d="M93.8952 38.6501H94.4898V39.3528C94.652 39.0826 94.8682 38.8663 95.0844 38.7582C95.3007 38.6501 95.5169 38.542 95.7331 38.542C95.8953 38.542 96.0574 38.596 96.2737 38.7042L95.9493 39.1907C95.8412 39.1366 95.7331 39.1366 95.625 39.1366C95.4088 39.1366 95.2466 39.2447 95.0304 39.4069C94.8682 39.5691 94.706 39.8393 94.5979 40.1637C94.5439 40.434 94.4898 40.9745 94.4898 41.7853V43.353H93.8952V38.6501Z" fill="black"/>
<path fill-rule="evenodd" clip-rule="evenodd" d="M101.355 43.2989V38.6501V38.596H100.706V39.4609C100.49 39.1366 100.219 38.9204 99.895 38.7582C99.5707 38.596 99.2464 38.542 98.868 38.542C98.2193 38.542 97.6787 38.7582 97.1922 39.2447C96.7057 39.7312 96.4895 40.3258 96.4895 40.9745C96.4895 41.6772 96.7057 42.2178 97.1922 42.7043C97.6787 43.1908 98.2193 43.407 98.868 43.407C99.2464 43.407 99.5707 43.353 99.895 43.1908C100.219 43.0286 100.49 42.8124 100.76 42.4881V43.2989H101.355ZM98.0571 39.3531C98.3274 39.1909 98.6517 39.0828 98.9761 39.0828C99.5166 39.0828 99.9491 39.2449 100.219 39.6233C100.598 40.0017 100.76 40.4342 100.76 40.9747C100.76 41.3531 100.706 41.6775 100.544 41.9477C100.436 42.218 100.165 42.4342 99.895 42.5964C99.6247 42.7586 99.3004 42.8667 98.9761 42.8667C98.6517 42.8667 98.3274 42.7586 98.0571 42.5964C97.7868 42.4342 97.5706 42.164 97.4084 41.8937C97.2463 41.6234 97.1382 41.2991 97.1382 40.9747C97.1382 40.6504 97.2463 40.3801 97.4084 40.0558C97.5706 39.7315 97.7868 39.5152 98.0571 39.3531Z" fill="black"/>
<path d="M107.193 39.5694L106.706 39.8397C106.274 39.2991 105.733 39.0288 105.03 39.0288C104.49 39.0288 104.003 39.191 103.625 39.5694C103.246 39.9478 103.084 40.3802 103.084 40.8667C103.084 41.1911 103.192 41.5154 103.355 41.8397C103.517 42.1641 103.787 42.3803 104.057 42.5425C104.328 42.7046 104.706 42.8128 105.084 42.8128C105.787 42.8128 106.328 42.5425 106.76 42.0019L107.247 42.3263C107.03 42.6506 106.706 42.9209 106.382 43.083C106.057 43.2452 105.571 43.3533 105.084 43.3533C104.328 43.3533 103.733 43.1371 103.246 42.6506C102.76 42.1641 102.544 41.6235 102.544 40.9749C102.544 40.5424 102.652 40.11 102.868 39.7316C103.084 39.3532 103.409 39.0288 103.787 38.8126C104.165 38.5964 104.598 38.4883 105.084 38.4883C105.409 38.4883 105.679 38.5423 105.949 38.6504C106.22 38.7586 106.49 38.8667 106.652 39.0288C106.922 39.191 107.084 39.3532 107.193 39.5694Z" fill="black"/>
<path d="M108.328 36.8662H108.922V40.542L111.085 38.6501H111.95L109.409 40.8664L112.112 43.2989H111.247L108.922 41.1907V43.2989H108.328V36.8662Z" fill="black"/>
<path fill-rule="evenodd" clip-rule="evenodd" d="M113.247 36.8663C113.193 36.7582 113.085 36.7041 112.923 36.7041C112.815 36.7041 112.706 36.7582 112.598 36.8663C112.49 36.9203 112.436 37.0284 112.436 37.1906C112.436 37.2987 112.49 37.4068 112.598 37.5149C112.652 37.6231 112.815 37.6771 112.923 37.6771C113.031 37.6771 113.139 37.6231 113.247 37.5149C113.355 37.4609 113.409 37.2987 113.409 37.1906C113.409 37.1185 113.361 37.0465 113.313 36.9744C113.289 36.9383 113.265 36.9023 113.247 36.8663ZM113.247 38.6501H112.652V43.2989H113.247V38.6501Z" fill="black"/>
<path d="M114.49 38.6501H115.085V39.4609C115.301 39.1366 115.571 38.9204 115.896 38.7582C116.22 38.596 116.49 38.542 116.814 38.542C117.139 38.542 117.463 38.6501 117.733 38.8123C118.004 38.9744 118.22 39.2447 118.328 39.515C118.436 39.8393 118.544 40.2718 118.544 40.9205V43.2989H117.95V41.0826C117.95 40.5421 117.95 40.2177 117.896 40.0015C117.842 39.6772 117.679 39.4609 117.517 39.2988C117.301 39.1366 117.085 39.0826 116.76 39.0826C116.382 39.0826 116.058 39.1907 115.787 39.4609C115.517 39.6772 115.301 40.0015 115.247 40.3258C115.193 40.5421 115.139 40.9745 115.139 41.5691V43.2449H114.544V38.6501H114.49Z" fill="black"/>
<path fill-rule="evenodd" clip-rule="evenodd" d="M124.383 38.6504H123.788V39.4072C123.518 39.0829 123.248 38.8667 122.923 38.7045C122.599 38.5423 122.275 38.4883 121.95 38.4883C121.518 38.4883 121.139 38.5964 120.761 38.8126C120.383 39.0288 120.112 39.2991 119.896 39.6775C119.68 40.0559 119.572 40.4343 119.572 40.8667C119.572 41.2992 119.68 41.6776 119.896 42.056C120.112 42.4344 120.383 42.7046 120.761 42.9209C121.139 43.1371 121.518 43.2452 121.95 43.2452C122.329 43.2452 122.653 43.1911 122.977 43.029C123.302 42.8668 123.572 42.6506 123.788 42.3803V42.5965C123.788 43.1371 123.734 43.5155 123.626 43.7317C123.518 44.002 123.302 44.1642 123.031 44.3263C122.761 44.4885 122.437 44.5425 122.004 44.5425C121.626 44.5425 121.248 44.4885 120.977 44.3263C120.653 44.1642 120.437 43.9479 120.275 43.6236H119.626C119.788 43.9479 120.004 44.2723 120.166 44.4344C120.329 44.5966 120.599 44.7588 120.923 44.8669C121.248 44.975 121.626 45.0291 122.004 45.0291C122.545 45.0291 123.031 44.9209 123.41 44.7047C123.788 44.4885 124.059 44.1642 124.221 43.7317C124.329 43.4614 124.383 42.9749 124.383 42.3263V38.6504ZM121.085 39.3529C121.355 39.1908 121.68 39.0827 122.004 39.0827C122.328 39.0827 122.544 39.1908 122.815 39.3529C123.085 39.5151 123.301 39.7313 123.463 40.0016C123.626 40.2719 123.68 40.5962 123.68 40.9206C123.68 41.4611 123.517 41.8936 123.193 42.2179C122.869 42.5422 122.436 42.7044 121.896 42.7044C121.355 42.7044 120.923 42.5422 120.598 42.2179C120.274 41.8936 120.112 41.4611 120.112 40.9746C120.112 40.6503 120.22 40.3259 120.382 40.0557C120.544 39.7313 120.815 39.5151 121.085 39.3529Z" fill="black"/>
<path d="M127.518 42.1098L128.058 41.7855C128.437 42.4882 128.869 42.8126 129.356 42.8126C129.572 42.8126 129.788 42.7585 129.95 42.6504C130.112 42.5423 130.275 42.4342 130.383 42.272C130.491 42.1098 130.545 41.9477 130.545 41.7314C130.545 41.5152 130.491 41.299 130.329 41.1368C130.112 40.8666 129.788 40.5422 129.248 40.1098C128.707 39.7314 128.383 39.407 128.275 39.2449C128.058 38.9746 127.95 38.6503 127.95 38.2719C127.95 38.0016 128.004 37.7313 128.166 37.5151C128.275 37.2989 128.491 37.1367 128.707 36.9745C128.923 36.8664 129.193 36.7583 129.464 36.7583C129.734 36.7583 130.058 36.8124 130.275 36.9745C130.545 37.1367 130.815 37.407 131.085 37.7854L130.599 38.1638C130.383 37.8394 130.167 37.6232 130.004 37.5691C129.842 37.461 129.68 37.407 129.464 37.407C129.193 37.407 129.031 37.461 128.869 37.6232C128.707 37.7854 128.653 37.9475 128.653 38.1638C128.653 38.3259 128.707 38.434 128.761 38.5421C128.815 38.6503 128.923 38.8124 129.085 38.9746C129.193 39.0287 129.464 39.2449 129.896 39.6233C130.437 40.0017 130.815 40.38 131.031 40.7044C131.248 41.0287 131.356 41.3531 131.356 41.6233C131.356 42.0558 131.194 42.4882 130.815 42.8126C130.491 43.1369 130.058 43.2991 129.572 43.2991C129.193 43.2991 128.869 43.191 128.545 42.9747C128.058 42.9207 127.788 42.5963 127.518 42.1098Z" fill="black"/>
<path fill-rule="evenodd" clip-rule="evenodd" d="M136.383 39.2451C135.896 38.7586 135.302 38.4883 134.599 38.4883C133.896 38.4883 133.302 38.7586 132.923 39.2451C132.491 39.7316 132.275 40.2721 132.275 40.9208C132.275 41.5695 132.491 42.11 132.923 42.5965C133.356 43.083 133.95 43.2993 134.653 43.2993C135.356 43.2993 135.95 43.083 136.383 42.5965C136.815 42.11 137.032 41.5695 137.032 40.9208C137.032 40.2721 136.815 39.7316 136.383 39.2451ZM133.302 39.6232C133.68 39.2448 134.113 39.0827 134.599 39.0827C135.086 39.0827 135.518 39.2448 135.897 39.6232C136.275 40.0016 136.437 40.4341 136.437 40.9746C136.437 41.299 136.329 41.6233 136.167 41.8936C136.005 42.1638 135.789 42.3801 135.518 42.5422C135.248 42.7044 134.924 42.7585 134.599 42.7585C134.275 42.7585 133.951 42.7044 133.68 42.5422C133.41 42.3801 133.194 42.1638 133.032 41.8936C132.816 41.6233 132.761 41.299 132.761 40.9746C132.761 40.4341 132.924 40.0016 133.302 39.6232Z" fill="black"/>
<path d="M138.005 36.8662H138.599V43.2989H138.005V36.8662H138.005Z" fill="black"/>
<path d="M139.789 38.6499H140.383V40.8121C140.383 41.3527 140.437 41.677 140.491 41.8933C140.599 42.1635 140.762 42.3798 140.978 42.5419C141.194 42.7041 141.518 42.8122 141.843 42.8122C142.167 42.8122 142.437 42.7582 142.708 42.596C142.924 42.4338 143.086 42.2176 143.194 41.9473C143.248 41.7851 143.302 41.4068 143.302 40.8121V38.6499H143.897V40.9203C143.897 41.5689 143.843 42.0554 143.681 42.3798C143.518 42.7041 143.302 42.9744 143.032 43.1365C142.708 43.2987 142.383 43.4068 141.897 43.4068C141.464 43.4068 141.086 43.2987 140.762 43.1365C140.437 42.9744 140.221 42.7041 140.059 42.3798C139.897 42.0554 139.843 41.5689 139.843 40.9203V38.6499H139.789Z" fill="black"/>
<path d="M145.68 36.9204H146.275V38.6502H147.194V39.1908H146.275V43.299H145.68V39.1908H144.87V38.6502H145.68V36.9204Z" fill="black"/>
<path fill-rule="evenodd" clip-rule="evenodd" d="M148.654 36.8663C148.6 36.7582 148.491 36.7041 148.329 36.7041C148.221 36.7041 148.161 36.7522 148.101 36.8002C148.071 36.8242 148.041 36.8483 148.005 36.8663C147.897 36.9203 147.843 37.0284 147.843 37.1906C147.843 37.2987 147.897 37.4068 148.005 37.5149C148.059 37.6231 148.221 37.6771 148.329 37.6771C148.437 37.6771 148.546 37.6231 148.654 37.5149C148.762 37.4609 148.816 37.2987 148.816 37.1906C148.816 37.1185 148.768 37.0465 148.72 36.9744C148.696 36.9383 148.672 36.9023 148.654 36.8663ZM148.599 38.6501H148.005V43.2989H148.599V38.6501Z" fill="black"/>
<path fill-rule="evenodd" clip-rule="evenodd" d="M153.789 39.2451C153.302 38.7586 152.708 38.4883 152.005 38.4883C151.302 38.4883 150.708 38.7586 150.329 39.2451C149.897 39.7316 149.68 40.2721 149.68 40.9208C149.68 41.5695 149.897 42.11 150.329 42.5965C150.762 43.083 151.356 43.2993 152.059 43.2993C152.762 43.2993 153.356 43.083 153.789 42.5965C154.221 42.11 154.437 41.5695 154.437 40.9208C154.437 40.2721 154.221 39.7316 153.789 39.2451ZM150.708 39.6232C151.086 39.2448 151.519 39.0827 152.005 39.0827C152.546 39.0827 152.924 39.2448 153.302 39.6232C153.681 40.0016 153.843 40.4341 153.843 40.9746C153.843 41.299 153.735 41.6233 153.573 41.8936C153.411 42.1638 153.194 42.3801 152.924 42.5422C152.654 42.7044 152.329 42.7585 152.005 42.7585C151.681 42.7585 151.356 42.7044 151.086 42.5422C150.816 42.3801 150.6 42.1638 150.437 41.8936C150.221 41.6233 150.167 41.299 150.167 40.9746C150.167 40.4341 150.329 40.0016 150.708 39.6232Z" fill="black"/>
<path d="M155.519 38.6501H156.113V39.4609C156.33 39.1366 156.6 38.9204 156.924 38.7582C157.249 38.596 157.519 38.542 157.843 38.542C158.167 38.542 158.492 38.6501 158.762 38.8123C159.032 38.9744 159.249 39.2447 159.357 39.515C159.465 39.8393 159.573 40.2718 159.573 40.9205V43.2989H158.978V41.0826C158.978 40.5421 158.978 40.2177 158.924 40.0015C158.87 39.6772 158.708 39.4609 158.546 39.2988C158.33 39.1366 158.113 39.0826 157.789 39.0826C157.411 39.0826 157.086 39.1907 156.816 39.4609C156.546 39.6772 156.33 40.0015 156.276 40.3258C156.221 40.5421 156.167 40.9745 156.167 41.5691V43.2449H155.573V38.6501H155.519Z" fill="black"/>
</g>
<defs>
<clipPath id="clip0_82_13495">
<rect width="159.788" height="46" fill="white"/>
</clipPath>
</defs>
</svg>
