<svg width="182" height="54" viewBox="0 0 182 54" fill="none" xmlns="http://www.w3.org/2000/svg">
<path d="M174.694 52.5445H7.61164C4.37811 52.5445 1.85018 50.0166 1.85018 46.7831V6.68329C1.85018 3.44976 4.37811 0.921834 7.61164 0.921834H174.694C177.928 0.921834 180.455 3.44976 180.455 6.68329V46.7831C180.455 49.895 177.916 52.5445 174.694 52.5445Z" stroke="white" stroke-width="1.84367"/>
<path d="M62.3413 11.2669C62.2539 10.999 62.1386 10.7591 61.9953 10.5469C61.8548 10.3321 61.6864 10.1491 61.4901 9.99799C61.2966 9.84684 61.0765 9.73148 60.8298 9.65192C60.5832 9.57238 60.3127 9.5326 60.0184 9.5326C59.5358 9.5326 59.0969 9.65723 58.7017 9.9065C58.3066 10.1558 57.9924 10.5231 57.759 11.0083C57.5258 11.4936 57.4091 12.0889 57.4091 12.7943C57.4091 13.4997 57.527 14.0951 57.763 14.5803C57.9991 15.0656 58.3185 15.4328 58.7217 15.6821C59.1247 15.9314 59.5782 16.0561 60.082 16.0561C60.5487 16.0561 60.9598 15.9566 61.3152 15.7577C61.6731 15.5562 61.9516 15.2724 62.1505 14.9064C62.352 14.5379 62.4527 14.1043 62.4527 13.6057L62.755 13.6695H60.3048V12.7943H63.4073V13.6695C63.4073 14.3403 63.2642 14.9237 62.9778 15.4196C62.6941 15.9155 62.3016 16.3 61.8004 16.5731C61.3018 16.8436 60.7291 16.9789 60.082 16.9789C59.3607 16.9789 58.727 16.8091 58.1807 16.4698C57.6371 16.1303 57.2128 15.6476 56.9078 15.0218C56.6055 14.3959 56.4544 13.6536 56.4544 12.7943C56.4544 12.1499 56.5405 11.5705 56.7129 11.0561C56.8879 10.539 57.1345 10.0988 57.4528 9.73547C57.771 9.37216 58.1476 9.09372 58.5824 8.90015C59.0173 8.70656 59.496 8.60977 60.0184 8.60977C60.448 8.60977 60.8484 8.67475 61.2196 8.80468C61.5936 8.93196 61.9263 9.11361 62.2181 9.34963C62.5124 9.58298 62.7577 9.86274 62.9539 10.1889C63.1501 10.5124 63.2854 10.8718 63.3596 11.2669H62.3413ZM65.0969 16.8674V8.72114H70.0134V9.59624H66.0834V12.3488H69.7587V13.2239H66.0834V15.9924H70.077V16.8674H65.0969ZM71.3459 9.59624V8.72114H77.4556V9.59624H74.894V16.8674H73.9076V9.59624H71.3459ZM83.1149 8.72114V16.8674H82.1284V8.72114H83.1149ZM84.6474 9.59624V8.72114H90.7571V9.59624H88.1954V16.8674H87.2089V9.59624H84.6474ZM102.303 12.7943C102.303 13.6536 102.148 14.3959 101.838 15.0218C101.528 15.6476 101.102 16.1303 100.561 16.4698C100.02 16.8091 99.4022 16.9789 98.7074 16.9789C98.0128 16.9789 97.3948 16.8091 96.8539 16.4698C96.3129 16.1303 95.8873 15.6476 95.5771 15.0218C95.2667 14.3959 95.1117 13.6536 95.1117 12.7943C95.1117 11.9351 95.2667 11.1926 95.5771 10.5668C95.8873 9.94098 96.3129 9.45835 96.8539 9.11892C97.3948 8.77949 98.0128 8.60977 98.7074 8.60977C99.4022 8.60977 100.02 8.77949 100.561 9.11892C101.102 9.45835 101.528 9.94098 101.838 10.5668C102.148 11.1926 102.303 11.9351 102.303 12.7943ZM101.349 12.7943C101.349 12.0889 101.231 11.4936 100.995 11.0083C100.761 10.5231 100.444 10.1558 100.044 9.9065C99.6463 9.65723 99.2008 9.5326 98.7074 9.5326C98.2142 9.5326 97.7675 9.65723 97.367 9.9065C96.9692 10.1558 96.6523 10.5231 96.4164 11.0083C96.183 11.4936 96.0663 12.0889 96.0663 12.7943C96.0663 13.4997 96.183 14.0951 96.4164 14.5803C96.6523 15.0656 96.9692 15.4328 97.367 15.6821C97.7675 15.9314 98.2142 16.0561 98.7074 16.0561C99.2008 16.0561 99.6463 15.9314 100.044 15.6821C100.444 15.4328 100.761 15.0656 100.995 14.5803C101.231 14.0951 101.349 13.4997 101.349 12.7943ZM110.422 8.72114V16.8674H109.467L105.028 10.4713H104.949V16.8674H103.962V8.72114H104.917L109.372 15.1332H109.451V8.72114H110.422Z" fill="white"/>
<path d="M62.3413 11.2664L62.2143 11.3079L62.2444 11.4001H62.3413V11.2664ZM61.9953 10.5465L61.8834 10.6196L61.8844 10.6212L61.9953 10.5465ZM62.4527 13.6052L62.4802 13.4745L62.319 13.4406V13.6052H62.4527ZM62.755 13.669V13.8027H64.0387L62.7825 13.5382L62.755 13.669ZM60.3048 13.669H60.1711V13.8027H60.3048V13.669ZM60.3048 12.7939V12.6602H60.1711V12.7939H60.3048ZM63.4073 12.7939H63.541V12.6602H63.4073V12.7939ZM63.3596 11.2664V11.4001H63.5208L63.491 11.2417L63.3596 11.2664ZM62.4684 11.2249C62.3774 10.9465 62.2568 10.6951 62.1061 10.4717L61.8844 10.6212C62.0201 10.8221 62.1303 11.0507 62.2143 11.3079L62.4684 11.2249ZM62.1071 10.4733C61.9586 10.2464 61.7802 10.0522 61.5717 9.89164L61.4078 10.1029C61.5917 10.2446 61.7508 10.4169 61.8834 10.6196L62.1071 10.4733ZM61.5717 9.89164C61.3652 9.73032 61.1315 9.60836 60.8709 9.52426L60.7888 9.77868C61.0214 9.85369 61.2273 9.96191 61.4078 10.1029L61.5717 9.89164ZM60.8709 9.52426C60.6093 9.4399 60.3248 9.39848 60.0183 9.39848V9.66581C60.3006 9.66581 60.5571 9.70394 60.7888 9.77868L60.8709 9.52426ZM60.0183 9.39848C59.5113 9.39848 59.0477 9.52979 58.6305 9.79299L58.7731 10.0191C59.1462 9.78375 59.5601 9.66581 60.0183 9.66581V9.39848ZM58.6305 9.79299C58.211 10.0576 57.8812 10.4456 57.6385 10.9499L57.8795 11.0658C58.1037 10.5996 58.4023 10.253 58.7731 10.0191L58.6305 9.79299ZM57.6385 10.9499C57.3942 11.458 57.2754 12.0744 57.2754 12.7939H57.5427C57.5427 12.1026 57.6571 11.5283 57.8795 11.0658L57.6385 10.9499ZM57.2754 12.7939C57.2754 13.5136 57.3957 14.1302 57.6428 14.6384L57.8832 14.5214C57.6583 14.059 57.5427 13.485 57.5427 12.7939H57.2754ZM57.6428 14.6384C57.8884 15.1431 58.2239 15.531 58.6513 15.7954L58.792 15.568C58.4133 15.3338 58.1097 14.9871 57.8832 14.5214L57.6428 14.6384ZM58.6513 15.7954C59.0769 16.0586 59.5549 16.1893 60.082 16.1893V15.9219C59.6014 15.9219 59.1725 15.8034 58.792 15.568L58.6513 15.7954ZM60.082 16.1893C60.5682 16.1893 61.0024 16.0854 61.3804 15.8738L61.2498 15.6406C60.9172 15.8268 60.5292 15.9219 60.082 15.9219V16.1893ZM61.3804 15.8738C61.7607 15.6598 62.0571 15.3575 62.2678 14.9698L62.0331 14.8419C61.8461 15.1861 61.5856 15.4516 61.2498 15.6406L61.3804 15.8738ZM62.2678 14.9698C62.4819 14.5782 62.5863 14.1221 62.5863 13.6052H62.319C62.319 14.0856 62.2221 14.4963 62.0331 14.8419L62.2678 14.9698ZM62.4251 13.7361L62.7275 13.7997L62.7825 13.5382L62.4802 13.4745L62.4251 13.7361ZM62.755 13.5353H60.3048V13.8027H62.755V13.5353ZM60.4384 13.669V12.7939H60.1711V13.669H60.4384ZM60.3048 12.9275H63.4073V12.6602H60.3048V12.9275ZM63.2736 12.7939V13.669H63.541V12.7939H63.2736ZM63.2736 13.669C63.2736 14.3205 63.1348 14.88 62.8621 15.3523L63.0936 15.4859C63.3935 14.9665 63.541 14.3593 63.541 13.669H63.2736ZM62.8621 15.3523C62.5906 15.8266 62.2158 16.1941 61.7365 16.4553L61.8641 16.6901C62.387 16.4052 62.7975 16.0032 63.0936 15.4859L62.8621 15.3523ZM61.7365 16.4553C61.2601 16.7138 60.7099 16.8448 60.082 16.8448V17.1121C60.7482 17.1121 61.3434 16.9727 61.8641 16.6901L61.7365 16.4553ZM60.082 16.8448C59.3825 16.8448 58.7738 16.6804 58.2513 16.3557L58.1099 16.5827C58.6798 16.9367 59.3389 17.1121 60.082 17.1121V16.8448ZM58.2513 16.3557C57.7308 16.0308 57.323 15.5681 57.028 14.9628L56.7875 15.0795C57.1024 15.7259 57.5431 16.2287 58.1099 16.5827L58.2513 16.3557ZM57.028 14.9628C56.7362 14.3589 56.5881 13.6376 56.5881 12.7939H56.3207C56.3207 13.6685 56.4746 14.4318 56.7875 15.0795L57.028 14.9628ZM56.5881 12.7939C56.5881 12.1613 56.6727 11.5965 56.8396 11.0981L56.5863 11.0127C56.4086 11.5432 56.3207 12.1377 56.3207 12.7939H56.5881ZM56.8396 11.0981C57.0098 10.5954 57.2481 10.1715 57.5533 9.82308L57.3522 9.64693C57.021 10.0251 56.7662 10.4812 56.5863 11.0127L56.8396 11.0981ZM57.5533 9.82308C57.859 9.47412 58.2199 9.2074 58.6368 9.02181L58.5281 8.77757C58.0752 8.97914 57.6829 9.2693 57.3522 9.64693L57.5533 9.82308ZM58.6368 9.02181C59.053 8.83654 59.5128 8.74298 60.0183 8.74298V8.47565C59.4791 8.47565 58.9816 8.57566 58.5281 8.77757L58.6368 9.02181ZM60.0183 8.74298C60.4343 8.74298 60.8197 8.80587 61.1755 8.93039L61.2638 8.67806C60.8771 8.54272 60.4616 8.47565 60.0183 8.47565V8.74298ZM61.1755 8.93039C61.5353 9.05288 61.8552 9.22748 62.134 9.45308L62.3022 9.24526C61.9975 8.99884 61.6517 8.81015 61.2638 8.67806L61.1755 8.93039ZM62.134 9.45308C62.4156 9.67634 62.6513 9.94474 62.8394 10.2574L63.0685 10.1196C62.8641 9.77984 62.6081 9.48787 62.3011 9.24443L62.134 9.45308ZM62.8394 10.2574C63.0268 10.5663 63.1568 10.9108 63.2283 11.2911L63.491 11.2417C63.414 10.8318 63.2735 10.4576 63.0685 10.1196L62.8394 10.2574ZM63.3596 11.1328H62.3413V11.4001H63.3596V11.1328ZM65.0968 16.867H64.9632V17.0006H65.0968V16.867ZM65.0968 8.72068V8.58702H64.9632V8.72068H65.0968ZM70.0133 8.72068H70.147V8.58702H70.0133V8.72068ZM70.0133 9.59578V9.72945H70.147V9.59578H70.0133ZM66.0834 9.59578V9.46211H65.9498V9.59578H66.0834ZM66.0834 12.3483H65.9498V12.482H66.0834V12.3483ZM69.7587 12.3483H69.8924V12.2147H69.7587V12.3483ZM69.7587 13.2234V13.3571H69.8924V13.2234H69.7587ZM66.0834 13.2234V13.0898H65.9498V13.2234H66.0834ZM66.0834 15.992H65.9498V16.1257H66.0834V15.992ZM70.077 15.992H70.2106V15.8583H70.077V15.992ZM70.077 16.867V17.0006H70.2106V16.867H70.077ZM65.2305 16.867V8.72068H64.9632V16.867H65.2305ZM65.0968 8.85435H70.0133V8.58702H65.0968V8.85435ZM69.8797 8.72068V9.59578H70.147V8.72068H69.8797ZM70.0133 9.46211H66.0834V9.72945H70.0133V9.46211ZM65.9498 9.59578V12.3483H66.2171V9.59578H65.9498ZM66.0834 12.482H69.7587V12.2147H66.0834V12.482ZM69.625 12.3483V13.2234H69.8924V12.3483H69.625ZM69.7587 13.0898H66.0834V13.3571H69.7587V13.0898ZM65.9498 13.2234V15.992H66.2171V13.2234H65.9498ZM66.0834 16.1257H70.077V15.8583H66.0834V16.1257ZM69.9433 15.992V16.867H70.2106V15.992H69.9433ZM70.077 16.7333H65.0968V17.0006H70.077V16.7333ZM71.3459 9.59578H71.2122V9.72945H71.3459V9.59578ZM71.3459 8.72068V8.58702H71.2122V8.72068H71.3459ZM77.4556 8.72068H77.5893V8.58702H77.4556V8.72068ZM77.4556 9.59578V9.72945H77.5893V9.59578H77.4556ZM74.894 9.59578V9.46211H74.7603V9.59578H74.894ZM74.894 16.867V17.0006H75.0277V16.867H74.894ZM73.9076 16.867H73.7739V17.0006H73.9076V16.867ZM73.9076 9.59578H74.0412V9.46211H73.9076V9.59578ZM71.4795 9.59578V8.72068H71.2122V9.59578H71.4795ZM71.3459 8.85435H77.4556V8.58702H71.3459V8.85435ZM77.3219 8.72068V9.59578H77.5893V8.72068H77.3219ZM77.4556 9.46211H74.894V9.72945H77.4556V9.46211ZM74.7603 9.59578V16.867H75.0277V9.59578H74.7603ZM74.894 16.7333H73.9076V17.0006H74.894V16.7333ZM74.0412 16.867V9.59578H73.7739V16.867H74.0412ZM73.9076 9.46211H71.3459V9.72945H73.9076V9.46211ZM83.1149 8.72068H83.2485V8.58702H83.1149V8.72068ZM83.1149 16.867V17.0006H83.2485V16.867H83.1149ZM82.1284 16.867H81.9947V17.0006H82.1284V16.867ZM82.1284 8.72068V8.58702H81.9947V8.72068H82.1284ZM82.9812 8.72068V16.867H83.2485V8.72068H82.9812ZM83.1149 16.7333H82.1284V17.0006H83.1149V16.7333ZM82.2621 16.867V8.72068H81.9947V16.867H82.2621ZM82.1284 8.85435H83.1149V8.58702H82.1284V8.85435ZM84.6473 9.59578H84.5137V9.72945H84.6473V9.59578ZM84.6473 8.72068V8.58702H84.5137V8.72068H84.6473ZM90.7571 8.72068H90.8907V8.58702H90.7571V8.72068ZM90.7571 9.59578V9.72945H90.8907V9.59578H90.7571ZM88.1954 9.59578V9.46211H88.0617V9.59578H88.1954ZM88.1954 16.867V17.0006H88.329V16.867H88.1954ZM87.2089 16.867H87.0753V17.0006H87.2089V16.867ZM87.2089 9.59578H87.3426V9.46211H87.2089V9.59578ZM84.781 9.59578V8.72068H84.5137V9.59578H84.781ZM84.6473 8.85435H90.7571V8.58702H84.6473V8.85435ZM90.6234 8.72068V9.59578H90.8907V8.72068H90.6234ZM90.7571 9.46211H88.1954V9.72945H90.7571V9.46211ZM88.0617 9.59578V16.867H88.329V9.59578H88.0617ZM88.1954 16.7333H87.2089V17.0006H88.1954V16.7333ZM87.3426 16.867V9.59578H87.0753V16.867H87.3426ZM87.2089 9.46211H84.6473V9.72945H87.2089V9.46211ZM102.17 12.7939C102.17 13.6371 102.017 14.3583 101.718 14.962L101.958 15.0808C102.279 14.4326 102.437 13.669 102.437 12.7939H102.17ZM101.718 14.962C101.418 15.5679 101.008 16.0309 100.49 16.356L100.632 16.5825C101.196 16.2287 101.637 15.7265 101.958 15.0808L101.718 14.962ZM100.49 16.356C99.9723 16.6809 99.3793 16.8448 98.7075 16.8448V17.1121C99.425 17.1121 100.068 16.9365 100.632 16.5825L100.49 16.356ZM98.7075 16.8448C98.0356 16.8448 97.4426 16.6809 96.925 16.356L96.7829 16.5825C97.3469 16.9365 97.9899 17.1121 98.7075 17.1121V16.8448ZM96.925 16.356C96.4067 16.0309 95.9972 15.5679 95.6967 14.962L95.4573 15.0808C95.7774 15.7265 96.2191 16.2287 96.7829 16.5825L96.925 16.356ZM95.6967 14.962C95.3976 14.3583 95.2453 13.6371 95.2453 12.7939H94.978C94.978 13.669 95.136 14.4326 95.4573 15.0808L95.6967 14.962ZM95.2453 12.7939C95.2453 11.9506 95.3976 11.2293 95.6967 10.6257L95.4573 10.507C95.136 11.155 94.978 11.9187 94.978 12.7939H95.2453ZM95.6967 10.6257C95.9972 10.0198 96.4067 9.55679 96.925 9.23169L96.7829 9.00523C96.2191 9.35899 95.7774 9.86119 95.4573 10.507L95.6967 10.6257ZM96.925 9.23169C97.4426 8.90677 98.0356 8.74298 98.7075 8.74298V8.47565C97.9899 8.47565 97.3469 8.65128 96.7829 9.00523L96.925 9.23169ZM98.7075 8.74298C99.3793 8.74298 99.9723 8.90677 100.49 9.23169L100.632 9.00523C100.068 8.65128 99.425 8.47565 98.7075 8.47565V8.74298ZM100.49 9.23169C101.008 9.55679 101.418 10.0198 101.718 10.6257L101.958 10.507C101.637 9.86119 101.196 9.35899 100.632 9.00523L100.49 9.23169ZM101.718 10.6257C102.017 11.2293 102.17 11.9506 102.17 12.7939H102.437C102.437 11.9187 102.279 11.155 101.958 10.507L101.718 10.6257ZM101.482 12.7939C101.482 12.0742 101.362 11.4576 101.115 10.9494L100.874 11.0658C101.099 11.5281 101.215 12.1028 101.215 12.7939H101.482ZM101.115 10.9494C100.872 10.4446 100.54 10.0571 100.115 9.79256L99.9729 10.0193C100.349 10.2534 100.65 10.6001 100.874 11.0658L101.115 10.9494ZM100.115 9.79256C99.6945 9.52927 99.2244 9.39848 98.7075 9.39848V9.66581C99.177 9.66581 99.5976 9.78406 99.9729 10.0193L100.115 9.79256ZM98.7075 9.39848C98.1905 9.39848 97.7189 9.52948 97.2963 9.79256L97.4376 10.0195C97.8158 9.78406 98.238 9.66581 98.7075 9.66581V9.39848ZM97.2963 9.79256C96.8743 10.057 96.5413 10.4451 96.2961 10.9494L96.5365 11.0663C96.7632 10.6001 97.064 10.2536 97.4376 10.0195L97.2963 9.79256ZM96.2961 10.9494C96.0519 11.4575 95.9326 12.0744 95.9326 12.7939H96.2C96.2 12.1026 96.3141 11.5288 96.5365 11.0663L96.2961 10.9494ZM95.9326 12.7939C95.9326 13.5133 96.0516 14.1298 96.2958 14.6378L96.5368 14.5219C96.3144 14.0594 96.2 13.4851 96.2 12.7939H95.9326ZM96.2958 14.6378C96.5411 15.1421 96.874 15.5304 97.296 15.795L97.438 15.5684C97.0644 15.3344 96.7635 14.9882 96.5368 14.5219L96.2958 14.6378ZM97.296 15.795C97.7187 16.0582 98.1905 16.1893 98.7075 16.1893V15.9219C98.238 15.9219 97.8162 15.8039 97.438 15.5684L97.296 15.795ZM98.7075 16.1893C99.2244 16.1893 99.6948 16.0583 100.115 15.795L99.9733 15.5681C99.598 15.8034 99.177 15.9219 98.7075 15.9219V16.1893ZM100.115 15.795C100.54 15.5304 100.872 15.1425 101.115 14.6378L100.874 14.5214C100.65 14.9871 100.349 15.3342 99.9733 15.5681L100.115 15.795ZM101.115 14.6378C101.362 14.1296 101.482 13.5136 101.482 12.7939H101.215C101.215 13.485 101.099 14.059 100.874 14.5214L101.115 14.6378ZM110.422 8.72068H110.555V8.58702H110.422V8.72068ZM110.422 16.867V17.0006H110.555V16.867H110.422ZM109.467 16.867L109.357 16.9433L109.397 17.0006H109.467V16.867ZM105.028 10.4709L105.138 10.3947L105.098 10.3372H105.028V10.4709ZM104.949 10.4709V10.3372H104.815V10.4709H104.949ZM104.949 16.867V17.0006H105.082V16.867H104.949ZM103.962 16.867H103.828V17.0006H103.962V16.867ZM103.962 8.72068V8.58702H103.828V8.72068H103.962ZM104.917 8.72068L105.026 8.64443L104.986 8.58702H104.917V8.72068ZM109.372 15.1328L109.262 15.209L109.302 15.2664H109.372V15.1328ZM109.451 15.1328V15.2664H109.585V15.1328H109.451ZM109.451 8.72068V8.58702H109.318V8.72068H109.451ZM110.288 8.72068V16.867H110.555V8.72068H110.288ZM110.422 16.7333H109.467V17.0006H110.422V16.7333ZM109.577 16.7908L105.138 10.3947L104.918 10.5471L109.357 16.9433L109.577 16.7908ZM105.028 10.3372H104.949V10.6045H105.028V10.3372ZM104.815 10.4709V16.867H105.082V10.4709H104.815ZM104.949 16.7333H103.962V17.0006H104.949V16.7333ZM104.096 16.867V8.72068H103.828V16.867H104.096ZM103.962 8.85435H104.917V8.58702H103.962V8.85435ZM104.807 8.79695L109.262 15.209L109.481 15.0565L105.026 8.64443L104.807 8.79695ZM109.372 15.2664H109.451V14.9991H109.372V15.2664ZM109.585 15.1328V8.72068H109.318V15.1328H109.585ZM109.451 8.85435H110.422V8.58702H109.451V8.85435Z" fill="white"/>
<path d="M91.9541 29.1382C88.7461 29.1382 86.2065 31.5442 86.2065 34.8858C86.2065 38.0938 88.7461 40.6335 91.9541 40.6335C95.1621 40.6335 97.7017 38.2275 97.7017 34.8858C97.7017 31.4105 95.1621 29.1382 91.9541 29.1382ZM91.9541 38.2275C90.2165 38.2275 88.7461 36.7571 88.7461 34.7522C88.7461 32.7472 90.2165 31.2768 91.9541 31.2768C93.6918 31.2768 95.1621 32.6135 95.1621 34.7522C95.1621 36.7571 93.6918 38.2275 91.9541 38.2275ZM79.5232 29.1382C76.3152 29.1382 73.7755 31.5442 73.7755 34.8858C73.7755 38.0938 76.3152 40.6335 79.5232 40.6335C82.7312 40.6335 85.2708 38.2275 85.2708 34.8858C85.2708 31.4105 82.7312 29.1382 79.5232 29.1382ZM79.5232 38.2275C77.7855 38.2275 76.3152 36.7571 76.3152 34.7522C76.3152 32.7472 77.7855 31.2768 79.5232 31.2768C81.2608 31.2768 82.7312 32.6135 82.7312 34.7522C82.7312 36.7571 81.2608 38.2275 79.5232 38.2275ZM64.6863 30.8758V33.2818H70.4339C70.3002 34.6185 69.7656 35.6878 69.0972 36.3562C68.2952 37.1581 66.9586 38.0938 64.6863 38.0938C61.0773 38.0938 58.404 35.2868 58.404 31.6778C58.404 28.0689 61.211 25.2619 64.6863 25.2619C66.5576 25.2619 68.0279 26.0639 69.0972 26.9995L70.8349 25.2619C69.3646 23.9252 67.4932 22.8559 64.8199 22.8559C60.008 22.8559 55.8643 26.8659 55.8643 31.6778C55.8643 36.4898 60.008 40.4998 64.8199 40.4998C67.4932 40.4998 69.3646 39.6978 70.9686 37.9601C72.5726 36.3561 73.1072 34.0838 73.1072 32.3462C73.1072 31.8115 73.1072 31.2768 72.9736 30.8758H64.6863ZM125.371 32.7472C124.836 31.4105 123.499 29.1382 120.559 29.1382C117.618 29.1382 115.212 31.4105 115.212 34.8858C115.212 38.0938 117.618 40.6335 120.826 40.6335C123.366 40.6335 124.97 39.0295 125.504 38.0938L123.633 36.7571C122.965 37.6928 122.163 38.3611 120.826 38.3611C119.489 38.3611 118.687 37.8265 118.019 36.6235L125.638 33.4155L125.371 32.7472ZM117.618 34.6185C117.618 32.4798 119.356 31.2768 120.559 31.2768C121.494 31.2768 122.43 31.8115 122.697 32.4798L117.618 34.6185ZM111.336 40.0988H113.875V23.3906H111.336V40.0988ZM107.326 30.3412C106.657 29.6729 105.588 29.0045 104.251 29.0045C101.444 29.0045 98.7711 31.5442 98.7711 34.7522C98.7711 37.9601 101.311 40.3661 104.251 40.3661C105.588 40.3661 106.657 39.6978 107.192 39.0295H107.326V39.8315C107.326 41.9701 106.123 43.1731 104.251 43.1731C102.781 43.1731 101.712 42.1038 101.444 41.1681L99.3057 42.1038C99.9741 43.5741 101.578 45.4454 104.385 45.4454C107.326 45.4454 109.732 43.7078 109.732 39.5641V29.4055H107.326V30.3412ZM104.385 38.2275C102.647 38.2275 101.177 36.7571 101.177 34.7522C101.177 32.7472 102.647 31.2768 104.385 31.2768C106.123 31.2768 107.459 32.7472 107.459 34.7522C107.459 36.7571 106.123 38.2275 104.385 38.2275ZM137 23.3906H130.985V40.0988H133.524V33.8165H137C139.807 33.8165 142.48 31.8115 142.48 28.6035C142.48 25.3955 139.807 23.3906 137 23.3906ZM137.134 31.4105H133.524V25.6629H137.134C139.005 25.6629 140.074 27.2669 140.074 28.4699C139.941 29.9402 138.871 31.4105 137.134 31.4105ZM152.505 29.0045C150.634 29.0045 148.763 29.8065 148.094 31.5442L150.367 32.4798C150.901 31.5442 151.703 31.2768 152.639 31.2768C153.976 31.2768 155.179 32.0788 155.312 33.4155V33.5492C154.911 33.2818 153.842 32.8808 152.773 32.8808C150.367 32.8808 147.961 34.2175 147.961 36.6235C147.961 38.8958 149.966 40.3661 152.104 40.3661C153.842 40.3661 154.644 39.5641 155.312 38.7621H155.446V40.0988H157.852V33.6828C157.585 30.7422 155.312 29.0045 152.505 29.0045ZM152.238 38.2275C151.436 38.2275 150.233 37.8265 150.233 36.7571C150.233 35.4205 151.703 35.0195 152.906 35.0195C153.976 35.0195 154.51 35.2868 155.179 35.5542C154.911 37.1581 153.575 38.2275 152.238 38.2275ZM166.273 29.4055L163.466 36.6235H163.332L160.392 29.4055H157.718L162.129 39.5641L159.59 45.1781H162.129L168.946 29.4055H166.273ZM143.817 40.0988H146.357V23.3906H143.817V40.0988Z" fill="white"/>
<path d="M28.5967 25.9293L14.4282 41.0335C14.8292 42.6375 16.2995 43.8405 18.1708 43.8405C18.8391 43.8405 19.5075 43.7068 20.1758 43.3058L36.2157 34.0829L28.5967 25.9293Z" fill="#EA4335"/>
<path d="M43.0332 23.391L36.0826 19.381L28.3299 26.3316L36.0826 34.0843L42.8995 30.0743C44.1025 29.406 44.9045 28.203 44.9045 26.7326C45.0382 25.2623 44.2362 24.0593 43.0332 23.391Z" fill="#FBBC04"/>
<path d="M14.4286 12.4294C14.2949 12.6968 14.2949 13.0978 14.2949 13.3651V40.0982C14.2949 40.4992 14.2949 40.7666 14.4286 41.0339L29.1318 26.3307L14.4286 12.4294Z" fill="#4285F4"/>
<path d="M28.7308 26.7327L36.0825 19.381L20.0426 10.1581C19.5079 9.75711 18.8396 9.62344 18.0376 9.62344C16.2999 9.62344 14.6959 10.8264 14.2949 12.4304L28.7308 26.7327Z" fill="#34A853"/>
</svg>
