<svg width="130" height="39" viewBox="0 0 130 39" fill="none" xmlns="http://www.w3.org/2000/svg">
<path d="M124.737 37.7189H4.79757C2.4764 37.7189 0.661734 35.9042 0.661734 33.583V4.79757C0.661734 2.4764 2.4764 0.661734 4.79757 0.661734H124.737C127.058 0.661734 128.873 2.4764 128.873 4.79757V33.583C128.873 35.8169 127.05 37.7189 124.737 37.7189Z" stroke="black" stroke-width="1.32347"/>
<path d="M44.0851 8.08806C44.0223 7.8958 43.9395 7.72352 43.8367 7.57123C43.7358 7.41705 43.6149 7.2857 43.4741 7.17719C43.3351 7.06869 43.1771 6.98588 43.0001 6.92877C42.823 6.87167 42.6288 6.84311 42.4175 6.84311C42.0711 6.84311 41.756 6.93258 41.4724 7.11152C41.1888 7.29046 40.9632 7.5541 40.7957 7.90246C40.6282 8.25081 40.5445 8.67817 40.5445 9.18452C40.5445 9.69089 40.6291 10.1183 40.7985 10.4666C40.968 10.815 41.1973 11.0785 41.4867 11.2575C41.776 11.4364 42.1016 11.526 42.4632 11.526C42.7983 11.526 43.0933 11.4546 43.3485 11.3118C43.6054 11.1671 43.8053 10.9634 43.9481 10.7007C44.0927 10.4361 44.165 10.1249 44.165 9.76698L44.382 9.81274H42.6232V9.18452H44.8503V9.81274C44.8503 10.2943 44.7475 10.7131 44.542 11.069C44.3383 11.425 44.0566 11.7011 43.6968 11.8971C43.3389 12.0913 42.9277 12.1884 42.4632 12.1884C41.9455 12.1884 41.4905 12.0665 41.0984 11.8229C40.7082 11.5792 40.4036 11.2327 40.1846 10.7835C39.9676 10.3342 39.8592 9.80133 39.8592 9.18452C39.8592 8.72195 39.921 8.30602 40.0447 7.93672C40.1703 7.56552 40.3474 7.24953 40.5758 6.98874C40.8043 6.72794 41.0746 6.52807 41.3867 6.38911C41.6989 6.25014 42.0426 6.18066 42.4175 6.18066C42.7259 6.18066 43.0134 6.22731 43.2798 6.32058C43.5483 6.41195 43.7871 6.54234 43.9966 6.71177C44.2079 6.87928 44.384 7.0801 44.5248 7.31424C44.6657 7.54649 44.7628 7.80442 44.816 8.08806H44.0851ZM46.0631 12.1084V6.26061H49.5924V6.8888H46.7713V8.86472H49.4096V9.4929H46.7713V11.4803H49.6381V12.1084H46.0631ZM50.5489 6.8888V6.26061H54.9348V6.8888H53.096V12.1084H52.3879V6.8888H50.5489ZM58.9973 6.26061V12.1084H58.2892V6.26061H58.9973ZM60.0974 6.8888V6.26061H64.4832V6.8888H62.6443V12.1084H61.9362V6.8888H60.0974ZM72.7716 9.18452C72.7716 9.80133 72.6603 10.3342 72.4375 10.7835C72.2148 11.2327 71.9093 11.5792 71.521 11.8229C71.1326 12.0665 70.6891 12.1884 70.1903 12.1884C69.6917 12.1884 69.2481 12.0665 68.8598 11.8229C68.4714 11.5792 68.1659 11.2327 67.9432 10.7835C67.7204 10.3342 67.6091 9.80133 67.6091 9.18452C67.6091 8.56775 67.7204 8.03475 67.9432 7.58551C68.1659 7.13626 68.4714 6.78981 68.8598 6.54615C69.2481 6.30249 69.6917 6.18066 70.1903 6.18066C70.6891 6.18066 71.1326 6.30249 71.521 6.54615C71.9093 6.78981 72.2148 7.13626 72.4375 7.58551C72.6603 8.03475 72.7716 8.56775 72.7716 9.18452ZM72.0863 9.18452C72.0863 8.67817 72.0016 8.25081 71.8322 7.90246C71.6647 7.5541 71.4372 7.29046 71.1497 7.11152C70.8643 6.93258 70.5445 6.84311 70.1903 6.84311C69.8363 6.84311 69.5156 6.93258 69.2281 7.11152C68.9426 7.29046 68.7151 7.5541 68.5457 7.90246C68.3782 8.25081 68.2944 8.67817 68.2944 9.18452C68.2944 9.69089 68.3782 10.1183 68.5457 10.4666C68.7151 10.815 68.9426 11.0785 69.2281 11.2575C69.5156 11.4364 69.8363 11.526 70.1903 11.526C70.5445 11.526 70.8643 11.4364 71.1497 11.2575C71.4372 11.0785 71.6647 10.815 71.8322 10.4666C72.0016 10.1183 72.0863 9.69089 72.0863 9.18452ZM78.5994 6.26061V12.1084H77.9141L74.7276 7.51698H74.6705V12.1084H73.9624V6.26061H74.6476L77.8456 10.8635H77.9027V6.26061H78.5994Z" fill="black"/>
<path d="M44.0851 8.08757L43.9939 8.11737L44.0155 8.18352H44.0851V8.08757ZM43.8366 7.57075L43.7563 7.62329L43.7571 7.62443L43.8366 7.57075ZM44.165 9.76649L44.1848 9.67265L44.069 9.64828V9.76649H44.165ZM44.382 9.81226V9.90821H45.3035L44.4018 9.71832L44.382 9.81226ZM42.6231 9.81226H42.5272V9.90821H42.6231V9.81226ZM42.6231 9.18404V9.08809H42.5272V9.18404H42.6231ZM44.8503 9.18404H44.9462V9.08809H44.8503V9.18404ZM44.816 8.08757V8.18352H44.9317L44.9103 8.06985L44.816 8.08757ZM44.1763 8.05777C44.111 7.85789 44.0244 7.67744 43.9162 7.51706L43.7571 7.62443C43.8545 7.76864 43.9336 7.93273 43.9939 8.11737L44.1763 8.05777ZM43.917 7.51821C43.8104 7.35537 43.6823 7.21599 43.5326 7.10069L43.4149 7.25233C43.547 7.35404 43.6611 7.47776 43.7563 7.62329L43.917 7.51821ZM43.5326 7.10069C43.3843 6.98489 43.2166 6.89734 43.0295 6.83697L42.9706 7.0196C43.1375 7.07345 43.2854 7.15113 43.4149 7.25233L43.5326 7.10069ZM43.0295 6.83697C42.8417 6.77641 42.6375 6.74668 42.4175 6.74668V6.93858C42.6202 6.93858 42.8043 6.96596 42.9706 7.0196L43.0295 6.83697ZM42.4175 6.74668C42.0536 6.74668 41.7207 6.84094 41.4213 7.02988L41.5236 7.19218C41.7914 7.02325 42.0886 6.93858 42.4175 6.93858V6.74668ZM41.4213 7.02988C41.1202 7.21983 40.8833 7.49832 40.7092 7.86039L40.8822 7.94356C41.0431 7.60891 41.2575 7.36011 41.5236 7.19218L41.4213 7.02988ZM40.7092 7.86039C40.5338 8.22509 40.4485 8.66757 40.4485 9.18404H40.6404C40.6404 8.6878 40.7225 8.27556 40.8822 7.94356L40.7092 7.86039ZM40.4485 9.18404C40.4485 9.70067 40.5349 10.1433 40.7123 10.5081L40.8848 10.4241C40.7234 10.0922 40.6404 9.68014 40.6404 9.18404H40.4485ZM40.7123 10.5081C40.8885 10.8704 41.1294 11.1489 41.4362 11.3387L41.5372 11.1754C41.2653 11.0073 41.0474 10.7584 40.8848 10.4241L40.7123 10.5081ZM41.4362 11.3387C41.7417 11.5276 42.0849 11.6214 42.4632 11.6214V11.4295C42.1182 11.4295 41.8103 11.3444 41.5372 11.1754L41.4362 11.3387ZM42.4632 11.6214C42.8123 11.6214 43.1239 11.5469 43.3953 11.395L43.3015 11.2275C43.0628 11.3612 42.7842 11.4295 42.4632 11.4295V11.6214ZM43.3953 11.395C43.6682 11.2414 43.8811 11.0243 44.0323 10.7461L43.8638 10.6542C43.7296 10.9013 43.5426 11.0919 43.3015 11.2275L43.3953 11.395ZM44.0323 10.7461C44.186 10.4649 44.2609 10.1375 44.2609 9.76649H44.069C44.069 10.1113 43.9995 10.4061 43.8638 10.6542L44.0323 10.7461ZM44.1452 9.86043L44.3623 9.9061L44.4018 9.71832L44.1848 9.67265L44.1452 9.86043ZM44.382 9.71631H42.6231V9.90821H44.382V9.71631ZM42.7191 9.81226V9.18404H42.5272V9.81226H42.7191ZM42.6231 9.27999H44.8503V9.08809H42.6231V9.27999ZM44.7543 9.18404V9.81226H44.9462V9.18404H44.7543ZM44.7543 9.81226C44.7543 10.2799 44.6546 10.6816 44.4589 11.0206L44.6251 11.1165C44.8404 10.7437 44.9462 10.3078 44.9462 9.81226H44.7543ZM44.4589 11.0206C44.264 11.3611 43.995 11.6249 43.6509 11.8124L43.7425 11.981C44.1179 11.7764 44.4125 11.4879 44.6251 11.1165L44.4589 11.0206ZM43.6509 11.8124C43.3089 11.9979 42.914 12.092 42.4632 12.092V12.2839C42.9414 12.2839 43.3687 12.1838 43.7425 11.981L43.6509 11.8124ZM42.4632 12.092C41.9611 12.092 41.5241 11.974 41.149 11.7409L41.0475 11.9038C41.4567 12.158 41.9298 12.2839 42.4632 12.2839V12.092ZM41.149 11.7409C40.7754 11.5076 40.4827 11.1755 40.2709 10.741L40.0983 10.8247C40.3243 11.2888 40.6407 11.6497 41.0475 11.9038L41.149 11.7409ZM40.2709 10.741C40.0614 10.3075 39.9551 9.78971 39.9551 9.18404H39.7632C39.7632 9.81188 39.8737 10.3599 40.0983 10.8247L40.2709 10.741ZM39.9551 9.18404C39.9551 8.72994 40.0159 8.32454 40.1357 7.96672L39.9539 7.90547C39.8263 8.28624 39.7632 8.71299 39.7632 9.18404H39.9551ZM40.1357 7.96672C40.2578 7.60591 40.4289 7.30162 40.648 7.05148L40.5037 6.92503C40.2659 7.19647 40.083 7.52388 39.9539 7.90547L40.1357 7.96672ZM40.648 7.05148C40.8674 6.80098 41.1265 6.60951 41.4258 6.47629L41.3478 6.30096C41.0227 6.44566 40.7411 6.65395 40.5037 6.92503L40.648 7.05148ZM41.4258 6.47629C41.7246 6.3433 42.0546 6.27613 42.4175 6.27613V6.08423C42.0304 6.08423 41.6733 6.15602 41.3478 6.30096L41.4258 6.47629ZM42.4175 6.27613C42.7161 6.27613 42.9927 6.32128 43.2482 6.41067L43.3116 6.22953C43.034 6.13238 42.7357 6.08423 42.4175 6.08423V6.27613ZM43.2482 6.41067C43.5065 6.4986 43.7361 6.62393 43.9362 6.78587L44.0569 6.63669C43.8383 6.4598 43.59 6.32435 43.3116 6.22953L43.2482 6.41067ZM43.9362 6.78587C44.1384 6.94614 44.3076 7.13881 44.4426 7.36323L44.607 7.2643C44.4603 7.02044 44.2766 6.81085 44.0562 6.63609L43.9362 6.78587ZM44.4426 7.36323C44.5771 7.58501 44.6705 7.83227 44.7218 8.10529L44.9103 8.06985C44.8551 7.7756 44.7542 7.507 44.607 7.2643L44.4426 7.36323ZM44.816 7.99162H44.0851V8.18352H44.816V7.99162ZM46.0631 12.1079H45.9671V12.2039H46.0631V12.1079ZM46.0631 6.26013V6.16418H45.9671V6.26013H46.0631ZM49.5924 6.26013H49.6883V6.16418H49.5924V6.26013ZM49.5924 6.88831V6.98426H49.6883V6.88831H49.5924ZM46.7713 6.88831V6.79236H46.6754V6.88831H46.7713ZM46.7713 8.86423H46.6754V8.96018H46.7713V8.86423ZM49.4096 8.86423H49.5056V8.76828H49.4096V8.86423ZM49.4096 9.49242V9.58837H49.5056V9.49242H49.4096ZM46.7713 9.49242V9.39646H46.6754V9.49242H46.7713ZM46.7713 11.4798H46.6754V11.5758H46.7713V11.4798ZM49.6381 11.4798H49.734V11.3839H49.6381V11.4798ZM49.6381 12.1079V12.2039H49.734V12.1079H49.6381ZM46.1591 12.1079V6.26013H45.9671V12.1079H46.1591ZM46.0631 6.35608H49.5924V6.16418H46.0631V6.35608ZM49.4964 6.26013V6.88831H49.6883V6.26013H49.4964ZM49.5924 6.79236H46.7713V6.98426H49.5924V6.79236ZM46.6754 6.88831V8.86423H46.8673V6.88831H46.6754ZM46.7713 8.96018H49.4096V8.76828H46.7713V8.96018ZM49.3137 8.86423V9.49242H49.5056V8.86423H49.3137ZM49.4096 9.39646H46.7713V9.58837H49.4096V9.39646ZM46.6754 9.49242V11.4798H46.8673V9.49242H46.6754ZM46.7713 11.5758H49.6381V11.3839H46.7713V11.5758ZM49.5421 11.4798V12.1079H49.734V11.4798H49.5421ZM49.6381 12.012H46.0631V12.2039H49.6381V12.012ZM50.5489 6.88831H50.453V6.98426H50.5489V6.88831ZM50.5489 6.26013V6.16418H50.453V6.26013H50.5489ZM54.9348 6.26013H55.0307V6.16418H54.9348V6.26013ZM54.9348 6.88831V6.98426H55.0307V6.88831H54.9348ZM53.096 6.88831V6.79236H53V6.88831H53.096ZM53.096 12.1079V12.2039H53.1919V12.1079H53.096ZM52.3878 12.1079H52.2919V12.2039H52.3878V12.1079ZM52.3878 6.88831H52.4838V6.79236H52.3878V6.88831ZM50.6449 6.88831V6.26013H50.453V6.88831H50.6449ZM50.5489 6.35608H54.9348V6.16418H50.5489V6.35608ZM54.8388 6.26013V6.88831H55.0307V6.26013H54.8388ZM54.9348 6.79236H53.096V6.98426H54.9348V6.79236ZM53 6.88831V12.1079H53.1919V6.88831H53ZM53.096 12.012H52.3878V12.2039H53.096V12.012ZM52.4838 12.1079V6.88831H52.2919V12.1079H52.4838ZM52.3878 6.79236H50.5489V6.98426H52.3878V6.79236ZM58.9973 6.26013H59.0932V6.16418H58.9973V6.26013ZM58.9973 12.1079V12.2039H59.0932V12.1079H58.9973ZM58.2891 12.1079H58.1932V12.2039H58.2891V12.1079ZM58.2891 6.26013V6.16418H58.1932V6.26013H58.2891ZM58.9013 6.26013V12.1079H59.0932V6.26013H58.9013ZM58.9973 12.012H58.2891V12.2039H58.9973V12.012ZM58.3851 12.1079V6.26013H58.1932V12.1079H58.3851ZM58.2891 6.35608H58.9973V6.16418H58.2891V6.35608ZM60.0973 6.88831H60.0014V6.98426H60.0973V6.88831ZM60.0973 6.26013V6.16418H60.0014V6.26013H60.0973ZM64.4832 6.26013H64.5791V6.16418H64.4832V6.26013ZM64.4832 6.88831V6.98426H64.5791V6.88831H64.4832ZM62.6443 6.88831V6.79236H62.5483V6.88831H62.6443ZM62.6443 12.1079V12.2039H62.7402V12.1079H62.6443ZM61.9362 12.1079H61.8402V12.2039H61.9362V12.1079ZM61.9362 6.88831H62.0321V6.79236H61.9362V6.88831ZM60.1933 6.88831V6.26013H60.0014V6.88831H60.1933ZM60.0973 6.35608H64.4832V6.16418H60.0973V6.35608ZM64.3872 6.26013V6.88831H64.5791V6.26013H64.3872ZM64.4832 6.79236H62.6443V6.98426H64.4832V6.79236ZM62.5483 6.88831V12.1079H62.7402V6.88831H62.5483ZM62.6443 12.012H61.9362V12.2039H62.6443V12.012ZM62.0321 12.1079V6.88831H61.8402V12.1079H62.0321ZM61.9362 6.79236H60.0973V6.98426H61.9362V6.79236ZM72.6756 9.18404C72.6756 9.78933 72.5663 10.3071 72.3516 10.7404L72.5235 10.8257C72.7541 10.3604 72.8675 9.81226 72.8675 9.18404H72.6756ZM72.3516 10.7404C72.1359 11.1753 71.8419 11.5077 71.4699 11.7411L71.5719 11.9037C71.9766 11.6497 72.2937 11.2892 72.5235 10.8257L72.3516 10.7404ZM71.4699 11.7411C71.0983 11.9743 70.6726 12.092 70.1904 12.092V12.2839C70.7055 12.2839 71.167 12.1578 71.5719 11.9037L71.4699 11.7411ZM70.1904 12.092C69.708 12.092 69.2824 11.9743 68.9108 11.7411L68.8088 11.9037C69.2137 12.1578 69.6752 12.2839 70.1904 12.2839V12.092ZM68.9108 11.7411C68.5388 11.5077 68.2448 11.1753 68.0291 10.7404L67.8572 10.8257C68.087 11.2892 68.4041 11.6497 68.8088 11.9037L68.9108 11.7411ZM68.0291 10.7404C67.8143 10.3071 67.7051 9.78933 67.7051 9.18404H67.5132C67.5132 9.81226 67.6266 10.3604 67.8572 10.8257L68.0291 10.7404ZM67.7051 9.18404C67.7051 8.57872 67.8143 8.06094 68.0291 7.62765L67.8572 7.5424C67.6266 8.0076 67.5132 8.55582 67.5132 9.18404H67.7051ZM68.0291 7.62765C68.2448 7.19273 68.5388 6.86032 68.9108 6.62695L68.8088 6.46439C68.4041 6.71833 68.087 7.07883 67.8572 7.5424L68.0291 7.62765ZM68.9108 6.62695C69.2824 6.39371 69.708 6.27613 70.1904 6.27613V6.08423C69.6752 6.08423 69.2137 6.21031 68.8088 6.46439L68.9108 6.62695ZM70.1904 6.27613C70.6726 6.27613 71.0983 6.39371 71.4699 6.62695L71.5719 6.46439C71.167 6.21031 70.7055 6.08423 70.1904 6.08423V6.27613ZM71.4699 6.62695C71.8419 6.86032 72.1359 7.19273 72.3516 7.62765L72.5235 7.5424C72.2937 7.07883 71.9766 6.71833 71.5719 6.46439L71.4699 6.62695ZM72.3516 7.62765C72.5663 8.06094 72.6756 8.57872 72.6756 9.18404H72.8675C72.8675 8.55582 72.7541 8.0076 72.5235 7.5424L72.3516 7.62765ZM72.1822 9.18404C72.1822 8.66743 72.0959 8.22482 71.9185 7.86L71.7457 7.94356C71.9072 8.27545 71.9903 8.68793 71.9903 9.18404H72.1822ZM71.9185 7.86C71.7442 7.49761 71.5055 7.21945 71.2005 7.02957L71.0988 7.19234C71.3686 7.36035 71.585 7.60923 71.7457 7.94356L71.9185 7.86ZM71.2005 7.02957C70.8989 6.84057 70.5614 6.74668 70.1904 6.74668V6.93858C70.5274 6.93858 70.8293 7.02347 71.0988 7.19234L71.2005 7.02957ZM70.1904 6.74668C69.8193 6.74668 69.4807 6.84072 69.1773 7.02957L69.2788 7.19249C69.5503 7.02347 69.8533 6.93858 70.1904 6.93858V6.74668ZM69.1773 7.02957C68.8744 7.21941 68.6354 7.49796 68.4593 7.86L68.632 7.94394C68.7947 7.60927 69.0106 7.36052 69.2788 7.19249L69.1773 7.02957ZM68.4593 7.86C68.284 8.2247 68.1984 8.66757 68.1984 9.18404H68.3903C68.3903 8.6878 68.4723 8.27594 68.632 7.94394L68.4593 7.86ZM68.1984 9.18404C68.1984 9.70048 68.2838 10.143 68.4591 10.5077L68.6321 10.4245C68.4725 10.0925 68.3903 9.68023 68.3903 9.18404H68.1984ZM68.4591 10.5077C68.6352 10.8697 68.8742 11.1485 69.1771 11.3384L69.279 11.1757C69.0109 11.0077 68.7949 10.7592 68.6321 10.4245L68.4591 10.5077ZM69.1771 11.3384C69.4805 11.5273 69.8193 11.6214 70.1904 11.6214V11.4295C69.8533 11.4295 69.5506 11.3448 69.279 11.1757L69.1771 11.3384ZM70.1904 11.6214C70.5614 11.6214 70.8991 11.5274 71.2007 11.3384L71.0991 11.1755C70.8296 11.3444 70.5274 11.4295 70.1904 11.4295V11.6214ZM71.2007 11.3384C71.5057 11.1485 71.7444 10.87 71.9187 10.5077L71.7459 10.4241C71.5851 10.7584 71.3689 11.0076 71.0991 11.1755L71.2007 11.3384ZM71.9187 10.5077C72.0961 10.1429 72.1822 9.70067 72.1822 9.18404H71.9903C71.9903 9.68014 71.9074 10.0922 71.7459 10.4241L71.9187 10.5077ZM78.5994 6.26013H78.6953V6.16418H78.5994V6.26013ZM78.5994 12.1079V12.2039H78.6953V12.1079H78.5994ZM77.9141 12.1079L77.8353 12.1627L77.8639 12.2039H77.9141V12.1079ZM74.7276 7.5165L74.8063 7.46179L74.7777 7.42055H74.7276V7.5165ZM74.6705 7.5165V7.42055H74.5745V7.5165H74.6705ZM74.6705 12.1079V12.2039H74.7664V12.1079H74.6705ZM73.9622 12.1079H73.8664V12.2039H73.9622V12.1079ZM73.9622 6.26013V6.16418H73.8664V6.26013H73.9622ZM74.6476 6.26013L74.7264 6.20539L74.6977 6.16418H74.6476V6.26013ZM77.8456 10.863L77.7668 10.9177L77.7954 10.959H77.8456V10.863ZM77.9027 10.863V10.959H77.9986V10.863H77.9027ZM77.9027 6.26013V6.16418H77.8067V6.26013H77.9027ZM78.5034 6.26013V12.1079H78.6953V6.26013H78.5034ZM78.5994 12.012H77.9141V12.2039H78.5994V12.012ZM77.993 12.0532L74.8063 7.46179L74.6487 7.57121L77.8353 12.1627L77.993 12.0532ZM74.7276 7.42055H74.6705V7.61245H74.7276V7.42055ZM74.5745 7.5165V12.1079H74.7664V7.5165H74.5745ZM74.6705 12.012H73.9622V12.2039H74.6705V12.012ZM74.0583 12.1079V6.26013H73.8664V12.1079H74.0583ZM73.9622 6.35608H74.6476V6.16418H73.9622V6.35608ZM74.5688 6.31488L77.7668 10.9177L77.9244 10.8082L74.7264 6.20539L74.5688 6.31488ZM77.8456 10.959H77.9027V10.7671H77.8456V10.959ZM77.9986 10.863V6.26013H77.8067V10.863H77.9986ZM77.9027 6.35608H78.5994V6.16418H77.9027V6.35608Z" fill="black"/>
<path d="M65.3425 20.9167C63.0396 20.9167 61.2166 22.6438 61.2166 25.0426C61.2166 27.3455 63.0396 29.1685 65.3425 29.1685C67.6453 29.1685 69.4684 27.4414 69.4684 25.0426C69.4684 22.5479 67.6453 20.9167 65.3425 20.9167ZM65.3425 27.4414C64.0951 27.4414 63.0396 26.3859 63.0396 24.9467C63.0396 23.5074 64.0951 22.4519 65.3425 22.4519C66.5899 22.4519 67.6453 23.4114 67.6453 24.9467C67.6453 26.3859 66.5899 27.4414 65.3425 27.4414ZM56.419 20.9167C54.1162 20.9167 52.2931 22.6438 52.2931 25.0426C52.2931 27.3455 54.1162 29.1685 56.419 29.1685C58.7218 29.1685 60.5449 27.4414 60.5449 25.0426C60.5449 22.5479 58.7218 20.9167 56.419 20.9167ZM56.419 27.4414C55.1716 27.4414 54.1162 26.3859 54.1162 24.9467C54.1162 23.5074 55.1716 22.4519 56.419 22.4519C57.6664 22.4519 58.7218 23.4114 58.7218 24.9467C58.7218 26.3859 57.6664 27.4414 56.419 27.4414ZM45.7684 22.1641V23.8912H49.8943C49.7983 24.8507 49.4145 25.6183 48.9348 26.0981C48.3591 26.6738 47.3996 27.3455 45.7684 27.3455C43.1777 27.3455 41.2587 25.3305 41.2587 22.7398C41.2587 20.1491 43.2736 18.1341 45.7684 18.1341C47.1117 18.1341 48.1672 18.7098 48.9348 19.3815L50.1821 18.1341C49.1267 17.1746 47.7834 16.407 45.8643 16.407C42.4101 16.407 39.4356 19.2855 39.4356 22.7398C39.4356 26.194 42.4101 29.0726 45.8643 29.0726C47.7834 29.0726 49.1267 28.4969 50.2781 27.2495C51.4295 26.0981 51.8133 24.4669 51.8133 23.2195C51.8133 22.8357 51.8133 22.4519 51.7174 22.1641H45.7684ZM89.3304 23.5074C88.9465 22.5479 87.987 20.9167 85.8761 20.9167C83.7652 20.9167 82.038 22.5479 82.038 25.0426C82.038 27.3455 83.7652 29.1685 86.068 29.1685C87.8911 29.1685 89.0425 28.0171 89.4263 27.3455L88.083 26.3859C87.6032 27.0576 87.0275 27.5374 86.068 27.5374C85.1085 27.5374 84.5328 27.1535 84.053 26.29L89.5223 23.9872L89.3304 23.5074ZM83.7652 24.8507C83.7652 23.3155 85.0125 22.4519 85.8761 22.4519C86.5478 22.4519 87.2194 22.8357 87.4113 23.3155L83.7652 24.8507ZM79.2554 28.7847H81.0785V16.7908H79.2554V28.7847ZM76.3769 21.7803C75.8971 21.3005 75.1295 20.8208 74.17 20.8208C72.155 20.8208 70.236 22.6438 70.236 24.9467C70.236 27.2495 72.0591 28.9766 74.17 28.9766C75.1295 28.9766 75.8971 28.4969 76.281 28.0171H76.3769V28.5928C76.3769 30.128 75.5133 30.9916 74.17 30.9916C73.1146 30.9916 72.3469 30.224 72.155 29.5523L70.6198 30.224C71.0996 31.2795 72.251 32.6228 74.266 32.6228C76.3769 32.6228 78.104 31.3754 78.104 28.4009V21.1086H76.3769V21.7803ZM74.266 27.4414C73.0186 27.4414 71.9631 26.3859 71.9631 24.9467C71.9631 23.5074 73.0186 22.4519 74.266 22.4519C75.5133 22.4519 76.4729 23.5074 76.4729 24.9467C76.4729 26.3859 75.5133 27.4414 74.266 27.4414ZM97.6785 16.7908H93.3603V28.7847H95.1834V24.275H97.6785C99.6935 24.275 101.613 22.8357 101.613 20.5329C101.613 18.2301 99.6935 16.7908 97.6785 16.7908ZM97.7745 22.5479H95.1834V18.422H97.7745C99.1178 18.422 99.8854 19.5734 99.8854 20.4369C99.7895 21.4924 99.0218 22.5479 97.7745 22.5479ZM108.809 20.8208C107.466 20.8208 106.122 21.3965 105.642 22.6438L107.274 23.3155C107.657 22.6438 108.233 22.4519 108.905 22.4519C109.864 22.4519 110.728 23.0276 110.824 23.9872V24.0831C110.536 23.8912 109.768 23.6033 109.001 23.6033C107.274 23.6033 105.547 24.5629 105.547 26.29C105.547 27.9212 106.986 28.9766 108.521 28.9766C109.768 28.9766 110.344 28.4009 110.824 27.8252H110.92V28.7847H112.647V24.1791C112.455 22.0681 110.824 20.8208 108.809 20.8208ZM108.617 27.4414C108.041 27.4414 107.178 27.1536 107.178 26.3859C107.178 25.4264 108.233 25.1386 109.097 25.1386C109.864 25.1386 110.248 25.3305 110.728 25.5224C110.536 26.6738 109.576 27.4414 108.617 27.4414ZM118.692 21.1086L116.677 26.29H116.581L114.47 21.1086H112.551L115.717 28.4009L113.894 32.4309H115.717L120.611 21.1086H118.692ZM102.572 28.7847H104.395V16.7908H102.572V28.7847Z" fill="black"/>
<path d="M19.8617 18.6133L9.6908 29.4558C9.97865 30.6072 11.0341 31.4708 12.3774 31.4708C12.8572 31.4708 13.337 31.3748 13.8167 31.087L25.3309 24.4663L19.8617 18.6133Z" fill="#EA4335"/>
<path d="M30.2248 16.7909L25.2353 13.9124L19.6701 18.9018L25.2353 24.467L30.1288 21.5885C30.9924 21.1087 31.5681 20.2452 31.5681 19.1897C31.6641 18.1342 31.0884 17.2707 30.2248 16.7909Z" fill="#FBBC04"/>
<path d="M9.69111 8.92261C9.59515 9.11451 9.59515 9.40236 9.59515 9.59427V28.7845C9.59515 29.0724 9.59515 29.2643 9.69111 29.4562L20.2458 18.9015L9.69111 8.92261Z" fill="#4285F4"/>
<path d="M19.9579 19.19L25.2352 13.9126L13.7211 7.29201C13.3373 7.00415 12.8575 6.9082 12.2818 6.9082C11.0344 6.9082 9.88301 7.77177 9.59515 8.92318L19.9579 19.19Z" fill="#34A853"/>
</svg>
