<svg width="166" height="53" viewBox="0 0 166 53" fill="none" xmlns="http://www.w3.org/2000/svg">
<path d="M160.766 51.5446H5.898C3.56787 51.5446 1.65757 49.6343 1.65757 47.3042V6.00602C1.65757 3.67589 3.56787 1.76558 5.898 1.76558H160.766C163.096 1.76558 165.007 3.67588 165.007 6.00602V47.3042C165.007 49.6343 163.096 51.5446 160.766 51.5446Z" stroke="white" stroke-width="1.84367"/>
<path d="M26.8052 38.6573L15.1901 36.9796V27.1713H26.8052V38.6573ZM26.8052 26.2679H15.1901V16.9758L26.8052 15.2981V26.2679ZM42.6792 40.8513L27.7086 38.6573V27.1713H42.6792V40.8513ZM42.6792 26.2679H27.7086V15.2981L42.6792 13.1041V26.2679Z" fill="white"/>
<path d="M62.683 20.46C62.1667 20.7181 61.0052 20.9762 59.7147 20.9762C58.2951 20.9762 57.0045 20.5891 56.1011 19.6857C55.3268 18.9113 54.8105 17.6208 54.8105 16.0721C54.8105 13.2328 56.7464 11.0389 59.9728 11.0389C61.1343 11.0389 61.9086 11.297 62.4249 11.4261L62.1667 12.4585C61.6505 12.2004 61.0052 12.0713 60.1018 12.0713C57.7788 12.0713 56.2301 13.491 56.2301 15.943C56.2301 18.3951 57.6498 19.8147 59.9728 19.8147C60.7471 19.8147 61.3924 19.6857 61.6505 19.5566V16.7174H59.7147V15.6849H62.812V20.46H62.683Z" fill="white"/>
<path d="M65.2641 17.6209C65.2641 19.2987 66.4256 20.073 67.5871 20.073C68.4905 20.073 69.0068 19.944 69.523 19.6858L69.7811 20.5892C69.3939 20.8474 68.6196 20.9764 67.4581 20.9764C65.3932 20.9764 64.1026 19.5568 64.1026 17.4919C64.1026 15.427 65.2641 13.7492 67.329 13.7492C69.523 13.7492 70.1683 15.6851 70.1683 16.9757C70.1683 17.2338 70.1683 17.4919 70.1683 17.6209H65.2641ZM69.0068 16.7175C69.0068 15.9432 68.6196 14.6526 67.329 14.6526C66.0384 14.6526 65.5222 15.8141 65.3932 16.7175H69.0068Z" fill="white"/>
<path d="M73.2656 11.9423V13.8781H75.0724V14.7815H73.2656V18.5242C73.2656 19.4276 73.5238 19.8147 74.169 19.8147C74.5562 19.8147 74.6852 19.8147 74.9434 19.6857V20.5891C74.6852 20.7181 74.2981 20.7181 73.7819 20.7181C73.1366 20.7181 72.7494 20.5891 72.4913 20.2019C72.1041 19.8147 71.9751 19.1694 71.9751 18.3951V14.6525H70.9426V13.7491H71.9751V12.0713L73.2656 11.9423Z" fill="white"/>
<path d="M80.88 11.9424C80.88 12.3296 80.6218 12.7167 80.1056 12.7167C79.7184 12.7167 79.3313 12.3296 79.3313 11.9424C79.3313 11.5552 79.7184 11.1681 80.1056 11.1681C80.4928 11.1681 80.88 11.5552 80.88 11.9424ZM79.4603 20.8473V13.8783H80.7509V20.8473H79.4603Z" fill="white"/>
<path d="M84.2354 11.9423V13.8781H86.0422V14.7815H84.2354V18.5242C84.2354 19.4276 84.4936 19.8147 85.1389 19.8147C85.526 19.8147 85.6551 19.8147 85.9132 19.6857V20.5891C85.6551 20.7181 85.2679 20.7181 84.7517 20.7181C84.1064 20.7181 83.7192 20.5891 83.4611 20.2019C83.0739 19.8147 82.9449 19.1694 82.9449 18.3951V14.6525H81.9124V13.7491H82.9449V12.0713L84.2354 11.9423Z" fill="white"/>
<path d="M96.6249 17.3628C96.6249 19.944 94.8181 21.1055 93.1404 21.1055C91.3336 21.1055 89.7849 19.6858 89.7849 17.4919C89.7849 15.1689 91.3336 13.7492 93.1404 13.7492C95.3343 13.7492 96.6249 15.1689 96.6249 17.3628ZM91.2045 17.3628C91.2045 18.9115 92.1079 20.073 93.2694 20.073C94.4309 20.073 95.3343 18.9115 95.3343 17.3628C95.3343 16.2013 94.6891 14.6526 93.2694 14.6526C91.8498 14.6526 91.2045 16.0723 91.2045 17.3628Z" fill="white"/>
<path d="M98.1736 15.8141C98.1736 15.0398 98.1736 14.5236 98.1736 13.8783H99.3351L99.4641 15.0398C99.8513 14.3945 100.626 13.7492 101.787 13.7492C102.691 13.7492 104.239 14.2655 104.239 16.7175V20.8474H102.949V16.8466C102.949 15.6851 102.561 14.7817 101.4 14.7817C100.626 14.7817 99.9804 15.427 99.7223 16.0723C99.7223 16.2013 99.5932 16.4594 99.5932 16.7175V20.8474H98.3026V15.8141H98.1736Z" fill="white"/>
<path d="M58.166 41.7545L54.6815 27.6873H56.6173L58.295 34.7855C58.6822 36.5923 59.0694 38.27 59.3275 39.6896C59.5856 38.27 59.9728 36.5923 60.489 34.7855L62.2958 27.6873H64.2317L65.9094 34.7855C66.2965 36.4632 66.6837 38.1409 66.9419 39.5606C67.2 38.0119 67.5871 36.4632 68.1034 34.6564L69.9101 27.5583H71.7169L67.7162 41.6255H65.7804L63.9735 34.2692C63.5864 32.4624 63.1992 31.0428 63.0702 29.6232C62.812 31.0428 62.5539 32.3334 62.0377 34.2692L60.1018 41.6255H58.166V41.7545Z" fill="white"/>
<path d="M74.9433 28.7198C74.9433 29.3651 74.5562 29.8813 73.7818 29.8813C73.1366 29.8813 72.6203 29.3651 72.6203 28.7198C72.6203 28.0745 73.1366 27.5583 73.7818 27.5583C74.5562 27.6873 74.9433 28.0745 74.9433 28.7198ZM72.8785 41.7545V31.6881H74.6853V41.7545H72.8785Z" fill="white"/>
<path d="M77.0083 34.3983C77.0083 33.3658 77.0083 32.4624 76.8792 31.6881H78.557L78.686 33.3658C79.2022 32.4624 80.3637 31.43 82.0415 31.43C83.4611 31.43 85.526 32.2043 85.526 35.6888V41.7545H83.7192V35.9469C83.7192 34.2692 83.0739 32.9786 81.3962 32.9786C80.2347 32.9786 79.2022 33.882 78.9441 34.9145C78.8151 35.1726 78.815 35.4307 78.815 35.8179V41.8836H77.0083V34.3983Z" fill="white"/>
<path d="M97.0121 26.9129V39.1733C97.0121 40.0767 97.0121 41.1092 97.1411 41.7545H95.4634L95.3343 39.9477C94.8181 41.1092 93.5275 41.8835 91.9789 41.8835C89.5268 41.8835 87.72 39.8186 87.72 36.7212C87.72 33.3658 89.7849 31.3009 92.237 31.3009C93.7857 31.3009 94.8181 32.0752 95.2053 32.8495V26.7839H97.0121V26.9129ZM95.2053 35.6888C95.2053 35.4307 95.2053 35.1726 95.0762 34.9145C94.8181 33.7529 93.7856 32.8495 92.4951 32.8495C90.5592 32.8495 89.5268 34.5273 89.5268 36.7212C89.5268 38.7862 90.5592 40.4639 92.4951 40.4639C93.6566 40.4639 94.8181 39.6895 95.2053 38.2699C95.2053 38.0118 95.3343 37.7537 95.3343 37.4956V35.6888H95.2053Z" fill="white"/>
<path d="M108.498 36.5922C108.498 40.3349 105.917 42.0126 103.465 42.0126C100.755 42.0126 98.6898 39.9477 98.6898 36.8503C98.6898 33.4949 100.884 31.43 103.723 31.43C106.562 31.43 108.498 33.4949 108.498 36.5922ZM100.626 36.7213C100.626 38.9153 101.916 40.593 103.723 40.593C105.401 40.593 106.82 38.9153 106.82 36.7213C106.82 35.0435 105.917 32.8496 103.852 32.8496C101.529 32.7205 100.626 34.7854 100.626 36.7213Z" fill="white"/>
<path d="M110.821 31.5589L112.112 36.7212C112.37 37.8827 112.628 38.9151 112.886 39.9476C113.144 38.9151 113.402 37.8827 113.789 36.7212L115.467 31.5589H117.016L118.565 36.5921C118.952 37.7536 119.21 38.9151 119.468 39.9476C119.597 38.9151 119.855 37.8827 120.242 36.7212L121.662 31.688H123.469L120.242 41.7544H118.565L117.016 36.9793C116.629 35.8178 116.371 34.9144 116.112 33.6238C115.854 34.7853 115.596 35.8178 115.209 36.9793L113.531 41.7544H111.983L109.014 31.688H110.821V31.5589Z" fill="white"/>
<path d="M124.888 39.8186C125.405 40.2058 126.437 40.593 127.34 40.593C128.631 40.593 129.276 39.9477 129.276 39.0443C129.276 38.1409 128.76 37.6247 127.469 37.2375C125.663 36.5922 124.759 35.5598 124.759 34.3983C124.759 32.7205 126.05 31.43 128.244 31.43C129.276 31.43 130.18 31.6881 130.696 32.0752L130.18 33.3658C129.792 33.1077 129.018 32.7205 128.115 32.7205C127.082 32.7205 126.437 33.3658 126.437 34.1402C126.437 34.9145 127.082 35.3017 128.373 35.8179C130.051 36.4632 130.954 37.3666 130.954 38.9153C130.954 40.722 129.534 41.8836 127.211 41.8836C126.05 41.8836 125.146 41.6254 124.372 41.2383L124.888 39.8186Z" fill="white"/>
</svg>
