<svg width="416" height="385" viewBox="0 0 416 385" fill="none" xmlns="http://www.w3.org/2000/svg">
<mask id="mask0_136_2635" style="mask-type:alpha" maskUnits="userSpaceOnUse" x="0" y="0" width="416" height="385">
<rect width="416" height="385" rx="6" fill="url(#paint0_linear_136_2635)"/>
</mask>
<g mask="url(#mask0_136_2635)">
<path d="M106.059 245.578C105.039 236.026 100.736 228.589 93.1531 223.266C85.6427 217.943 75.8719 215.281 63.8406 215.281C55.3823 215.281 48.1271 216.557 42.075 219.109C36.0229 221.661 31.3927 225.125 28.1844 229.5C24.9761 233.875 23.3354 238.87 23.2625 244.484C23.2625 249.151 24.3198 253.198 26.4344 256.625C28.6219 260.052 31.575 262.969 35.2938 265.375C39.0125 267.708 43.1323 269.677 47.6531 271.281C52.174 272.885 56.7313 274.234 61.325 275.328L82.325 280.578C90.7833 282.547 98.9136 285.208 106.716 288.562C114.591 291.917 121.627 296.146 127.825 301.25C134.096 306.354 139.054 312.516 142.7 319.734C146.346 326.953 148.169 335.411 148.169 345.109C148.169 358.234 144.815 369.792 138.106 379.781C131.398 389.698 121.7 397.464 109.013 403.078C96.3979 408.62 81.1219 411.391 63.1844 411.391C45.7573 411.391 30.6271 408.693 17.7938 403.297C5.03335 397.901 -4.95624 390.026 -12.175 379.672C-19.3208 369.318 -23.1854 356.703 -23.7687 341.828H16.1531C16.7365 349.63 19.1427 356.12 23.3719 361.297C27.6011 366.474 33.1063 370.339 39.8875 372.891C46.7417 375.443 54.3979 376.719 62.8563 376.719C71.6792 376.719 79.4084 375.406 86.0438 372.781C92.7521 370.083 98.0021 366.365 101.794 361.625C105.585 356.812 107.518 351.198 107.591 344.781C107.518 338.948 105.804 334.135 102.45 330.344C99.0958 326.479 94.3927 323.271 88.3406 320.719C82.3615 318.094 75.3615 315.76 67.3406 313.719L41.8563 307.156C23.4083 302.417 8.82501 295.234 -1.89374 285.609C-12.5396 275.911 -17.8625 263.042 -17.8625 247C-17.8625 233.802 -14.2896 222.245 -7.14374 212.328C0.0750144 202.411 9.88231 194.719 22.2781 189.25C34.674 183.708 48.7104 180.937 64.3875 180.937C80.2834 180.937 94.2104 183.708 106.169 189.25C118.2 194.719 127.643 202.339 134.497 212.109C141.351 221.807 144.888 232.964 145.106 245.578H106.059ZM274.273 337.344V240H313.866V408H275.476V378.141H273.726C269.934 387.547 263.7 395.24 255.023 401.219C246.419 407.198 235.809 410.188 223.195 410.188C212.184 410.188 202.45 407.745 193.991 402.859C185.606 397.901 179.044 390.719 174.304 381.313C169.564 371.833 167.195 360.385 167.195 346.969V240H206.788V340.844C206.788 351.49 209.705 359.948 215.538 366.219C221.372 372.49 229.028 375.625 238.507 375.625C244.34 375.625 249.991 374.203 255.46 371.359C260.929 368.516 265.413 364.286 268.913 358.672C272.486 352.984 274.273 345.875 274.273 337.344ZM339.181 471V240H378.119V267.781H380.416C382.457 263.698 385.338 259.359 389.056 254.766C392.775 250.099 397.806 246.125 404.15 242.844C410.494 239.49 418.588 237.813 428.431 237.813C441.41 237.813 453.114 241.13 463.541 247.766C474.041 254.328 482.353 264.062 488.478 276.969C494.676 289.802 497.775 305.552 497.775 324.219C497.775 342.667 494.749 358.344 488.697 371.25C482.645 384.156 474.405 394 463.978 400.781C453.551 407.563 441.739 410.953 428.541 410.953C418.916 410.953 410.931 409.349 404.588 406.141C398.244 402.932 393.14 399.068 389.275 394.547C385.483 389.953 382.53 385.615 380.416 381.531H378.775V471H339.181ZM378.009 324C378.009 334.865 379.541 344.38 382.603 352.547C385.739 360.714 390.223 367.094 396.056 371.687C401.963 376.208 409.108 378.469 417.494 378.469C426.244 378.469 433.572 376.135 439.478 371.469C445.384 366.729 449.832 360.276 452.822 352.109C455.884 343.87 457.416 334.5 457.416 324C457.416 313.573 455.921 304.312 452.931 296.219C449.942 288.125 445.494 281.781 439.588 277.187C433.681 272.594 426.317 270.297 417.494 270.297C409.035 270.297 401.853 272.521 395.947 276.969C390.041 281.417 385.556 287.651 382.494 295.672C379.504 303.693 378.009 313.135 378.009 324ZM516.281 471V240H555.219V267.781H557.516C559.557 263.698 562.438 259.359 566.156 254.766C569.875 250.099 574.906 246.125 581.25 242.844C587.594 239.49 595.688 237.813 605.531 237.813C618.51 237.813 630.214 241.13 640.641 247.766C651.141 254.328 659.453 264.062 665.578 276.969C671.776 289.802 674.875 305.552 674.875 324.219C674.875 342.667 671.849 358.344 665.797 371.25C659.745 384.156 651.505 394 641.078 400.781C630.651 407.563 618.839 410.953 605.641 410.953C596.016 410.953 588.031 409.349 581.688 406.141C575.344 402.932 570.24 399.068 566.375 394.547C562.583 389.953 559.63 385.615 557.516 381.531H555.875V471H516.281ZM555.109 324C555.109 334.865 556.641 344.38 559.703 352.547C562.839 360.714 567.323 367.094 573.156 371.687C579.063 376.208 586.208 378.469 594.594 378.469C603.344 378.469 610.672 376.135 616.578 371.469C622.484 366.729 626.932 360.276 629.922 352.109C632.984 343.87 634.516 334.5 634.516 324C634.516 313.573 633.021 304.312 630.031 296.219C627.042 288.125 622.594 281.781 616.688 277.187C610.781 272.594 603.417 270.297 594.594 270.297C586.135 270.297 578.953 272.521 573.047 276.969C567.141 281.417 562.656 287.651 559.594 295.672C556.604 303.693 555.109 313.135 555.109 324ZM766.663 411.281C750.256 411.281 736.038 407.672 724.006 400.453C711.975 393.234 702.642 383.135 696.006 370.156C689.444 357.177 686.163 342.01 686.163 324.656C686.163 307.302 689.444 292.099 696.006 279.047C702.642 265.995 711.975 255.859 724.006 248.641C736.038 241.422 750.256 237.813 766.663 237.813C783.069 237.813 797.288 241.422 809.319 248.641C821.35 255.859 830.647 265.995 837.209 279.047C843.845 292.099 847.163 307.302 847.163 324.656C847.163 342.01 843.845 357.177 837.209 370.156C830.647 383.135 821.35 393.234 809.319 400.453C797.288 407.672 783.069 411.281 766.663 411.281ZM766.881 379.562C775.777 379.562 783.215 377.12 789.194 372.234C795.173 367.276 799.621 360.641 802.538 352.328C805.527 344.016 807.022 334.755 807.022 324.547C807.022 314.266 805.527 304.969 802.538 296.656C799.621 288.271 795.173 281.599 789.194 276.641C783.215 271.682 775.777 269.203 766.881 269.203C757.767 269.203 750.183 271.682 744.131 276.641C738.152 281.599 733.668 288.271 730.678 296.656C727.761 304.969 726.303 314.266 726.303 324.547C726.303 334.755 727.761 344.016 730.678 352.328C733.668 360.641 738.152 367.276 744.131 372.234C750.183 377.12 757.767 379.562 766.881 379.562ZM865.368 408V240H903.759V268H905.509C908.571 258.302 913.821 250.828 921.259 245.578C928.769 240.255 937.337 237.594 946.962 237.594C949.149 237.594 951.592 237.703 954.29 237.922C957.061 238.068 959.358 238.323 961.18 238.687V275.109C959.503 274.526 956.842 274.016 953.196 273.578C949.623 273.068 946.16 272.812 942.805 272.812C935.587 272.812 929.097 274.38 923.337 277.516C917.649 280.578 913.165 284.844 909.884 290.312C906.602 295.781 904.962 302.089 904.962 309.234V408H865.368ZM1065 240V270.625H968.421V240H1065ZM992.265 199.75H1031.86V357.469C1031.86 362.792 1032.66 366.875 1034.26 369.719C1035.94 372.49 1038.13 374.385 1040.83 375.406C1043.53 376.427 1046.51 376.937 1049.8 376.937C1052.28 376.937 1054.54 376.755 1056.58 376.391C1058.69 376.026 1060.3 375.698 1061.39 375.406L1068.06 406.359C1065.95 407.089 1062.92 407.891 1058.98 408.766C1055.12 409.641 1050.38 410.151 1044.76 410.297C1034.85 410.589 1025.92 409.094 1017.97 405.812C1010.02 402.458 1003.71 397.281 999.046 390.281C994.452 383.281 992.192 374.531 992.265 364.031V199.75Z" fill="url(#paint1_linear_136_2635)"/>
<g filter="url(#filter0_f_136_2635)">
<ellipse cx="159.5" cy="172.5" rx="261.5" ry="161.5" fill="#0F0F0F"/>
</g>
</g>
<defs>
<filter id="filter0_f_136_2635" x="-256" y="-143" width="831" height="631" filterUnits="userSpaceOnUse" color-interpolation-filters="sRGB">
<feFlood flood-opacity="0" result="BackgroundImageFix"/>
<feBlend mode="normal" in="SourceGraphic" in2="BackgroundImageFix" result="shape"/>
<feGaussianBlur stdDeviation="77" result="effect1_foregroundBlur_136_2635"/>
</filter>
<linearGradient id="paint0_linear_136_2635" x1="253" y1="465.5" x2="194.5" y2="177.5" gradientUnits="userSpaceOnUse">
<stop stop-color="#00604C"/>
<stop offset="1" stop-color="#0F0F0F"/>
</linearGradient>
<linearGradient id="paint1_linear_136_2635" x1="17.8" y1="417.34" x2="680.601" y2="417.34" gradientUnits="userSpaceOnUse">
<stop stop-color="#ADCF36"/>
<stop offset="1" stop-color="#00604C"/>
</linearGradient>
</defs>
</svg>
