<svg width="416" height="385" viewBox="0 0 416 385" fill="none" xmlns="http://www.w3.org/2000/svg">
<mask id="mask0_136_2603" style="mask-type:alpha" maskUnits="userSpaceOnUse" x="0" y="0" width="416" height="385">
<rect width="416" height="385" rx="6" fill="url(#paint0_linear_136_2603)"/>
</mask>
<g mask="url(#mask0_136_2603)">
<path d="M149.323 259.578H108.417C107.25 252.87 105.099 246.927 101.964 241.75C98.8283 236.5 94.9272 232.052 90.2606 228.406C85.5939 224.76 80.271 222.026 74.2918 220.203C68.3856 218.307 62.0054 217.359 55.1512 217.359C42.9741 217.359 32.1824 220.422 22.7762 226.547C13.3699 232.599 6.00535 241.495 0.682436 253.234C-4.64048 264.901 -7.30194 279.156 -7.30194 296C-7.30194 313.135 -4.64048 327.573 0.682436 339.312C6.07827 350.979 13.4429 359.802 22.7762 365.781C32.1824 371.687 42.9376 374.641 55.0418 374.641C61.7501 374.641 68.021 373.766 73.8543 372.016C79.7606 370.193 85.047 367.531 89.7137 364.031C94.4533 360.531 98.4272 356.229 101.636 351.125C104.917 346.021 107.177 340.187 108.417 333.625L149.323 333.844C147.792 344.49 144.474 354.479 139.37 363.813C134.339 373.146 127.74 381.385 119.573 388.531C111.406 395.604 101.854 401.146 90.9168 405.156C79.9793 409.094 67.8387 411.062 54.4949 411.062C34.8074 411.062 17.2345 406.505 1.77619 397.391C-13.6821 388.276 -25.8592 375.115 -34.7551 357.906C-43.6509 340.698 -48.0988 320.062 -48.0988 296C-48.0988 271.865 -43.6144 251.229 -34.6457 234.094C-25.6769 216.885 -13.4634 203.724 1.99493 194.609C17.4533 185.495 34.9533 180.937 54.4949 180.937C66.9637 180.937 78.5574 182.687 89.2762 186.187C99.9949 189.687 109.547 194.828 117.932 201.609C126.318 208.318 133.208 216.557 138.604 226.328C144.073 236.026 147.646 247.109 149.323 259.578ZM208.927 184V408H169.333V184H208.927ZM234.242 408V240H273.836V408H234.242ZM254.148 216.156C247.877 216.156 242.481 214.078 237.961 209.922C233.44 205.693 231.179 200.625 231.179 194.719C231.179 188.74 233.44 183.672 237.961 179.516C242.481 175.286 247.877 173.172 254.148 173.172C260.492 173.172 265.888 175.286 270.336 179.516C274.856 183.672 277.117 188.74 277.117 194.719C277.117 200.625 274.856 205.693 270.336 209.922C265.888 214.078 260.492 216.156 254.148 216.156ZM373.525 411.281C356.682 411.281 342.135 407.781 329.885 400.781C317.708 393.708 308.338 383.719 301.775 370.812C295.213 357.833 291.932 342.557 291.932 324.984C291.932 307.703 295.213 292.536 301.775 279.484C308.411 266.359 317.671 256.151 329.557 248.859C341.442 241.495 355.406 237.813 371.447 237.813C381.801 237.813 391.572 239.49 400.76 242.844C410.02 246.125 418.187 251.229 425.26 258.156C432.406 265.083 438.02 273.906 442.104 284.625C446.187 295.271 448.229 307.958 448.229 322.687V334.828H310.525V308.141H410.275C410.202 300.557 408.562 293.812 405.354 287.906C402.145 281.927 397.661 277.224 391.9 273.797C386.213 270.37 379.577 268.656 371.994 268.656C363.9 268.656 356.791 270.625 350.666 274.562C344.541 278.427 339.765 283.531 336.338 289.875C332.984 296.146 331.27 303.036 331.197 310.547V333.844C331.197 343.615 332.984 352 336.557 359C340.13 365.927 345.124 371.25 351.541 374.969C357.958 378.615 365.468 380.437 374.072 380.437C379.833 380.437 385.046 379.635 389.713 378.031C394.38 376.354 398.426 373.911 401.854 370.703C405.281 367.495 407.869 363.521 409.619 358.781L446.588 362.937C444.255 372.708 439.807 381.24 433.244 388.531C426.755 395.75 418.442 401.365 408.307 405.375C398.171 409.312 386.577 411.281 373.525 411.281ZM505.918 309.562V408H466.325V240H504.168V268.547H506.137C510.002 259.141 516.163 251.667 524.621 246.125C533.153 240.583 543.689 237.813 556.231 237.813C567.825 237.813 577.924 240.292 586.528 245.25C595.205 250.208 601.913 257.391 606.653 266.797C611.465 276.203 613.835 287.615 613.762 301.031V408H574.168V307.156C574.168 295.927 571.252 287.141 565.418 280.797C559.658 274.453 551.674 271.281 541.465 271.281C534.538 271.281 528.377 272.812 522.981 275.875C517.658 278.865 513.465 283.203 510.403 288.891C507.413 294.578 505.918 301.469 505.918 309.562ZM722.503 240V270.625H625.925V240H722.503ZM649.768 199.75H689.362V357.469C689.362 362.792 690.164 366.875 691.768 369.719C693.445 372.49 695.633 374.385 698.331 375.406C701.029 376.427 704.018 376.937 707.3 376.937C709.779 376.937 712.039 376.755 714.081 376.391C716.195 376.026 717.8 375.698 718.893 375.406L725.565 406.359C723.451 407.089 720.425 407.891 716.487 408.766C712.623 409.641 707.883 410.151 702.268 410.297C692.352 410.589 683.419 409.094 675.471 405.812C667.524 402.458 661.216 397.281 656.55 390.281C651.956 383.281 649.695 374.531 649.768 364.031V199.75ZM870.591 284.406L834.497 288.344C833.476 284.698 831.69 281.271 829.138 278.062C826.659 274.854 823.305 272.266 819.075 270.297C814.846 268.328 809.669 267.344 803.544 267.344C795.305 267.344 788.377 269.13 782.763 272.703C777.221 276.276 774.487 280.906 774.56 286.594C774.487 291.479 776.273 295.453 779.919 298.516C783.638 301.578 789.763 304.094 798.294 306.063L826.95 312.187C842.846 315.615 854.659 321.047 862.388 328.484C870.19 335.922 874.127 345.656 874.2 357.687C874.127 368.26 871.029 377.594 864.904 385.687C858.851 393.708 850.43 399.979 839.638 404.5C828.846 409.021 816.45 411.281 802.45 411.281C781.888 411.281 765.336 406.979 752.794 398.375C740.252 389.698 732.779 377.63 730.372 362.172L768.982 358.453C770.732 366.036 774.45 371.76 780.138 375.625C785.825 379.49 793.226 381.422 802.341 381.422C811.747 381.422 819.294 379.49 824.982 375.625C830.742 371.76 833.622 366.984 833.622 361.297C833.622 356.484 831.763 352.51 828.044 349.375C824.398 346.24 818.711 343.833 810.982 342.156L782.325 336.141C766.211 332.786 754.289 327.135 746.56 319.187C738.831 311.167 735.002 301.031 735.075 288.781C735.002 278.427 737.81 269.458 743.497 261.875C749.258 254.219 757.242 248.312 767.45 244.156C777.732 239.927 789.581 237.813 802.997 237.813C822.685 237.813 838.18 242.005 849.482 250.391C860.857 258.776 867.893 270.115 870.591 284.406Z" fill="url(#paint1_linear_136_2603)"/>
<g filter="url(#filter0_f_136_2603)">
<ellipse cx="159.5" cy="172.5" rx="261.5" ry="161.5" fill="#0F0F0F"/>
</g>
</g>
<defs>
<filter id="filter0_f_136_2603" x="-256" y="-143" width="831" height="631" filterUnits="userSpaceOnUse" color-interpolation-filters="sRGB">
<feFlood flood-opacity="0" result="BackgroundImageFix"/>
<feBlend mode="normal" in="SourceGraphic" in2="BackgroundImageFix" result="shape"/>
<feGaussianBlur stdDeviation="77" result="effect1_foregroundBlur_136_2603"/>
</filter>
<linearGradient id="paint0_linear_136_2603" x1="253" y1="465.5" x2="194.5" y2="177.5" gradientUnits="userSpaceOnUse">
<stop stop-color="#00604C"/>
<stop offset="1" stop-color="#0F0F0F"/>
</linearGradient>
<linearGradient id="paint1_linear_136_2603" x1="-17.4" y1="417.34" x2="548" y2="417.34" gradientUnits="userSpaceOnUse">
<stop stop-color="#ADCF36"/>
<stop offset="1" stop-color="#00604C"/>
</linearGradient>
</defs>
</svg>
