<svg width="416" height="385" viewBox="0 0 416 385" fill="none" xmlns="http://www.w3.org/2000/svg">
<mask id="mask0_136_2619" style="mask-type:alpha" maskUnits="userSpaceOnUse" x="0" y="0" width="416" height="385">
<rect width="416" height="385" rx="6" fill="url(#paint0_linear_136_2619)"/>
</mask>
<g mask="url(#mask0_136_2619)">
<path d="M-39.6688 408H-82.9813L-4.12188 184H45.9719L124.941 408H81.6281L21.8 229.938H20.05L-39.6688 408ZM-38.2469 320.172H79.8781V352.766H-38.2469V320.172ZM150.912 408L103.443 240H143.802L173.334 358.125H174.865L205.052 240H244.974L275.162 357.469H276.802L305.896 240H346.365L298.787 408H257.552L226.052 294.469H223.755L192.255 408H150.912ZM406.953 411.391C396.307 411.391 386.719 409.495 378.188 405.703C369.729 401.839 363.021 396.151 358.063 388.641C353.177 381.13 350.734 371.87 350.734 360.859C350.734 351.38 352.484 343.542 355.984 337.344C359.484 331.146 364.26 326.188 370.313 322.469C376.365 318.75 383.182 315.943 390.766 314.047C398.422 312.078 406.333 310.656 414.5 309.781C424.344 308.76 432.328 307.849 438.453 307.047C444.578 306.172 449.026 304.859 451.797 303.109C454.641 301.286 456.063 298.479 456.063 294.687V294.031C456.063 285.792 453.62 279.411 448.734 274.891C443.849 270.37 436.812 268.109 427.625 268.109C417.927 268.109 410.234 270.224 404.547 274.453C398.932 278.682 395.141 283.677 393.172 289.437L356.203 284.187C359.12 273.979 363.932 265.448 370.641 258.594C377.349 251.667 385.552 246.49 395.25 243.062C404.948 239.562 415.667 237.813 427.406 237.813C435.5 237.813 443.557 238.76 451.578 240.656C459.599 242.552 466.927 245.687 473.563 250.062C480.198 254.365 485.521 260.234 489.531 267.672C493.615 275.109 495.656 284.406 495.656 295.562V408H457.594V384.922H456.281C453.875 389.589 450.484 393.964 446.109 398.047C441.807 402.057 436.375 405.302 429.813 407.781C423.323 410.188 415.703 411.391 406.953 411.391ZM417.234 382.297C425.182 382.297 432.073 380.729 437.906 377.594C443.74 374.385 448.224 370.156 451.359 364.906C454.568 359.656 456.172 353.932 456.172 347.734V327.937C454.932 328.958 452.818 329.906 449.828 330.781C446.911 331.656 443.63 332.422 439.984 333.078C436.339 333.734 432.729 334.318 429.156 334.828C425.583 335.339 422.484 335.776 419.859 336.141C413.953 336.943 408.667 338.255 404 340.078C399.333 341.901 395.651 344.453 392.953 347.734C390.255 350.943 388.906 355.099 388.906 360.203C388.906 367.495 391.568 373 396.891 376.719C402.214 380.437 408.995 382.297 417.234 382.297ZM520.069 408V240H558.459V268H560.209C563.272 258.302 568.522 250.828 575.959 245.578C583.47 240.255 592.037 237.594 601.662 237.594C603.85 237.594 606.293 237.703 608.991 237.922C611.761 238.068 614.058 238.323 615.881 238.687V275.109C614.204 274.526 611.543 274.016 607.897 273.578C604.324 273.068 600.86 272.812 597.506 272.812C590.287 272.812 583.798 274.38 578.037 277.516C572.35 280.578 567.866 284.844 564.584 290.312C561.303 295.781 559.662 302.089 559.662 309.234V408H520.069ZM682.212 410.953C669.014 410.953 657.201 407.563 646.774 400.781C636.347 394 628.108 384.156 622.055 371.25C616.003 358.344 612.977 342.667 612.977 324.219C612.977 305.552 616.04 289.802 622.165 276.969C628.363 264.062 636.712 254.328 647.212 247.766C657.712 241.13 669.415 237.813 682.321 237.813C692.165 237.813 700.259 239.49 706.602 242.844C712.946 246.125 717.977 250.099 721.696 254.766C725.415 259.359 728.295 263.698 730.337 267.781H731.977V184H771.68V408H732.743V381.531H730.337C728.295 385.615 725.342 389.953 721.477 394.547C717.613 399.068 712.509 402.932 706.165 406.141C699.821 409.349 691.837 410.953 682.212 410.953ZM693.259 378.469C701.644 378.469 708.79 376.208 714.696 371.687C720.602 367.094 725.087 360.714 728.149 352.547C731.212 344.38 732.743 334.865 732.743 324C732.743 313.135 731.212 303.693 728.149 295.672C725.16 287.651 720.712 281.417 714.805 276.969C708.972 272.521 701.79 270.297 693.259 270.297C684.436 270.297 677.071 272.594 671.165 277.187C665.259 281.781 660.811 288.125 657.821 296.219C654.832 304.312 653.337 313.573 653.337 324C653.337 334.5 654.832 343.87 657.821 352.109C660.884 360.276 665.368 366.729 671.274 371.469C677.253 376.135 684.582 378.469 693.259 378.469Z" fill="url(#paint1_linear_136_2619)"/>
<g filter="url(#filter0_f_136_2619)">
<ellipse cx="159.5" cy="172.5" rx="261.5" ry="161.5" fill="#0F0F0F"/>
</g>
</g>
<defs>
<filter id="filter0_f_136_2619" x="-256" y="-143" width="831" height="631" filterUnits="userSpaceOnUse" color-interpolation-filters="sRGB">
<feFlood flood-opacity="0" result="BackgroundImageFix"/>
<feBlend mode="normal" in="SourceGraphic" in2="BackgroundImageFix" result="shape"/>
<feGaussianBlur stdDeviation="77" result="effect1_foregroundBlur_136_2619"/>
</filter>
<linearGradient id="paint0_linear_136_2619" x1="253" y1="465.5" x2="194.5" y2="177.5" gradientUnits="userSpaceOnUse">
<stop stop-color="#00604C"/>
<stop offset="1" stop-color="#0F0F0F"/>
</linearGradient>
<linearGradient id="paint1_linear_136_2619" x1="-46.75" y1="417.34" x2="478.858" y2="417.34" gradientUnits="userSpaceOnUse">
<stop stop-color="#ADCF36"/>
<stop offset="1" stop-color="#00604C"/>
</linearGradient>
</defs>
</svg>
