<svg width="140" height="46" viewBox="0 0 140 46" fill="none" xmlns="http://www.w3.org/2000/svg">
<rect x="1.27344" y="0.5" width="138.227" height="44.9072" rx="5.5" fill="white" stroke="#F1F1F1"/>
<path d="M48.0658 16.0312V11.8168H49.8418C50.2914 11.8168 50.6867 11.9051 51.0279 12.0817C51.3731 12.2583 51.64 12.5052 51.8286 12.8223C52.0213 13.1393 52.1176 13.5066 52.1176 13.924C52.1176 14.3415 52.0213 14.7087 51.8286 15.0258C51.64 15.3429 51.3731 15.5897 51.0279 15.7663C50.6867 15.9429 50.2914 16.0312 49.8418 16.0312H48.0658ZM48.6678 15.5075H49.8057C50.1549 15.5075 50.4559 15.4412 50.7088 15.3088C50.9657 15.1763 51.1644 14.9917 51.3049 14.7549C51.4453 14.5141 51.5156 14.2371 51.5156 13.924C51.5156 13.6069 51.4453 13.33 51.3049 13.0932C51.1644 12.8564 50.9657 12.6717 50.7088 12.5393C50.4559 12.4068 50.1549 12.3406 49.8057 12.3406H48.6678V15.5075ZM54.3222 16.0674C54.0011 16.0674 53.7161 15.9971 53.4673 15.8567C53.2184 15.7162 53.0218 15.5235 52.8773 15.2787C52.7328 15.0298 52.6605 14.7489 52.6605 14.4358C52.6605 14.1187 52.7328 13.8377 52.8773 13.5929C53.0218 13.3481 53.2184 13.1574 53.4673 13.0209C53.7161 12.8805 54.0011 12.8102 54.3222 12.8102C54.6393 12.8102 54.9223 12.8805 55.1711 13.0209C55.424 13.1574 55.6207 13.3481 55.7611 13.5929C55.9056 13.8337 55.9779 14.1147 55.9779 14.4358C55.9779 14.7529 55.9056 15.0338 55.7611 15.2787C55.6207 15.5235 55.424 15.7162 55.1711 15.8567C54.9223 15.9971 54.6393 16.0674 54.3222 16.0674ZM54.3222 15.5616C54.5269 15.5616 54.7095 15.5155 54.8701 15.4232C55.0347 15.3309 55.1631 15.2004 55.2554 15.0318C55.3477 14.8592 55.3939 14.6606 55.3939 14.4358C55.3939 14.207 55.3477 14.0103 55.2554 13.8458C55.1631 13.6772 55.0347 13.5467 54.8701 13.4544C54.7095 13.3621 54.5269 13.316 54.3222 13.316C54.1175 13.316 53.9349 13.3621 53.7743 13.4544C53.6138 13.5467 53.4854 13.6772 53.389 13.8458C53.2927 14.0103 53.2445 14.207 53.2445 14.4358C53.2445 14.6606 53.2927 14.8592 53.389 15.0318C53.4854 15.2004 53.6138 15.3309 53.7743 15.4232C53.9349 15.5155 54.1175 15.5616 54.3222 15.5616ZM57.3633 16.0312L56.1773 12.8403H56.7251L57.7788 15.7302H57.5199L58.6156 12.8403H59.1033L60.175 15.7302H59.9221L60.9998 12.8403H61.5176L60.3255 16.0312H59.7716L58.7661 13.3942H58.9347L57.9172 16.0312H57.3633ZM63.8079 12.8102C64.0688 12.8102 64.2976 12.8604 64.4942 12.9607C64.6949 13.0611 64.8515 13.2136 64.9638 13.4183C65.0762 13.623 65.1324 13.8819 65.1324 14.195V16.0312H64.5544V14.2612C64.5544 13.9521 64.4782 13.7193 64.3257 13.5628C64.1772 13.4063 63.9664 13.328 63.6935 13.328C63.4888 13.328 63.3102 13.3681 63.1577 13.4484C63.0051 13.5287 62.8867 13.6471 62.8024 13.8036C62.7222 13.9602 62.682 14.1548 62.682 14.3876V16.0312H62.1041V12.8403H62.658V13.7013L62.5676 13.4725C62.672 13.2638 62.8325 13.1012 63.0493 12.9848C63.266 12.8684 63.5189 12.8102 63.8079 12.8102ZM66.2021 16.0312V11.564H66.7801V16.0312H66.2021ZM69.2503 16.0674C68.9292 16.0674 68.6442 15.9971 68.3954 15.8567C68.1465 15.7162 67.9498 15.5235 67.8053 15.2787C67.6608 15.0298 67.5886 14.7489 67.5886 14.4358C67.5886 14.1187 67.6608 13.8377 67.8053 13.5929C67.9498 13.3481 68.1465 13.1574 68.3954 13.0209C68.6442 12.8805 68.9292 12.8102 69.2503 12.8102C69.5674 12.8102 69.8503 12.8805 70.0992 13.0209C70.3521 13.1574 70.5487 13.3481 70.6892 13.5929C70.8337 13.8337 70.906 14.1147 70.906 14.4358C70.906 14.7529 70.8337 15.0338 70.6892 15.2787C70.5487 15.5235 70.3521 15.7162 70.0992 15.8567C69.8503 15.9971 69.5674 16.0674 69.2503 16.0674ZM69.2503 15.5616C69.455 15.5616 69.6376 15.5155 69.7982 15.4232C69.9627 15.3309 70.0912 15.2004 70.1835 15.0318C70.2758 14.8592 70.322 14.6606 70.322 14.4358C70.322 14.207 70.2758 14.0103 70.1835 13.8458C70.0912 13.6772 69.9627 13.5467 69.7982 13.4544C69.6376 13.3621 69.455 13.316 69.2503 13.316C69.0456 13.316 68.863 13.3621 68.7024 13.4544C68.5419 13.5467 68.4134 13.6772 68.3171 13.8458C68.2208 14.0103 68.1726 14.207 68.1726 14.4358C68.1726 14.6606 68.2208 14.8592 68.3171 15.0318C68.4134 15.2004 68.5419 15.3309 68.7024 15.4232C68.863 15.5155 69.0456 15.5616 69.2503 15.5616ZM73.6567 16.0312V15.3569L73.6266 15.2305V14.0806C73.6266 13.8357 73.5543 13.6471 73.4098 13.5146C73.2694 13.3782 73.0566 13.3099 72.7716 13.3099C72.583 13.3099 72.3984 13.342 72.2178 13.4063C72.0371 13.4665 71.8846 13.5487 71.7602 13.6531L71.5194 13.2196C71.6839 13.0872 71.8806 12.9868 72.1094 12.9186C72.3422 12.8463 72.585 12.8102 72.8379 12.8102C73.2754 12.8102 73.6125 12.9166 73.8493 13.1293C74.0862 13.342 74.2046 13.6672 74.2046 14.1047V16.0312H73.6567ZM72.6091 16.0674C72.3723 16.0674 72.1636 16.0272 71.9829 15.947C71.8063 15.8667 71.6699 15.7563 71.5735 15.6158C71.4772 15.4713 71.4291 15.3088 71.4291 15.1282C71.4291 14.9556 71.4692 14.799 71.5495 14.6585C71.6338 14.5181 71.7682 14.4057 71.9528 14.3214C72.1415 14.2371 72.3944 14.195 72.7114 14.195H73.7229V14.6104H72.7355C72.4465 14.6104 72.2519 14.6585 72.1515 14.7549C72.0512 14.8512 72.001 14.9676 72.001 15.1041C72.001 15.2606 72.0632 15.387 72.1876 15.4834C72.3121 15.5757 72.4847 15.6218 72.7054 15.6218C72.9222 15.6218 73.1108 15.5737 73.2714 15.4774C73.4359 15.381 73.5543 15.2405 73.6266 15.0559L73.741 15.4533C73.6647 15.6419 73.5302 15.7924 73.3376 15.9048C73.1449 16.0132 72.9021 16.0674 72.6091 16.0674ZM76.5927 16.0674C76.2836 16.0674 76.0067 15.9991 75.7618 15.8627C75.521 15.7262 75.3303 15.5356 75.1899 15.2907C75.0494 15.0459 74.9791 14.7609 74.9791 14.4358C74.9791 14.1107 75.0494 13.8277 75.1899 13.5869C75.3303 13.342 75.521 13.1514 75.7618 13.0149C76.0067 12.8785 76.2836 12.8102 76.5927 12.8102C76.8616 12.8102 77.1044 12.8704 77.3212 12.9908C77.5379 13.1112 77.7105 13.2919 77.8389 13.5327C77.9714 13.7735 78.0376 14.0745 78.0376 14.4358C78.0376 14.797 77.9734 15.0981 77.845 15.3389C77.7205 15.5797 77.55 15.7623 77.3332 15.8868C77.1165 16.0072 76.8696 16.0674 76.5927 16.0674ZM76.6408 15.5616C76.8415 15.5616 77.0221 15.5155 77.1827 15.4232C77.3473 15.3309 77.4757 15.2004 77.568 15.0318C77.6643 14.8592 77.7125 14.6606 77.7125 14.4358C77.7125 14.207 77.6643 14.0103 77.568 13.8458C77.4757 13.6772 77.3473 13.5467 77.1827 13.4544C77.0221 13.3621 76.8415 13.316 76.6408 13.316C76.4361 13.316 76.2535 13.3621 76.093 13.4544C75.9324 13.5467 75.804 13.6772 75.7076 13.8458C75.6113 14.0103 75.5631 14.207 75.5631 14.4358C75.5631 14.6606 75.6113 14.8592 75.7076 15.0318C75.804 15.2004 75.9324 15.3309 76.093 15.4232C76.2535 15.5155 76.4361 15.5616 76.6408 15.5616ZM77.7306 16.0312V15.1703L77.7667 14.4298L77.7065 13.6892V11.564H78.2845V16.0312H77.7306ZM82.3616 16.0674C82.0405 16.0674 81.7555 15.9971 81.5067 15.8567C81.2578 15.7162 81.0611 15.5235 80.9167 15.2787C80.7722 15.0298 80.6999 14.7489 80.6999 14.4358C80.6999 14.1187 80.7722 13.8377 80.9167 13.5929C81.0611 13.3481 81.2578 13.1574 81.5067 13.0209C81.7555 12.8805 82.0405 12.8102 82.3616 12.8102C82.6787 12.8102 82.9617 12.8805 83.2105 13.0209C83.4634 13.1574 83.66 13.3481 83.8005 13.5929C83.945 13.8337 84.0173 14.1147 84.0173 14.4358C84.0173 14.7529 83.945 15.0338 83.8005 15.2787C83.66 15.5235 83.4634 15.7162 83.2105 15.8567C82.9617 15.9971 82.6787 16.0674 82.3616 16.0674ZM82.3616 15.5616C82.5663 15.5616 82.7489 15.5155 82.9095 15.4232C83.074 15.3309 83.2025 15.2004 83.2948 15.0318C83.3871 14.8592 83.4333 14.6606 83.4333 14.4358C83.4333 14.207 83.3871 14.0103 83.2948 13.8458C83.2025 13.6772 83.074 13.5467 82.9095 13.4544C82.7489 13.3621 82.5663 13.316 82.3616 13.316C82.1569 13.316 81.9743 13.3621 81.8137 13.4544C81.6532 13.5467 81.5247 13.6772 81.4284 13.8458C81.3321 14.0103 81.2839 14.207 81.2839 14.4358C81.2839 14.6606 81.3321 14.8592 81.4284 15.0318C81.5247 15.2004 81.6532 15.3309 81.8137 15.4232C81.9743 15.5155 82.1569 15.5616 82.3616 15.5616ZM86.5204 12.8102C86.7813 12.8102 87.0101 12.8604 87.2068 12.9607C87.4075 13.0611 87.564 13.2136 87.6764 13.4183C87.7888 13.623 87.845 13.8819 87.845 14.195V16.0312H87.267V14.2612C87.267 13.9521 87.1907 13.7193 87.0382 13.5628C86.8897 13.4063 86.679 13.328 86.406 13.328C86.2013 13.328 86.0227 13.3681 85.8702 13.4484C85.7177 13.5287 85.5993 13.6471 85.515 13.8036C85.4347 13.9602 85.3946 14.1548 85.3946 14.3876V16.0312H84.8166V12.8403H85.3705V13.7013L85.2802 13.4725C85.3845 13.2638 85.5451 13.1012 85.7618 12.9848C85.9786 12.8684 86.2314 12.8102 86.5204 12.8102ZM91.6272 16.0674C91.3061 16.0674 91.0573 15.9811 90.8807 15.8085C90.7041 15.6359 90.6158 15.3891 90.6158 15.068V12.1419H91.1938V15.0439C91.1938 15.2165 91.2359 15.3489 91.3202 15.4412C91.4085 15.5335 91.5329 15.5797 91.6935 15.5797C91.8741 15.5797 92.0246 15.5295 92.145 15.4292L92.3256 15.8446C92.2373 15.9209 92.131 15.9771 92.0065 16.0132C91.8861 16.0493 91.7597 16.0674 91.6272 16.0674ZM90.0739 13.316V12.8403H92.1089V13.316H90.0739ZM94.7282 12.8102C94.9891 12.8102 95.2179 12.8604 95.4146 12.9607C95.6153 13.0611 95.7718 13.2136 95.8842 13.4183C95.9966 13.623 96.0528 13.8819 96.0528 14.195V16.0312H95.4748V14.2612C95.4748 13.9521 95.3985 13.7193 95.246 13.5628C95.0975 13.4063 94.8868 13.328 94.6138 13.328C94.4091 13.328 94.2305 13.3681 94.078 13.4484C93.9255 13.5287 93.8071 13.6471 93.7228 13.8036C93.6425 13.9602 93.6024 14.1548 93.6024 14.3876V16.0312H93.0244V11.564H93.6024V13.7013L93.488 13.4725C93.5923 13.2638 93.7529 13.1012 93.9696 12.9848C94.1864 12.8684 94.4392 12.8102 94.7282 12.8102ZM98.5433 16.0674C98.2021 16.0674 97.9011 15.9971 97.6402 15.8567C97.3833 15.7162 97.1826 15.5235 97.0381 15.2787C96.8976 15.0338 96.8274 14.7529 96.8274 14.4358C96.8274 14.1187 96.8956 13.8377 97.0321 13.5929C97.1726 13.3481 97.3632 13.1574 97.6041 13.0209C97.8489 12.8805 98.1238 12.8102 98.4289 12.8102C98.7379 12.8102 99.0109 12.8785 99.2477 13.0149C99.4845 13.1514 99.6691 13.344 99.8016 13.5929C99.9381 13.8377 100.006 14.1247 100.006 14.4538C100.006 14.4779 100.004 14.506 100 14.5381C100 14.5702 99.9983 14.6003 99.9943 14.6284H97.279V14.213H99.6932L99.4584 14.3575C99.4624 14.1528 99.4203 13.9702 99.332 13.8096C99.2437 13.6491 99.1213 13.5247 98.9647 13.4364C98.8122 13.344 98.6336 13.2979 98.4289 13.2979C98.2282 13.2979 98.0496 13.344 97.8931 13.4364C97.7365 13.5247 97.6141 13.6511 97.5258 13.8157C97.4375 13.9762 97.3933 14.1608 97.3933 14.3696V14.4659C97.3933 14.6786 97.4415 14.8693 97.5378 15.0378C97.6382 15.2024 97.7767 15.3309 97.9533 15.4232C98.1299 15.5155 98.3326 15.5616 98.5613 15.5616C98.75 15.5616 98.9206 15.5295 99.0731 15.4653C99.2296 15.4011 99.3661 15.3048 99.4825 15.1763L99.8016 15.5496C99.6571 15.7182 99.4765 15.8466 99.2597 15.9349C99.047 16.0232 98.8082 16.0674 98.5433 16.0674Z" fill="black"/>
<g clip-path="url(#clip0_66_29310)">
<path fill-rule="evenodd" clip-rule="evenodd" d="M29.1276 10.1719C29.2321 11.5366 28.8006 12.8882 27.9246 13.9398C27.0747 14.9969 25.7869 15.6058 24.4306 15.5918C24.3444 14.2664 24.7885 12.9611 25.6652 11.9633C26.553 10.9521 27.7893 10.3124 29.1276 10.1719ZM33.4171 18.1905C31.8569 19.1497 30.8969 20.8412 30.8732 22.6725C30.8755 24.7443 32.1162 26.6141 34.0245 27.4212C33.6575 28.6134 33.1043 29.74 32.3854 30.7594C31.4199 32.2036 30.4077 33.6145 28.8011 33.6406C28.037 33.6582 27.5211 33.4385 26.9837 33.2095C26.4231 32.9707 25.8389 32.7219 24.9247 32.7219C23.9553 32.7219 23.3449 32.9788 22.7562 33.2265C22.2476 33.4406 21.755 33.6478 21.061 33.6767C19.5309 33.7333 18.3615 32.1352 17.361 30.7045C15.3612 27.7829 13.804 22.4708 15.8916 18.8564C16.872 17.0948 18.705 15.9769 20.7199 15.9118C21.5877 15.894 22.4204 16.2284 23.1505 16.5217C23.7088 16.7459 24.2071 16.9461 24.6151 16.9461C24.9739 16.9461 25.4583 16.7538 26.0227 16.5298C26.912 16.1769 28 15.745 29.1088 15.8614C30.8317 15.9153 32.4284 16.7785 33.4171 18.1905Z" fill="black"/>
</g>
<g clip-path="url(#clip1_66_29310)">
<path fill-rule="evenodd" clip-rule="evenodd" d="M85.3242 31.6112C83.7864 31.6112 82.661 30.8506 82.5315 29.6921L80.7419 29.692C80.8549 31.805 82.604 33.1417 85.1947 33.1417C87.9636 33.1417 89.7035 31.7728 89.7035 29.5873C89.7035 27.8786 88.7086 26.9158 86.3118 26.349L85.0248 26.033C83.5191 25.6609 82.9036 25.175 82.9036 24.3491C82.9036 23.3128 83.8672 22.6008 85.2755 22.6008C86.6839 22.6008 87.6476 23.3045 87.7532 24.4703H89.518C89.4611 22.4548 87.7688 21.0703 85.2995 21.0703C82.8062 21.0703 81.0497 22.4548 81.0497 24.4703C81.0497 26.0982 82.0455 27.1014 84.1906 27.6195L85.7046 27.9842C87.2185 28.3563 87.8579 28.8992 87.8579 29.806C87.8579 30.8505 86.7978 31.6112 85.3242 31.6112ZM54.867 29.7895H50.4142L49.3448 32.947H47.4588L51.6764 21.2651H53.6359L57.8536 32.947H55.9354L54.867 29.7895ZM50.8753 28.3325H54.4049L52.6649 23.2081H52.6162L50.8753 28.3325ZM63.4079 33.036C65.5457 33.036 66.9622 31.3355 66.9622 28.6889C66.9622 26.0495 65.5374 24.3408 63.3757 24.3408C62.2635 24.3049 61.2214 24.8834 60.6638 25.8465H60.6316V24.4299H58.9395V35.7645H60.6877V31.5459H60.7281C61.2621 32.5151 62.3029 33.0938 63.4079 33.036ZM65.1653 28.6889C65.1653 26.9645 64.2742 25.8309 62.9146 25.8309C61.5788 25.8309 60.6803 26.9884 60.6803 28.6889C60.6803 30.405 61.5788 31.5542 62.9146 31.5542C64.2742 31.5542 65.1652 30.4288 65.1652 28.6889H65.1653ZM72.7821 33.036C74.9198 33.036 76.3369 31.3355 76.3369 28.6889C76.3369 26.0495 74.9116 24.3408 72.7499 24.3408C71.6376 24.3049 70.5956 24.8834 70.038 25.8465H70.0058V24.4299H68.3136V35.7645H70.0618V31.5459H70.1023C70.6363 32.5151 71.6771 33.0938 72.7821 33.036ZM74.5394 28.6889C74.5394 26.9645 73.6483 25.8309 72.2887 25.8309C70.9529 25.8309 70.0545 26.9884 70.0545 28.6889C70.0545 30.405 70.9529 31.5542 72.2887 31.5542C73.6483 31.5542 74.5394 30.4288 74.5394 28.6889ZM93.4783 22.4143V24.4299H95.0979V25.8143H93.4783V30.5097C93.4783 31.2391 93.8026 31.579 94.5146 31.579C94.7069 31.5757 94.8989 31.5622 95.0897 31.5386V32.9148C94.7696 32.9746 94.4443 33.0016 94.1187 32.9956C92.3943 32.9956 91.7218 32.3479 91.7218 30.6962V25.8143H90.4834V24.4299H91.7218V22.4143H93.4783ZM100.074 24.3252C97.6133 24.3252 96.0351 26.0091 96.0351 28.6889C96.0351 31.376 97.5977 33.0526 100.074 33.0526C102.552 33.0526 104.115 31.376 104.115 28.6889C104.115 26.0091 102.544 24.3252 100.074 24.3252ZM102.333 28.6889C102.333 26.8506 101.491 25.7656 100.074 25.7656C98.6579 25.7656 97.8154 26.8589 97.8154 28.6889C97.8154 30.5345 98.6579 31.6111 100.074 31.6111C101.491 31.6111 102.333 30.5345 102.333 28.6889ZM107.224 24.43H105.556V32.947H107.304V27.8952C107.246 27.3842 107.414 26.8732 107.765 26.4964C108.115 26.1197 108.612 25.9149 109.126 25.9357C109.392 25.928 109.657 25.9637 109.912 26.0414V24.4061C109.715 24.3621 109.514 24.3402 109.313 24.3409C108.352 24.3042 107.497 24.9465 107.264 25.8797H107.224V24.43ZM117.972 30.4454C117.737 31.9915 116.231 33.0526 114.305 33.0526C111.827 33.0526 110.289 31.3925 110.289 28.7293C110.289 26.0578 111.835 24.3252 114.231 24.3252C116.588 24.3252 118.069 25.9439 118.069 28.5263V29.1252H112.054V29.2309C111.998 29.8649 112.217 30.4926 112.655 30.9541C113.093 31.4158 113.709 31.6668 114.345 31.6434C115.193 31.7228 115.993 31.2357 116.312 30.4454H117.972ZM116.32 27.9034H112.062C112.061 27.3284 112.289 26.7766 112.696 26.3707C113.104 25.9648 113.656 25.7384 114.231 25.7418C114.802 25.7295 115.351 25.9558 115.748 26.3662C116.145 26.7765 116.352 27.3337 116.32 27.9034Z" fill="black"/>
</g>
<defs>
<clipPath id="clip0_66_29310">
<rect width="19.9303" height="24.0825" fill="white" transform="translate(14.8908 9.7832)"/>
</clipPath>
<clipPath id="clip1_66_29310">
<rect width="70.7423" height="15.8041" fill="white" transform="translate(47.4336 20.3193)"/>
</clipPath>
</defs>
</svg>
