<svg width="40" height="37" viewBox="0 0 40 37" fill="none" xmlns="http://www.w3.org/2000/svg">
<g clip-path="url(#clip0_66_21068)">
<path d="M14.3846 32.705C14.1212 32.5067 13.8749 32.36 13.62 32.2652C13.3651 32.1703 13.0932 32.1272 12.8128 32.1099C12.2521 32.0841 11.6489 32.1876 11.0626 32.3342C10.4764 32.4808 9.92413 32.6533 9.50782 32.7999C9.1 32.9379 8.82812 33.05 8.82812 33.05C8.82812 33.05 9.09151 33.2053 9.51631 33.3864C9.94112 33.5675 10.5274 33.7745 11.1646 33.8866C11.8018 33.9987 12.49 34.016 13.0932 33.8349C13.6964 33.671 14.2147 33.2915 14.3846 32.705Z" fill="#18CDF1"/>
<path d="M12.6006 30.0829C12.83 30.6004 13.1528 31.1093 13.5861 31.437C13.7986 31.6009 14.0449 31.7216 14.2998 31.7734C14.5547 31.8251 14.8351 31.8079 15.0985 31.6958C15.1155 31.0748 14.9455 30.5918 14.6822 30.1606C14.4188 29.738 14.0534 29.3671 13.6626 29.048C13.2803 28.7289 12.8895 28.4701 12.5921 28.2804C12.2947 28.0906 12.0908 27.9785 12.0908 27.9785C12.0908 27.9785 12.0908 28.0475 12.1078 28.1596C12.1163 28.2718 12.1418 28.4443 12.1673 28.6426C12.2522 29.0307 12.3712 29.5655 12.6006 30.0829Z" fill="#18CDF1"/>
<path d="M8.41127 31.4627C8.9975 31.4368 9.50728 31.204 9.87261 30.7124C9.58374 30.1863 9.14194 29.9016 8.61518 29.7378C8.08841 29.5739 7.47669 29.5308 6.87346 29.5135C6.27023 29.4963 5.6755 29.5135 5.2252 29.5135C4.76641 29.5222 4.47754 29.5308 4.47754 29.5308C4.47754 29.5308 4.53701 29.5911 4.63897 29.6946C4.74092 29.7895 4.89385 29.9361 5.08077 30.0914C5.4631 30.4105 5.99835 30.7814 6.58459 31.0487C7.17932 31.3161 7.82503 31.4886 8.41127 31.4627Z" fill="#18CDF1"/>
<path d="M9.5241 29.1255C9.85546 29.5481 10.3142 29.8327 10.892 29.7982C11.1214 29.229 11.0874 28.6856 10.926 28.1854C10.7645 27.6851 10.4842 27.228 10.2038 26.8313C9.91493 26.4346 9.62606 26.0982 9.41365 25.8481C9.3117 25.7273 9.21824 25.6325 9.15877 25.5635C9.0993 25.4945 9.06531 25.46 9.06531 25.46C9.06531 25.46 9.04832 25.5203 9.01433 25.6325C8.98885 25.7446 8.95486 25.8998 8.92088 26.0896C8.8614 26.4777 8.82742 27.0124 8.91238 27.5644C8.99734 28.125 9.19275 28.6942 9.5241 29.1255Z" fill="#18CDF1"/>
<path d="M2.37891 24.8821C1.9711 24.7441 1.69922 24.6665 1.69922 24.6665C1.69922 24.6665 1.72471 24.7355 1.77568 24.8562C1.83516 24.9684 1.91162 25.1322 2.02207 25.3306C2.13252 25.5204 2.25997 25.7446 2.4129 25.9775C2.48936 26.0982 2.56583 26.2103 2.65079 26.3311L2.71876 26.4259L2.80372 26.5381C2.86319 26.6157 2.92267 26.6847 2.98214 26.7623C3.46642 27.3488 4.06116 27.7886 4.64739 27.9784C5.23363 28.1681 5.80287 28.1078 6.28715 27.7369C6.15122 27.1418 5.81986 26.7451 5.37806 26.3914C5.26761 26.3052 5.14867 26.219 5.02972 26.1327C4.91077 26.0465 4.78333 25.9688 4.64739 25.8912C4.51995 25.805 4.38401 25.7273 4.24807 25.6497C4.12063 25.5807 3.99319 25.5117 3.85725 25.4514C3.33048 25.2012 2.79523 25.0115 2.37891 24.8821Z" fill="#18CDF1"/>
<path d="M6.43194 25.9259C6.58487 26.4347 6.9502 26.8574 7.50246 26.9867C7.88478 26.5124 8.01223 25.9863 8.03772 25.4946C8.0632 25.003 8.00373 24.5373 7.95275 24.1406C7.93576 23.9767 7.86779 23.6921 7.80832 23.4765C7.74885 23.2522 7.68088 23.0452 7.61291 22.8727C7.55343 22.7002 7.49396 22.5622 7.45148 22.4674C7.4175 22.3725 7.39201 22.3121 7.39201 22.3121C7.39201 22.3121 7.34953 22.3639 7.29005 22.4674C7.22208 22.5709 7.14562 22.7089 7.05216 22.89C6.87374 23.2436 6.65284 23.7438 6.49991 24.2872C6.45743 24.4252 6.43194 24.5632 6.39795 24.7098C6.37247 24.8392 6.35547 24.9772 6.33848 25.1152C6.32998 25.2532 6.33848 25.3912 6.34698 25.5291C6.36397 25.6671 6.39795 25.7965 6.43194 25.9259Z" fill="#18CDF1"/>
<path d="M1.75089 22.804C1.84435 22.9247 1.9548 23.0282 2.07375 23.1231C2.1842 23.218 2.30314 23.3128 2.42209 23.3904C2.90637 23.7009 3.43314 23.8389 4.01937 23.6664C4.07035 23.3732 4.04486 23.1058 3.96839 22.8557C3.92591 22.735 3.87494 22.6142 3.81546 22.4935C3.75599 22.3814 3.67103 22.2692 3.60306 22.1571C3.2887 21.7173 2.80442 21.3378 2.32014 20.9928C1.84435 20.6478 1.35157 20.3546 0.969244 20.1389C0.57842 19.9233 0.332031 19.7939 0.332031 19.7939C0.332031 19.7939 0.340527 19.8716 0.374512 20.0009C0.408497 20.1303 0.459474 20.3028 0.535939 20.5184C0.680375 20.9497 0.884283 21.5189 1.21563 22.045C1.37706 22.3124 1.55548 22.5711 1.75089 22.804Z" fill="#18CDF1"/>
<path d="M4.89458 22.571C5.00503 22.8039 5.17495 23.0109 5.40435 23.1747C5.93111 22.8643 6.23697 22.4071 6.3899 21.9069C6.43238 21.7775 6.45787 21.6568 6.48336 21.5274C6.49186 21.4671 6.50885 21.3981 6.51735 21.3377C6.52584 21.2687 6.53434 21.2083 6.54283 21.1393C6.57682 20.872 6.58532 20.6132 6.57682 20.3545C6.54283 19.8456 6.51735 19.3713 6.44938 19.0263C6.42389 18.8538 6.3899 18.7071 6.36441 18.6123C6.34742 18.5088 6.33893 18.457 6.33893 18.457C6.33893 18.457 6.28795 18.5002 6.21148 18.5864C6.12652 18.6726 6.02457 18.7934 5.89713 18.94C5.65074 19.2505 5.34487 19.6904 5.09848 20.1992C4.86059 20.6995 4.70766 21.2773 4.71616 21.812C4.71616 21.95 4.73315 22.0794 4.76713 22.2002C4.79262 22.3382 4.8351 22.4589 4.89458 22.571Z" fill="#18CDF1"/>
<path d="M0.739489 17.9394C0.815955 18.0774 0.89242 18.2067 0.977382 18.3275C1.07084 18.4482 1.17279 18.5604 1.27475 18.6638C1.69106 19.0692 2.19234 19.3107 2.79556 19.2503C2.88902 18.9743 2.92301 18.6983 2.89752 18.4396C2.88053 18.3102 2.85504 18.1809 2.81256 18.0601C2.77008 17.9307 2.73609 17.81 2.67662 17.6893C2.56617 17.4391 2.41324 17.1976 2.23482 16.9648C2.14136 16.844 2.0479 16.7319 1.96294 16.6112C1.86098 16.499 1.76753 16.3869 1.66557 16.2748C1.27475 15.8349 0.832947 15.4296 0.527085 15.1277C0.221222 14.8259 0.000321791 14.6361 0.000321791 14.6361C0.000321791 14.6361 -0.00817439 14.938 0.0173141 15.4037C0.0343065 15.6366 0.0767874 15.9039 0.127764 16.1886C0.153253 16.3352 0.187238 16.4818 0.221222 16.6284C0.255207 16.775 0.289192 16.9303 0.348665 17.0769C0.459115 17.3701 0.586558 17.672 0.739489 17.9394Z" fill="#18CDF1"/>
<path d="M4.22331 18.9227C4.80105 18.7243 5.18338 18.3362 5.43826 17.8877C5.50623 17.7756 5.55721 17.6635 5.60819 17.5428C5.66766 17.422 5.71014 17.3013 5.75262 17.1805C5.83758 16.939 5.89705 16.6889 5.93954 16.4474C5.98202 16.2059 6.03299 15.9731 6.05848 15.7574C6.07547 15.6453 6.08397 15.5418 6.08397 15.4469C6.09247 15.3521 6.09247 15.2572 6.10946 15.171C6.14344 14.8346 6.14344 14.6104 6.14344 14.6104C6.14344 14.6104 5.92254 14.7311 5.59969 14.964C5.52322 15.0243 5.43826 15.0847 5.3448 15.1623C5.25135 15.2313 5.16638 15.3176 5.07293 15.3952C4.89451 15.5677 4.71609 15.7574 4.53767 15.9731C4.45271 16.0852 4.36774 16.1973 4.29128 16.3094C4.2488 16.387 4.20632 16.4474 4.17233 16.5078C4.13835 16.5682 4.10436 16.6285 4.07887 16.6889C3.95993 16.939 3.86647 17.1978 3.81549 17.4651C3.79 17.5945 3.77301 17.7239 3.78151 17.8532C3.79 17.9826 3.807 18.112 3.84098 18.2327C3.90895 18.4828 4.0279 18.7157 4.22331 18.9227Z" fill="#18CDF1"/>
<path d="M2.13288 11.5398C1.99694 11.2811 1.8525 11.0223 1.70807 10.7809C1.56363 10.5394 1.42769 10.3237 1.31724 10.1426C1.10484 9.77177 0.934915 9.53027 0.934915 9.53027C0.934915 9.53027 0.849953 9.82351 0.764991 10.272C0.731007 10.5049 0.697022 10.7722 0.68003 11.0568C0.671533 11.2035 0.663037 11.3501 0.654541 11.5053C0.654541 11.6606 0.663037 11.8158 0.68003 11.9797C0.705518 12.2988 0.747999 12.6179 0.824465 12.9198C0.909426 13.2216 1.02837 13.5063 1.17281 13.7564C1.46168 14.2566 1.92047 14.6016 2.5152 14.6878C2.59167 14.5671 2.65114 14.4377 2.69362 14.317C2.7361 14.1876 2.77859 14.0669 2.79558 13.9375C2.83806 13.6788 2.82107 13.42 2.7531 13.1527C2.70212 12.8853 2.62565 12.6179 2.50671 12.3419C2.40475 12.0746 2.26032 11.7986 2.13288 11.5398Z" fill="#18CDF1"/>
<path d="M5.38689 13.8685C5.56531 13.6874 5.71824 13.489 5.84569 13.2734C5.99012 13.0664 6.10907 12.8508 6.21102 12.6351C6.262 12.5316 6.30448 12.4195 6.35546 12.316C6.40643 12.2125 6.44892 12.109 6.4914 12.0142C6.57636 11.8158 6.62734 11.6347 6.68681 11.4708C6.80575 11.1603 6.85673 10.9447 6.85673 10.9447C6.85673 10.9447 6.61034 11.0051 6.24501 11.1431C5.87118 11.2811 5.42088 11.5139 4.97058 11.833C4.86013 11.9107 4.74118 11.9969 4.64773 12.0918C4.54577 12.1867 4.45231 12.2815 4.35886 12.385C4.18044 12.592 4.01901 12.8163 3.90856 13.0578C3.8066 13.2992 3.74713 13.5494 3.74713 13.8081C3.74713 13.9375 3.75563 14.0582 3.79811 14.1876C3.84059 14.317 3.89157 14.4377 3.96803 14.5585C4.57976 14.5153 5.01306 14.2307 5.38689 13.8685Z" fill="#18CDF1"/>
<path d="M3.61967 9.92709C3.69613 9.82359 3.7641 9.71147 3.81508 9.59072C3.86606 9.46998 3.90004 9.34923 3.92553 9.21986C3.95102 9.09049 3.95951 8.96112 3.97651 8.82313C3.9935 8.55576 3.97651 8.27114 3.93403 7.9779C3.89155 7.68466 3.84057 7.40005 3.7641 7.10681C3.61967 6.53758 3.46674 5.9856 3.3223 5.57161C3.17787 5.149 3.08441 4.89026 3.08441 4.89026C3.08441 4.89026 3.04193 4.95063 2.98245 5.06275C2.92298 5.1835 2.83802 5.34737 2.75306 5.55436C2.55765 5.95972 2.36223 6.5462 2.24329 7.15856C2.19231 7.46905 2.15833 7.78816 2.15833 8.09865C2.15833 8.2539 2.16682 8.40914 2.19231 8.55576C2.2178 8.711 2.24329 8.849 2.28577 8.987C2.37073 9.26299 2.48118 9.5131 2.6681 9.72872C2.84652 9.94434 3.07591 10.1168 3.34779 10.2376C3.45824 10.1341 3.5517 10.0306 3.61967 9.92709Z" fill="#18CDF1"/>
<path d="M8.38606 7.71055C8.43704 7.6243 8.46252 7.58118 8.46252 7.58118C8.46252 7.58118 8.39456 7.58118 8.2841 7.58118C8.16516 7.58118 8.01223 7.59843 7.81681 7.6243C7.6299 7.65017 7.409 7.6933 7.16261 7.74505C7.04366 7.77092 6.91622 7.80542 6.78878 7.84854C6.66983 7.88304 6.54239 7.92617 6.41495 7.97791C6.16856 8.08141 5.90518 8.20216 5.68427 8.3574C5.46337 8.51264 5.25947 8.69376 5.08954 8.89213C5.00458 8.987 4.93661 9.09913 4.87714 9.21125C4.82616 9.32337 4.77518 9.44411 4.7497 9.56486C4.71571 9.68561 4.70721 9.81498 4.70721 9.94435C4.71571 10.0737 4.7412 10.2117 4.78368 10.3411C5.08105 10.3928 5.36142 10.3756 5.60781 10.3238C5.8542 10.2635 6.10059 10.1686 6.32149 10.0478C6.43194 9.98747 6.53389 9.90985 6.63585 9.84085C6.68682 9.80635 6.7293 9.76323 6.78028 9.7201C6.83126 9.67698 6.88224 9.64248 6.92472 9.59936C7.11163 9.43549 7.28156 9.25437 7.43449 9.07325C7.59591 8.89213 7.74035 8.71101 7.8593 8.53852C7.89328 8.4954 7.91877 8.45227 7.94426 8.40915C7.97824 8.36603 8.00373 8.3229 8.02922 8.2884C8.08869 8.21078 8.13967 8.13316 8.18215 8.06416C8.26711 7.91754 8.33508 7.79679 8.38606 7.71055Z" fill="#18CDF1"/>
<path d="M5.25917 6.1753C5.52255 6.03731 5.70946 5.86481 5.86239 5.65782C6.01533 5.45945 6.12578 5.21796 6.20224 4.95922C6.35517 4.45036 6.37217 3.84663 6.37217 3.26015C6.37217 3.11353 6.36367 2.96691 6.35517 2.82029C6.34668 2.67367 6.33818 2.53568 6.32968 2.40631C6.31269 2.13032 6.27871 1.8802 6.26172 1.66458C6.21074 1.23335 6.16826 0.94873 6.16826 0.94873C6.16826 0.94873 6.11728 1.0091 6.03232 1.10398C5.94736 1.19885 5.82841 1.33684 5.70097 1.51796C5.57352 1.69908 5.42059 1.90607 5.27616 2.14756C5.14872 2.39768 5.00428 2.65642 4.88533 2.94104C4.76639 3.22565 4.66443 3.51889 4.59646 3.82076C4.53699 4.12262 4.50301 4.42449 4.52 4.7091C4.55398 5.28696 4.77488 5.80444 5.25917 6.1753Z" fill="#18CDF1"/>
<path d="M9.4817 5.86482C9.67712 5.7182 9.86403 5.58021 10.017 5.43359C10.1784 5.28697 10.3313 5.1576 10.4418 5.03685C10.5607 4.9161 10.6627 4.82123 10.7306 4.74361C10.7986 4.67461 10.8326 4.63149 10.8326 4.63149C10.8326 4.63149 10.5862 4.57112 10.1954 4.53662C9.99997 4.51937 9.77907 4.51074 9.52419 4.51074C9.2693 4.51074 9.00592 4.52799 8.74254 4.57112C8.19878 4.64874 7.66352 4.83848 7.24721 5.14897C7.0433 5.30422 6.87338 5.49396 6.75443 5.7182C6.64398 5.94244 6.58451 6.20119 6.6015 6.47718C7.16225 6.72729 7.68901 6.70142 8.1648 6.56342C8.41119 6.49443 8.64058 6.39093 8.86148 6.27018C9.08238 6.14081 9.28629 6.01144 9.4817 5.86482Z" fill="#18CDF1"/>
<path d="M8.40334 29.0308C9.99212 30.3676 11.9293 31.2818 13.8239 32.058C15.3787 32.6963 17.3753 33.7399 19.4059 34.7145C17.5792 35.2923 15.778 35.7667 14.3252 36.0082C14.1383 36.0427 15.1068 37.0431 15.2937 36.9914C16.976 36.4739 18.6837 35.8529 20.366 35.1629C22.2011 36.0082 24.0193 36.7413 25.5146 36.9914C25.7016 37.0259 26.2878 36.0082 26.1009 35.9737C24.682 35.7322 23.0423 35.3096 21.326 34.7576C24.1468 33.5587 26.8655 32.196 29.2105 30.8937C31.7593 29.4793 33.671 27.4783 34.9369 24.8219C36.1009 22.3552 36.925 19.6298 37.0439 16.8958C37.2139 13.1009 35.9564 9.38368 34.0108 6.19254C33.4416 5.26107 32.8044 4.32098 32.0992 3.45851C32.1586 3.21702 32.1671 2.98415 32.1247 2.75991C32.0737 2.50117 31.9802 2.25105 31.8273 2.02681C31.5299 1.5697 31.0541 1.19883 30.5614 0.922844C30.0686 0.646853 29.5588 0.474359 29.168 0.379487C28.9726 0.327739 28.8197 0.301865 28.7092 0.29324C28.6497 0.284615 28.6072 0.284615 28.5818 0.275991C28.5563 0.275991 28.5393 0.275991 28.5393 0.275991C28.5393 0.275991 28.5478 0.29324 28.5563 0.319114C28.5733 0.344988 28.5903 0.388112 28.6157 0.431235C28.6667 0.534732 28.7347 0.672727 28.8281 0.845221C29.0066 1.19021 29.2615 1.63869 29.5503 2.07855C29.6948 2.3028 29.8647 2.50979 30.0346 2.70816C30.1196 2.80303 30.213 2.8979 30.3065 2.98415C30.3999 3.0704 30.4934 3.15664 30.5954 3.22564C30.7993 3.36364 31.0202 3.48438 31.2665 3.54476C31.4535 3.58788 31.6489 3.61375 31.8528 3.5965C33.2122 5.22657 34.3167 7.11538 35.1663 9.01282C36.2453 11.4277 36.8146 14.0669 36.7551 16.7147C36.6871 19.604 35.7355 22.545 34.4611 25.1152C33.4671 27.1161 32.0142 28.7462 30.162 29.9622C28.5053 31.049 26.6871 31.8683 24.8859 32.6618C23.535 33.2569 21.9293 33.8692 20.298 34.4126C16.8061 33.231 13.1612 31.6268 10.6378 30.1779C9.32093 29.4189 8.12297 28.496 7.12891 27.3231C6.14336 26.1501 5.42968 24.7615 4.86043 23.3471C3.77292 20.6562 3.08473 17.8704 3.25466 14.9466C3.45007 11.5399 4.76698 8.27972 6.61065 5.45082C7.08643 4.73497 7.5962 4.01911 8.15695 3.33776C8.36086 3.34639 8.54777 3.32914 8.72619 3.28601C8.97258 3.22564 9.18499 3.1049 9.39739 2.9669C9.49935 2.8979 9.5928 2.81166 9.68626 2.72541C9.77972 2.63916 9.87318 2.54429 9.95814 2.44942C10.1281 2.25105 10.2895 2.03543 10.4424 1.81981C10.7398 1.37995 10.9862 0.931469 11.1646 0.58648C11.2581 0.413986 11.326 0.267366 11.377 0.172494C11.4025 0.120746 11.4195 0.0862471 11.4365 0.060373C11.4365 0.0172494 11.445 0 11.445 0C11.445 0 11.428 0 11.4025 0C11.377 0 11.3345 0.00862471 11.275 0.0172494C11.1646 0.0344988 11.0032 0.060373 10.8163 0.103496C10.4339 0.198368 9.92415 0.370862 9.42288 0.646853C8.9301 0.922844 8.45432 1.29371 8.15695 1.75082C8.00402 1.97506 7.90206 2.22517 7.85958 2.48392C7.8171 2.69953 7.8256 2.9324 7.88507 3.16527C6.58516 4.72634 5.51464 6.5289 4.68201 8.34009C3.65398 10.5739 3.03376 12.9888 2.9403 15.4469C2.82985 18.2758 3.5945 20.9925 4.63953 23.5886C5.48065 25.6844 6.68711 27.5818 8.40334 29.0308Z" fill="#18CDF1"/>
<path d="M28.8278 34.1797C29.465 34.0676 30.0513 33.8606 30.4761 33.6795C30.9009 33.4984 31.1643 33.3431 31.1643 33.3431C31.1643 33.3431 30.8924 33.231 30.4846 33.093C30.0683 32.9464 29.516 32.7739 28.9383 32.6273C28.352 32.4806 27.7488 32.3771 27.1881 32.403C26.9077 32.4116 26.6443 32.4634 26.3809 32.5583C26.126 32.6531 25.8797 32.7911 25.6163 32.9981C25.7862 33.5932 26.296 33.9641 26.8992 34.1366C27.5024 34.3005 28.1906 34.2918 28.8278 34.1797Z" fill="#18CDF1"/>
<path d="M25.6924 32.0581C25.9473 32.0063 26.1852 31.8856 26.4061 31.7217C26.8394 31.394 27.1708 30.8851 27.3917 30.3676C27.6211 29.8501 27.74 29.324 27.808 28.9273C27.842 28.7289 27.859 28.565 27.8675 28.4443C27.876 28.3322 27.8845 28.2632 27.8845 28.2632C27.8845 28.2632 27.6805 28.3753 27.3917 28.5564C27.0943 28.7462 26.7035 29.0135 26.3212 29.324C25.9388 29.6431 25.565 30.0054 25.3016 30.4366C25.0382 30.8678 24.8768 31.3508 24.8938 31.9718C25.1572 32.0926 25.4376 32.1098 25.6924 32.0581Z" fill="#18CDF1"/>
<path d="M33.1184 29.7984C32.5152 29.8157 31.9035 29.8588 31.3767 30.0227C30.8499 30.1865 30.4081 30.4711 30.1193 30.9972C30.4761 31.4889 30.9944 31.7217 31.5806 31.7476C32.1668 31.7735 32.8126 31.601 33.3988 31.3336C33.9935 31.0576 34.5288 30.6954 34.9026 30.3763C35.0895 30.221 35.2425 30.0744 35.3444 29.9795C35.4464 29.876 35.5058 29.8157 35.5058 29.8157C35.5058 29.8157 35.217 29.807 34.7582 29.7984C34.3164 29.7898 33.7216 29.7812 33.1184 29.7984Z" fill="#18CDF1"/>
<path d="M29.1082 30.083C29.6775 30.1175 30.1448 29.8329 30.4761 29.4103C30.8075 28.9791 31.0029 28.4185 31.0793 27.8578C31.1558 27.3059 31.1303 26.7711 31.0708 26.383C31.0454 26.1933 31.0114 26.0294 30.9774 25.9259C30.9519 25.8138 30.9264 25.7534 30.9264 25.7534C30.9264 25.7534 30.8924 25.7879 30.833 25.8569C30.765 25.9259 30.68 26.0208 30.5781 26.1415C30.3657 26.383 30.0768 26.7194 29.7879 27.1247C29.5076 27.5215 29.2272 27.9786 29.0657 28.4788C28.9128 28.9791 28.8703 29.5224 29.1082 30.083Z" fill="#18CDF1"/>
<path d="M37.0181 27.0558C37.0776 26.9868 37.1371 26.9091 37.1966 26.8315L37.2815 26.7194L37.3495 26.6245C37.4344 26.5038 37.5194 26.383 37.5874 26.2709C37.7403 26.038 37.8678 25.8138 37.9782 25.6241C38.0802 25.4343 38.1651 25.2704 38.2246 25.1497C38.2756 25.029 38.3011 24.96 38.3011 24.96C38.3011 24.96 38.0377 25.0376 37.6214 25.167C37.2135 25.2963 36.6698 25.4947 36.1515 25.7448C36.0156 25.8052 35.8881 25.8742 35.7607 25.9432C35.6248 26.0208 35.4888 26.107 35.3614 26.1847C35.2339 26.2623 35.098 26.3485 34.9791 26.4262C34.8601 26.5124 34.7327 26.59 34.6307 26.6763C34.1889 27.0299 33.8576 27.4266 33.7216 28.0217C34.2059 28.3926 34.7751 28.453 35.3614 28.2632C35.9306 28.0821 36.5339 27.6336 37.0181 27.0558Z" fill="#18CDF1"/>
<path d="M33.5008 24.5804C33.3478 24.0284 33.1269 23.5368 32.94 23.1832C32.8466 23.0021 32.7701 22.8641 32.7021 22.7606C32.6342 22.6571 32.6002 22.6053 32.6002 22.6053C32.6002 22.6053 32.5747 22.6571 32.5407 22.7606C32.4982 22.8555 32.4387 22.9935 32.3793 23.166C32.3198 23.3384 32.2518 23.5368 32.1839 23.7697C32.1244 23.9853 32.0564 24.2699 32.0394 24.4338C31.9884 24.8219 31.929 25.2963 31.9545 25.7879C31.9884 26.2795 32.1074 26.8056 32.4897 27.2799C33.042 27.1506 33.4073 26.728 33.5602 26.2191C33.5942 26.0897 33.6282 25.9604 33.6452 25.8224C33.6537 25.6844 33.6622 25.5464 33.6537 25.4084C33.6452 25.2704 33.6197 25.1324 33.5942 25.003C33.5687 24.8564 33.5348 24.7184 33.5008 24.5804Z" fill="#18CDF1"/>
<path d="M39.6262 20.2853C39.6601 20.1559 39.6686 20.0869 39.6686 20.0869C39.6686 20.0869 39.4223 20.2163 39.0314 20.4319C38.6491 20.6475 38.1563 20.9408 37.6805 21.2857C37.1878 21.6221 36.712 22.0102 36.3976 22.4501C36.3212 22.5622 36.2447 22.6743 36.1767 22.7864C36.1088 22.8986 36.0578 23.0193 36.0238 23.1487C35.9473 23.3988 35.9218 23.6662 35.9728 23.9594C36.5505 24.1319 37.0858 24.0025 37.5701 23.6834C37.689 23.6058 37.808 23.5195 37.9184 23.4161C38.0289 23.3212 38.1393 23.2091 38.2413 23.0969C38.4367 22.8641 38.6151 22.6053 38.7765 22.338C39.1079 21.8119 39.3118 21.234 39.4562 20.8114C39.5327 20.5871 39.5922 20.406 39.6262 20.2853Z" fill="#18CDF1"/>
<path d="M34.5968 23.4678C34.8262 23.304 34.9961 23.097 35.1065 22.8641C35.166 22.752 35.2085 22.6312 35.234 22.5019C35.268 22.3725 35.285 22.2431 35.285 22.1138C35.285 21.5704 35.132 21.0012 34.8941 20.4923C34.6392 19.9835 34.3334 19.5436 34.087 19.2417C33.9596 19.0865 33.8576 18.9657 33.7726 18.8795C33.6962 18.7932 33.6452 18.7501 33.6452 18.7501C33.6452 18.7501 33.6367 18.8105 33.6197 18.9054C33.5942 19.0002 33.5687 19.1469 33.5347 19.3194C33.4668 19.6643 33.4413 20.1387 33.4073 20.6476C33.3988 20.8977 33.4073 21.165 33.4413 21.4324C33.4498 21.5014 33.4583 21.5618 33.4668 21.6308C33.4753 21.6998 33.4838 21.7601 33.4923 21.8291C33.5177 21.9585 33.5432 22.0879 33.5857 22.2086C33.7641 22.6916 34.07 23.1573 34.5968 23.4678Z" fill="#18CDF1"/>
<path d="M38.3261 16.5596C38.2241 16.6717 38.1307 16.7838 38.0372 16.896C37.9438 17.0081 37.8503 17.1288 37.7569 17.2409C37.5784 17.4738 37.4255 17.7153 37.3151 17.9654C37.2556 18.0862 37.2131 18.2155 37.1791 18.3363C37.1366 18.4656 37.1111 18.5864 37.0942 18.7158C37.0687 18.9745 37.0942 19.2419 37.1961 19.5179C37.7993 19.5782 38.3006 19.3454 38.7169 18.9314C38.8189 18.8279 38.9208 18.7158 39.0143 18.595C39.1077 18.4743 39.1757 18.3449 39.2522 18.2069C39.3966 17.9309 39.5241 17.6377 39.6345 17.3358C39.694 17.1892 39.728 17.0339 39.762 16.8873C39.7959 16.7407 39.8299 16.5941 39.8554 16.4475C39.9064 16.1629 39.9574 15.8955 39.9659 15.6626C39.9914 15.2055 39.9829 14.895 39.9829 14.895C39.9829 14.895 39.762 15.0848 39.4476 15.3866C39.1587 15.7144 38.7254 16.1197 38.3261 16.5596Z" fill="#18CDF1"/>
<path d="M36.16 18.5259C36.194 18.4051 36.211 18.2757 36.2195 18.1464C36.2195 18.017 36.2025 17.8876 36.177 17.7496C36.126 17.4909 36.0326 17.2235 35.9136 16.982C35.8796 16.9217 35.8541 16.8613 35.8202 16.8009C35.7862 16.7405 35.7437 16.6802 35.7097 16.6198C35.6332 16.4991 35.5483 16.3869 35.4633 16.2834C35.2934 16.0678 35.1065 15.8695 34.9281 15.7056C34.8431 15.6193 34.7496 15.5417 34.6562 15.4727C34.5712 15.4037 34.4778 15.3347 34.4013 15.2743C34.0784 15.0415 33.8575 14.9121 33.8575 14.9121C33.8575 14.9121 33.8575 15.1364 33.8915 15.4727C33.9085 15.559 33.9085 15.6452 33.917 15.7487C33.9255 15.8436 33.934 15.9471 33.951 16.0592C33.9765 16.2748 34.019 16.5077 34.0699 16.7492C34.1124 16.9907 34.1719 17.2408 34.2569 17.4823C34.2993 17.603 34.3503 17.7238 34.4013 17.8445C34.4523 17.9653 34.5033 18.0774 34.5712 18.1895C34.8261 18.638 35.2084 19.0261 35.7777 19.2245C35.9646 19.0088 36.092 18.776 36.16 18.5259Z" fill="#18CDF1"/>
<path d="M37.2306 13.4373C37.1711 13.7047 37.1541 13.9634 37.1966 14.2222C37.2136 14.3515 37.256 14.4723 37.2985 14.6017C37.341 14.731 37.4005 14.8518 37.4769 14.9725C38.0717 14.8863 38.539 14.5413 38.8193 14.041C38.9638 13.7909 39.0827 13.5063 39.1762 13.2045C39.2526 12.9026 39.2951 12.5835 39.3206 12.2644C39.3291 12.1091 39.3461 11.9452 39.3461 11.79C39.3376 11.6348 39.3291 11.4881 39.3206 11.3415C39.2951 11.0483 39.2696 10.7809 39.2357 10.5567C39.1422 10.1082 39.0572 9.81494 39.0572 9.81494C39.0572 9.81494 38.8958 10.0564 38.6664 10.4273C38.556 10.6084 38.42 10.824 38.2756 11.0655C38.1312 11.307 37.9867 11.5571 37.8593 11.8245C37.7318 12.0832 37.5874 12.3592 37.4769 12.6266C37.3665 12.9026 37.29 13.17 37.2306 13.4373Z" fill="#18CDF1"/>
<path d="M36.0917 13.3596C35.9813 13.1181 35.8199 12.8939 35.6414 12.6869C35.548 12.5834 35.4545 12.4799 35.3526 12.3937C35.2506 12.2988 35.1402 12.2125 35.0297 12.1349C34.5794 11.8158 34.1291 11.5829 33.7553 11.445C33.3899 11.307 33.1436 11.2466 33.1436 11.2466C33.1436 11.2466 33.1945 11.4622 33.3135 11.7641C33.3645 11.9193 33.4239 12.1091 33.5089 12.3074C33.5514 12.4023 33.5939 12.5058 33.6448 12.6093C33.6958 12.7128 33.7298 12.8249 33.7893 12.9284C33.8912 13.144 34.0102 13.3596 34.1546 13.5666C34.282 13.7736 34.435 13.9806 34.6134 14.1617C34.9872 14.5153 35.4205 14.8 36.0238 14.8603C36.1002 14.7396 36.1512 14.6188 36.1937 14.4895C36.2362 14.3601 36.2447 14.2394 36.2447 14.11C36.2447 13.8512 36.1852 13.6011 36.0917 13.3596Z" fill="#18CDF1"/>
<path d="M36.9159 5.1748C36.9159 5.1748 36.814 5.44217 36.678 5.85616C36.5336 6.27877 36.3722 6.82212 36.2277 7.39998C36.1513 7.69322 36.1088 7.97783 36.0663 8.27108C36.0238 8.56432 35.9984 8.84893 36.0238 9.1163C36.0408 9.24567 36.0493 9.38366 36.0748 9.51303C36.1003 9.6424 36.1343 9.76315 36.1853 9.8839C36.2362 10.0046 36.2957 10.1168 36.3807 10.2203C36.4571 10.3324 36.5421 10.4359 36.6526 10.5307C36.9329 10.41 37.1623 10.2375 37.3407 10.0219C37.5192 9.80627 37.6381 9.55616 37.7231 9.28017C37.7656 9.14217 37.791 8.99555 37.8165 8.84893C37.8335 8.70231 37.8505 8.54707 37.8505 8.39182C37.8505 8.08133 37.8165 7.76222 37.7656 7.45173C37.6466 6.83937 37.4512 6.25289 37.2558 5.84753C37.1623 5.64054 37.0859 5.46804 37.0264 5.35592C36.9499 5.23518 36.9159 5.1748 36.9159 5.1748Z" fill="#18CDF1"/>
<path d="M35.1147 9.49563C35.0552 9.38351 34.9957 9.27139 34.9023 9.17651C34.7324 8.97815 34.5284 8.79703 34.3075 8.64178C34.0866 8.48654 33.8233 8.36579 33.5769 8.2623C33.4494 8.21055 33.322 8.16742 33.203 8.1243C33.0841 8.08118 32.9482 8.0553 32.8292 8.02943C32.5913 7.96906 32.3619 7.93456 32.175 7.90868C31.9796 7.88281 31.8267 7.87418 31.7077 7.86556C31.5888 7.85693 31.5293 7.85693 31.5293 7.85693C31.5293 7.85693 31.5548 7.90868 31.6058 7.9863C31.6567 8.07255 31.7247 8.1933 31.8182 8.33129C31.8606 8.40029 31.9116 8.47791 31.9711 8.55554C31.9966 8.59866 32.0306 8.63316 32.0646 8.67628C32.09 8.71941 32.124 8.76253 32.1495 8.80565C32.2685 8.97815 32.4129 9.15926 32.5743 9.34038C32.7188 9.5215 32.8887 9.70262 33.0841 9.86649C33.1351 9.90961 33.1861 9.94411 33.2285 9.98724C33.2795 10.0304 33.322 10.0649 33.373 10.108C33.4749 10.1856 33.5769 10.2546 33.6873 10.315C33.8997 10.4443 34.1461 10.5392 34.401 10.5996C34.6559 10.66 34.9278 10.6686 35.2251 10.6168C35.2676 10.4788 35.2931 10.3495 35.2931 10.2201C35.2931 10.0907 35.2761 9.96999 35.2506 9.84062C35.2166 9.7285 35.1742 9.61637 35.1147 9.49563Z" fill="#18CDF1"/>
<path d="M34.7327 6.45993C35.2169 6.08907 35.4378 5.57159 35.4718 5.00236C35.4888 4.71774 35.4548 4.41588 35.3954 4.11401C35.3274 3.81215 35.2254 3.51891 35.1065 3.23429C34.9875 2.94968 34.8431 2.69094 34.7072 2.44082C34.5712 2.19933 34.4183 1.99234 34.2909 1.81122C34.1634 1.6301 34.0445 1.4921 33.9595 1.39723C33.8745 1.30236 33.8321 1.25061 33.8321 1.25061C33.8321 1.25061 33.7896 1.53523 33.7386 1.95784C33.7131 2.17345 33.6876 2.4322 33.6706 2.69956C33.6621 2.83756 33.6536 2.97555 33.6451 3.11355C33.6366 3.26017 33.6282 3.40679 33.6282 3.55341C33.6197 4.13989 33.6451 4.74362 33.7981 5.2611C33.8745 5.51984 33.9765 5.75271 34.1379 5.9597C34.2824 6.14944 34.4778 6.32194 34.7327 6.45993Z" fill="#18CDF1"/>
<path d="M32.7534 5.43364C32.337 5.12315 31.7933 4.93341 31.258 4.85578C30.9946 4.81266 30.7228 4.79541 30.4764 4.79541C30.23 4.79541 30.0006 4.80404 29.8052 4.82128C29.4144 4.86441 29.168 4.91616 29.168 4.91616C29.168 4.91616 29.202 4.95928 29.2699 5.02828C29.3379 5.09727 29.4398 5.19215 29.5588 5.32152C29.6777 5.44226 29.8307 5.57163 29.9921 5.71825C30.1535 5.86487 30.3319 6.01149 30.5274 6.14949C30.7228 6.29611 30.9267 6.43411 31.1476 6.54623C31.36 6.66697 31.5979 6.77047 31.8358 6.83947C32.32 6.98609 32.8383 7.00334 33.3991 6.75322C33.4161 6.4686 33.3566 6.21849 33.2461 5.99424C33.1272 5.78725 32.9573 5.59751 32.7534 5.43364Z" fill="#18CDF1"/>
</g>
<defs>
<clipPath id="clip0_66_21068">
<rect width="40" height="37" fill="white"/>
</clipPath>
</defs>
</svg>
