<svg width="1920" height="210" viewBox="0 0 1920 210" fill="none" xmlns="http://www.w3.org/2000/svg">
<mask id="mask0_104_2" style="mask-type:alpha" maskUnits="userSpaceOnUse" x="0" y="0" width="1920" height="210">
<path d="M0 0H1920V210H0V0Z" fill="#1B437A"/>
</mask>
<g mask="url(#mask0_104_2)">
<g style="mix-blend-mode:plus-lighter">
<path fill-rule="evenodd" clip-rule="evenodd" d="M1579.36 -15.4482L1526.49 36.2565C1493.45 1.30118 1454.53 -16.1765 1409.74 -16.1765C1370.82 -16.1765 1338.52 -3.79647 1312.82 21.6918C1286.38 47.18 1273.9 77.7659 1273.9 114.178C1273.9 152.046 1287.11 183.36 1314.28 209.576C1341.45 235.793 1374.5 248.901 1414.15 248.901C1439.85 248.901 1461.88 243.804 1479.5 232.88C1497.12 221.956 1511.81 205.207 1522.09 182.632H1409.74V113.449H1607.27L1608 129.471C1608 151.318 1604.33 171.708 1597.72 192.099V192.099V192.099C1593.31 203.751 1588.17 215.402 1581.57 226.326C1523.56 323.909 1445.72 430.96 1383.31 530C1333.38 430.232 1281.97 313.714 1226.9 218.315C1208.55 186.273 1199 151.318 1199 113.449C1199 61.7447 1215.89 17.3224 1250.4 -21.2741C1291.52 -66.4247 1344.39 -89 1409.74 -89C1444.25 -89 1475.83 -82.4459 1505.93 -70.0659C1530.9 -59.8706 1555.87 -41.6647 1579.36 -15.4482Z" fill="url(#paint0_linear_104_2)" fill-opacity="0.1"/>
</g>
</g>
<defs>
<linearGradient id="paint0_linear_104_2" x1="1403.5" y1="-89" x2="1403.5" y2="530" gradientUnits="userSpaceOnUse">
<stop stop-color="white"/>
<stop offset="1" stop-color="white" stop-opacity="0"/>
</linearGradient>
</defs>
</svg>
