<svg width="279" height="198" viewBox="0 0 279 198" fill="none" xmlns="http://www.w3.org/2000/svg">
<g clip-path="url(#clip0_102_2)">
<path d="M271.448 188.364C268.399 195.972 264.841 201.533 262.029 205.927C228.983 257.576 167.646 233.767 155.016 236.253C136.365 239.923 102.803 283.939 67.3172 266.163C13.6299 239.271 -7.83583 170.943 2.52586 115.748C4.42117 105.652 13.5544 50.1864 66.1736 20.2514C98.0183 2.13501 140.757 -5.32209 178.681 6.23124C258.287 30.4845 294.552 130.707 271.448 188.364Z" fill="white" fill-opacity="0.9"/>
<path d="M45.2672 127.073H27.1589C26.7422 127.073 26.4048 126.735 26.4048 126.318V113.465C26.4048 112.783 26.9557 112.232 27.6375 112.232H45.2672C45.6838 112.232 46.0212 112.569 46.0212 112.986V126.318C46.0212 126.735 45.6838 127.073 45.2672 127.073Z" fill="#EAEAEA"/>
<path d="M39.4783 112.329C39.4783 117.249 39.4783 122.17 39.4783 127.09C39.4783 127.366 39.9087 127.369 39.9087 127.09C39.9087 122.17 39.9087 117.249 39.9087 112.329C39.9087 112.05 39.4783 112.05 39.4783 112.329Z" fill="#D7D7D7"/>
<path d="M34.3277 112.235H31.5972V114.966H34.3277V112.235Z" fill="white"/>
<path d="M44.6463 124.342H41.9158V127.072H44.6463V124.342Z" fill="white"/>
<path d="M26.4253 126.841L26.4081 112.806C26.4081 112.469 26.6835 112.193 27.021 112.193L46.0211 112.235" stroke="#D9D9D9" stroke-miterlimit="10"/>
<path d="M55.9071 151.589H25.4167C25 151.589 24.6626 151.252 24.6626 150.835V128.619C24.6626 127.937 25.2135 127.386 25.8953 127.386H55.9036C56.3203 127.386 56.6577 127.724 56.6577 128.14V150.835C56.6577 151.255 56.3203 151.589 55.9071 151.589Z" fill="#EAEAEA"/>
<path d="M46.1213 127.54C46.1213 133.793 46.1213 140.046 46.1213 146.299C46.1213 148.073 46.1213 149.846 46.1213 151.619C46.1213 151.895 46.5517 151.898 46.5517 151.619C46.5517 145.366 46.5517 139.113 46.5517 132.86C46.5517 131.087 46.5517 129.314 46.5517 127.54C46.5517 127.261 46.1213 127.261 46.1213 127.54Z" fill="#D7D7D7"/>
<path d="M37.5849 127.389H33.1293V131.845H37.5849V127.389Z" fill="white"/>
<path d="M54.4199 147.137H49.9642V151.593H54.4199V147.137Z" fill="white"/>
<path d="M24.6899 151.214L24.6624 128.319C24.6624 127.768 25.11 127.321 25.6609 127.321L56.654 127.39" stroke="#D9D9D9" stroke-miterlimit="10"/>
<path d="M51.2445 175.778H20.7541C20.3374 175.778 20 175.441 20 175.024V152.808C20 152.126 20.5509 151.575 21.2327 151.575H51.241C51.6577 151.575 51.9951 151.913 51.9951 152.33V175.024C51.9951 175.441 51.6611 175.778 51.2445 175.778Z" fill="#EAEAEA"/>
<path d="M41.4587 151.727C41.4587 157.98 41.4587 164.233 41.4587 170.486C41.4587 172.259 41.4587 174.032 41.4587 175.806C41.4587 176.081 41.8892 176.085 41.8892 175.806C41.8892 169.553 41.8892 163.3 41.8892 157.047C41.8892 155.273 41.8892 153.5 41.8892 151.727C41.8892 151.448 41.4587 151.448 41.4587 151.727Z" fill="#D7D7D7"/>
<path d="M32.9273 151.576H28.4717V156.031H32.9273V151.576Z" fill="white"/>
<path d="M49.7573 171.322H45.3016V175.778H49.7573V171.322Z" fill="white"/>
<path d="M20.0313 175.399L20.0038 152.505C20.0038 151.954 20.4514 151.506 21.0023 151.506L51.9955 151.575" stroke="#D9D9D9" stroke-miterlimit="10"/>
<path d="M92.9179 73.7428C91.7506 73.7428 90.5868 73.7428 89.4195 73.7428C86.6339 73.7428 83.8483 73.7428 81.0626 73.7428C77.6813 73.7428 74.2966 73.7428 70.9152 73.7428C68.0022 73.7428 65.0926 73.7428 62.1796 73.7428C61.2189 73.7428 60.2582 73.7428 59.2976 73.7428C58.8465 73.7428 58.3747 73.7049 57.9237 73.7428C57.903 73.7462 57.8824 73.7428 57.8617 73.7428C57.5862 73.7428 57.5828 74.1732 57.8617 74.1732C59.029 74.1732 60.1928 74.1732 61.3601 74.1732C64.1457 74.1732 66.9313 74.1732 69.717 74.1732C73.0983 74.1732 76.483 74.1732 79.8644 74.1732C82.7774 74.1732 85.687 74.1732 88.6 74.1732C89.5607 74.1732 90.5214 74.1732 91.482 74.1732C91.9331 74.1732 92.4048 74.2111 92.8559 74.1732C92.8766 74.1698 92.8972 74.1732 92.9179 74.1732C93.1934 74.1732 93.1934 73.7428 92.9179 73.7428Z" fill="#18CDF1"/>
<path d="M92.4528 73.9395C92.4528 74.7452 93.107 75.3994 93.9127 75.3994C94.7184 75.3994 95.3727 74.7452 95.3727 73.9395C95.3727 73.1337 94.7184 72.4795 93.9127 72.4795C93.1035 72.4795 92.4528 73.1337 92.4528 73.9395Z" fill="#18CDF1"/>
<path d="M56.6396 101.003C56.6396 107.656 56.6396 114.312 56.6396 120.964C56.6396 121.24 57.0701 121.243 57.0701 120.964C57.0701 114.312 57.0701 107.656 57.0701 101.003C57.0701 100.725 56.6396 100.725 56.6396 101.003Z" fill="#18CDF1"/>
<path d="M55.1975 121.378C55.1975 122.183 55.8517 122.838 56.6575 122.838C57.4632 122.838 58.1174 122.183 58.1174 121.378C58.1174 120.572 57.4632 119.918 56.6575 119.918C55.8517 119.921 55.1975 120.572 55.1975 121.378Z" fill="#18CDF1"/>
<path d="M42.9566 102.061H65.1555C65.5722 102.061 65.9096 101.723 65.9096 101.307V85.3606C65.9096 84.6789 65.3587 84.1279 64.6769 84.1279H42.9566C42.54 84.1279 42.2025 84.4654 42.2025 84.882V101.31C42.2025 101.723 42.54 102.061 42.9566 102.061Z" fill="#FF8500"/>
<path d="M49.6362 84.2417C49.6362 90.1882 49.6362 96.1382 49.6362 102.085C49.6362 102.36 50.0666 102.364 50.0666 102.085C50.0666 96.1382 50.0666 90.1882 50.0666 84.2417C50.0666 83.9627 49.6362 83.9627 49.6362 84.2417Z" fill="#26244A"/>
<path d="M56.3333 87.4304H59.6354V84.1283H56.3333V87.4304Z" fill="#18CDF1"/>
<path d="M43.8613 102.06H47.1635V98.7578H43.8613V102.06Z" fill="#18CDF1"/>
<path d="M47.1847 78.2098C47.1847 78.2098 49.175 75.5963 54.0576 74.6873C58.9402 73.7783 60.7789 75.2899 60.7789 75.2899C60.7789 75.2899 63.5507 79.7283 62.2629 82.4795C60.9751 85.2307 60.314 89.2938 63.3717 90.4404C66.4293 91.587 69.9139 87.9096 70.8608 83.9429C71.6494 80.6477 72.6651 77.8793 71.3773 71.0684C70.0895 64.2576 56.1166 57.3538 56.1166 57.3538C56.1166 57.3538 48.7652 63.779 45.5147 67.3669C42.2643 70.9548 42.4743 75.1487 42.4743 75.1487" fill="#F4B298"/>
<path d="M56.2888 56.5022C56.2888 56.5022 47.8011 59.3326 42.6981 63.7159C40.2602 65.8094 35.4913 76.0463 32.8503 83.4012C32.3338 84.8371 31.8965 85.9252 31.714 86.5036C30.7671 89.5096 33.7214 92.9288 36.8548 90.6528C39.4786 88.7487 41.5274 82.3269 41.5274 82.3269L49.0407 66.9078L56.2888 56.5022Z" fill="#F4B298"/>
<path d="M29.352 77.5342L42.3642 64.0399L35.1126 82.2412C35.1126 82.2412 34.1623 82.7921 32.6128 83.4016C31.1804 83.9663 29.8926 83.3706 29.5861 83.0917C27.9678 81.6283 27.861 78.9769 29.352 77.5342Z" fill="#F4B298"/>
<path d="M80.5334 56.5029L67.6348 69.6873L58.9818 62.3875L53.0077 57.7666L60.7172 42.8812C67.9172 42.7538 76.7286 47.8912 80.5334 56.5029Z" fill="#F4B298"/>
<path d="M41.2493 71.9666L49.3962 72.7723C48.0395 74.4078 47.4404 76.6116 47.2269 78.7533C47.0134 80.895 47.1408 83.0436 47.0134 85.1923C46.9411 86.4146 46.7793 87.6645 46.2387 88.763C45.6981 89.8614 44.7064 90.7842 43.577 90.9012C42.5716 91.0045 41.604 90.4536 40.9566 89.6513C40.3093 88.8525 39.9374 87.8264 39.662 86.7968C38.3742 81.9762 38.9561 76.5186 41.2493 71.9666Z" fill="#F4B298"/>
<path d="M39.8747 86.7381C39.4925 84.5963 39.0689 82.4098 39.0793 80.2233C39.0896 77.7889 39.9608 75.444 41.252 73.3987C41.8752 72.4105 42.6052 71.4567 43.5074 70.7061C43.7208 70.527 43.4144 70.224 43.2043 70.403C41.431 71.8802 40.1605 74.0943 39.3823 76.236C38.6454 78.271 38.5525 80.3197 38.79 82.4477C38.9519 83.9249 39.2067 85.3917 39.4649 86.8517C39.5062 87.1271 39.9229 87.0101 39.8747 86.7381Z" fill="#ED796A"/>
<path d="M32.9573 84.1349C34.765 79.2832 36.8069 74.5212 39.0794 69.8658C39.2 69.6179 38.8281 69.401 38.7076 69.6489C36.4178 74.3352 34.3587 79.1317 32.5406 84.0178C32.4442 84.2795 32.8608 84.3931 32.9573 84.1349Z" fill="#ED796A"/>
<path d="M66.5637 63.8057C69.1771 66.2263 70.7955 69.3735 71.4807 72.8478C72.1384 76.1775 72.0523 79.7413 70.8265 82.9263C70.1378 84.7203 69.2735 86.5246 68.0236 88.0017C66.9941 89.2172 65.603 90.2468 63.9364 90.1504C63.1824 90.1056 62.3181 89.868 61.7672 89.324C61.2713 88.8316 61.0888 88.136 61.0682 87.4577C61.0268 86.0769 61.5055 84.679 62.0495 83.4256C62.9344 81.3941 63.1307 79.1972 62.1631 77.1485C61.5537 75.8538 60.6997 74.6486 59.8286 73.5192C59.6633 73.3023 59.288 73.5158 59.4567 73.7362C60.2659 74.7829 61.0406 75.8951 61.6466 77.0727C62.1631 78.0747 62.4283 79.1731 62.3973 80.3025C62.3663 81.4147 62.022 82.3995 61.595 83.4118C61.051 84.6996 60.5723 86.1355 60.6446 87.5541C60.6791 88.2083 60.8478 88.8695 61.2576 89.3928C61.719 89.9816 62.4111 90.295 63.1238 90.4637C66.8185 91.3452 69.2873 87.4577 70.5889 84.6135C71.4807 82.6612 72.0936 80.6606 72.2554 78.512C72.3794 76.8386 72.2899 75.1479 72.0316 73.4882C71.4394 69.6731 69.7246 66.1471 66.8736 63.5061C66.667 63.3133 66.3605 63.6163 66.5637 63.8057Z" fill="#ED796A"/>
<path d="M186.174 75.0273C187.637 75.0273 189.097 75.0273 190.56 75.0273C194.069 75.0273 197.581 75.0273 201.09 75.0273C205.336 75.0273 209.581 75.0273 213.827 75.0273C217.494 75.0273 221.161 75.0273 224.832 75.0273C226.033 75.0273 227.231 75.0273 228.433 75.0273C228.812 75.0273 229.187 75.0273 229.566 75.0273C229.742 75.0273 229.986 75.0721 230.158 75.0273C230.179 75.0204 230.21 75.0273 230.234 75.0273C230.162 74.955 230.089 74.8827 230.017 74.8104C230.017 76.1601 230.017 77.5065 230.017 78.8562C230.017 82.0964 230.017 85.3331 230.017 88.5732C230.017 92.4745 230.017 96.3792 230.017 100.28C230.017 103.669 230.017 107.053 230.017 110.442C230.017 111.561 230.017 112.68 230.017 113.799C230.017 114.319 229.976 114.859 230.017 115.379C230.021 115.403 230.017 115.424 230.017 115.448C230.017 115.724 230.448 115.727 230.448 115.448C230.448 114.098 230.448 112.752 230.448 111.402C230.448 108.162 230.448 104.925 230.448 101.685C230.448 97.784 230.448 93.8793 230.448 89.9781C230.448 86.5899 230.448 83.2051 230.448 79.8169C230.448 78.6979 230.448 77.5788 230.448 76.4597C230.448 75.9398 230.489 75.3992 230.448 74.8792C230.444 74.8551 230.448 74.8345 230.448 74.8104C230.448 74.6933 230.348 74.5934 230.231 74.5934C228.767 74.5934 227.307 74.5934 225.844 74.5934C222.335 74.5934 218.823 74.5934 215.314 74.5934C211.069 74.5934 206.823 74.5934 202.577 74.5934C198.91 74.5934 195.243 74.5934 191.573 74.5934C190.371 74.5934 189.173 74.5934 187.971 74.5934C187.403 74.5934 186.814 74.5521 186.246 74.5934C186.222 74.5969 186.194 74.5934 186.17 74.5934C185.895 74.5969 185.895 75.0273 186.174 75.0273Z" fill="#18CDF1"/>
<path d="M140.963 61.33C141.297 60.8651 141.631 60.3969 141.968 59.932" stroke="#D1E5FB" stroke-width="3" stroke-linecap="round" stroke-linejoin="round"/>
<path d="M145.896 54.8464C148.723 51.5891 151.96 48.924 156.244 47.9495C162.311 46.5653 169.011 48.3317 173.608 52.5291C176.986 55.6143 179.162 59.9494 179.751 64.4808" stroke="#D1E5FB" stroke-width="3" stroke-linecap="round" stroke-linejoin="round" stroke-dasharray="9.34 9.34"/>
<path d="M179.896 67.6866C179.872 68.2582 179.824 68.8333 179.748 69.4014" stroke="#D1E5FB" stroke-width="3" stroke-linecap="round" stroke-linejoin="round"/>
<path d="M132.055 61.0097C121.635 58.1484 109.594 62.9827 104.047 72.259C98.5031 81.5318 99.9424 94.4304 107.394 102.254" stroke="#D1E5FB" stroke-width="3" stroke-miterlimit="10" stroke-linecap="round" stroke-linejoin="round" stroke-dasharray="10 10"/>
<path d="M194.344 60.0799C192.97 58.5166 190.577 58.1344 188.68 59.1674C187.75 59.6736 187.062 60.4208 186.638 61.2713C186.535 61.4779 186.462 61.6982 186.397 61.9186L185.164 66.1332C184.971 66.7943 185.447 67.4657 186.135 67.5002L189.262 67.6551C189.558 67.6689 190.126 67.6827 190.632 67.6861C191.586 67.693 192.55 67.4451 193.349 66.8976C193.356 66.8942 193.363 66.8907 193.366 66.8838C195.656 65.3034 196.159 62.1424 194.344 60.0799ZM189.52 64.5872C188.456 63.6196 188.804 61.8945 190.181 61.316C190.873 61.0268 191.686 61.1542 192.223 61.6431C193.287 62.6107 192.939 64.3358 191.562 64.9143C190.87 65.2035 190.057 65.0761 189.52 64.5872Z" fill="#18CDF1"/>
<path d="M171.273 108.665C184.696 95.2427 184.696 73.4804 171.273 60.0578C157.851 46.6353 136.089 46.6353 122.666 60.0578C109.243 73.4804 109.243 95.2427 122.666 108.665C136.089 122.088 157.851 122.088 171.273 108.665Z" fill="#D1E5FB"/>
<path d="M146.173 49.9742C140.313 50.5355 134.759 52.7392 130.317 56.6405C126.688 59.8324 123.888 63.9747 122.012 68.4165C119.157 75.1792 118.689 82.7544 119.808 89.9578C120.872 96.7996 123.385 103.562 127.824 108.944C131.987 113.992 137.971 117.697 144.527 118.492C145.343 118.592 146.163 118.64 146.982 118.647C147.258 118.651 147.261 118.22 146.982 118.217C140.423 118.169 134.191 115.025 129.669 110.366C124.901 105.449 122.053 98.9448 120.665 92.3027C119.209 85.33 119.233 77.9028 121.464 71.092C123.017 66.3471 125.672 61.8467 129.187 58.2898C133.133 54.299 138.205 51.6924 143.728 50.7249C144.538 50.5837 145.35 50.477 146.17 50.3978C146.445 50.3806 146.449 49.9501 146.173 49.9742Z" fill="#F5F5F5"/>
<path d="M146.063 50.0048C141.855 52.4289 138.501 56.3749 135.922 60.4277C134.621 62.4765 133.488 64.6492 132.672 66.9355C131.718 69.6144 131.17 72.4517 130.823 75.2683C130.454 78.2674 130.344 81.2941 130.375 84.3173C130.402 87.3164 130.53 90.319 130.802 93.3043C131.074 96.2621 131.504 99.213 132.234 102.092C132.889 104.681 133.725 107.305 135.127 109.598C137.571 113.592 141.483 116.409 145.708 118.279C146.231 118.513 146.765 118.73 147.299 118.936C147.557 119.036 147.671 118.619 147.412 118.52C143.136 116.853 139.035 114.339 136.297 110.576C134.779 108.493 133.842 106.117 133.112 103.662C132.276 100.852 131.749 97.9596 131.411 95.0535C131.077 92.1611 130.922 89.2481 130.84 86.3385C130.761 83.4255 130.781 80.5021 131.015 77.596C131.253 74.6416 131.718 71.7011 132.52 68.8466C133.167 66.543 134.128 64.3599 135.309 62.2802C137.702 58.0656 140.918 54.0094 144.93 51.2272C145.367 50.9242 145.818 50.6384 146.28 50.3733C146.521 50.239 146.304 49.8671 146.063 50.0048Z" fill="#F5F5F5"/>
<path d="M147.574 118.437C146.699 109.639 146.19 100.807 145.928 91.9683C145.663 82.9675 145.656 73.9598 145.859 64.959C145.969 60.0351 146.149 55.1112 146.386 50.1907C146.4 49.9153 145.969 49.9153 145.956 50.1907C145.529 59.0262 145.298 67.8721 145.288 76.7179C145.277 85.7187 145.491 94.7229 146.004 103.713C146.286 108.63 146.658 113.541 147.144 118.44C147.171 118.709 147.602 118.712 147.574 118.437Z" fill="#F5F5F5"/>
<path d="M147.509 118.885C152.006 115.352 155.962 111.106 159.013 106.258C162.008 101.496 164.098 96.1451 164.887 90.5635C165.283 87.7538 165.314 84.9269 165.162 82.0965C165.018 79.3522 164.687 76.6113 164.14 73.9186C163.134 68.9982 161.368 64.1707 158.558 59.9871C155.924 56.0651 152.367 52.8043 148.122 50.7074C147.595 50.4491 147.061 50.2081 146.52 49.9808C146.266 49.8741 146.155 50.2907 146.407 50.3975C150.769 52.2224 154.533 55.2353 157.353 59.0229C160.287 62.9621 162.198 67.5795 163.348 72.3347C163.978 74.9344 164.388 77.5892 164.611 80.2543C164.846 83.0434 164.932 85.8703 164.68 88.6594C164.185 94.2238 162.366 99.616 159.598 104.457C156.812 109.326 153.101 113.634 148.831 117.259C148.301 117.71 147.76 118.151 147.209 118.582C146.989 118.75 147.295 119.053 147.509 118.885Z" fill="#F5F5F5"/>
<path d="M146.458 50.404C149.116 50.404 151.747 51.1133 154.206 52.0775C156.964 53.1587 159.584 54.6117 162.008 56.3127C164.336 57.9483 166.522 59.8386 168.33 62.0424C170.282 64.4182 171.611 67.2658 172.558 70.1754C174.703 76.7693 174.776 83.9452 173.615 90.7354C173.033 94.1545 172.107 97.5255 170.737 100.717C169.435 103.751 167.741 106.723 165.517 109.181C163.437 111.485 160.913 113.378 158.214 114.897C155.504 116.419 152.567 117.586 149.512 118.196C148.8 118.337 148.076 118.447 147.353 118.519C147.081 118.547 147.078 118.977 147.353 118.95C150.421 118.643 153.4 117.717 156.189 116.419C159.095 115.069 161.829 113.296 164.191 111.127C169.187 106.544 172.059 99.9186 173.526 93.4074C175.062 86.5896 175.33 79.2898 173.657 72.4721C172.872 69.2802 171.66 66.0504 169.811 63.3129C168.244 60.9922 166.195 59.0054 164.009 57.2768C161.626 55.3934 159.026 53.7784 156.272 52.501C153.758 51.3337 151.086 50.4143 148.324 50.0872C147.705 50.0149 147.081 49.9771 146.455 49.9771C146.183 49.9771 146.183 50.4075 146.458 50.404Z" fill="#F5F5F5"/>
<path d="M112.649 85.9736C121.55 85.9736 130.45 85.9736 139.355 85.9736C148.363 85.9736 157.37 85.9736 166.378 85.9736C171.367 85.9736 176.357 85.9736 181.346 85.9736C181.621 85.9736 181.625 85.5432 181.346 85.5432C172.445 85.5432 163.544 85.5432 154.64 85.5432C145.632 85.5432 136.624 85.5432 127.617 85.5432C122.627 85.5432 117.638 85.5432 112.649 85.5432C112.37 85.5432 112.37 85.9736 112.649 85.9736Z" fill="#F5F5F5"/>
<path d="M117.683 66.5777C119.605 66.5777 121.526 66.5777 123.444 66.5777C128.054 66.5777 132.665 66.5777 137.276 66.5777C142.85 66.5777 148.425 66.5777 154 66.5777C158.793 66.5777 163.586 66.5777 168.379 66.5777C169.973 66.5777 171.567 66.5777 173.162 66.5777C173.905 66.5777 174.659 66.6156 175.4 66.5777C175.431 66.5777 175.465 66.5777 175.496 66.5777C175.772 66.5777 175.775 66.1473 175.496 66.1473C173.575 66.1473 171.653 66.1473 169.735 66.1473C165.125 66.1473 160.514 66.1473 155.904 66.1473C150.329 66.1473 144.754 66.1473 139.18 66.1473C134.387 66.1473 129.594 66.1473 124.8 66.1473C123.206 66.1473 121.612 66.1473 120.018 66.1473C119.274 66.1473 118.52 66.1095 117.78 66.1473C117.749 66.1473 117.714 66.1473 117.683 66.1473C117.408 66.1473 117.408 66.5777 117.683 66.5777Z" fill="#F5F5F5"/>
<path d="M120.558 105.367C127.442 105.367 134.325 105.367 141.208 105.367C148.064 105.367 154.916 105.367 161.771 105.367C165.642 105.367 169.515 105.367 173.386 105.367C173.661 105.367 173.664 104.936 173.386 104.936C166.502 104.936 159.619 104.936 152.736 104.936C145.88 104.936 139.028 104.936 132.173 104.936C128.302 104.936 124.429 104.936 120.558 104.936C120.283 104.936 120.28 105.367 120.558 105.367Z" fill="#F5F5F5"/>
<path d="M58.4048 149.127H34.8285C34.4119 149.127 34.0745 148.79 34.0745 148.373V131.384C34.0745 130.702 34.6254 130.151 35.3072 130.151H58.4082C58.8249 130.151 59.1623 130.489 59.1623 130.905V148.376C59.1589 148.79 58.8214 149.127 58.4048 149.127Z" fill="#1B437A"/>
<path d="M50.8506 130.272C50.8506 136.566 50.8506 142.86 50.8506 149.151C50.8506 149.427 51.281 149.43 51.281 149.151C51.281 142.857 51.281 136.563 51.281 130.272C51.281 129.993 50.8506 129.993 50.8506 130.272Z" fill="#26244A"/>
<path d="M44.2044 130.151H40.7129V133.642H44.2044V130.151Z" fill="#18CDF1"/>
<path d="M57.3996 145.636H53.9081V149.127H57.3996V145.636Z" fill="#18CDF1"/>
<path d="M81.6121 148.91H58.0324C57.6158 148.91 57.2783 148.573 57.2783 148.156V131.167C57.2783 130.485 57.8292 129.934 58.511 129.934H81.6121C82.0287 129.934 82.3662 130.272 82.3662 130.688V148.16C82.3627 148.573 82.0253 148.91 81.6121 148.91Z" fill="#FF8500"/>
<path d="M74.0537 130.055C74.0537 136.349 74.0537 142.644 74.0537 148.935C74.0537 149.21 74.4841 149.214 74.4841 148.935C74.4841 142.64 74.4841 136.346 74.4841 130.055C74.4841 129.776 74.0537 129.776 74.0537 130.055Z" fill="#26244A"/>
<path d="M67.4086 129.934H63.9171V133.426H67.4086V129.934Z" fill="#18CDF1"/>
<path d="M80.6067 145.419H77.1152V148.91H80.6067V145.419Z" fill="#18CDF1"/>
<path d="M58.0428 168.193H34.4631C34.0464 168.193 33.709 167.855 33.709 167.438V150.449C33.709 149.767 34.2599 149.217 34.9417 149.217H58.0428C58.4594 149.217 58.7968 149.554 58.7968 149.971V167.442C58.7934 167.855 58.4594 168.193 58.0428 168.193Z" fill="#FF8500"/>
<path d="M50.4883 149.337C50.4883 155.631 50.4883 161.926 50.4883 168.217C50.4883 168.492 50.9187 168.496 50.9187 168.217C50.9187 161.922 50.9187 155.628 50.9187 149.337C50.9187 149.058 50.4883 149.058 50.4883 149.337Z" fill="#26244A"/>
<path d="M43.8392 149.217H40.3477V152.708H43.8392V149.217Z" fill="#18CDF1"/>
<path d="M57.0364 164.701H53.5449V168.192H57.0364V164.701Z" fill="#18CDF1"/>
<path d="M33.7296 167.897L33.709 149.947C33.709 149.513 34.0602 149.162 34.4941 149.162L58.7968 149.217" stroke="#26244A" stroke-miterlimit="10"/>
<path d="M81.6155 168.193H58.0358C57.6192 168.193 57.2817 167.855 57.2817 167.439V150.45C57.2817 149.768 57.8327 149.217 58.5144 149.217H81.6155C82.0322 149.217 82.3696 149.554 82.3696 149.971V167.442C82.3662 167.855 82.0322 168.193 81.6155 168.193Z" fill="#FF8500"/>
<path d="M74.0613 149.337C74.0613 155.632 74.0613 161.926 74.0613 168.217C74.0613 168.492 74.4917 168.496 74.4917 168.217C74.4917 161.923 74.4917 155.628 74.4917 149.337C74.4917 149.058 74.0613 149.058 74.0613 149.337Z" fill="#26244A"/>
<path d="M67.4112 149.217H63.9197V152.709H67.4112V149.217Z" fill="#18CDF1"/>
<path d="M80.6102 164.701H77.1187V168.192H80.6102V164.701Z" fill="#18CDF1"/>
<path d="M57.3024 167.897L57.2817 149.947C57.2817 149.513 57.633 149.162 58.0668 149.162L82.3696 149.217" stroke="#26244A" stroke-miterlimit="10"/>
<path d="M83.3298 169.466H31.9489C31.6046 169.466 31.3223 169.187 31.3223 168.84C31.3223 168.495 31.6012 168.213 31.9489 168.213H83.3298C83.6742 168.213 83.9565 168.492 83.9565 168.84C83.9565 169.187 83.6742 169.466 83.3298 169.466Z" fill="#1B437A"/>
<path d="M83.3298 175.712H31.9489C31.6046 175.712 31.3223 175.433 31.3223 175.086C31.3223 174.741 31.6012 174.459 31.9489 174.459H83.3298C83.6742 174.459 83.9565 174.738 83.9565 175.086C83.9565 175.43 83.6742 175.712 83.3298 175.712Z" fill="#1B437A"/>
<path d="M38.5881 169.108H32.1836V174.462H38.5881V169.108Z" fill="#1B437A"/>
<path d="M60.9422 169.108H54.5411V174.462H60.9422V169.108Z" fill="#1B437A"/>
<path d="M83.302 169.108H76.8975V174.462H83.302V169.108Z" fill="#1B437A"/>
<path d="M32.0425 169.78C38.6984 169.78 45.3509 169.78 52.0068 169.78C58.6902 169.78 65.3737 169.78 72.0571 169.78C75.8137 169.78 79.5738 169.78 83.3304 169.78C83.6059 169.78 83.6093 169.35 83.3304 169.35C76.6746 169.35 70.0221 169.35 63.3662 169.35C56.6828 169.35 49.9993 169.35 43.3159 169.35C39.5593 169.35 35.7992 169.35 32.0425 169.35C31.7671 169.35 31.7671 169.78 32.0425 169.78Z" fill="#26244A"/>
<path d="M32.0425 174.676C38.6984 174.676 45.3509 174.676 52.0068 174.676C58.6902 174.676 65.3737 174.676 72.0571 174.676C75.8137 174.676 79.5738 174.676 83.3304 174.676C83.6059 174.676 83.6093 174.246 83.3304 174.246C76.6746 174.246 70.0221 174.246 63.3662 174.246C56.6828 174.246 49.9993 174.246 43.3159 174.246C39.5593 174.246 35.7992 174.246 32.0425 174.246C31.7671 174.246 31.7671 174.676 32.0425 174.676Z" fill="#26244A"/>
<path d="M34.5904 130.148C40.809 130.148 47.0276 130.148 53.2427 130.148C59.3683 130.148 65.4905 130.148 71.6162 130.148C75.1559 130.148 78.6921 130.148 82.2318 130.148C82.5073 130.148 82.5107 129.717 82.2318 129.717C76.0132 129.717 69.7946 129.717 63.5795 129.717C57.4539 129.717 51.3317 129.717 45.2061 129.717C41.6664 129.717 38.1301 129.717 34.5904 129.717C34.3149 129.717 34.3149 130.148 34.5904 130.148Z" fill="#26244A"/>
<path d="M57.5192 148.81C57.5192 142.519 57.5192 136.225 57.5192 129.934C57.5192 129.658 57.0887 129.655 57.0887 129.934C57.0887 136.225 57.0887 142.519 57.0887 148.81C57.0887 149.085 57.5192 149.085 57.5192 148.81Z" fill="#26244A"/>
<path d="M125.366 164.23C125.366 167.917 123.875 172.611 121.658 174.918C120.625 175.995 117.488 175.868 115.06 175.868C109.368 175.868 104.758 170.658 104.758 164.23C104.758 157.801 109.372 152.591 115.06 152.591C115.494 152.591 119.144 152.536 119.564 152.595C124.653 153.304 125.366 158.29 125.366 164.23Z" fill="#26244A"/>
<path d="M119.567 175.871C125.257 175.871 129.869 170.66 129.869 164.233C129.869 157.805 125.257 152.594 119.567 152.594C113.877 152.594 109.265 157.805 109.265 164.233C109.265 170.66 113.877 175.871 119.567 175.871Z" fill="#1B437A"/>
<path d="M119.567 169.453C122.055 169.453 124.071 167.116 124.071 164.233C124.071 161.35 122.055 159.013 119.567 159.013C117.08 159.013 115.063 161.35 115.063 164.233C115.063 167.116 117.08 169.453 119.567 169.453Z" fill="#2D93FF"/>
<path d="M135.805 164.353H91.1182V167.827H135.805V164.353Z" fill="#26244A"/>
<path d="M246.367 144.538H82.5967V165.101H246.367V144.538Z" fill="#26244A"/>
<path d="M239.507 164.395C239.507 168.083 238.016 172.776 235.798 175.083C234.765 176.16 231.629 176.033 229.201 176.033C223.509 176.033 218.899 170.823 218.899 164.395C218.899 157.966 223.513 152.756 229.201 152.756C229.635 152.756 233.285 152.701 233.705 152.76C238.794 153.469 239.507 158.455 239.507 164.395Z" fill="#26244A"/>
<path d="M233.709 176.036C239.399 176.036 244.011 170.826 244.011 164.398C244.011 157.97 239.399 152.76 233.709 152.76C228.019 152.76 223.406 157.97 223.406 164.398C223.406 170.826 228.019 176.036 233.709 176.036Z" fill="#1B437A"/>
<path d="M233.709 169.618C236.197 169.618 238.213 167.281 238.213 164.398C238.213 161.515 236.197 159.178 233.709 159.178C231.222 159.178 229.205 161.515 229.205 164.398C229.205 167.281 231.222 169.618 233.709 169.618Z" fill="#2D93FF"/>
<path d="M250.567 134.035C249.833 131.694 247.698 130.065 245.257 129.79L230.751 128.154L222.731 111.95C222.456 111.396 222.08 110.897 221.622 110.476C220.19 109.168 217.191 109.381 216.086 109.375C212.398 109.361 207.105 109.35 207.105 109.375V116.175V162.484C207.105 162.484 217.043 162.484 219.095 162.484C220.7 162.484 221.647 158.4 221.922 157.013C221.936 156.947 221.943 156.909 221.946 156.889C221.95 156.871 221.956 156.847 221.96 156.823C223.051 152.04 224.525 151.355 225.351 150.453C227.073 148.57 230.255 147.995 232.572 147.995C242.596 147.42 244.551 156 244.551 156L245.419 160.835H250.863V154.072V135.96C250.863 135.296 250.76 134.648 250.567 134.035Z" fill="#1B437A"/>
<path d="M250.859 138.68H207.109V143.762H250.859V138.68Z" fill="#FF8500"/>
<path d="M207.109 157.705C210.436 157.705 213.765 157.705 217.092 157.705C217.567 157.705 218.042 157.705 218.517 157.705C218.631 157.705 218.734 157.605 218.734 157.488C218.696 156.142 218.937 154.75 219.288 153.459C220.015 150.798 221.509 148.322 223.899 146.852C225.727 145.726 227.866 145.288 229.994 145.25C230.111 145.247 230.211 145.154 230.211 145.033C230.207 141.935 230.204 138.832 230.2 135.733C230.2 134.139 230.197 132.545 230.197 130.947C230.197 130.733 230.228 130.496 230.155 130.293C230.049 130 229.863 129.711 229.725 129.432C228.041 126.071 226.354 122.711 224.67 119.347C223.978 117.969 223.289 116.592 222.597 115.215C222.47 114.96 222.349 114.698 222.208 114.454C221.468 113.173 220.156 112.329 218.758 111.912C217.174 111.441 215.422 111.596 213.786 111.596C211.937 111.596 210.091 111.596 208.242 111.596C208.122 111.596 208.001 111.596 207.881 111.596C207.605 111.596 207.602 112.026 207.881 112.026C210.749 112.026 213.617 112.019 216.482 112.026C218.751 112.03 220.996 112.99 222.046 115.087C222.628 116.248 223.21 117.408 223.792 118.568C225.521 122.015 227.249 125.465 228.978 128.912C229.202 129.363 229.429 129.811 229.653 130.262C229.697 130.348 229.742 130.437 229.784 130.523C229.732 130.417 229.77 130.417 229.759 130.554C229.728 131.012 229.759 131.488 229.759 131.946C229.759 132.793 229.759 133.636 229.763 134.483C229.766 137.93 229.77 141.38 229.773 144.827C229.773 144.896 229.773 144.965 229.773 145.033C229.846 144.961 229.918 144.889 229.99 144.817C226.423 144.879 223.014 146.159 220.855 149.1C219.409 151.07 218.655 153.494 218.39 155.901C218.331 156.424 218.286 156.958 218.3 157.488C218.372 157.416 218.445 157.343 218.517 157.271C215.191 157.271 211.861 157.271 208.535 157.271C208.06 157.271 207.585 157.271 207.109 157.271C206.834 157.274 206.834 157.705 207.109 157.705Z" fill="#26244A"/>
<path d="M208.203 127.62C208.355 123.585 208.506 119.549 208.658 115.514C208.679 114.935 208.727 114.291 209.133 113.895C209.515 113.523 210.09 113.503 210.614 113.503C212.163 113.503 213.709 113.503 215.259 113.503C216.571 113.503 217.941 113.517 219.098 114.171C220.241 114.818 221.064 115.958 221.715 117.135C224.094 121.429 225.485 124.408 227.286 128.109C227.944 129.462 227.028 131.071 225.585 131.088C220.854 131.143 215.018 131.515 211.017 131.236C210.29 131.184 209.508 131.112 208.958 130.613C208.186 129.917 208.166 128.691 208.203 127.62Z" fill="#18CDF1"/>
<path opacity="0.5" d="M225.417 124.236L217.274 131.212C214.984 131.253 210.108 131.605 209.148 130.764L222.921 119.364L225.417 124.236Z" fill="white"/>
<path opacity="0.5" d="M221.715 117.135L208.194 128.587L208.29 125.361L220.417 115.251L221.715 117.135Z" fill="white"/>
<path d="M225.964 131.112V125.327L227.448 128.385C227.486 128.46 227.503 128.547 227.503 128.629V130.551C227.503 130.86 227.252 131.112 226.942 131.112H225.964Z" fill="#26244A"/>
<path d="M222.339 125.251C222.883 125.812 223.361 126.463 223.861 127.066C224.628 127.989 225.4 128.915 226.168 129.838C226.343 130.048 226.519 130.258 226.694 130.471C226.87 130.685 227.173 130.378 226.997 130.168C225.744 128.657 224.491 127.148 223.23 125.644C223.038 125.413 222.852 125.165 222.645 124.948C222.449 124.745 222.146 125.051 222.339 125.251Z" fill="#26244A"/>
<path d="M220.324 124.198V128.939C220.324 129.521 220.745 129.993 221.258 129.993H222.879C223.396 129.993 223.813 129.521 223.813 128.939V124.277C223.813 123.712 223.417 123.247 222.917 123.223L221.295 123.144C220.769 123.117 220.324 123.595 220.324 124.198Z" fill="#1B437A"/>
<path d="M245.832 129.879C245.832 129.879 245.061 133.66 246.583 134.355C248.105 135.054 250.725 134.648 250.725 134.648C250.725 134.648 250.157 130.289 245.832 129.879Z" fill="#FF8500"/>
<path d="M251.455 164.904H245.636L242.826 152.429H251.455C252.592 152.429 253.514 153.352 253.514 154.488V162.848C253.514 163.981 252.592 164.904 251.455 164.904Z" fill="#26244A"/>
<path d="M250.863 150.029H248.301C247.465 150.029 246.786 149.351 246.786 148.514C246.786 147.677 247.465 146.999 248.301 146.999H250.863V150.029Z" fill="#18CDF1"/>
<path d="M109.189 96.0767H74.6592V163.524H109.189V96.0767Z" fill="#18CDF1"/>
<path d="M109.188 161.86V96.093H203.297C205.673 96.093 207.598 98.0178 207.598 100.394V161.863H161.964V160.362C161.964 153.748 156.603 148.383 149.985 148.383H142.771C137.971 148.383 135.165 151.599 134.59 156.364L132.734 161.86H109.188Z" fill="#4092E2"/>
<path d="M106.637 101.131H77.6514V122.314H106.637V101.131Z" fill="#1B437A"/>
<path d="M106.637 122.314H77.6514V159.381H106.637V122.314Z" fill="#1B437A"/>
<path d="M106.637 132.231L77.6514 122.314H106.637V132.231Z" fill="#26244A"/>
<path d="M108.658 156.348C108.658 156.689 108.383 156.964 108.042 156.964C107.701 156.964 107.426 156.689 107.426 156.348C107.426 156.007 107.701 155.732 108.042 155.732C108.383 155.732 108.658 156.007 108.658 156.348Z" fill="#FF8500"/>
<path d="M108.658 158.172C108.658 158.513 108.383 158.789 108.042 158.789C107.701 158.789 107.426 158.513 107.426 158.172C107.426 157.831 107.701 157.556 108.042 157.556C108.383 157.556 108.658 157.831 108.658 158.172Z" fill="#FF8500"/>
<path d="M108.658 159.997C108.658 160.338 108.383 160.614 108.042 160.614C107.701 160.614 107.426 160.338 107.426 159.997C107.426 159.657 107.701 159.381 108.042 159.381C108.383 159.381 108.658 159.657 108.658 159.997Z" fill="#FF8500"/>
<path d="M76.7006 156.348C76.7006 156.689 76.4251 156.964 76.0842 156.964C75.7434 156.964 75.4679 156.689 75.4679 156.348C75.4679 156.007 75.7434 155.732 76.0842 155.732C76.4251 155.732 76.7006 156.007 76.7006 156.348Z" fill="#FF8500"/>
<path d="M76.7007 158.172C76.7007 158.513 76.4253 158.789 76.0844 158.789C75.7435 158.789 75.468 158.513 75.468 158.172C75.468 157.831 75.7435 157.556 76.0844 157.556C76.4253 157.556 76.7007 157.831 76.7007 158.172Z" fill="#FF8500"/>
<path d="M76.7007 159.997C76.7007 160.338 76.4253 160.614 76.0844 160.614C75.7435 160.614 75.468 160.338 75.468 159.997C75.468 159.657 75.7435 159.381 76.0844 159.381C76.4253 159.381 76.7007 159.657 76.7007 159.997Z" fill="#FF8500"/>
<path d="M77.9133 117.914C85.3336 117.914 92.7539 117.914 100.174 117.914C102.285 117.914 104.399 117.914 106.51 117.914C106.785 117.914 106.789 117.484 106.51 117.484C99.0896 117.484 91.6693 117.484 84.2489 117.484C82.1382 117.484 80.024 117.484 77.9133 117.484C77.6344 117.484 77.6344 117.914 77.9133 117.914Z" fill="#26244A"/>
<path d="M77.9133 113.01C85.3336 113.01 92.7539 113.01 100.174 113.01C102.285 113.01 104.399 113.01 106.51 113.01C106.785 113.01 106.789 112.58 106.51 112.58C99.0896 112.58 91.6693 112.58 84.2489 112.58C82.1382 112.58 80.024 112.58 77.9133 112.58C77.6344 112.58 77.6344 113.01 77.9133 113.01Z" fill="#26244A"/>
<path d="M77.9133 108.108C85.3336 108.108 92.7539 108.108 100.174 108.108C102.285 108.108 104.399 108.108 106.51 108.108C106.785 108.108 106.789 107.677 106.51 107.677C99.0896 107.677 91.6693 107.677 84.2489 107.677C82.1382 107.677 80.024 107.677 77.9133 107.677C77.6344 107.677 77.6344 108.108 77.9133 108.108Z" fill="#26244A"/>
<path d="M77.7818 103.535C85.2021 103.535 92.6224 103.535 100.043 103.535C102.153 103.535 104.268 103.535 106.378 103.535C106.654 103.535 106.657 103.104 106.378 103.104C98.9581 103.104 91.5378 103.104 84.1175 103.104C82.0067 103.104 79.8925 103.104 77.7818 103.104C77.5063 103.104 77.5063 103.535 77.7818 103.535Z" fill="#26244A"/>
<path d="M106.637 159.381H76.6669V161.44H106.637V159.381Z" fill="#4092E2"/>
<path d="M155.404 164.03C155.404 167.717 153.913 172.41 151.696 174.718C150.663 175.795 147.526 175.668 145.098 175.668C139.406 175.668 134.796 170.458 134.796 164.03C134.796 157.601 139.41 152.391 145.098 152.391C145.532 152.391 149.182 152.336 149.602 152.395C154.691 153.104 155.404 158.093 155.404 164.03Z" fill="#26244A"/>
<path d="M149.602 175.672C155.292 175.672 159.905 170.461 159.905 164.033C159.905 157.606 155.292 152.395 149.602 152.395C143.912 152.395 139.3 157.606 139.3 164.033C139.3 170.461 143.912 175.672 149.602 175.672Z" fill="#1B437A"/>
<path d="M149.603 169.253C152.09 169.253 154.106 166.916 154.106 164.033C154.106 161.15 152.09 158.813 149.603 158.813C147.115 158.813 145.099 161.15 145.099 164.033C145.099 166.916 147.115 169.253 149.603 169.253Z" fill="#2D93FF"/>
<path d="M103.714 159.357H80.1341C79.7174 159.357 79.38 159.02 79.38 158.603V141.614C79.38 140.932 79.9309 140.381 80.6127 140.381H103.714C104.13 140.381 104.468 140.719 104.468 141.135V158.607C104.464 159.023 104.13 159.357 103.714 159.357Z" fill="#FF8500"/>
<path d="M96.1592 140.502C96.1592 146.796 96.1592 153.091 96.1592 159.381C96.1592 159.657 96.5896 159.66 96.5896 159.381C96.5896 153.087 96.5896 146.793 96.5896 140.502C96.5896 140.226 96.1592 140.223 96.1592 140.502Z" fill="#26244A"/>
<path d="M89.5098 140.385H86.0183V143.876H89.5098V140.385Z" fill="#4092E2"/>
<path d="M102.709 155.866H99.2178V159.357H102.709V155.866Z" fill="#4092E2"/>
<path d="M94.6136 120.569H89.8102C89.5003 120.569 89.2489 120.318 89.2489 120.008C89.2489 119.698 89.5003 119.446 89.8102 119.446H94.6136C94.9235 119.446 95.1748 119.698 95.1748 120.008C95.1748 120.318 94.9235 120.569 94.6136 120.569Z" fill="#26244A"/>
<path d="M109.488 120.782C114.632 120.871 118.954 117.421 122.352 113.899C126.164 109.946 129.067 105.218 132.923 101.303C134.993 99.2026 137.358 97.3122 140.151 96.2827C140.409 96.1863 140.295 95.7731 140.037 95.8661C135.227 97.6428 131.697 101.727 128.585 105.628C125.158 109.922 121.956 114.432 117.404 117.635C115.059 119.284 112.394 120.403 109.491 120.351C109.209 120.348 109.209 120.778 109.488 120.782Z" fill="#2B7AC8"/>
<path d="M149.905 96.458C145.594 100.16 141.407 104.016 137.434 108.079C133.488 112.115 129.752 116.353 126.319 120.83C124.594 123.078 122.944 125.389 121.388 127.761C119.866 130.082 118.389 132.478 117.493 135.123C116.708 137.437 116.426 139.909 117.025 142.299C117.542 144.358 118.675 146.317 120.438 147.543C122.545 149.006 125.262 149.089 127.651 148.335C130.244 147.515 132.396 145.766 134.314 143.893C138.456 139.84 142.216 135.419 146.514 131.521C150.694 127.73 155.387 124.383 160.741 122.479C163.327 121.556 166.054 120.978 168.805 120.916C170.985 120.868 173.561 121.243 175.059 122.996C176.914 125.165 175.974 128.222 174.759 130.454C173.457 132.843 171.701 135.033 169.897 137.065C166.247 141.169 161.991 144.678 157.656 148.032C156.565 148.875 155.466 149.712 154.368 150.545C154.151 150.711 154.364 151.086 154.585 150.917C158.934 147.615 163.293 144.292 167.215 140.481C169.164 138.583 170.999 136.569 172.641 134.396C174.208 132.327 175.833 130.047 176.377 127.461C176.856 125.175 176.15 122.875 174.091 121.632C172.125 120.447 169.666 120.375 167.442 120.561C162.012 121.012 156.881 123.274 152.405 126.298C147.622 129.527 143.535 133.653 139.568 137.812C137.592 139.888 135.664 142.03 133.584 144.003C131.549 145.935 129.211 147.66 126.405 148.214C123.822 148.72 121.188 148.052 119.415 146.055C117.896 144.347 117.163 142.003 117.128 139.744C117.087 136.968 118.124 134.272 119.415 131.862C120.747 129.373 122.366 127.021 123.994 124.721C127.307 120.045 130.967 115.62 134.861 111.419C138.728 107.253 142.822 103.303 147.068 99.5226C148.111 98.5963 149.161 97.677 150.219 96.7679C150.422 96.582 150.115 96.279 149.905 96.458Z" fill="#2B7AC8"/>
<path d="M166.017 160.8C169.684 154.815 175.073 149.902 181.46 146.965C183.072 146.224 184.738 145.639 186.439 145.147C188.309 144.606 190.203 144.145 192.041 143.504C193.797 142.895 195.495 142.11 197 141.004C198.405 139.971 199.634 138.714 200.701 137.337C202.034 135.619 203.067 133.711 204.11 131.807C205.236 129.755 206.335 127.686 207.491 125.651C207.629 125.41 207.257 125.193 207.12 125.434C206.097 127.231 205.123 129.053 204.131 130.867C203.18 132.613 202.258 134.39 201.125 136.025C200.082 137.537 198.866 138.935 197.451 140.109C195.936 141.362 194.19 142.265 192.348 142.936C188.887 144.203 185.241 144.84 181.849 146.321C178.737 147.677 175.837 149.513 173.244 151.703C170.256 154.23 167.69 157.243 165.645 160.579C165.5 160.82 165.872 161.037 166.017 160.8Z" fill="#2B7AC8"/>
<path d="M165.718 96.5238C162.884 99.1855 159.447 102.784 160.725 107.06C161.283 108.933 162.829 110.235 164.502 111.12C166.348 112.094 168.376 112.704 170.432 113.021C174.832 113.702 179.298 113.1 183.616 112.167C188.292 111.154 192.93 109.688 197.713 109.254C199.958 109.051 202.747 109.102 204.548 110.669C206.07 111.995 206.552 114.164 207.099 116.02C207.178 116.285 207.592 116.171 207.516 115.906C207.041 114.288 206.614 112.532 205.584 111.161C204.51 109.732 202.799 109.092 201.073 108.858C198.925 108.565 196.735 108.889 194.614 109.261C192.283 109.67 189.983 110.228 187.686 110.783C183.261 111.85 178.792 112.917 174.212 112.89C172.046 112.876 169.881 112.618 167.801 111.995C165.862 111.416 163.803 110.545 162.388 109.054C160.684 107.263 160.601 104.709 161.489 102.501C162.409 100.218 164.271 98.4831 166.028 96.8337C166.224 96.6409 165.921 96.3345 165.718 96.5238Z" fill="#2B7AC8"/>
<path d="M109.319 152.88C111.234 152.316 113.193 151.861 115.177 151.61C116.977 151.379 118.809 151.31 120.593 151.713C122.201 152.078 123.75 152.808 124.904 154.006C125.909 155.053 126.736 156.279 127.507 157.508C128.316 158.803 129.084 160.146 129.687 161.551C129.797 161.805 130.165 161.585 130.058 161.334C129.497 160.022 128.788 158.768 128.044 157.553C127.262 156.282 126.419 155.022 125.413 153.917C123.02 151.29 119.322 150.759 115.948 151.093C113.665 151.317 111.41 151.816 109.209 152.464C108.941 152.543 109.054 152.96 109.319 152.88Z" fill="#2B7AC8"/>
<path d="M179.562 162.691C182.475 159.898 185.936 157.688 189.699 156.221C191.552 155.498 193.473 154.954 195.429 154.602C197.409 154.248 199.423 154.11 201.417 153.848C203.559 153.566 205.714 153.177 207.704 152.302C207.956 152.192 207.739 151.82 207.488 151.93C203.748 153.573 199.554 153.463 195.594 154.137C191.703 154.802 187.943 156.228 184.576 158.283C182.661 159.454 180.878 160.831 179.256 162.384C179.06 162.58 179.363 162.883 179.562 162.691Z" fill="#2B7AC8"/>
<path d="M73.7915 164.095C76.374 164.013 78.9703 164.089 81.5562 164.102C86.6729 164.126 91.7931 164.161 96.9098 164.195C102.385 164.233 107.86 164.271 113.334 164.312C117.063 164.34 120.793 164.367 124.525 164.385C126.212 164.392 127.889 164.374 129.556 164.037C131.815 163.579 133.843 162.422 135.075 160.432C136.108 158.765 136.456 156.651 137.214 154.971C137.995 153.239 139.114 151.724 140.925 150.973C142.991 150.119 145.378 150.167 147.571 150.14C149.768 150.112 152.12 150.123 154.127 151.145C154.991 151.586 155.756 152.137 156.413 152.85C157.057 153.545 157.471 154.413 157.867 155.301C157.877 155.322 157.994 155.597 157.908 155.391C157.935 155.46 157.963 155.525 157.99 155.594C158.049 155.739 158.108 155.887 158.159 156.035C158.293 156.393 158.411 156.754 158.535 157.116C158.703 157.612 158.872 158.108 159.075 158.59C159.581 159.788 160.253 160.921 161.151 161.864C162.236 163 163.637 163.693 165.218 163.699C165.655 163.703 166.096 163.693 166.533 163.689C170.693 163.662 174.852 163.631 179.012 163.603C184.507 163.565 190.006 163.527 195.502 163.486C198.993 163.462 202.481 163.438 205.973 163.414C206.148 163.414 206.324 163.41 206.5 163.41C208.517 163.396 208.521 160.26 206.5 160.273C203.986 160.291 201.469 160.308 198.955 160.325C193.635 160.363 188.316 160.401 182.996 160.439C178.223 160.473 173.451 160.504 168.675 160.538C167.518 160.545 166.358 160.569 165.201 160.563C165.17 160.563 165.135 160.563 165.104 160.563C165.029 160.563 164.956 160.559 164.881 160.556C164.629 160.549 165.104 160.611 164.863 160.556C164.701 160.518 164.543 160.476 164.385 160.421C164.657 160.514 164.154 160.294 164.068 160.242C163.992 160.198 163.651 159.939 163.875 160.122C163.73 160.005 163.593 159.877 163.462 159.747C163.348 159.633 163.242 159.509 163.131 159.388C163.087 159.337 163.042 159.282 163 159.23C163.214 159.488 162.942 159.147 162.921 159.116C162.587 158.645 162.298 158.142 162.05 157.619C162.002 157.519 161.961 157.415 161.912 157.316C161.799 157.085 162.05 157.705 161.961 157.433C161.93 157.336 161.885 157.236 161.85 157.14C161.234 155.439 160.724 153.638 159.753 152.096C158.531 150.157 156.658 148.762 154.547 147.919C152.275 147.013 149.733 146.965 147.32 147.003C144.958 147.041 142.454 147.068 140.213 147.898C138.057 148.694 136.336 150.15 135.148 152.12C134.073 153.903 133.664 155.907 132.882 157.815C132.579 158.559 132.1 159.371 131.425 159.905C130.695 160.48 129.811 160.769 128.912 160.965C127.855 161.2 126.77 161.248 125.689 161.248C122.724 161.248 119.76 161.217 116.798 161.196C111.534 161.158 106.269 161.12 101.007 161.086C95.6014 161.048 90.1954 161.01 84.7894 160.979C81.4012 160.959 78.013 160.931 74.6283 160.945C74.3459 160.945 74.0601 160.945 73.7778 160.955C71.7772 161.021 71.7703 164.161 73.7915 164.095Z" fill="#18CDF1"/>
<path d="M231.652 115.452C231.652 116.257 230.998 116.912 230.192 116.912C229.387 116.912 228.732 116.257 228.732 115.452C228.732 114.646 229.387 113.992 230.192 113.992C230.998 113.992 231.652 114.646 231.652 115.452Z" fill="#18CDF1"/>
<path d="M187.017 74.8145C187.017 75.6202 186.363 76.2744 185.557 76.2744C184.752 76.2744 184.098 75.6202 184.098 74.8145C184.098 74.0087 184.752 73.3545 185.557 73.3545C186.367 73.3545 187.017 74.0087 187.017 74.8145Z" fill="#18CDF1"/>
<path d="M242.082 98.6034L215.913 98.5518C214.385 98.5483 213.148 97.3053 213.148 95.7765L213.248 45.2874C213.252 43.7586 214.495 42.5225 216.024 42.5225L242.193 42.5741C243.721 42.5776 244.958 43.8206 244.958 45.3494L244.858 95.8385C244.854 97.3707 243.611 98.6069 242.082 98.6034Z" fill="#26244A"/>
<path d="M243.474 47.6534L214.602 47.5972L214.519 89.8567L243.391 89.913L243.474 47.6534Z" fill="white"/>
<path d="M232.728 45.6147L225.476 45.5321C225.318 45.5286 225.19 45.4012 225.19 45.2394V45.1774C225.194 45.019 225.321 44.8916 225.483 44.8916L232.735 44.9742C232.893 44.9777 233.02 45.1051 233.02 45.2669V45.3289C233.017 45.4907 232.886 45.6181 232.728 45.6147Z" fill="#1B437A"/>
<path d="M232.008 93.9581C231.991 95.4663 230.754 96.6714 229.246 96.6542C227.738 96.637 226.533 95.4009 226.55 93.8927C226.567 92.3845 227.803 91.1794 229.312 91.1966C230.82 91.2138 232.025 92.45 232.008 93.9581Z" fill="#1B437A"/>
<path d="M239.101 77.5035L219.756 77.4656C219.34 77.4656 219.006 77.1282 219.006 76.7115L219.033 62.9246C219.033 62.2428 219.588 61.6953 220.266 61.6953L239.132 61.7332C239.548 61.7332 239.882 62.0706 239.882 62.4873L239.855 76.7528C239.855 77.166 239.517 77.5035 239.101 77.5035Z" fill="#FF8500"/>
<path d="M232.944 61.8189C232.934 67.0493 232.923 72.2797 232.913 77.51C232.913 77.7855 233.343 77.7889 233.343 77.51C233.354 72.2797 233.364 67.0493 233.374 61.8189C233.374 61.54 232.944 61.54 232.944 61.8189Z" fill="#26244A"/>
<path d="M227.458 61.7083L224.556 61.7026L224.55 64.6053L227.453 64.611L227.458 61.7083Z" fill="#18CDF1"/>
<path d="M238.401 74.5999L235.498 74.5942L235.493 77.4969L238.395 77.5026L238.401 74.5999Z" fill="#18CDF1"/>
<path d="M237.434 77.0726C238.004 73.0987 235.244 69.4154 231.27 68.8458C227.296 68.2761 223.613 71.0358 223.043 75.0097C222.474 78.9836 225.233 82.6669 229.207 83.2365C233.181 83.8062 236.864 81.0465 237.434 77.0726Z" fill="#5BC55C"/>
<path d="M226.726 76.3358C227.435 77.1243 228.144 77.9129 228.85 78.7014C229.153 79.0388 229.766 79.0285 230.069 78.7014C231.154 77.5238 232.239 76.3462 233.327 75.1685C233.482 75.0033 233.633 74.8345 233.788 74.6693C234.101 74.3284 234.125 73.7912 233.788 73.4503C233.468 73.1301 232.886 73.106 232.569 73.4503C231.484 74.6279 230.4 75.8056 229.312 76.9832C229.157 77.1484 229.005 77.3172 228.85 77.4824C229.257 77.4824 229.663 77.4824 230.069 77.4824C229.36 76.6939 228.651 75.9054 227.945 75.1169C227.635 74.7726 227.043 74.8001 226.726 75.1169C226.382 75.4612 226.416 75.9881 226.726 76.3358Z" fill="white"/>
<path d="M220.48 56.6849C225.349 56.6849 230.214 56.6849 235.083 56.6849C236.353 56.6849 237.624 56.6849 238.898 56.6849C239.173 56.6849 239.177 56.2545 238.898 56.2545C234.029 56.2545 229.164 56.2545 224.295 56.2545C223.024 56.2545 221.754 56.2545 220.48 56.2545C220.201 56.2545 220.201 56.6849 220.48 56.6849Z" fill="#26244A"/>
<path d="M226.797 54.5705C228.722 54.5705 230.647 54.5705 232.572 54.5705C232.847 54.5705 232.851 54.1401 232.572 54.1401C230.647 54.1401 228.722 54.1401 226.797 54.1401C226.522 54.1401 226.522 54.5705 226.797 54.5705Z" fill="#26244A"/>
<path d="M96.4238 57.4908C95.2462 58.6856 95.074 60.638 96.0209 62.1048C96.4824 62.8244 97.1228 63.3341 97.8321 63.6267C98.0043 63.699 98.1868 63.7438 98.3693 63.7817L101.833 64.5289C102.377 64.646 102.89 64.2224 102.877 63.6681L102.818 61.1407C102.815 60.9031 102.79 60.4451 102.763 60.0354C102.711 59.2675 102.456 58.5031 101.968 57.8936C101.964 57.8902 101.961 57.8833 101.957 57.8799C100.552 56.1307 97.9767 55.9103 96.4238 57.4908ZM100.335 61.1131C99.6192 62.0256 98.2074 61.8466 97.6634 60.7722C97.3879 60.2316 97.4465 59.5705 97.808 59.1091C98.5242 58.1967 99.936 58.3757 100.48 59.45C100.752 59.9906 100.694 60.6517 100.335 61.1131Z" fill="#18CDF1"/>
<path d="M242.877 109.336C240.718 109.581 238.959 111.402 238.714 113.647C238.594 114.746 238.821 115.782 239.3 116.653C239.417 116.867 239.562 117.06 239.713 117.246L242.588 120.816C243.039 121.378 243.9 121.371 244.341 120.799L246.341 118.21C246.531 117.965 246.882 117.487 247.188 117.053C247.763 116.237 248.128 115.266 248.132 114.253C248.132 114.247 248.132 114.24 248.132 114.229C248.135 111.33 245.728 109.013 242.877 109.336ZM243.862 116.161C242.399 116.495 241.125 115.166 241.452 113.644C241.617 112.876 242.213 112.26 242.95 112.091C244.413 111.757 245.687 113.086 245.36 114.608C245.195 115.376 244.599 115.992 243.862 116.161Z" fill="#18CDF1"/>
<path d="M124.453 32.9161C121.381 34.1109 119.508 37.4647 120.018 40.8563C120.269 42.516 121.002 43.9484 122.042 45.0399C122.294 45.3051 122.583 45.5323 122.876 45.7493L128.481 49.8743C129.363 50.5217 130.619 50.1773 131.043 49.1685L132.975 44.5923C133.157 44.1619 133.488 43.3217 133.77 42.5677C134.3 41.149 134.452 39.5789 134.07 38.0914C134.066 38.081 134.063 38.0673 134.059 38.0569C132.944 33.8045 128.509 31.3356 124.453 32.9161ZM128.543 42.5539C126.525 43.6144 124.143 42.1545 124.032 39.7958C123.977 38.6044 124.611 37.4681 125.627 36.9344C127.644 35.8739 130.027 37.3339 130.137 39.6925C130.196 40.8804 129.562 42.0202 128.543 42.5539Z" fill="#4092E2"/>
<path d="M191.793 152.499H176.409C175.992 152.499 175.654 152.161 175.654 151.744V140.953C175.654 140.271 176.205 139.72 176.887 139.72H191.793C192.21 139.72 192.547 140.058 192.547 140.475V151.744C192.547 152.161 192.21 152.499 191.793 152.499Z" fill="#FF8500"/>
<path d="M186.88 139.799C186.88 144.038 186.88 148.273 186.88 152.512C186.88 152.787 187.31 152.791 187.31 152.512C187.31 148.273 187.31 144.038 187.31 139.799C187.31 139.524 186.88 139.524 186.88 139.799Z" fill="#26244A"/>
<path d="M182.476 139.72H180.124V142.072H182.476V139.72Z" fill="#18CDF1"/>
<path d="M191.363 150.146H189.011V152.498H191.363V150.146Z" fill="#18CDF1"/>
<path d="M175.668 152.299L175.654 140.213C175.654 139.92 175.892 139.686 176.181 139.686L192.544 139.724" stroke="#26244A" stroke-miterlimit="10"/>
<path d="M199.42 175.803H170.348C169.931 175.803 169.594 175.466 169.594 175.049V153.904C169.594 153.222 170.145 152.671 170.826 152.671H199.42C199.836 152.671 200.174 153.008 200.174 153.425V175.049C200.174 175.466 199.836 175.803 199.42 175.803Z" fill="#FF8500"/>
<path d="M190.092 152.819C190.092 158.803 190.092 164.791 190.092 170.776C190.092 172.463 190.092 174.147 190.092 175.834C190.092 176.109 190.522 176.113 190.522 175.834C190.522 169.849 190.522 163.862 190.522 157.877C190.522 156.19 190.522 154.506 190.522 152.819C190.522 152.54 190.092 152.54 190.092 152.819Z" fill="#26244A"/>
<path d="M181.944 152.674H177.688V156.93H181.944V152.674Z" fill="#18CDF1"/>
<path d="M198.028 171.546H193.773V175.802H198.028V171.546Z" fill="#18CDF1"/>
<path d="M169.621 175.441L169.594 153.562C169.594 153.035 170.021 152.605 170.548 152.605L200.17 152.67" stroke="#26244A" stroke-miterlimit="10"/>
<path d="M23.1439 176.14C53.5275 176.14 83.9146 176.14 114.298 176.14C144.527 176.14 174.759 176.14 204.988 176.14C222.039 176.14 239.094 176.14 256.145 176.14C256.42 176.14 256.424 175.709 256.145 175.709C225.761 175.709 195.374 175.709 164.99 175.709C134.762 175.709 104.53 175.709 74.3009 175.709C57.2497 175.709 40.1951 175.709 23.1439 175.709C22.865 175.709 22.865 176.14 23.1439 176.14Z" fill="#26244A"/>
</g>
<defs>
<clipPath id="clip0_102_2">
<rect width="279" height="198" rx="10" fill="white"/>
</clipPath>
</defs>
</svg>
