<svg width="140" height="46" viewBox="0 0 140 46" fill="none" xmlns="http://www.w3.org/2000/svg">
<rect x="0.5" y="0.5" width="138.227" height="44.9072" rx="5.5" fill="white" stroke="#F1F1F1"/>
<path d="M13.5826 10.8432C13.276 11.2111 13.1212 11.6821 13.1499 12.1602V32.969C13.1212 33.447 13.276 33.9181 13.5826 34.286L13.6484 34.3518L25.304 22.7057V22.4329L13.6484 10.7773L13.5826 10.8432Z" fill="url(#paint0_linear_66_29296)"/>
<path d="M29.1616 26.5907L25.3047 22.7055V22.4327L29.1616 18.5381L29.2463 18.5851L33.8653 21.2097C35.1823 21.9529 35.1823 23.1758 33.8653 23.9284L29.2651 26.5436L29.1616 26.5907Z" fill="url(#paint1_linear_66_29296)"/>
<path d="M29.2752 26.5343L25.3054 22.5645L13.584 34.2858C14.1378 34.7727 14.9597 34.7964 15.5407 34.3423L29.2847 26.5343" fill="url(#paint2_linear_66_29296)"/>
<path d="M29.2749 18.5942L15.5309 10.7862C14.95 10.3321 14.128 10.3558 13.5742 10.8427L25.3051 22.564L29.2749 18.5942Z" fill="url(#paint3_linear_66_29296)"/>
<path opacity="0.2" d="M29.1624 26.4492L15.5313 34.2102C14.9735 34.6273 14.2076 34.6273 13.6498 34.2102L13.584 34.276L13.6498 34.3419C14.2066 34.762 14.9745 34.762 15.5313 34.3419L29.2752 26.5339L29.1624 26.4492Z" fill="black"/>
<path opacity="0.12" fill-rule="evenodd" clip-rule="evenodd" d="M29.161 26.4496L33.8646 23.7874C34.3507 23.5475 34.6982 23.0958 34.8053 22.5645C34.7569 23.1518 34.3981 23.6685 33.8646 23.9191L29.2457 26.5343L29.161 26.4496ZM13.1478 33.0202C13.1633 33.4341 13.3152 33.8332 13.5826 34.1541L13.6484 34.2293L13.5826 34.2952C13.285 33.938 13.1304 33.4837 13.1478 33.0202ZM13.1478 33.0202C13.1483 33.0062 13.149 32.9922 13.1499 32.9782V32.8371C13.1462 32.8982 13.1455 32.9594 13.1478 33.0202Z" fill="black"/>
<path opacity="0.25" d="M15.5301 10.9185L33.8647 21.3417C34.3508 21.5816 34.6982 22.0333 34.8054 22.5646C34.757 21.9773 34.3981 21.4606 33.8647 21.21L15.5301 10.7868C14.213 10.0436 13.1406 10.6645 13.1406 12.1697V12.3108C13.1688 10.7962 14.2225 10.1753 15.5301 10.9185Z" fill="black"/>
<g clip-path="url(#clip0_66_29296)">
<path fill-rule="evenodd" clip-rule="evenodd" d="M52.8779 26.1371V27.8304H56.9419C56.8782 28.6279 56.5466 29.3805 56.0011 29.9659C55.179 30.8034 54.0412 31.2544 52.8685 31.2076C50.3747 31.2076 48.3531 29.186 48.3531 26.6922C48.3531 24.1983 50.3747 22.1767 52.8685 22.1767C54.0142 22.158 55.1204 22.5944 55.9447 23.3902L57.1394 22.1955C56.0152 21.0571 54.4778 20.4225 52.8779 20.4364C50.6004 20.3477 48.4569 21.5122 47.2918 23.4712C46.1267 25.4301 46.1267 27.8695 47.2918 29.8285C48.4569 31.7874 50.6004 32.952 52.8779 32.8633C54.507 32.9369 56.0884 32.3023 57.2147 31.123C58.2002 30.0401 58.7264 28.6167 58.6822 27.1531C58.6853 26.7966 58.6537 26.4406 58.5881 26.0901L52.8779 26.1371ZM63.3105 24.9047C61.1037 24.9099 59.3184 26.7022 59.3219 28.909C59.3253 31.1159 61.1162 32.9025 63.3231 32.9009C65.5299 32.8991 67.318 31.1096 67.318 28.9028C67.3335 27.8345 66.9146 26.8056 66.1574 26.0519C65.4001 25.2982 64.3693 24.8842 63.3011 24.9047H63.3105ZM68.0895 28.9153C68.0826 26.7096 69.8632 24.9151 72.0687 24.9047C73.1369 24.8842 74.1677 25.2982 74.925 26.0519C75.6822 26.8056 76.1011 27.8345 76.0856 28.9028C76.0856 31.1084 74.2994 32.8973 72.0938 32.9008C69.8881 32.9042 68.0964 31.1209 68.0895 28.9153ZM69.7092 29.955C70.1388 30.8541 71.0744 31.3994 72.0685 31.3299C72.6925 31.3154 73.2841 31.0495 73.7093 30.5925C74.1344 30.1355 74.3569 29.5262 74.3262 28.9028C74.3238 27.9062 73.7124 27.0125 72.7846 26.6489C71.8567 26.2854 70.8009 26.526 70.1221 27.2556C69.4434 27.9853 69.2796 29.0557 69.7092 29.955ZM60.945 29.9622C61.3776 30.8608 62.3159 31.4033 63.3105 31.3299H63.3011C63.9251 31.3154 64.5168 31.0495 64.9419 30.5926C65.367 30.1355 65.5895 29.5262 65.5589 28.9028C65.5562 27.9055 64.9436 27.0113 64.0146 26.6486C63.0855 26.2858 62.0291 26.5284 61.3514 27.26C60.6736 27.9917 60.5124 29.0635 60.945 29.9622ZM92.0779 24.9049C93.6375 24.9623 94.9998 25.9766 95.5021 27.4543L95.6997 27.8776L90.347 30.0883C90.6825 30.8523 91.451 31.3336 92.2848 31.3018C93.0899 31.3038 93.8368 30.8822 94.2509 30.1917L95.615 31.1325C94.8724 32.2439 93.6215 32.9082 92.2848 32.901C91.2224 32.9166 90.1992 32.4994 89.4505 31.7454C88.7018 30.9914 88.2919 29.9654 88.315 28.9029C88.25 27.8649 88.6175 26.8462 89.3304 26.0888C90.0432 25.3314 91.0378 24.9029 92.0779 24.9049ZM90.0458 28.7899C90.0074 28.2021 90.2071 27.6236 90.5999 27.1847C90.9928 26.7458 91.5458 26.4835 92.1343 26.4569C92.7545 26.416 93.3394 26.7492 93.6206 27.3036L90.0458 28.7899ZM87.4589 32.6658H85.6998V20.9068H87.4589V32.6658ZM82.8213 25.7985H82.7554C82.2191 25.199 81.4525 24.8568 80.6482 24.8578C78.5128 24.9614 76.8348 26.7228 76.8348 28.8606C76.8348 30.9984 78.5128 32.7598 80.6482 32.8634C81.4551 32.8769 82.2267 32.5325 82.7554 31.9227H82.8119V32.4965C82.8119 34.0299 81.9934 34.8483 80.6764 34.8483C79.7792 34.8273 78.9838 34.266 78.6633 33.4278L77.1299 34.0675C77.7204 35.5038 79.1235 36.438 80.6764 36.4287C82.7366 36.4287 84.4393 35.2152 84.4393 32.2613V25.14H82.8213V25.7985ZM80.805 31.3297L80.8079 31.3299H80.7985L80.805 31.3297ZM82.3902 30.5753C81.9864 31.0321 81.4139 31.3045 80.805 31.3297C79.5485 31.2175 78.5853 30.1646 78.5853 28.9029C78.5853 27.6402 79.55 26.5867 80.8079 26.4758C81.4157 26.507 81.9852 26.7823 82.3872 27.2392C82.7893 27.6961 82.9898 28.2961 82.9433 28.9029C82.9952 29.5125 82.7953 30.1168 82.3902 30.5753ZM103.743 20.9066H99.5377V32.6657H101.297V28.2067H103.752C105.119 28.3048 106.426 27.6314 107.139 26.4616C107.852 25.2917 107.852 23.8215 107.139 22.6517C106.426 21.4819 105.119 20.8084 103.752 20.9066H103.743ZM101.288 26.5511H103.743L103.78 26.5794C104.895 26.5794 105.798 25.6759 105.798 24.5615C105.798 23.4471 104.895 22.5437 103.78 22.5437H101.288V26.5511ZM114.589 24.8577C113.28 24.7795 112.05 25.4853 111.457 26.6545L113.018 27.3036C113.333 26.7238 113.96 26.3844 114.618 26.4381C115.069 26.3855 115.522 26.5162 115.876 26.801C116.23 27.0858 116.454 27.5008 116.499 27.9527V28.075C115.934 27.7759 115.304 27.6208 114.665 27.6235C112.981 27.6235 111.278 28.5642 111.278 30.2669C111.312 31.0004 111.64 31.6891 112.19 32.1764C112.739 32.6636 113.462 32.908 114.194 32.8539C115.097 32.9187 115.962 32.4858 116.452 31.725H116.508V32.6658H118.202V28.1409C118.202 26.0807 116.64 24.886 114.636 24.886L114.589 24.8577ZM113 30.3046C113 31.0102 113.799 31.3018 114.373 31.3018L114.42 31.33C115.48 31.3041 116.359 30.5016 116.48 29.4486C115.992 29.1761 115.44 29.0396 114.881 29.0535C113.997 29.0535 113 29.3639 113 30.3046ZM124.373 25.1401L122.36 30.2388H122.303L120.215 25.1401H118.333L121.466 32.2707L119.679 36.2312H121.513L126.33 25.1401H124.373ZM110.318 32.6658H108.559V20.9068H110.318V32.6658Z" fill="black"/>
</g>
<path d="M49.1948 16.0794C48.8697 16.0794 48.5707 16.0272 48.2978 15.9229C48.0248 15.8145 47.788 15.664 47.5873 15.4713C47.3866 15.2747 47.2301 15.0459 47.1177 14.785C47.0053 14.5241 46.9491 14.2371 46.9491 13.924C46.9491 13.611 47.0053 13.324 47.1177 13.0631C47.2301 12.8022 47.3866 12.5754 47.5873 12.3828C47.792 12.1861 48.0309 12.0356 48.3038 11.9312C48.5767 11.8228 48.8778 11.7687 49.2069 11.7687C49.54 11.7687 49.8451 11.8228 50.122 11.9312C50.399 12.0396 50.6338 12.2021 50.8264 12.4189L50.4531 12.7922C50.2806 12.6236 50.0919 12.5012 49.8872 12.4249C49.6865 12.3446 49.4678 12.3045 49.231 12.3045C48.9901 12.3045 48.7654 12.3446 48.5567 12.4249C48.352 12.5052 48.1733 12.6176 48.0208 12.7621C47.8723 12.9065 47.7559 13.0791 47.6716 13.2798C47.5913 13.4765 47.5512 13.6912 47.5512 13.924C47.5512 14.1528 47.5913 14.3676 47.6716 14.5682C47.7559 14.7649 47.8723 14.9375 48.0208 15.086C48.1733 15.2305 48.352 15.3429 48.5567 15.4232C48.7614 15.5034 48.9841 15.5436 49.2249 15.5436C49.4497 15.5436 49.6644 15.5095 49.8691 15.4412C50.0779 15.369 50.2705 15.2506 50.4471 15.086L50.7903 15.5436C50.5816 15.7202 50.3367 15.8546 50.0558 15.947C49.7788 16.0353 49.4919 16.0794 49.1948 16.0794ZM50.2123 15.4653V13.9H50.7903V15.5436L50.2123 15.4653ZM52.4909 13.635H54.6583V14.1468H52.4909V13.635ZM52.5451 15.5075H55.0015V16.0312H51.943V11.8168H54.9172V12.3406H52.5451V15.5075ZM56.8132 16.0312V12.3406H55.3683V11.8168H58.8542V12.3406H57.4093V16.0312H56.8132ZM61.1268 16.0312V11.8168H61.7289V16.0312H61.1268ZM63.8275 16.0312V12.3406H62.3825V11.8168H65.8685V12.3406H64.4235V16.0312H63.8275ZM70.0436 16.0794C69.7225 16.0794 69.4235 16.0252 69.1465 15.9169C68.8736 15.8085 68.6368 15.658 68.4361 15.4653C68.2354 15.2686 68.0789 15.0399 67.9665 14.779C67.8541 14.5181 67.7979 14.2331 67.7979 13.924C67.7979 13.615 67.8541 13.33 67.9665 13.0691C68.0789 12.8082 68.2354 12.5814 68.4361 12.3888C68.6368 12.1921 68.8736 12.0396 69.1465 11.9312C69.4194 11.8228 69.7185 11.7687 70.0436 11.7687C70.3647 11.7687 70.6597 11.8228 70.9286 11.9312C71.2015 12.0356 71.4384 12.1861 71.639 12.3828C71.8437 12.5754 72.0003 12.8022 72.1087 13.0631C72.221 13.324 72.2772 13.611 72.2772 13.924C72.2772 14.2371 72.221 14.5241 72.1087 14.785C72.0003 15.0459 71.8437 15.2747 71.639 15.4713C71.4384 15.664 71.2015 15.8145 70.9286 15.9229C70.6597 16.0272 70.3647 16.0794 70.0436 16.0794ZM70.0436 15.5436C70.2764 15.5436 70.4911 15.5034 70.6878 15.4232C70.8885 15.3429 71.0611 15.2305 71.2056 15.086C71.3541 14.9375 71.4685 14.7649 71.5487 14.5682C71.633 14.3716 71.6752 14.1568 71.6752 13.924C71.6752 13.6912 71.633 13.4765 71.5487 13.2798C71.4685 13.0832 71.3541 12.9126 71.2056 12.7681C71.0611 12.6196 70.8885 12.5052 70.6878 12.4249C70.4911 12.3446 70.2764 12.3045 70.0436 12.3045C69.8068 12.3045 69.588 12.3446 69.3873 12.4249C69.1907 12.5052 69.0181 12.6196 68.8696 12.7681C68.7211 12.9126 68.6047 13.0832 68.5204 13.2798C68.4401 13.4765 68.4 13.6912 68.4 13.924C68.4 14.1568 68.4401 14.3716 68.5204 14.5682C68.6047 14.7649 68.7211 14.9375 68.8696 15.086C69.0181 15.2305 69.1907 15.3429 69.3873 15.4232C69.588 15.5034 69.8068 15.5436 70.0436 15.5436ZM73.1974 16.0312V11.8168H73.6911L76.4787 15.2787H76.2198V11.8168H76.8219V16.0312H76.3282L73.5406 12.5694H73.7995V16.0312H73.1974Z" fill="black"/>
<defs>
<linearGradient id="paint0_linear_66_29296" x1="20.1989" y1="-3.36072" x2="1.53554" y2="1.60283" gradientUnits="userSpaceOnUse">
<stop stop-color="#00A0FF"/>
<stop offset="0.01" stop-color="#00A1FF"/>
<stop offset="0.26" stop-color="#00BEFF"/>
<stop offset="0.51" stop-color="#00D2FF"/>
<stop offset="0.76" stop-color="#00DFFF"/>
<stop offset="1" stop-color="#00E3FF"/>
</linearGradient>
<linearGradient id="paint1_linear_66_29296" x1="35.5868" y1="12.9687" x2="12.8307" y2="12.9687" gradientUnits="userSpaceOnUse">
<stop stop-color="#FFE000"/>
<stop offset="0.41" stop-color="#FFBD00"/>
<stop offset="0.78" stop-color="#FFA500"/>
<stop offset="1" stop-color="#FF9C00"/>
</linearGradient>
<linearGradient id="paint2_linear_66_29296" x1="13.2396" y1="16.4757" x2="-1.75216" y2="41.6932" gradientUnits="userSpaceOnUse">
<stop stop-color="#FF3A44"/>
<stop offset="1" stop-color="#C31162"/>
</linearGradient>
<linearGradient id="paint3_linear_66_29296" x1="4.43044" y1="7.60281" x2="11.122" y2="18.8637" gradientUnits="userSpaceOnUse">
<stop stop-color="#32A071"/>
<stop offset="0.07" stop-color="#2DA771"/>
<stop offset="0.48" stop-color="#15CF74"/>
<stop offset="0.8" stop-color="#06E775"/>
<stop offset="1" stop-color="#00F076"/>
</linearGradient>
<clipPath id="clip0_66_29296">
<rect width="80.5258" height="16.5567" fill="white" transform="translate(45.9062 20.3193)"/>
</clipPath>
</defs>
</svg>
