<svg width="40" height="40" viewBox="0 0 40 40" fill="none" xmlns="http://www.w3.org/2000/svg">
<g clip-path="url(#clip0_670_611)">
<path d="M33.5 -1H5.5C2.46243 -1 0 1.46243 0 4.5V32.5C0 35.5376 2.46243 38 5.5 38H33.5C36.5376 38 39 35.5376 39 32.5V4.5C39 1.46243 36.5376 -1 33.5 -1Z" stroke="url(#paint0_linear_670_611)"/>
<g clip-path="url(#clip1_670_611)">
<path d="M17.1854 10.6768C17.6469 8.77442 20.3531 8.77442 20.8146 10.6768C20.8838 10.9625 21.0196 11.2279 21.2108 11.4513C21.402 11.6747 21.6432 11.8498 21.9149 11.9624C22.1865 12.0749 22.4809 12.1218 22.7741 12.099C23.0673 12.0763 23.3509 11.9847 23.602 11.8316C25.2736 10.8132 27.1878 12.7264 26.1695 14.3991C26.0166 14.65 25.9252 14.9335 25.9025 15.2265C25.8798 15.5195 25.9266 15.8137 26.039 16.0852C26.1514 16.3567 26.3263 16.5978 26.5495 16.789C26.7726 16.9802 27.0377 17.116 27.3233 17.1854C29.2256 17.6469 29.2256 20.3531 27.3233 20.8146C27.0375 20.8838 26.7721 21.0196 26.5487 21.2108C26.3253 21.402 26.1502 21.6432 26.0376 21.9149C25.9251 22.1865 25.8782 22.4809 25.901 22.7741C25.9237 23.0673 26.0153 23.3509 26.1684 23.602C27.1868 25.2736 25.2736 27.1878 23.6009 26.1695C23.35 26.0166 23.0665 25.9252 22.7735 25.9025C22.4805 25.8798 22.1863 25.9266 21.9148 26.039C21.6433 26.1514 21.4022 26.3263 21.211 26.5495C21.0198 26.7726 20.884 27.0377 20.8146 27.3233C20.3531 29.2256 17.6469 29.2256 17.1854 27.3233C17.1162 27.0375 16.9804 26.7721 16.7892 26.5487C16.598 26.3253 16.3568 26.1502 16.0851 26.0376C15.8135 25.9251 15.5191 25.8782 15.2259 25.901C14.9327 25.9237 14.6491 26.0153 14.398 26.1684C12.7264 27.1868 10.8122 25.2736 11.8305 23.6009C11.9834 23.35 12.0748 23.0665 12.0975 22.7735C12.1202 22.4805 12.0734 22.1863 11.961 21.9148C11.8486 21.6433 11.6737 21.4022 11.4505 21.211C11.2274 21.0198 10.9623 20.884 10.6768 20.8146C8.77442 20.3531 8.77442 17.6469 10.6768 17.1854C10.9625 17.1162 11.2279 16.9804 11.4513 16.7892C11.6747 16.598 11.8498 16.3568 11.9624 16.0851C12.0749 15.8135 12.1218 15.5191 12.099 15.2259C12.0763 14.9327 11.9847 14.6491 11.8316 14.398C10.8132 12.7264 12.7264 10.8122 14.3991 11.8305C15.4824 12.4892 16.8864 11.9063 17.1854 10.6768Z" stroke="#8E8E8E" stroke-width="1.2" stroke-linecap="round" stroke-linejoin="round"/>
<path d="M15.75 19C15.75 19.862 16.0924 20.6886 16.7019 21.2981C17.3114 21.9076 18.138 22.25 19 22.25C19.862 22.25 20.6886 21.9076 21.2981 21.2981C21.9076 20.6886 22.25 19.862 22.25 19C22.25 18.138 21.9076 17.3114 21.2981 16.7019C20.6886 16.0924 19.862 15.75 19 15.75C18.138 15.75 17.3114 16.0924 16.7019 16.7019C16.0924 17.3114 15.75 18.138 15.75 19Z" stroke="#8E8E8E" stroke-width="1.2" stroke-linecap="round" stroke-linejoin="round"/>
</g>
</g>
<defs>
<linearGradient id="paint0_linear_670_611" x1="15.5" y1="-1.5" x2="29" y2="50.5" gradientUnits="userSpaceOnUse">
<stop stop-color="white"/>
<stop offset="1" stop-color="#D0D0D0"/>
</linearGradient>
<clipPath id="clip0_670_611">
<rect width="40" height="40" fill="white"/>
</clipPath>
<clipPath id="clip1_670_611">
<rect width="26" height="26" fill="white" transform="translate(6 6)"/>
</clipPath>
</defs>
</svg>
