<svg width="138" height="50" viewBox="0 0 138 50" fill="none" xmlns="http://www.w3.org/2000/svg">
<path fill-rule="evenodd" clip-rule="evenodd" d="M6.09789 25.377C6.9719 25.377 7.76271 25.7356 8.33052 26.3131L8.91963 25.7343C8.20205 25.0037 7.20289 24.5506 6.09789 24.5506C4.99022 24.5506 3.98906 25.0064 3.27081 25.7396L3.86126 26.3178C4.42907 25.7369 5.22121 25.377 6.09789 25.377ZM6.09789 28.5081L5.14998 27.5799C5.39095 27.3337 5.72645 27.1807 6.09789 27.1807C6.468 27.1807 6.80349 27.3331 7.04379 27.5779L6.09789 28.5081ZM4.76789 27.2053L4.25466 26.703C4.72262 26.2246 5.37564 25.9279 6.09789 25.9279C6.81813 25.9279 7.46982 26.2233 7.93778 26.6997L7.42589 27.2027C7.08773 26.8587 6.61777 26.6458 6.09789 26.6458C5.57667 26.6458 5.10538 26.86 4.76789 27.2053ZM2.89338 25.3696L2.3522 24.8394C3.30409 23.868 4.6301 23.2652 6.09789 23.2652C7.56168 23.2652 8.88569 23.8653 9.83692 24.8327L9.2964 25.3637C8.48296 24.536 7.35 24.0223 6.09789 24.0223C4.84244 24.0223 3.70749 24.5386 2.89338 25.3696Z" fill="#006DB7"/>
<path fill-rule="evenodd" clip-rule="evenodd" d="M2.56247 29.1273H9.56459C4.54549 41.8233 3.67746 49.2558 8.75847 49.0695C-2.41004 49.7202 -0.963549 38.8625 2.56247 29.1273Z" fill="#006DB7"/>
<path fill-rule="evenodd" clip-rule="evenodd" d="M9.00668 9.68053C15.3891 -0.724056 25.7368 -1.77729 33.1104 2.00051C41.2894 6.21211 43.8302 15.9361 41.7853 24.4823C39.988 32.2861 34.8451 39.4086 28.2151 43.9914C24.1878 46.7167 19.632 48.545 14.6748 49.3501C18.3925 48.235 21.7089 45.9116 24.3116 43.0626C25.9225 41.3281 27.3477 39.3467 28.4634 37.3028C32.243 32.2242 33.9777 27.2695 34.1015 22.9341C34.3498 17.1124 31.809 11.3525 26.4804 8.68984C21.8327 6.33587 15.5748 6.46029 9.00668 9.68053Z" fill="#F16127"/>
<path fill-rule="evenodd" clip-rule="evenodd" d="M4.17347 21.3859C9.3783 11.105 20.0982 10.3619 26.418 14.821C28.9588 16.6167 30.5697 19.1563 31.3133 22.1909C32.1806 25.9687 31.5609 29.9328 30.1364 33.6488C28.8969 36.9928 26.852 40.3374 24.3118 43.0627C20.7179 47.0261 15.575 50.0607 10.0599 49.9988C7.95311 49.9988 5.84629 49.5031 3.80137 48.3268C6.40411 49.5657 10.432 49.1319 12.9103 48.1412C17.0002 46.4685 20.2839 43.0008 22.3288 39.1604C24.869 34.4538 26.852 26.8976 22.8247 22.5629C19.1689 18.5369 11.8572 17.1743 4.17347 21.3859Z" fill="#00A14B"/>
<path d="M49.2357 18.6094H53.0686C54.9934 18.6094 56.3473 19.1598 57.1315 20.2557C57.9122 21.3529 58.1136 22.7669 57.7346 24.5001C57.3448 26.2858 56.4998 27.7677 55.1996 28.9447C53.8993 30.124 52.4774 30.7125 50.9352 30.7125H44.9833L49.2357 18.6094ZM50.9734 20.6381L48.1499 28.6933H50.4442C51.6503 28.6933 52.6777 28.2966 53.5274 27.5045C54.3808 26.7087 54.9397 25.6973 55.2079 24.4668C55.4558 23.3351 55.308 22.4119 54.7634 21.7031C54.2199 20.9931 53.3499 20.6381 52.1545 20.6381H50.9734ZM61.0121 20.4225C61.0872 20.0794 61.2671 19.7888 61.5496 19.547C61.8344 19.3039 62.1372 19.1836 62.4637 19.1836C62.7939 19.1836 63.0465 19.3039 63.2277 19.547C63.4053 19.7888 63.4577 20.0794 63.3826 20.4225C63.3075 20.768 63.1276 21.061 62.8439 21.3028C62.5567 21.5459 62.2516 21.6662 61.9214 21.6662C61.5949 21.6662 61.3446 21.5459 61.167 21.3028C60.9894 21.061 60.937 20.768 61.0121 20.4225ZM62.5877 22.6549L59.7464 30.7125H57.4604L60.3018 22.6549H62.5877ZM71.6801 22.6549L71.0782 24.431H69.8411C69.94 24.8539 69.9436 25.278 69.8495 25.7057C69.6695 26.5312 69.2297 27.2293 68.5253 27.7963C67.8234 28.3681 66.9807 28.6516 65.9939 28.6516C65.4945 28.6516 65.131 28.6754 64.9093 28.7255C64.6877 28.7731 64.5542 28.8934 64.5137 29.0829C64.491 29.1865 64.5411 29.2782 64.6591 29.3545C64.7806 29.4355 65.3146 29.5558 66.2621 29.7214C67.2072 29.8846 67.8472 30.1776 68.1785 30.6005C68.5122 31.0198 68.6088 31.5428 68.4729 32.167C68.0903 33.9181 66.5803 34.7925 63.9428 34.7925C62.7331 34.7925 61.8595 34.6126 61.3231 34.254C60.7868 33.8967 60.5878 33.4154 60.7201 32.8091C60.8929 32.0169 61.6569 31.4129 63.012 30.9996C62.3827 30.6291 62.1384 30.1323 62.2754 29.5081C62.4387 28.7576 63.0632 28.2609 64.1502 28.0179C63.3802 27.4687 63.1037 26.6932 63.323 25.6878C63.5006 24.8778 63.9702 24.1714 64.7365 23.565C65.5005 22.9587 66.3848 22.6549 67.3883 22.6549H71.6801ZM66.1643 27.1614C67.001 27.1614 67.5445 26.5836 67.7971 25.4281C67.8746 25.0707 67.84 24.7896 67.697 24.5823C67.5528 24.3786 67.3133 24.275 66.9831 24.275C66.1465 24.275 65.6006 24.8635 65.3432 26.0428C65.1799 26.7885 65.454 27.1614 66.1643 27.1614ZM66.2716 32.4898C66.3538 32.1146 66.0499 31.8513 65.3622 31.7L64.4135 31.4749C64.1954 31.4749 63.8915 31.5523 63.5006 31.7024C63.1073 31.8561 62.8737 32.0967 62.8034 32.4183C62.6818 32.9746 63.186 33.2498 64.3134 33.2498C64.9475 33.2498 65.4159 33.1938 65.7234 33.0783C66.0273 32.9627 66.2108 32.765 66.2716 32.4898ZM73.6955 20.4225C73.7706 20.0794 73.9493 19.7888 74.233 19.547C74.5166 19.3039 74.8194 19.1836 75.1471 19.1836C75.4772 19.1836 75.7299 19.3039 75.9099 19.547C76.0886 19.7888 76.1411 20.0794 76.066 20.4225C75.9897 20.768 75.811 21.061 75.5261 21.3028C75.2401 21.5459 74.9338 21.6662 74.6048 21.6662C74.2783 21.6662 74.028 21.5459 73.8492 21.3028C73.6716 21.061 73.6204 20.768 73.6955 20.4225ZM75.2711 22.6549L72.4286 30.7125H70.1426L72.9851 22.6549H75.2711ZM80.8619 20.9574L80.1694 22.6549H81.8606L81.1682 24.431H79.483L78.4675 27.0399C78.3817 27.2638 78.3174 27.4711 78.2756 27.6641C78.1207 28.3729 78.2709 28.7279 78.7285 28.7279C79.0038 28.7279 79.4782 28.5659 80.1551 28.243L79.6939 30.3575C78.9454 30.697 78.2542 30.8685 77.6142 30.8685C76.8741 30.8685 76.3413 30.6207 76.0243 30.1264C75.7037 29.6332 75.631 28.9947 75.8026 28.2073C75.8562 27.9655 75.9301 27.7284 76.0231 27.4985L77.2304 24.431H75.6775L76.3532 22.6549H77.9062L78.5498 20.9574H80.8619ZM90.7659 22.7847L87.9699 30.7125H85.69L85.9534 29.9668C85.1072 30.5671 84.3027 30.8685 83.5423 30.8685C82.7664 30.8685 82.1955 30.5433 81.8261 29.8989C81.4602 29.252 81.3839 28.4229 81.6056 27.4127C81.9202 25.9666 82.6592 24.792 83.8188 23.8819C84.9761 22.9706 86.4504 22.5179 88.2405 22.5179C89.1308 22.5179 89.9734 22.6073 90.7659 22.7847ZM86.5159 28.3729L87.865 24.5359C87.6994 24.518 87.5349 24.5085 87.3776 24.5085C86.4611 24.5085 85.7102 24.7979 85.1179 25.3805C84.5268 25.9606 84.1358 26.6789 83.9487 27.5342C83.8426 28.0179 83.8593 28.3967 83.9988 28.6719C84.1358 28.947 84.3802 29.0829 84.727 29.0829C85.2764 29.0829 85.8723 28.847 86.5159 28.3729ZM96.65 18.6094L92.3809 30.7125H90.1009L94.3641 18.6094H96.65ZM106.132 18.6094L101.863 30.7125H99.4102L103.679 18.6094H106.132ZM109.386 22.6549L109.054 23.565C110.062 22.8669 111.008 22.5179 111.902 22.5179C112.573 22.5179 113.041 22.7347 113.303 23.1719C113.567 23.6067 113.61 24.219 113.439 25.0028C113.389 25.2328 113.319 25.4758 113.232 25.7295L111.482 30.7125H109.196L110.889 25.9046C110.942 25.7652 110.983 25.6259 111.014 25.4877C111.187 24.6919 111.038 24.2929 110.565 24.2929C110.02 24.2929 109.287 24.7062 108.369 25.5318L106.544 30.7125H104.257L107.106 22.6549H109.386ZM124.993 18.6094L120.772 30.6088C119.759 30.7804 118.861 30.8685 118.071 30.8685C116.713 30.8685 115.71 30.5207 115.059 29.819C114.412 29.121 114.216 28.1847 114.474 27.0041C114.744 25.7617 115.407 24.7038 116.46 23.8283C117.512 22.9539 118.764 22.5179 120.219 22.5179C120.453 22.5179 120.819 22.5453 121.314 22.6049L122.716 18.6094H124.993ZM119.111 28.8315L120.585 24.6479C120.395 24.6181 120.206 24.6062 120.017 24.6062C119.202 24.6062 118.507 24.8361 117.926 25.3007C117.345 25.7688 116.981 26.3394 116.831 27.022C116.705 27.6045 116.787 28.0655 117.078 28.4086C117.37 28.7493 117.831 28.9208 118.465 28.9208C118.63 28.9208 118.844 28.8911 119.111 28.8315ZM126.292 20.4225C126.366 20.0794 126.546 19.7888 126.829 19.547C127.113 19.3039 127.416 19.1836 127.742 19.1836C128.072 19.1836 128.325 19.3039 128.506 19.547C128.685 19.7888 128.736 20.0794 128.661 20.4225C128.586 20.768 128.406 21.061 128.122 21.3028C127.835 21.5459 127.53 21.6662 127.2 21.6662C126.873 21.6662 126.623 21.5459 126.446 21.3028C126.268 21.061 126.216 20.768 126.292 20.4225ZM127.867 22.6549L125.025 30.7125H122.739L125.581 22.6549H127.867ZM137.187 22.7847L134.39 30.7125H132.11L132.375 29.9668C131.527 30.5671 130.723 30.8685 129.961 30.8685C129.187 30.8685 128.616 30.5433 128.246 29.8989C127.881 29.252 127.804 28.4229 128.026 27.4127C128.342 25.9666 129.079 24.792 130.24 23.8819C131.396 22.9706 132.871 22.5179 134.661 22.5179C135.551 22.5179 136.395 22.6073 137.187 22.7847ZM132.937 28.3729L134.285 24.5359C134.12 24.518 133.955 24.5085 133.798 24.5085C132.881 24.5085 132.131 24.7979 131.538 25.3805C130.947 25.9606 130.556 26.6789 130.369 27.5342C130.263 28.0179 130.28 28.3967 130.42 28.6719C130.557 28.947 130.8 29.0829 131.147 29.0829C131.697 29.0829 132.293 28.847 132.937 28.3729Z" fill="#5C6266"/>
<path fill-rule="evenodd" clip-rule="evenodd" d="M45.9476 39.7122V42.7939H45.1706V35.494H47.0978C47.7699 35.494 48.4731 35.6215 49.0118 36.0503C49.5076 36.4446 49.7198 36.9819 49.7198 37.6085C49.7198 38.2339 49.5052 38.7675 49.0118 39.1607C48.4731 39.5859 47.7676 39.7122 47.0978 39.7122H45.9476ZM45.9476 38.9808H47.2575C47.6817 38.9808 48.137 38.9022 48.4684 38.6174C48.7735 38.3589 48.8843 38.0016 48.8843 37.6085C48.8843 37.2118 48.7735 36.8544 48.4684 36.59C48.1358 36.3064 47.6817 36.2266 47.2575 36.2266H45.9476V38.9808Z" fill="#5C6266"/>
<path fill-rule="evenodd" clip-rule="evenodd" d="M52.8482 42.8169C52.1319 42.8169 51.4991 42.5917 50.9961 42.0759C50.486 41.553 50.2751 40.9026 50.2751 40.1807C50.2751 39.4564 50.486 38.8024 50.9961 38.2794C51.4979 37.7613 52.1307 37.5349 52.8482 37.5349C53.5657 37.5349 54.1974 37.7613 54.7003 38.2794C55.2092 38.8024 55.4214 39.4564 55.4214 40.1807C55.4214 40.9026 55.2092 41.553 54.7003 42.0759C54.1974 42.5917 53.5645 42.8169 52.8482 42.8169ZM52.8482 42.0962C53.3583 42.0962 53.7814 41.9068 54.1318 41.5387C54.4953 41.1575 54.6681 40.706 54.6681 40.1807C54.6681 39.6541 54.4965 39.1979 54.1318 38.8155C53.7814 38.4462 53.3583 38.2556 52.8482 38.2556C52.3381 38.2556 51.915 38.4462 51.5634 38.8155C51.1999 39.1979 51.0283 39.6541 51.0283 40.1807C51.0283 40.706 51.1999 41.1575 51.5634 41.5387C51.915 41.9068 52.3381 42.0962 52.8482 42.0962Z" fill="#5C6266"/>
<path fill-rule="evenodd" clip-rule="evenodd" d="M58.4879 41.5021L59.9383 37.4328H60.4103L61.8738 41.4926L63.4029 37.5079H64.1347L62.0752 42.8018H61.6069L60.1564 38.829L58.7095 42.8018H58.2411L56.1817 37.5079H56.9587L58.4879 41.5021Z" fill="#5C6266"/>
<path fill-rule="evenodd" clip-rule="evenodd" d="M65.485 40.1637C65.485 40.6891 65.6709 41.1322 66.0428 41.5015C66.417 41.8744 66.8639 42.0566 67.3907 42.0566C67.6994 42.0566 68.0045 42.009 68.2953 41.9006C68.6016 41.7874 68.8829 41.6075 69.1367 41.4026L69.3167 41.2573V42.0781L69.2774 42.1114C69.0045 42.3378 68.7017 42.5296 68.368 42.6534C68.0474 42.7726 67.7113 42.8262 67.3693 42.8262C66.6411 42.8262 65.9915 42.6046 65.4731 42.0864C64.9546 41.567 64.733 40.919 64.733 40.19C64.733 39.4907 64.9082 38.8284 65.3706 38.2935C65.802 37.7896 66.3598 37.5442 67.0225 37.5442C67.6815 37.5442 68.2858 37.7348 68.722 38.2447C69.157 38.7402 69.2965 39.4085 69.3119 40.0506L69.3143 40.1637H65.485ZM68.4955 39.5312C68.4383 39.2524 68.3323 38.988 68.1475 38.7664C67.8591 38.4126 67.4742 38.2649 67.0225 38.2649C66.5731 38.2649 66.2216 38.4686 65.9391 38.8117C65.7663 39.0273 65.6435 39.2679 65.566 39.5312H68.4955Z" fill="#5C6266"/>
<path fill-rule="evenodd" clip-rule="evenodd" d="M71.6855 38.2778C72.1682 37.5213 73.0394 37.1604 73.8844 37.6393C73.9035 37.65 73.9225 37.6607 73.9416 37.6714V37.7358V38.2897V38.522C73.8808 38.4731 73.9297 38.5446 73.8689 38.4958C72.6616 37.8275 71.9322 38.79 71.6855 39.4392V42.7771H70.9478V42.6663V37.5833V37.4725H71.0586H71.3172H71.5747H71.6855V38.2778Z" fill="#5C6266"/>
<path fill-rule="evenodd" clip-rule="evenodd" d="M79.3416 36.2427H76.9794V35.578H82.4833V36.2427H80.1318V42.7314H79.3416V36.2427Z" fill="#5C6266"/>
<path fill-rule="evenodd" clip-rule="evenodd" d="M92.1489 36.3562V38.6934H95.1261V39.3891H92.1489V42.0074H95.6743V42.7031H91.3599V35.6605H95.5492V36.3562H92.1489Z" fill="#5C6266"/>
<path fill-rule="evenodd" clip-rule="evenodd" d="M97.8294 38.1609C98.2084 37.7308 98.6935 37.4723 99.3013 37.4723C99.8424 37.4723 100.317 37.6427 100.685 38.0298C100.805 38.1597 100.905 38.3038 100.985 38.4575L101.102 38.2871C101.493 37.7821 102.009 37.4723 102.674 37.4723C103.216 37.4723 103.691 37.6415 104.059 38.0286C104.44 38.4313 104.582 38.9411 104.582 39.4772V42.6423H103.815V39.5177C103.815 39.1639 103.725 38.8256 103.474 38.5588C103.237 38.3074 102.934 38.2038 102.582 38.2038C102.115 38.2038 101.748 38.4623 101.458 38.797C101.363 38.9006 101.28 39.015 101.206 39.1329V42.6423H100.438V39.5177C100.438 39.1639 100.35 38.8256 100.097 38.5588C99.8615 38.3074 99.5575 38.2038 99.2083 38.2038C98.7399 38.2038 98.3705 38.4635 98.0809 38.797C97.9867 38.9006 97.9033 39.015 97.8294 39.1329V42.6423H97.0619V37.5831H97.8294V38.1609Z" fill="#5C6266"/>
<path d="M109.363 38.4875C108.715 38.0694 107.792 38.173 107.028 39.1891V41.2476C107.821 42.0922 108.834 42.1744 109.493 41.6848C110.496 40.9426 110.441 39.1808 109.363 38.4875ZM106.237 37.5821H107.006C107.007 37.793 107.007 38.005 107.008 38.2159C107.158 37.9264 107.442 37.7513 107.739 37.6441C108.655 37.3141 109.767 37.4428 110.465 38.167C111.418 39.2654 111.37 41.0308 110.492 42.0148C109.574 43.0416 108.191 42.7903 107.095 42.2208C107.065 42.2054 107.036 42.1887 107.006 42.1744V44.645H106.237V37.5821Z" fill="#5C6266"/>
<path fill-rule="evenodd" clip-rule="evenodd" d="M43.4114 31.938H58.0208V32.7778H43.4114V31.938Z" fill="#5C6266"/>
<path fill-rule="evenodd" clip-rule="evenodd" d="M69.7924 31.938H136.274V32.7778H69.7924V31.938Z" fill="#5C6266"/>
<path fill-rule="evenodd" clip-rule="evenodd" d="M84.5824 42.687C83.8661 42.687 83.2333 42.4619 82.7303 41.9461C82.2202 41.4231 82.0093 40.7727 82.0093 40.0508C82.0093 39.3265 82.2202 38.6713 82.7303 38.1496C83.2321 37.6314 83.865 37.405 84.5824 37.405C85.2999 37.405 85.9316 37.6314 86.4345 38.1496C86.9434 38.6713 87.1556 39.3265 87.1556 40.0508C87.1556 40.7727 86.9434 41.4231 86.4345 41.9461C85.9316 42.4619 85.2987 42.687 84.5824 42.687ZM84.5824 41.9663C85.0925 41.9663 85.5156 41.7769 85.866 41.4076C86.2295 41.0276 86.4023 40.5761 86.4023 40.0508C86.4023 39.5243 86.2307 39.0668 85.866 38.6856C85.5156 38.3163 85.0925 38.1257 84.5824 38.1257C84.0723 38.1257 83.6492 38.3163 83.2976 38.6856C82.9341 39.0668 82.7625 39.5243 82.7625 40.0508C82.7625 40.5761 82.9341 41.0276 83.2976 41.4076C83.6492 41.7769 84.0723 41.9663 84.5824 41.9663Z" fill="#5C6266"/>
<path fill-rule="evenodd" clip-rule="evenodd" d="M114.688 42.687C113.971 42.687 113.338 42.4619 112.836 41.9461C112.325 41.4231 112.114 40.7727 112.114 40.0508C112.114 39.3265 112.325 38.6713 112.836 38.1496C113.337 37.6314 113.97 37.405 114.688 37.405C115.405 37.405 116.037 37.6314 116.54 38.1496C117.049 38.6713 117.261 39.3265 117.261 40.0508C117.261 40.7727 117.049 41.4231 116.54 41.9461C116.037 42.4619 115.404 42.687 114.688 42.687ZM114.688 41.9663C115.198 41.9663 115.621 41.7769 115.971 41.4076C116.335 41.0276 116.508 40.5761 116.508 40.0508C116.508 39.5243 116.336 39.0668 115.971 38.6856C115.621 38.3163 115.198 38.1257 114.688 38.1257C114.177 38.1257 113.754 38.3163 113.403 38.6856C113.039 39.0668 112.868 39.5243 112.868 40.0508C112.868 40.5761 113.039 41.0276 113.403 41.4076C113.754 41.7769 114.177 41.9663 114.688 41.9663Z" fill="#5C6266"/>
<path fill-rule="evenodd" clip-rule="evenodd" d="M120.327 41.5514L121.778 37.4821H122.25L123.713 41.5419L125.242 37.5572H125.974L123.914 42.8511H123.446L121.996 38.8783L120.549 42.8511H120.08L118.021 37.5572H118.798L120.327 41.5514Z" fill="#5C6266"/>
<path fill-rule="evenodd" clip-rule="evenodd" d="M127.324 40.1637C127.324 40.6891 127.51 41.1322 127.882 41.5015C128.256 41.8744 128.703 42.0566 129.23 42.0566C129.539 42.0566 129.844 42.009 130.135 41.9006C130.441 41.7874 130.722 41.6075 130.976 41.4026L131.156 41.2573V42.0781L131.117 42.1114C130.844 42.3378 130.541 42.5296 130.207 42.6534C129.887 42.7726 129.551 42.8262 129.209 42.8262C128.48 42.8262 127.831 42.6046 127.312 42.0864C126.794 41.567 126.572 40.919 126.572 40.19C126.572 39.4907 126.748 38.8284 127.21 38.2935C127.641 37.7896 128.199 37.5442 128.862 37.5442C129.521 37.5442 130.125 37.7348 130.561 38.2447C130.996 38.7402 131.136 39.4085 131.151 40.0506L131.154 40.1637H127.324ZM130.335 39.5312C130.278 39.2524 130.172 38.988 129.987 38.7664C129.698 38.4126 129.314 38.2649 128.862 38.2649C128.413 38.2649 128.061 38.4686 127.78 38.8117C127.606 39.0273 127.483 39.2679 127.405 39.5312H130.335Z" fill="#5C6266"/>
<path fill-rule="evenodd" clip-rule="evenodd" d="M133.525 38.2321C134.007 37.4757 134.879 37.1147 135.724 37.5936C135.743 37.6043 135.762 37.6151 135.78 37.6258V37.6901V38.244V38.4763C135.72 38.4275 135.769 38.499 135.708 38.4501C134.501 37.7818 133.772 38.7444 133.525 39.3924V42.7314H132.787V42.6207V37.5376V37.4268H132.898H133.157H133.414H133.525V38.2321Z" fill="#5C6266"/>
</svg>
